<?xml version="1.0" encoding="utf-8"?>
<!-- Generator: Adobe Illustrator 21.0.2, SVG Export Plug-In . SVG Version: 6.00 Build 0)  -->
<svg version="1.1" id="Layer_1" xmlns="http://www.w3.org/2000/svg" xmlns:xlink="http://www.w3.org/1999/xlink" x="0px" y="0px"
	 viewBox="0 0 450 450" style="enable-background:new 0 0 450 450;" xml:space="preserve">
<style type="text/css">
	.st0{fill:#45C9A8;stroke:#6AD4B9;stroke-width:2;stroke-linecap:round;stroke-linejoin:round;}
	.st1{fill:none;stroke:#6AD4B9;stroke-width:2;stroke-linecap:round;stroke-linejoin:round;}
</style>
<title>hki-palaute</title>
<path class="st0" d="M413.2,74.5c-1.5-6.1-6.6-10.5-12.8-11c-13.7-1.1-46.9-2.9-85.7-2.9c-40.4,0-78.5,3.8-95.3,4.9
	c-6.6,0.4-12.1,5.3-13.2,11.9c-7.3,41.3-7.2,83.6,0.1,124.9c1.1,6.2,6.2,11,12.4,11.8c14.1,1.7,46.4,2.4,89.7,2.4
	c7.4,0,14.6-0.1,21.4-0.2l34.2,45.2V215c16.6-0.9,29.3-2,36.5-2.9c6-0.7,11-5.2,12.3-11.1c4.7-21.6,7.1-43.6,7.1-65.6
	C419.9,107.4,416,86.1,413.2,74.5z"/>
<path class="st0" d="M221.8,126.5c0,0,27.8-3.8,81.4-4.8s87.1,0,87.1,0"/>
<path class="st0" d="M221.8,101.6c0,0,27.8-3.8,81.4-4.8s87.1,0,87.1,0"/>
<path class="st0" d="M221.8,155.2c0,0,27.8-3.8,81.4-4.8s87.1,0,87.1,0"/>
<path class="st0" d="M221.8,183.9c0,0,27.8-3.8,81.4-4.8s87.1,0,87.1,0"/>
<path class="st0" d="M217.2,236.6c-0.9-4.9-5-8.6-10-9c-12.7-0.9-41.6-3.7-72.2-3.7c-29.4,0-54.6,1.3-65,2.2
	c-4.7,0.4-8.6,3.7-9.7,8.3c-3.5,15.1-5.3,30.6-5.2,46.2c0,16.7,1.8,33.4,5.4,49.8c1,4.5,4.8,7.9,9.3,8.4c4.8,0.6,12.8,1.3,23.3,2
	v35.5l26-34.4c6.5,0.2,13.4,0.3,20.6,0.3c32.8,0,57.4-0.5,68-1.8c4.8-0.6,8.6-4.2,9.4-8.9c2.8-15.7,4.2-31.7,4.2-47.6
	C221.2,267.9,219.9,252.1,217.2,236.6z"/>
<path class="st0" d="M205.3,273.8c0,0-21.1-2.9-61.7-3.6s-66.1,0-66.1,0"/>
<path class="st0" d="M205.3,254.9c0,0-21.1-2.9-61.7-3.6s-66.1,0-66.1,0"/>
<path class="st0" d="M205.3,295.6c0,0-21.1-2.9-61.7-3.6s-66.1,0-66.1,0"/>
<path class="st0" d="M205.3,317.3c0,0-21.1-2.9-61.7-3.6s-66.1,0-66.1,0"/>
<path class="st1" d="M218.7,214.1h0.3l23.3-8.1"/>
<line class="st1" x1="215.2" y1="205.4" x2="208.5" y2="207.8"/>
<line class="st1" x1="243.3" y1="215.6" x2="270.8" y2="206.1"/>
<line class="st1" x1="242.3" y1="206" x2="219" y2="214.1"/>
<line class="st1" x1="298.4" y1="216.5" x2="336" y2="203.4"/>
<line class="st1" x1="301.9" y1="205.2" x2="270.3" y2="216.2"/>
<line class="st1" x1="270.3" y1="216.2" x2="301.9" y2="205.2"/>
<line class="st1" x1="270.8" y1="206.1" x2="243.3" y2="215.6"/>
<line class="st1" x1="409.1" y1="207.9" x2="395.2" y2="212.7"/>
<line class="st1" x1="364" y1="253.6" x2="359.3" y2="255.2"/>
<line class="st1" x1="347.3" y1="239.4" x2="364" y2="233.6"/>
<line class="st1" x1="364" y1="223.6" x2="341.3" y2="231.5"/>
<line class="st1" x1="364" y1="233.6" x2="347.3" y2="239.4"/>
<line class="st1" x1="353.3" y1="247.3" x2="364" y2="243.6"/>
<line class="st1" x1="364" y1="243.6" x2="353.3" y2="247.3"/>
<line class="st1" x1="359.3" y1="255.2" x2="364" y2="253.6"/>
<line class="st1" x1="418.5" y1="164.6" x2="398.4" y2="171.6"/>
<line class="st1" x1="396.7" y1="182.2" x2="417.4" y2="175"/>
<line class="st1" x1="415.8" y1="185.5" x2="392.3" y2="193.7"/>
<line class="st1" x1="335.3" y1="223.6" x2="413.9" y2="196.2"/>
<line class="st1" x1="372.7" y1="200.6" x2="327.5" y2="216.3"/>
<line class="st1" x1="402.9" y1="110.1" x2="418.3" y2="104.7"/>
<line class="st1" x1="417.1" y1="95.1" x2="402.8" y2="100.1"/>
<line class="st1" x1="402.7" y1="120.1" x2="419.2" y2="114.4"/>
<line class="st1" x1="418.3" y1="104.7" x2="402.9" y2="110.1"/>
<line class="st1" x1="402.5" y1="90.2" x2="415.5" y2="85.6"/>
<line class="st1" x1="413.6" y1="76.3" x2="401.9" y2="80.4"/>
<line class="st1" x1="401.2" y1="70.6" x2="409.4" y2="67.8"/>
<line class="st1" x1="401.9" y1="80.4" x2="413.6" y2="76.3"/>
<line class="st1" x1="409.4" y1="67.8" x2="401.2" y2="70.6"/>
<line class="st1" x1="402.3" y1="130.2" x2="419.7" y2="124.2"/>
<line class="st1" x1="419.2" y1="114.4" x2="402.7" y2="120.1"/>
<line class="st1" x1="402.8" y1="100.1" x2="417.1" y2="95.1"/>
<line class="st1" x1="415.5" y1="85.6" x2="402.5" y2="90.2"/>
<line class="st1" x1="401.7" y1="140.4" x2="419.9" y2="134.1"/>
<line class="st1" x1="419.7" y1="124.2" x2="402.3" y2="130.2"/>
<line class="st1" x1="392.3" y1="193.7" x2="415.8" y2="185.5"/>
<line class="st1" x1="417.4" y1="175" x2="396.7" y2="182.2"/>
<line class="st1" x1="399.8" y1="161.1" x2="419.4" y2="154.3"/>
<line class="st1" x1="419.8" y1="144.1" x2="400.9" y2="150.8"/>
<line class="st1" x1="400.9" y1="150.8" x2="419.8" y2="144.1"/>
<line class="st1" x1="419.9" y1="134.1" x2="401.7" y2="140.4"/>
</svg>
