<?xml version="1.0" encoding="utf-8"?>
<!-- Generator: Adobe Illustrator 21.0.2, SVG Export Plug-In . SVG Version: 6.00 Build 0)  -->
<svg version="1.1" id="Layer_1" xmlns="http://www.w3.org/2000/svg" xmlns:xlink="http://www.w3.org/1999/xlink" x="0px" y="0px"
	 viewBox="0 0 450 450" style="enable-background:new 0 0 450 450;" xml:space="preserve">
<style type="text/css">
	.st0{fill:#05C2DE;stroke:#45C9A8;stroke-miterlimit:10;}
	.st1{fill:#45C9A8;stroke:#6AD4B9;stroke-width:2;stroke-linecap:round;stroke-linejoin:round;}
	.st2{fill:none;stroke:#6AD4B9;stroke-width:2;stroke-linecap:round;stroke-linejoin:round;}
</style>
<title>hki-tietoaineisto</title>
<path class="st0" d="M330.9,356.9c0.9-0.5,2.1-0.2,2.6,0.8c0.5,0.9,0.2,2.1-0.8,2.6c-0.9,0.5-2.1,0.2-2.6-0.8
	c-0.2-0.3-0.3-0.7-0.2-1.1C329.9,357.8,330.3,357.2,330.9,356.9z M356.5,359.5c0.9-0.5,2.1-0.2,2.6,0.8c0.5,0.9,0.2,2.1-0.8,2.6
	c-0.9,0.5-2.1,0.2-2.6-0.8c-0.2-0.3-0.3-0.7-0.2-1.1C355.5,360.3,355.9,359.8,356.5,359.5L356.5,359.5z M382.1,362
	c0.9-0.5,2.1-0.2,2.6,0.8c0.5,0.9,0.2,2.1-0.8,2.6c-0.9,0.5-2.1,0.2-2.6-0.8c-0.2-0.3-0.3-0.7-0.2-1.1
	C381.1,362.9,381.5,362.3,382.1,362z M379.1,356.9c-0.1,1.1-1,1.8-2.1,1.7s-1.8-1-1.7-2.1s1-1.8,2.1-1.7c0,0,0,0,0,0
	C378.5,354.9,379.3,355.8,379.1,356.9C379.1,356.9,379.1,356.9,379.1,356.9L379.1,356.9z M376.1,367.5c1.1,0.1,1.8,1,1.7,2.1
	s-1,1.8-2.1,1.7s-1.8-1-1.7-2.1c0,0,0,0,0,0C374.2,368.2,375.1,367.5,376.1,367.5L376.1,367.5z M366.4,355.5c-0.1,1.1-1,1.8-2.1,1.7
	s-1.8-1-1.7-2.1s1-1.8,2.1-1.7c0,0,0,0,0,0C365.7,353.5,366.5,354.5,366.4,355.5C366.4,355.6,366.4,355.6,366.4,355.5L366.4,355.5z
	 M363.4,366.2c1.1,0.1,1.8,1,1.7,2.1s-1,1.8-2.1,1.7s-1.8-1-1.7-2.1c0,0,0,0,0,0C361.4,366.9,362.3,366.2,363.4,366.2L363.4,366.2z
	 M353.6,354.2c-0.1,1.1-1,1.8-2.1,1.7s-1.8-1-1.7-2.1s1-1.8,2.1-1.7c0,0,0,0,0,0C352.9,352.2,353.7,353.2,353.6,354.2
	c0,0,0,0.1,0,0.1L353.6,354.2z M350.6,364.9c1.1,0.1,1.8,1,1.7,2.1s-1,1.8-2.1,1.7s-1.8-1-1.7-2.1c0,0,0,0,0,0
	c0.2-1,1.1-1.7,2.1-1.6L350.6,364.9z M340.8,352.9c-0.1,1.1-1,1.8-2.1,1.7s-1.8-1-1.7-2.1s1-1.8,2.1-1.7c0,0,0,0,0,0
	C340.1,350.9,340.9,351.8,340.8,352.9c0,0,0,0.1,0,0.1L340.8,352.9z M337.8,363.6c1.1,0.1,1.8,1,1.7,2.1s-1,1.8-2.1,1.7
	s-1.8-1-1.7-2.1c0,0,0,0,0,0c0.2-1,1.1-1.7,2.1-1.6L337.8,363.6z M343.5,370.6c1.1,0.1,1.8,1,1.7,2.1s-1,1.8-2.1,1.7s-1.8-1-1.7-2.1
	c0,0,0,0,0,0c0.2-1,1.1-1.6,2.1-1.5L343.5,370.6z M342.7,359.5c0.1-1.1,1-1.8,2.1-1.7s1.8,1,1.7,2.1s-1,1.8-2.1,1.7c0,0,0,0,0,0
	c-1-0.1-1.8-0.9-1.8-1.9L342.7,359.5z M344,385.5c-0.1,1.1-1,1.8-2.1,1.7s-1.8-1-1.7-2.1s1-1.8,2.1-1.7c0,0,0,0,0,0
	C343.3,383.5,344.1,384.4,344,385.5c0,0,0,0.1,0,0.2L344,385.5z M329,386.1c-1.1-0.1-1.8-1-1.7-2.1c0.1-1.1,1-1.8,2.1-1.7
	c1.1,0.1,1.8,1,1.7,2.1c0,0.5-0.3,1-0.7,1.3C330,386,329.5,386.1,329,386.1z M333,391c0.1-1.1,1-1.8,2.1-1.7s1.8,1,1.7,2.1
	s-1,1.8-2.1,1.7c0,0,0,0,0,0C333.7,393,333,392,333,391L333,391z M336,380.4c-1.1-0.1-1.8-1-1.7-2.1s1-1.8,2.1-1.7s1.8,1,1.7,2.1
	c0,0,0,0,0,0C338,379.6,337.1,380.4,336,380.4L336,380.4z M332.4,372c-0.3,1-1.4,1.6-2.4,1.3c-1-0.3-1.6-1.4-1.3-2.4
	c0.3-1,1.4-1.6,2.4-1.3c0.9,0.3,1.4,1.1,1.3,2C332.4,371.7,332.4,371.9,332.4,372z M328,351.8c-0.1,1.1-1,1.8-2.1,1.7
	s-1.8-1-1.7-2.1s1-1.8,2.1-1.7c0,0,0,0,0,0C327.3,349.7,328.1,350.7,328,351.8z M325,362.4c1.1,0.1,1.8,1,1.7,2.1s-1,1.8-2.1,1.7
	s-1.8-1-1.7-2.1c0,0,0,0,0,0C323,363.1,323.9,362.3,325,362.4z M303.5,383.5c-1.1-0.1-1.8-1-1.7-2.1c0.1-1.1,1-1.8,2.1-1.7
	c1.1,0.1,1.8,1,1.7,2.1c0,0.5-0.3,1-0.7,1.3C304.5,383.4,304,383.6,303.5,383.5L303.5,383.5z M295.2,402.1c-1.1-0.1-1.8-1-1.7-2.1
	s1-1.8,2.1-1.7s1.8,1,1.7,2.1c0,0,0,0,0,0C297.2,401.4,296.3,402.2,295.2,402.1C295.2,402.1,295.2,402.1,295.2,402.1L295.2,402.1z
	 M296,413.2c-0.1,1.1-1,1.8-2.1,1.7s-1.8-1-1.7-2.1s1-1.8,2.1-1.7c0,0,0,0,0,0C295.3,411.2,296.1,412.1,296,413.2
	C296,413.2,296,413.2,296,413.2L296,413.2z M275.3,406.6c-1.1-0.1-1.8-1-1.7-2.1c0.1-1.1,1-1.8,2.1-1.7c1.1,0.1,1.8,1,1.7,2.1
	c0,0.5-0.3,1-0.7,1.3C276.3,406.5,275.8,406.6,275.3,406.6L275.3,406.6z M249.7,404c-1.1-0.1-1.9-1-1.8-2.1c0.1-1.1,1-1.9,2.1-1.8
	c1.1,0.1,1.9,1,1.8,2.1c0,0.1,0,0.3-0.1,0.4C251.4,403.5,250.6,404.1,249.7,404z M244,397c-1.1-0.1-1.8-1-1.7-2.1
	c0.1-1.1,1-1.8,2.1-1.7c1.1,0.1,1.8,1,1.7,2.1c0,0,0,0,0,0C246,396.3,245.1,397.1,244,397z M244.8,408.1c-0.1,1.1-1,1.8-2.1,1.7
	s-1.8-1-1.7-2.1c0.1-1.1,1-1.8,2.1-1.7c0,0,0,0,0,0C244.1,406.1,244.9,407,244.8,408.1L244.8,408.1z M233.3,394
	c-0.1,1.1-1,1.8-2.1,1.7s-1.8-1-1.7-2.1c0.1-1.1,1-1.8,2.1-1.7c0,0,0,0,0,0C232.6,392,233.4,392.9,233.3,394z M227.5,387
	c-0.1,1.1-1,1.8-2.1,1.7s-1.8-1-1.7-2.1c0.1-1.1,1-1.8,2.1-1.7c0,0,0,0,0,0C226.8,385,227.6,385.9,227.5,387L227.5,387z
	 M235.8,368.5c-0.1,1.1-1,1.8-2.1,1.7s-1.8-1-1.7-2.1c0.1-1.1,1-1.8,2.1-1.7c0,0,0,0,0,0C235.1,366.4,235.9,367.4,235.8,368.5
	L235.8,368.5z M232.8,379.1c1.1,0.1,1.8,1,1.7,2.1c-0.1,1.1-1,1.8-2.1,1.7c-1.1-0.1-1.8-1-1.7-2.1c0,0,0,0,0,0
	C230.8,379.8,231.7,379,232.8,379.1C232.8,379.1,232.8,379.1,232.8,379.1L232.8,379.1z M238.6,386.1c1.1,0.1,1.8,1,1.7,2.1
	c-0.1,1.1-1,1.8-2.1,1.7c-1.1-0.1-1.8-1-1.7-2.1c0,0,0,0,0,0C236.6,386.8,237.5,386,238.6,386.1
	C238.6,386.1,238.6,386.1,238.6,386.1L238.6,386.1z M237.8,375c0.1-1.1,1-1.8,2.1-1.7s1.8,1,1.7,2.1c-0.1,1.1-1,1.8-2.1,1.7
	c0,0,0,0,0,0C238.4,377,237.6,376.1,237.8,375z M254.4,376.3c0.1,1.1-0.7,2-1.7,2.1s-2-0.7-2.1-1.7s0.7-2,1.7-2.1c0.1,0,0.3,0,0.4,0
	C253.6,374.6,254.3,375.4,254.4,376.3L254.4,376.3z M248.6,369.6c-0.1,1.1-1,1.8-2.1,1.7s-1.8-1-1.7-2.1c0.1-1.1,1-1.8,2.1-1.7
	c0,0,0,0,0,0C248,367.6,248.7,368.5,248.6,369.6C248.6,369.6,248.6,369.6,248.6,369.6L248.6,369.6z M245.6,380.3
	c1.1,0.1,1.8,1,1.7,2.1c-0.1,1.1-1,1.8-2.1,1.7c-1.1-0.1-1.8-1-1.7-2.1c0,0,0,0,0,0C243.6,381,244.6,380.2,245.6,380.3L245.6,380.3z
	 M253.8,408.9c0.1-1.1,1-1.8,2.1-1.7c1.1,0.1,1.8,1,1.7,2.1s-1,1.8-2.1,1.7c0,0,0,0,0,0C254.4,410.9,253.7,410,253.8,408.9
	L253.8,408.9z M256.8,398.2c-1.1-0.1-1.8-1-1.7-2.1c0.1-1.1,1-1.8,2.1-1.7s1.8,1,1.7,2.1c0,0,0,0,0,0
	C258.8,397.6,257.8,398.3,256.8,398.2C256.8,398.3,256.8,398.3,256.8,398.2L256.8,398.2z M253,389.9c-0.3,1-1.4,1.6-2.4,1.3
	c-1-0.3-1.6-1.4-1.3-2.4c0.3-1,1.4-1.6,2.4-1.3c0.9,0.3,1.4,1.1,1.3,2.1C253.1,389.6,253,389.8,253,389.9z M261.4,370.9
	c-0.1,1.1-1,1.8-2.1,1.7s-1.8-1-1.7-2.1s1-1.8,2.1-1.7c0,0,0,0,0,0C260.7,368.9,261.5,369.9,261.4,370.9
	C261.4,370.9,261.4,370.9,261.4,370.9L261.4,370.9z M258.4,381.6c1.1,0.1,1.8,1,1.7,2.1s-1,1.8-2.1,1.7s-1.8-1-1.7-2.1c0,0,0,0,0,0
	C256.4,382.3,257.3,381.5,258.4,381.6C258.4,381.6,258.4,381.6,258.4,381.6L258.4,381.6z M266.5,410.2c0.1-1.1,1-1.8,2.1-1.7
	s1.8,1,1.7,2.1s-1,1.8-2.1,1.7c0,0,0,0,0,0C267.2,412.2,266.4,411.3,266.5,410.2L266.5,410.2z M269.5,399.5c-1.1-0.1-1.8-1-1.7-2.1
	s1-1.8,2.1-1.7s1.8,1,1.7,2.1c0,0,0,0,0,0C271.5,398.9,270.6,399.6,269.5,399.5L269.5,399.5z M263.8,392.5c-1.1-0.1-1.8-1-1.7-2.1
	s1-1.8,2.1-1.7s1.8,1,1.7,2.1c0,0,0,0,0,0C265.7,391.8,264.8,392.6,263.8,392.5L263.8,392.5z M264.6,403.6c-0.1,1.1-1,1.8-2.1,1.7
	s-1.8-1-1.7-2.1s1-1.8,2.1-1.7c0,0,0,0,0,0C263.9,401.6,264.7,402.5,264.6,403.6L264.6,403.6z M263.3,377.6c0.1-1.1,1-1.8,2.1-1.7
	s1.8,1,1.7,2.1s-1,1.8-2.1,1.7c0,0,0,0,0,0C264,379.6,263.2,378.7,263.3,377.6L263.3,377.6z M278.4,364.6c0.9-0.5,2.1-0.2,2.6,0.8
	c0.5,0.9,0.2,2.1-0.8,2.6c-0.9,0.5-2.1,0.2-2.6-0.8c-0.1-0.2-0.2-0.5-0.2-0.7C277.3,365.7,277.7,365,278.4,364.6z M284.9,375.3
	c-1.1-0.1-1.8-1.1-1.7-2.1c0.1-1.1,1.1-1.8,2.1-1.7c1,0.1,1.8,1,1.7,2.1C286.9,374.6,286,375.3,284.9,375.3L284.9,375.3z
	 M285.7,386.3c-0.1,1.1-1,1.8-2.1,1.7s-1.8-1-1.7-2.1s1-1.8,2.1-1.7c0,0,0,0,0,0C285,384.3,285.8,385.2,285.7,386.3L285.7,386.3z
	 M277.1,377.4c0.9-0.5,2.1-0.2,2.6,0.8c0.5,0.9,0.2,2.1-0.8,2.6c-0.9,0.5-2.1,0.2-2.6-0.8c-0.2-0.3-0.3-0.7-0.2-1.1
	C276.2,378.3,276.6,377.7,277.1,377.4L277.1,377.4z M274.2,372.3c-0.1,1.1-1,1.8-2.1,1.7s-1.8-1-1.7-2.1s1-1.8,2.1-1.7c0,0,0,0,0,0
	C273.5,370.2,274.3,371.2,274.2,372.3L274.2,372.3z M271.2,382.9c1.1,0.1,1.8,1,1.7,2.1s-1,1.8-2.1,1.7s-1.8-1-1.7-2.1c0,0,0,0,0,0
	C269.2,383.6,270.1,382.8,271.2,382.9C271.2,382.9,271.2,382.9,271.2,382.9L271.2,382.9z M279.3,411.5c0.1-1.1,1-1.8,2.1-1.7
	s1.8,1,1.7,2.1s-1,1.8-2.1,1.7c0,0,0,0,0,0C280,413.5,279.2,412.6,279.3,411.5C279.3,411.5,279.3,411.5,279.3,411.5L279.3,411.5z
	 M282.3,400.9c-1.1-0.1-1.8-1-1.7-2.1s1-1.8,2.1-1.7s1.8,1,1.7,2.1c0,0,0,0,0,0C284.3,400.2,283.4,400.9,282.3,400.9L282.3,400.9z
	 M278,393.4c-0.8,0.7-2,0.6-2.7-0.3c-0.7-0.8-0.6-2,0.3-2.7c0.8-0.7,2-0.6,2.7,0.3c0.3,0.4,0.5,0.9,0.4,1.4
	C278.6,392.6,278.4,393,278,393.4z M289.4,395.1c-1.1-0.1-1.8-1-1.7-2.1s1-1.8,2.1-1.7s1.8,1,1.7,2.1c0,0,0,0,0,0
	C291.4,394.4,290.4,395.2,289.4,395.1L289.4,395.1z M290.2,406.1c-0.1,1.1-1,1.8-2.1,1.7s-1.8-1-1.7-2.1s1-1.8,2.1-1.7c0,0,0,0,0,0
	C289.5,404.1,290.3,405.1,290.2,406.1L290.2,406.1z M288.9,380.1c0.1-1.1,1-1.8,2.1-1.7s1.8,1,1.7,2.1s-1,1.8-2.1,1.7c0,0,0,0,0,0
	C289.6,382.1,288.8,381.2,288.9,380.1L288.9,380.1z M299.8,374.8c-0.1,1.1-1,1.8-2.1,1.7s-1.8-1-1.7-2.1s1-1.8,2.1-1.7c0,0,0,0,0,0
	C299.1,372.8,299.9,373.7,299.8,374.8C299.8,374.8,299.8,374.8,299.8,374.8L299.8,374.8z M296.8,385.4c1.1,0.1,1.8,1,1.7,2.1
	s-1,1.8-2.1,1.7s-1.8-1-1.7-2.1c0,0,0,0,0,0C294.8,386.1,295.8,385.4,296.8,385.4L296.8,385.4z M307.5,388.4c0.1-1.1,1-1.8,2.1-1.7
	s1.8,1,1.7,2.1s-1,1.8-2.1,1.7c0,0,0,0,0,0C308.2,390.5,307.4,389.5,307.5,388.4L307.5,388.4z M310.5,377.8c-1.1-0.1-1.8-1-1.7-2.1
	s1-1.8,2.1-1.7s1.8,1,1.7,2.1c0,0,0,0,0,0C312.5,377.1,311.6,377.9,310.5,377.8C310.5,377.8,310.5,377.8,310.5,377.8L310.5,377.8z
	 M306.8,369.4c-0.3,1-1.4,1.6-2.4,1.3c-1-0.3-1.6-1.4-1.3-2.4c0.3-1,1.4-1.6,2.4-1.3c0.9,0.3,1.4,1.1,1.3,2
	C306.8,369.1,306.8,369.3,306.8,369.4L306.8,369.4z M312.1,361.1c1.1,0.1,1.8,1,1.7,2.1s-1,1.8-2.1,1.7s-1.8-1-1.7-2.1c0,0,0,0,0,0
	C310.2,361.8,311.1,361,312.1,361.1C312.2,361.1,312.2,361.1,312.1,361.1L312.1,361.1z M311.3,350.1c0.1-1.1,1-1.8,2.1-1.7
	s1.8,1,1.7,2.1s-1,1.8-2.1,1.7c0,0,0,0,0,0C312,352.1,311.2,351.1,311.3,350.1L311.3,350.1z M320.3,389.7c0.1-1.1,1-1.8,2.1-1.7
	s1.8,1,1.7,2.1s-1,1.8-2.1,1.7c0,0,0,0,0,0C321,391.8,320.2,390.8,320.3,389.7C320.3,389.8,320.3,389.8,320.3,389.7L320.3,389.7z
	 M323.3,379.1c-1.1-0.1-1.8-1-1.7-2.1s1-1.8,2.1-1.7s1.8,1,1.7,2.1c0,0,0,0,0,0C325.3,378.4,324.4,379.2,323.3,379.1
	C323.3,379.1,323.3,379.1,323.3,379.1L323.3,379.1z M319.6,370.7c-0.3,1-1.4,1.6-2.4,1.3c-1-0.3-1.6-1.4-1.3-2.4
	c0.3-1,1.4-1.6,2.4-1.3c0.9,0.3,1.4,1.1,1.3,2C319.7,370.4,319.6,370.6,319.6,370.7L319.6,370.7z M318.4,383.1
	c-0.1,1.1-1,1.8-2.1,1.7s-1.8-1-1.7-2.1s1-1.8,2.1-1.7c0,0,0,0,0,0C317.7,381.1,318.5,382.1,318.4,383.1L318.4,383.1z M318.9,359.2
	c-1.1-0.1-1.8-1-1.7-2.1s1-1.8,2.1-1.7s1.8,1,1.7,2.1c0,0,0,0,0,0C320.9,358.6,319.9,359.3,318.9,359.2
	C318.8,359.2,318.8,359.2,318.9,359.2L318.9,359.2z M305.3,354.3c0.9-0.5,2.1-0.2,2.6,0.8c0.5,0.9,0.2,2.1-0.8,2.6
	c-0.9,0.5-2.1,0.2-2.6-0.8c-0.2-0.3-0.3-0.7-0.2-1.1C304.4,355.2,304.7,354.6,305.3,354.3L305.3,354.3z M300.7,347.1
	c1.1,0.1,1.8,1,1.7,2.1s-1,1.8-2.1,1.7s-1.8-1-1.7-2.1c0,0,0,0,0,0C298.7,347.8,299.6,347,300.7,347.1L300.7,347.1z M299.4,359.9
	c1.1,0.1,1.8,1,1.7,2.1s-1,1.8-2.1,1.7s-1.8-1-1.7-2.1c0,0,0,0,0,0C297.4,360.6,298.3,359.8,299.4,359.9L299.4,359.9z M293.6,352.9
	c1.1,0.1,1.8,1,1.7,2.1s-1,1.8-2.1,1.7s-1.8-1-1.7-2.1c0,0,0,0,0,0C291.6,353.5,292.5,352.8,293.6,352.9L293.6,352.9z M292.4,365.7
	c1.1,0.1,1.8,1,1.7,2.1s-1,1.8-2.1,1.7s-1.8-1-1.7-2.1c0,0,0,0,0,0C290.3,366.3,291.3,365.5,292.4,365.7L292.4,365.7z M286.6,358.7
	c1.1,0.1,1.8,1,1.7,2.1s-1,1.8-2.1,1.7s-1.8-1-1.7-2.1c0,0,0,0,0,0C284.6,359.3,285.5,358.5,286.6,358.7
	C286.5,358.6,286.6,358.6,286.6,358.7L286.6,358.7z M279.7,351.8c0.9-0.5,2.1-0.2,2.6,0.8c0.5,0.9,0.2,2.1-0.8,2.6
	c-0.9,0.5-2.1,0.2-2.6-0.8c-0.2-0.3-0.3-0.7-0.2-1.1C278.8,352.7,279.1,352.1,279.7,351.8L279.7,351.8z M273.8,357.4
	c1.1,0.1,1.8,1,1.7,2.1s-1,1.8-2.1,1.7s-1.8-1-1.7-2.1c0,0,0,0,0,0C271.8,358.1,272.7,357.2,273.8,357.4
	C273.8,357.3,273.8,357.3,273.8,357.4L273.8,357.4z M266.8,363.1c1.1,0.1,1.8,1,1.7,2.1s-1,1.8-2.1,1.7s-1.8-1-1.7-2.1c0,0,0,0,0,0
	C264.8,363.8,265.7,363,266.8,363.1L266.8,363.1z M261,356c1.1,0.1,1.8,1,1.7,2.1s-1,1.8-2.1,1.7s-1.8-1-1.7-2.1c0,0,0,0,0,0
	C259,356.7,259.9,355.9,261,356z M255.7,363.5c0.1,1.1-0.7,2-1.7,2.1s-2-0.7-2.1-1.7s0.7-2,1.7-2.1c0.1,0,0.3,0,0.4,0
	C254.9,361.9,255.6,362.6,255.7,363.5L255.7,363.5z M241.2,360.5c1.1,0.1,1.8,1,1.7,2.1c-0.1,1.1-1,1.8-2.1,1.7
	c-1.1-0.1-1.8-1-1.7-2.1c0,0,0,0,0,0C239.2,361.2,240.1,360.4,241.2,360.5L241.2,360.5z M227.1,372c1.1,0.1,1.8,1.1,1.7,2.1
	c-0.1,1.1-1.1,1.8-2.1,1.7c-1.1-0.1-1.8-1.1-1.7-2.1c0.1-0.6,0.4-1.2,1-1.5C226.3,372,226.7,372,227.1,372z M221.3,365
	c1.1,0.1,1.8,1,1.7,2.1c-0.1,1.1-1,1.8-2.1,1.7c-1.1-0.1-1.8-1-1.7-2.1c0,0,0,0,0,0C219.3,365.7,220.2,364.9,221.3,365L221.3,365z
	 M220,377.8c1.1,0.1,1.8,1,1.7,2.1c-0.1,1.1-1,1.8-2.1,1.7c-1.1-0.1-1.8-1-1.7-2.1c0,0,0,0,0,0C218,378.5,218.9,377.7,220,377.8z
	 M214.2,370.8c1.1,0.1,1.8,1,1.7,2.1c-0.1,1.1-1,1.8-2.1,1.7c-1.1-0.1-1.8-1-1.7-2.1c0,0,0,0,0,0
	C212.2,371.5,213.1,370.7,214.2,370.8C214.2,370.7,214.2,370.7,214.2,370.8L214.2,370.8z M207.2,376.6c1.1,0.1,1.8,1,1.7,2.1
	c-0.1,1.1-1,1.8-2.1,1.7c-1.1-0.1-1.8-1-1.7-2.1c0,0,0,0,0,0C205.2,377.2,206.1,376.4,207.2,376.6
	C207.2,376.5,207.2,376.5,207.2,376.6L207.2,376.6z M194.4,375.3c1.1,0.1,1.8,1,1.7,2.1c-0.1,1.1-1,1.8-2.1,1.7
	c-1.1-0.1-1.8-1-1.7-2.1c0,0,0,0,0,0C192.4,375.9,193.3,375.1,194.4,375.3C194.4,375.2,194.4,375.2,194.4,375.3L194.4,375.3z
	 M180,390.6c-1.1-0.1-1.8-1-1.7-2.1c0.1-1.1,1-1.8,2.1-1.7c1.1,0.1,1.8,1,1.7,2.1c0,0,0,0,0,0C182,389.9,181.1,390.7,180,390.6z
	 M185.8,397.6c-1.1-0.1-1.8-1-1.7-2.1c0.1-1.1,1-1.8,2.1-1.7c1.1,0.1,1.8,1,1.7,2.1c0,0,0,0,0,0
	C187.8,396.9,186.9,397.7,185.8,397.6C185.8,397.6,185.8,397.6,185.8,397.6L185.8,397.6z M187,384.8c-1.1-0.1-1.8-1-1.7-2.1
	c0.1-1.1,1-1.8,2.1-1.7c1.1,0.1,1.8,1,1.7,2.1c0,0,0,0,0,0C189.1,384.1,188.1,384.9,187,384.8C187.1,384.8,187,384.8,187,384.8
	L187,384.8z M192.8,391.8c-1.1-0.1-1.8-1-1.7-2.1c0.1-1.1,1-1.8,2.1-1.7c1.1,0.1,1.8,1,1.7,2.1c0,0,0,0,0,0
	C194.9,391.1,193.9,391.9,192.8,391.8C192.8,391.9,192.8,391.9,192.8,391.8L192.8,391.8z M200.6,397.5c-0.3,1-1.4,1.6-2.4,1.3
	c-1-0.3-1.6-1.4-1.3-2.4c0.3-1,1.4-1.6,2.4-1.3c0.9,0.3,1.4,1.1,1.3,2.1C200.7,397.3,200.6,397.4,200.6,397.5L200.6,397.5z
	 M201.9,384.7c-0.3,1-1.4,1.6-2.4,1.3c-1-0.3-1.6-1.4-1.3-2.4c0.3-1,1.4-1.6,2.4-1.3c0.9,0.3,1.4,1.1,1.3,2.1
	C201.9,384.5,201.9,384.6,201.9,384.7L201.9,384.7z M205.6,393.1c-1.1-0.1-1.8-1-1.7-2.1c0.1-1.1,1-1.8,2.1-1.7
	c1.1,0.1,1.8,1,1.7,2.1c0,0,0,0,0,0C207.7,392.4,206.7,393.2,205.6,393.1C205.6,393.2,205.6,393.2,205.6,393.1L205.6,393.1z
	 M211.4,400.1c-1.1-0.1-1.8-1-1.7-2.1c0.1-1.1,1-1.8,2.1-1.7c1.1,0.1,1.8,1,1.7,2.1c0,0,0,0,0,0c0,1.1-0.9,1.9-2,1.9
	c0,0-0.1,0-0.1,0L211.4,400.1z M212.6,387.3c-1.1-0.1-1.8-1-1.7-2.1c0.1-1.1,1-1.8,2.1-1.7c1.1,0.1,1.8,1,1.7,2.1c0,0,0,0,0,0
	c0,1.1-0.9,1.9-2,1.9c-0.1,0-0.1,0-0.2,0L212.6,387.3z M217.1,407.1c-1.1-0.1-1.8-1-1.7-2.1c0.1-1.1,1-1.8,2.1-1.7
	c1.1,0.1,1.8,1,1.7,2.1c0,0,0,0,0,0c0,1.1-0.9,1.9-2,1.9c-0.1,0-0.1,0-0.2,0L217.1,407.1z M218.4,394.3c-1.1-0.1-1.8-1-1.7-2.1
	c0.1-1.1,1-1.8,2.1-1.7c1.1,0.1,1.8,1,1.7,2.1c0,0,0,0,0,0c0,1.1-0.9,1.9-2,1.9c-0.1,0-0.1,0-0.2,0L218.4,394.3z M223.1,400.9
	c-0.8-0.7-0.9-1.9-0.2-2.7c0.7-0.8,1.9-0.9,2.7-0.2s0.9,1.9,0.2,2.7c-0.4,0.5-1.1,0.8-1.7,0.7c-0.4,0-0.7-0.1-1-0.3L223.1,400.9z
	 M228.2,406.3c0.1-1.1,1-1.8,2.1-1.7s1.8,1,1.7,2.1c-0.1,1.1-1,1.8-2.1,1.7c0,0,0,0,0,0c-1-0.1-1.8-0.9-1.8-2L228.2,406.3z
	 M237,402.6c-1.1-0.1-1.9-1-1.8-2.1s1-1.9,2.1-1.8c1.1,0.1,1.9,1,1.8,2.1c0,0.1,0,0.1,0,0.2c-0.1,1.1-1,1.8-2.1,1.7L237,402.6z
	 M250.5,415.3c-0.3,1-1.4,1.6-2.4,1.3c-1-0.3-1.6-1.4-1.3-2.4c0.3-1,1.4-1.6,2.4-1.3c0.9,0.3,1.4,1.1,1.3,2.1c0,0.2-0.1,0.4-0.1,0.5
	L250.5,415.3z M261.3,418c-1.1-0.1-1.8-1-1.7-2.1s1-1.8,2.1-1.7s1.8,1,1.7,2.1c0,0,0,0,0,0c0,1.1-0.9,1.9-2,1.9c-0.1,0-0.1,0-0.2,0
	L261.3,418z M275.5,418.8c-0.8,0.7-2,0.6-2.7-0.3c-0.7-0.8-0.6-2,0.3-2.7c0.8-0.7,2-0.6,2.7,0.3c0.3,0.4,0.5,0.9,0.4,1.4
	c0,0.6-0.3,1.1-0.7,1.4L275.5,418.8z M286.9,420.5c-1.1-0.1-1.8-1-1.7-2.1s1-1.8,2.1-1.7s1.8,1,1.7,2.1c0,0,0,0,0,0
	c0,1.1-0.9,1.9-2,1.9c-0.1,0-0.1,0-0.2,0L286.9,420.5z M302.3,408.6c-0.8,0.7-2,0.6-2.7-0.3c-0.7-0.8-0.6-2,0.3-2.7
	c0.8-0.7,2-0.6,2.7,0.3c0.3,0.4,0.5,0.9,0.4,1.4c0,0.6-0.3,1.1-0.7,1.4L302.3,408.6z M303.6,395.8c-0.8,0.7-2,0.6-2.7-0.3
	c-0.7-0.8-0.6-2,0.3-2.7c0.8-0.7,2-0.6,2.7,0.3c0.3,0.4,0.5,0.9,0.4,1.4c0,0.6-0.3,1.1-0.7,1.4L303.6,395.8z M308,403.2
	c-1.1-0.1-1.8-1-1.7-2.1s1-1.8,2.1-1.7s1.8,1,1.7,2.1c0,0,0,0,0,0c0,1.1-0.9,1.9-2,1.9c-0.1,0-0.1,0-0.2,0L308,403.2z M313.7,410.2
	c-1.1-0.1-1.8-1-1.7-2.1s1-1.8,2.1-1.7s1.8,1,1.7,2.1c0,0,0,0,0,0c0,1.1-0.9,1.9-1.9,1.9c-0.1,0-0.2,0-0.2,0L313.7,410.2z
	 M315,397.4c-1.1-0.1-1.8-1-1.7-2.1s1-1.8,2.1-1.7s1.8,1,1.7,2.1c0,0,0,0,0,0c0,1.1-0.9,1.9-1.9,1.9c-0.1,0-0.1,0-0.2,0L315,397.4z
	 M320.8,404.4c-1.1-0.1-1.8-1-1.7-2.1s1-1.8,2.1-1.7s1.8,1,1.7,2.1c0,0,0,0,0,0c0,1.1-0.8,1.9-1.9,2c-0.1,0-0.2,0-0.3,0L320.8,404.4
	z M329.2,398.3c-0.8,0.7-2,0.6-2.7-0.3c-0.7-0.8-0.6-2,0.3-2.7c0.8-0.7,2-0.6,2.7,0.3c0.3,0.4,0.5,0.9,0.4,1.4
	c0,0.6-0.3,1.2-0.8,1.5L329.2,398.3z M340.6,400c-1.1-0.1-1.8-1-1.7-2.1s1-1.8,2.1-1.7s1.8,1,1.7,2.1c0,0,0,0,0,0
	c0,1.1-0.8,1.9-1.9,2c-0.1,0-0.2,0-0.3,0L340.6,400z M347.6,394.2c-1.1-0.1-1.8-1-1.7-2.1s1-1.8,2.1-1.7s1.8,1,1.7,2.1c0,0,0,0,0,0
	c0,1.1-0.8,1.9-1.9,2c-0.1,0-0.1,0-0.2,0L347.6,394.2z M348.9,381.4c-1.1-0.1-1.8-1.1-1.7-2.1c0.1-1.1,1.1-1.8,2.1-1.7
	c1.1,0.1,1.8,1.1,1.7,2.1c0,0.1,0,0.1,0,0.2c-0.1,1.1-1.1,1.8-2.1,1.7c0,0,0,0,0,0L348.9,381.4z M356.3,387.8
	c-0.7,0.8-1.9,0.9-2.7,0.2s-0.9-1.9-0.2-2.7c0.7-0.8,1.9-0.9,2.7-0.2c0.5,0.4,0.8,1.1,0.7,1.7c0,0.5-0.2,0.9-0.5,1.2L356.3,387.8z
	 M358,374.5c-0.3,1-1.4,1.6-2.4,1.3c-1-0.3-1.6-1.4-1.3-2.4c0.3-1,1.4-1.6,2.4-1.3c0.9,0.3,1.4,1.1,1.3,2
	C358.1,374.3,358,374.4,358,374.5z M361.7,382.9c-1.1-0.1-1.8-1-1.7-2.1s1-1.8,2.1-1.7s1.8,1,1.7,2.1c0,0,0,0,0,0
	C363.7,382.2,362.8,383,361.7,382.9C361.7,382.9,361.7,382.9,361.7,382.9L361.7,382.9z M370.8,375.8c-0.3,1-1.4,1.6-2.4,1.3
	c-1-0.3-1.6-1.4-1.3-2.4c0.3-1,1.4-1.6,2.4-1.3c0.9,0.3,1.4,1.1,1.3,2C370.9,375.6,370.8,375.7,370.8,375.8L370.8,375.8z
	 M368.3,362.2c0.1-1.1,1-1.8,2.1-1.7s1.8,1,1.7,2.1s-1,1.8-2.1,1.7c0,0,0,0,0,0C369,364.3,368.2,363.3,368.3,362.2
	C368.3,362.3,368.3,362.3,368.3,362.2L368.3,362.2z M374.5,384.2c-1.1-0.1-1.8-1-1.7-2.1s1-1.8,2.1-1.7s1.8,1,1.7,2.1c0,0,0,0,0,0
	C376.5,383.5,375.6,384.3,374.5,384.2C374.5,384.2,374.5,384.2,374.5,384.2L374.5,384.2z M380.5,378c-0.8-0.7-0.9-1.9-0.2-2.7
	s1.9-0.9,2.7-0.2c0.8,0.7,0.9,1.9,0.2,2.7c-0.4,0.5-1.1,0.8-1.7,0.7C381.1,378.4,380.8,378.2,380.5,378L380.5,378z M388.6,372.7
	c-1.1-0.1-1.8-1-1.7-2.1s1-1.8,2.1-1.7s1.8,1,1.7,2.1c0,0,0,0,0,0C390.6,372,389.7,372.8,388.6,372.7
	C388.6,372.7,388.6,372.7,388.6,372.7L388.6,372.7z M389.9,359.9c-1.1-0.1-1.8-1-1.7-2.1s1-1.8,2.1-1.7s1.8,1,1.7,2.1c0,0,0,0,0,0
	C391.9,359.2,391,360,389.9,359.9C389.9,359.9,389.9,359.9,389.9,359.9L389.9,359.9z M395.6,366.9c-1.1-0.1-1.8-1-1.7-2.1
	s1-1.8,2.1-1.7s1.8,1,1.7,2.1c0,0,0,0,0,0C397.7,366.2,396.8,367,395.6,366.9C395.7,366.9,395.6,366.9,395.6,366.9L395.6,366.9z
	 M402.6,361.1c-1.1-0.1-1.8-1-1.7-2.1s1-1.8,2.1-1.7s1.8,1,1.7,2.1c0,0,0,0,0,0C404.7,360.4,403.8,361.2,402.6,361.1
	C402.7,361.2,402.6,361.2,402.6,361.1L402.6,361.1z M409,351.7c0.9-0.5,2.1-0.2,2.6,0.8c0.5,0.9,0.2,2.1-0.8,2.6
	c-0.9,0.5-2.1,0.2-2.6-0.8c-0.2-0.3-0.3-0.7-0.2-1.1C408,352.6,408.4,352.1,409,351.7L409,351.7z M404.3,344.5
	c1.1,0.1,1.8,1,1.7,2.1s-1,1.8-2.1,1.7s-1.8-1-1.7-2.1c0,0,0,0,0,0C402.3,345.2,403.3,344.4,404.3,344.5L404.3,344.5z M397.3,350.2
	c1.1,0.1,1.8,1,1.7,2.1s-1,1.8-2.1,1.7s-1.8-1-1.7-2.1c0,0,0,0,0,0C395.3,350.9,396.2,350.2,397.3,350.2L397.3,350.2z M391.5,343.2
	c1.1,0.1,1.8,1,1.7,2.1s-1,1.8-2.1,1.7s-1.8-1-1.7-2.1c0,0,0,0,0,0C389.5,343.9,390.5,343.2,391.5,343.2L391.5,343.2z M383.4,349.2
	c0.9-0.5,2.1-0.2,2.6,0.8c0.5,0.9,0.2,2.1-0.8,2.6c-0.9,0.5-2.1,0.2-2.6-0.8c-0.2-0.3-0.3-0.7-0.2-1.1
	C382.5,350.1,382.8,349.5,383.4,349.2L383.4,349.2z M378.7,342c1.1,0.1,1.8,1,1.7,2.1s-1,1.8-2.1,1.7s-1.8-1-1.7-2.1c0,0,0,0,0,0
	C376.7,342.7,377.6,341.9,378.7,342z M371.7,347.8c1.1,0.1,1.8,1,1.7,2.1s-1,1.8-2.1,1.7s-1.8-1-1.7-2.1c0,0,0,0,0,0
	C369.7,348.4,370.6,347.6,371.7,347.8C371.7,347.7,371.7,347.7,371.7,347.8L371.7,347.8z M365.9,340.8c1.1,0.1,1.8,1,1.7,2.1
	s-1,1.8-2.1,1.7s-1.8-1-1.7-2.1c0,0,0,0,0,0C363.9,341.4,364.8,340.6,365.9,340.8C365.9,340.7,365.9,340.7,365.9,340.8L365.9,340.8z
	 M357.8,346.8c0.9-0.5,2.1-0.2,2.6,0.8c0.5,0.9,0.2,2.1-0.8,2.6c-0.9,0.5-2.1,0.2-2.6-0.8c-0.2-0.3-0.3-0.7-0.2-1.1
	c0-0.7,0.4-1.3,1-1.6L357.8,346.8z M346.1,345.3c1.1,0.1,1.8,1,1.7,2.1s-1,1.8-2.1,1.7s-1.8-1-1.7-2.1c0,0,0,0,0,0
	c0.1-1.1,1-1.9,2-1.8c0,0,0,0,0,0L346.1,345.3z M332.2,344.2c0.9-0.5,2.1-0.2,2.6,0.8c0.5,0.9,0.2,2.1-0.8,2.6
	c-0.9,0.5-2.1,0.2-2.6-0.8c-0.2-0.3-0.3-0.7-0.2-1.1c0-0.7,0.4-1.3,1-1.6L332.2,344.2z M320.5,342.7c1.1,0.1,1.8,1,1.7,2.1
	s-1,1.8-2.1,1.7s-1.8-1-1.7-2.1c0,0,0,0,0,0c0.1-1.1,1-1.9,2-1.8c0,0,0,0,0,0L320.5,342.7z"/>
<path class="st0" d="M415,347.5c-0.1,1.1,0.7,2,1.7,2.1c1.1,0.1,2-0.7,2.1-1.7c0.1-0.7-0.3-1.4-0.8-1.8l-0.7-0.3h-0.2
	C416.1,345.7,415.1,346.5,415,347.5z"/>
<path class="st0" d="M409.9,353.5l1.9,0.2c0.1-1.1-0.7-2-1.7-2.1L409.9,353.5z"/>
<path class="st0" d="M409.7,355.4c1.1,0.1,2-0.7,2.1-1.7l-1.9-0.2L409.7,355.4z"/>
<path class="st0" d="M407.9,353.3l1.9,0.2l0.2-1.9C409,351.4,408,352.2,407.9,353.3L407.9,353.3z"/>
<path class="st0" d="M397.2,350.3c-1.1-0.1-2,0.7-2.1,1.7l3.8,0.4C399.1,351.3,398.3,350.4,397.2,350.3z"/>
<ellipse transform="matrix(9.949340e-02 -0.995 0.995 9.949340e-02 8.9274 700.188)" class="st0" cx="391.3" cy="345.2" rx="1.9" ry="1.9"/>
<ellipse transform="matrix(9.949340e-02 -0.995 0.995 9.949340e-02 19.1661 714.0831)" class="st0" cx="404.1" cy="346.5" rx="1.9" ry="1.9"/>
<path class="st0" d="M384.3,350.9l1.9,0.2c0.1-1.1-0.7-2-1.7-2.1L384.3,350.9z"/>
<ellipse transform="matrix(9.949340e-02 -0.995 0.995 9.949340e-02 -6.7695 722.5156)" class="st0" cx="395.8" cy="365" rx="1.9" ry="1.9"/>
<ellipse transform="matrix(9.949340e-02 -0.995 0.995 9.949340e-02 -18.8377 720.6968)" class="st0" cx="388.8" cy="370.8" rx="1.9" ry="1.9"/>
<ellipse transform="matrix(9.949340e-02 -0.995 0.995 9.949340e-02 -4.9596 710.4374)" class="st0" cx="390" cy="358" rx="1.9" ry="1.9"/>
<ellipse transform="matrix(9.949340e-02 -0.995 0.995 9.949340e-02 5.279 724.3325)" class="st0" cx="402.8" cy="359.2" rx="1.9" ry="1.9"/>
<path class="st0" d="M381.7,376.5l1.9,0.2c0.1-1.1-0.7-2-1.7-2.1L381.7,376.5z"/>
<path class="st0" d="M384.9,363.9c0.1-1.1-0.7-2-1.7-2.1l-0.4,3.8C383.9,365.7,384.8,365,384.9,363.9z"/>
<path class="st0" d="M409.9,353.5l-1.9-0.2c-0.1,1.1,0.7,2,1.7,2.1L409.9,353.5z"/>
<path class="st0" d="M396.9,354.1c1.1,0.1,2-0.7,2.1-1.7l-3.8-0.4C395,353.1,395.8,354,396.9,354.1z"/>
<path class="st0" d="M384.1,352.8c1.1,0.1,2-0.7,2.1-1.7l-1.9-0.2L384.1,352.8z"/>
<path class="st0" d="M383.5,377.1c0-0.1,0.1-0.3,0.1-0.4l-1.9-0.2l-0.2,1.9C382.4,378.5,383.3,378,383.5,377.1z"/>
<path class="st0" d="M382.3,350.7l1.9,0.2l0.2-1.9C383.4,348.9,382.4,349.7,382.3,350.7L382.3,350.7z"/>
<path class="st0" d="M371.7,347.7c-1.1-0.1-2,0.7-2.1,1.7l3.8,0.4C373.5,348.8,372.7,347.8,371.7,347.7z"/>
<ellipse transform="matrix(9.949340e-02 -0.995 0.995 9.949340e-02 -11.5705 672.4149)" class="st0" cx="365.7" cy="342.6" rx="1.9" ry="1.9"/>
<ellipse transform="matrix(9.949340e-02 -0.995 0.995 9.949340e-02 -1.3319 686.3099)" class="st0" cx="378.5" cy="343.9" rx="1.9" ry="1.9"/>
<path class="st0" d="M358.7,348.4l1.9,0.2c0.1-1.1-0.7-2-1.7-2.1L358.7,348.4z"/>
<path class="st0" d="M381.9,374.6c-1.1-0.1-2,0.7-2.1,1.7l1.9,0.2L381.9,374.6z"/>
<path class="st0" d="M369.1,373.3c-1-0.1-2,0.7-2.1,1.7l3.8,0.4C370.9,374.3,370.1,373.4,369.1,373.3z"/>
<path class="st0" d="M381.8,365.2c0.3,0.2,0.6,0.4,1,0.4l0.4-3.8c-1.1-0.1-2,0.7-2.1,1.7C381,364.2,381.2,364.8,381.8,365.2
	L381.8,365.2z"/>
<ellipse transform="matrix(9.949340e-02 -0.995 0.995 9.949340e-02 -27.2765 694.7325)" class="st0" cx="370.2" cy="362.4" rx="1.9" ry="1.9"/>
<ellipse transform="matrix(9.949340e-02 -0.995 0.995 9.949340e-02 -39.3357 692.9236)" class="st0" cx="363.2" cy="368.2" rx="1.9" ry="1.9"/>
<ellipse transform="matrix(9.949340e-02 -0.995 0.995 9.949340e-02 -29.0971 706.8187)" class="st0" cx="376" cy="369.5" rx="1.9" ry="1.9"/>
<ellipse transform="matrix(9.949340e-02 -0.995 0.995 9.949340e-02 -25.4576 682.6642)" class="st0" cx="364.4" cy="355.4" rx="1.9" ry="1.9"/>
<ellipse transform="matrix(9.949340e-02 -0.995 0.995 9.949340e-02 -15.219 696.5593)" class="st0" cx="377.2" cy="356.7" rx="1.9" ry="1.9"/>
<path class="st0" d="M356.3,372l-0.2,1.9l1.9,0.2C358.1,373,357.4,372.1,356.3,372z"/>
<path class="st0" d="M358.9,362.4c0.7-0.8,0.6-2-0.3-2.7c-0.3-0.2-0.7-0.4-1-0.4l-0.4,3.8C357.8,363.1,358.5,362.9,358.9,362.4z"/>
<path class="st0" d="M384.3,350.9l-1.9-0.2c-0.1,1.1,0.7,2,1.7,2.1L384.3,350.9z"/>
<path class="st0" d="M371.3,351.5c1.1,0.1,2-0.7,2.1-1.7l-3.8-0.4C369.4,350.5,370.2,351.4,371.3,351.5z"/>
<path class="st0" d="M358.5,350.3c1.1,0.1,2-0.7,2.1-1.7l-1.9-0.2L358.5,350.3z"/>
<path class="st0" d="M367.8,386.1c-1.1-0.1-2,0.6-2.1,1.7c-0.1,0.5,0.1,1,0.4,1.4l1.3-0.7l2-1.1
	C369.2,386.7,368.6,386.2,367.8,386.1z"/>
<path class="st0" d="M358.9,392.9l2-1h-0.1C360,391.8,359.3,392.2,358.9,392.9z"/>
<ellipse transform="matrix(9.949340e-02 -0.995 0.995 9.949340e-02 -53.2407 703.1713)" class="st0" cx="361.9" cy="381" rx="1.9" ry="1.9"/>
<ellipse transform="matrix(9.949340e-02 -0.995 0.995 9.949340e-02 -42.9922 717.0573)" class="st0" cx="374.7" cy="382.3" rx="1.9" ry="1.9"/>
<path class="st0" d="M355,384.8l-0.4,3.8c1.1,0.1,2-0.7,2.1-1.8C356.8,385.9,356,384.9,355,384.8z"/>
<path class="st0" d="M381.7,376.5l-1.9-0.2c-0.1,0.6,0.2,1.3,0.7,1.7c0.3,0.2,0.6,0.4,1,0.4L381.7,376.5z"/>
<path class="st0" d="M367,375.4c0.1,1.1,1.1,1.8,2.1,1.7c0.9-0.1,1.6-0.8,1.7-1.7L367,375C367,375.1,367,375.3,367,375.4z"/>
<path class="st0" d="M355.9,375.9c1.1,0.1,2-0.7,2.1-1.7l-1.9-0.2L355.9,375.9z"/>
<path class="st0" d="M356.8,348.2l1.9,0.2l0.2-1.9C357.8,346.3,356.9,347.1,356.8,348.2L356.8,348.2z"/>
<path class="st0" d="M346.1,345.2c-1.1-0.1-2,0.7-2.1,1.7l3.8,0.4C347.9,346.2,347.1,345.3,346.1,345.2z"/>
<path class="st0" d="M339.9,342c1.1,0.1,2-0.7,2.1-1.7c0-0.3,0-0.6-0.1-0.9l-3.6-0.1c-0.1,0.2-0.1,0.4-0.1,0.5
	C338.1,340.9,338.9,341.9,339.9,342z"/>
<path class="st0" d="M351,341.1c-0.1,1.1,0.7,2,1.7,2.1s2-0.7,2.1-1.7c0.1-0.7-0.3-1.5-0.9-1.8l-2-0.1
	C351.4,339.9,351.1,340.5,351,341.1z"/>
<path class="st0" d="M333.1,345.8l1.9,0.2c0.1-1.1-0.7-2-1.7-2.1L333.1,345.8z"/>
<path class="st0" d="M356.3,372c-1.1-0.1-2,0.7-2.1,1.7l1.9,0.2L356.3,372z"/>
<path class="st0" d="M343.5,370.8c-1.1-0.1-2,0.7-2.1,1.7l3.8,0.4C345.3,371.8,344.6,370.9,343.5,370.8z"/>
<path class="st0" d="M356.2,362.6c0.3,0.2,0.6,0.4,1,0.4l0.4-3.8c-1.1-0.1-2,0.7-2.1,1.7C355.4,361.6,355.6,362.2,356.2,362.6
	L356.2,362.6z"/>
<ellipse transform="matrix(9.949340e-02 -0.995 0.995 9.949340e-02 -47.7853 666.9673)" class="st0" cx="344.6" cy="359.9" rx="1.9" ry="1.9"/>
<ellipse transform="matrix(9.949340e-02 -0.995 0.995 9.949340e-02 -59.8437 665.1595)" class="st0" cx="337.6" cy="365.6" rx="1.9" ry="1.9"/>
<ellipse transform="matrix(9.949340e-02 -0.995 0.995 9.949340e-02 -49.5951 679.0456)" class="st0" cx="350.4" cy="366.9" rx="1.9" ry="1.9"/>
<ellipse transform="matrix(9.949340e-02 -0.995 0.995 9.949340e-02 -45.9656 654.9001)" class="st0" cx="338.8" cy="352.8" rx="1.9" ry="1.9"/>
<ellipse transform="matrix(9.949340e-02 -0.995 0.995 9.949340e-02 -35.7171 668.7862)" class="st0" cx="351.6" cy="354.1" rx="1.9" ry="1.9"/>
<path class="st0" d="M330.7,369.5l-0.2,1.9l1.9,0.2C332.5,370.5,331.8,369.6,330.7,369.5L330.7,369.5z"/>
<path class="st0" d="M333,360.1c0.8-0.7,0.9-1.9,0.3-2.7c-0.3-0.4-0.8-0.6-1.3-0.7l-0.4,3.8C332.1,360.6,332.6,360.4,333,360.1z"/>
<path class="st0" d="M358.7,348.4l-1.9-0.2c-0.1,1.1,0.7,2,1.7,2.1L358.7,348.4z"/>
<path class="st0" d="M345.7,349c1.1,0.1,2-0.7,2.1-1.7l-3.8-0.4C343.8,348,344.6,348.9,345.7,349z"/>
<path class="st0" d="M332.9,347.7c1.1,0.1,2-0.7,2.1-1.7l-1.9-0.2L332.9,347.7z"/>
<path class="st0" d="M341,396.3c-1.1-0.1-2,0.7-2.1,1.7l3.8,0.4C342.8,397.4,342,396.4,341,396.3z"/>
<path class="st0" d="M353.9,385c-0.9,0.5-1.3,1.7-0.8,2.6c0.3,0.6,0.9,0.9,1.5,1l0.4-3.8C354.6,384.7,354.3,384.8,353.9,385z"/>
<ellipse transform="matrix(9.949340e-02 -0.995 0.995 9.949340e-02 -75.5387 687.4673)" class="st0" cx="342" cy="385.5" rx="1.9" ry="1.9"/>
<ellipse transform="matrix(9.949340e-02 -0.995 0.995 9.949340e-02 -87.6169 685.6575)" class="st0" cx="335" cy="391.2" rx="1.9" ry="1.9"/>
<ellipse transform="matrix(9.949340e-02 -0.995 0.995 9.949340e-02 -77.3683 699.5436)" class="st0" cx="347.8" cy="392.5" rx="1.9" ry="1.9"/>
<ellipse transform="matrix(9.949340e-02 -0.995 0.995 9.949340e-02 -73.7308 675.4089)" class="st0" cx="336.3" cy="378.4" rx="1.9" ry="1.9"/>
<ellipse transform="matrix(9.949340e-02 -0.995 0.995 9.949340e-02 -63.4902 689.2842)" class="st0" cx="349.1" cy="379.7" rx="1.9" ry="1.9"/>
<path class="st0" d="M328.1,395.1L328,397l1.9,0.2C330,396.1,329.3,395.2,328.1,395.1L328.1,395.1z"/>
<path class="st0" d="M330.7,383c-0.3-0.4-0.8-0.6-1.3-0.7l-0.4,3.8c1.1,0.1,2-0.7,2.1-1.7C331.2,383.9,331,383.4,330.7,383
	L330.7,383z"/>
<path class="st0" d="M356.1,374l-1.9-0.2c-0.1,0.6,0.2,1.3,0.7,1.7c0.3,0.2,0.6,0.4,1,0.4L356.1,374z"/>
<path class="st0" d="M343.1,374.6c1.1,0.1,2-0.7,2.1-1.7l-3.8-0.4C341.3,373.5,342.1,374.5,343.1,374.6L343.1,374.6z"/>
<path class="st0" d="M330.3,373.3c1.1,0.1,2-0.7,2.1-1.7l-1.9-0.2L330.3,373.3z"/>
<path class="st0" d="M333.9,402.1c-1.1-0.1-2,0.6-2.1,1.7c-0.1,0.6,0.2,1.2,0.6,1.7l3.2-1.5C335.6,403,334.9,402.2,333.9,402.1z"/>
<path class="st0" d="M326.9,407.9L326.9,407.9L326.9,407.9z"/>
<path class="st0" d="M340.6,400.2c1.1,0.1,2-0.7,2.1-1.7l-3.8-0.4C338.7,399.1,339.5,400.1,340.6,400.2z"/>
<path class="st0" d="M327.8,398.9c1.1,0.1,2-0.7,2.1-1.7L328,397L327.8,398.9z"/>
<path class="st0" d="M331.2,345.6l1.9,0.2l0.2-1.9C332.2,343.8,331.3,344.5,331.2,345.6L331.2,345.6z"/>
<path class="st0" d="M320.5,342.6c-1.1-0.1-2,0.7-2.1,1.7l3.8,0.4C322.3,343.6,321.5,342.7,320.5,342.6z"/>
<path class="st0" d="M328.8,339.9l-2.4,0.5C327.3,340.9,328.3,340.7,328.8,339.9z"/>
<path class="st0" d="M330.7,369.5c-1.1-0.1-2,0.7-2.1,1.7l1.9,0.2L330.7,369.5z"/>
<path class="st0" d="M317.9,368.2c-1.1-0.1-2,0.7-2.1,1.7l3.8,0.4C319.7,369.2,319,368.3,317.9,368.2z"/>
<path class="st0" d="M330.6,360.1c0.3,0.2,0.6,0.4,1,0.4l0.4-3.8c-1.1-0.1-2,0.7-2.1,1.7C329.8,359,330,359.7,330.6,360.1
	L330.6,360.1z"/>
<ellipse transform="matrix(9.949340e-02 -0.995 0.995 9.949340e-02 -68.2932 639.2032)" class="st0" cx="319" cy="357.3" rx="1.9" ry="1.9"/>
<ellipse transform="matrix(9.949340e-02 -0.995 0.995 9.949340e-02 -80.3525 637.3943)" class="st0" cx="312" cy="363.1" rx="1.9" ry="1.9"/>
<ellipse transform="matrix(9.949340e-02 -0.995 0.995 9.949340e-02 -70.0931 651.2724)" class="st0" cx="324.8" cy="364.4" rx="1.9" ry="1.9"/>
<ellipse transform="matrix(9.949340e-02 -0.995 0.995 9.949340e-02 -66.4664 627.1458)" class="st0" cx="313.3" cy="350.3" rx="1.9" ry="1.9"/>
<ellipse transform="matrix(9.949340e-02 -0.995 0.995 9.949340e-02 -56.215 641.013)" class="st0" cx="326" cy="351.6" rx="1.9" ry="1.9"/>
<path class="st0" d="M305.1,366.9l-0.2,1.9l1.9,0.2C307,368,306.2,367,305.1,366.9L305.1,366.9z"/>
<path class="st0" d="M307.4,357.5c0.8-0.7,0.9-1.9,0.3-2.7c-0.3-0.4-0.8-0.6-1.3-0.7L306,358C306.5,358,307,357.9,307.4,357.5z"/>
<path class="st0" d="M333.1,345.8l-1.9-0.2c-0.1,1.1,0.7,2,1.7,2.1L333.1,345.8z"/>
<path class="st0" d="M320.1,346.4c1.1,0.1,2-0.7,2.1-1.7l-3.8-0.4C318.3,345.4,319,346.3,320.1,346.4z"/>
<path class="st0" d="M307.3,345.2c0.9,0.1,1.7-0.4,2-1.3l-1.9,0.4L307.3,345.2z"/>
<path class="st0" d="M328.1,395.1c-1.1-0.1-2,0.7-2.1,1.7l2,0.2L328.1,395.1z"/>
<path class="st0" d="M315.4,393.8c-1.1-0.1-2,0.7-2.1,1.7l3.8,0.4C317.2,394.8,316.4,393.9,315.4,393.8z"/>
<path class="st0" d="M328.3,382.5c-0.9,0.5-1.3,1.7-0.8,2.6c0.3,0.6,0.9,0.9,1.5,1l0.4-3.8C329,382.2,328.7,382.3,328.3,382.5z"/>
<ellipse transform="matrix(9.949340e-02 -0.995 0.995 9.949340e-02 -96.0584 659.712)" class="st0" cx="316.5" cy="382.9" rx="1.9" ry="1.9"/>
<ellipse transform="matrix(9.949340e-02 -0.995 0.995 9.949340e-02 -108.1148 657.8843)" class="st0" cx="309.4" cy="388.7" rx="1.9" ry="1.9"/>
<ellipse transform="matrix(9.949340e-02 -0.995 0.995 9.949340e-02 -97.8663 671.7704)" class="st0" cx="322.2" cy="390" rx="1.9" ry="1.9"/>
<ellipse transform="matrix(9.949340e-02 -0.995 0.995 9.949340e-02 -94.2288 647.6357)" class="st0" cx="310.7" cy="375.9" rx="1.9" ry="1.9"/>
<ellipse transform="matrix(9.949340e-02 -0.995 0.995 9.949340e-02 -83.9802 661.5219)" class="st0" cx="323.5" cy="377.2" rx="1.9" ry="1.9"/>
<path class="st0" d="M302.6,392.5l-0.2,1.9l1.9,0.2C304.4,393.5,303.6,392.6,302.6,392.5L302.6,392.5z"/>
<path class="st0" d="M305.1,380.4c-0.3-0.4-0.8-0.6-1.3-0.7l-0.4,3.8c1.1,0.1,2-0.7,2.1-1.7C305.6,381.3,305.5,380.8,305.1,380.4
	L305.1,380.4z"/>
<path class="st0" d="M330.5,371.4l-1.9-0.2c-0.1,0.6,0.2,1.3,0.7,1.7c0.3,0.2,0.6,0.4,1,0.4L330.5,371.4z"/>
<path class="st0" d="M315.8,370.3c0.1,1.1,1.1,1.8,2.1,1.7c0.9-0.1,1.6-0.8,1.7-1.7l-3.8-0.4C315.8,370.1,315.8,370.2,315.8,370.3z"
	/>
<path class="st0" d="M304.7,370.8c1.1,0.1,2-0.7,2.1-1.7l-1.9-0.2L304.7,370.8z"/>
<path class="st0" d="M325.8,408.1c-0.3,0.1-0.5,0.4-0.7,0.6l1.8-0.8v-0.1C326.5,407.8,326.1,407.9,325.8,408.1z"/>
<ellipse transform="matrix(9.949340e-02 -0.995 0.995 9.949340e-02 -123.8118 680.212)" class="st0" cx="313.9" cy="408.5" rx="1.9" ry="1.9"/>
<path class="st0" d="M308.8,414.5c0.1-1.1-0.6-2.1-1.7-2.2c-1.1-0.1-2.1,0.6-2.2,1.7c-0.1,1.1,0.6,2.1,1.7,2.2c0.3,0,0.5,0,0.8-0.1
	l0.5-0.2C308.3,415.6,308.7,415.1,308.8,414.5z"/>
<ellipse transform="matrix(9.949340e-02 -0.995 0.995 9.949340e-02 -122.0019 668.1338)" class="st0" cx="308.1" cy="401.5" rx="1.9" ry="1.9"/>
<ellipse transform="matrix(9.949340e-02 -0.995 0.995 9.949340e-02 -111.7633 682.0288)" class="st0" cx="320.9" cy="402.8" rx="1.9" ry="1.9"/>
<path class="st0" d="M300,418.1l-0.1,0.9l1.2-0.4C300.8,418.3,300.4,418.1,300,418.1z"/>
<path class="st0" d="M301.3,405.3l-0.4,3.8c1.1,0.1,2-0.7,2.1-1.8C303,406.3,302.3,405.4,301.3,405.3z"/>
<path class="st0" d="M328,397l-1.9-0.2c-0.1,1.1,0.7,2,1.7,2.1L328,397z"/>
<path class="st0" d="M315,397.6c1.1,0.1,2-0.7,2.1-1.7l-3.8-0.4C313.2,396.6,313.9,397.5,315,397.6z"/>
<path class="st0" d="M302.2,396.3c1.1,0.1,2-0.7,2.1-1.7l-1.9-0.2L302.2,396.3z"/>
<path class="st0" d="M305.1,366.9c-1.1-0.1-2,0.7-2.1,1.7l1.9,0.2L305.1,366.9z"/>
<path class="st0" d="M292.3,365.6c-1.1-0.1-2,0.7-2.1,1.7l3.8,0.4C294.2,366.7,293.4,365.7,292.3,365.6z"/>
<path class="st0" d="M305,357.5c0.3,0.2,0.6,0.4,1,0.4l0.4-3.8c-1.1-0.1-2,0.7-2.1,1.7C304.2,356.5,304.5,357.1,305,357.5L305,357.5
	z"/>
<ellipse transform="matrix(9.949340e-02 -0.995 0.995 9.949340e-02 -88.7832 611.4409)" class="st0" cx="293.4" cy="354.8" rx="1.9" ry="1.9"/>
<ellipse transform="matrix(9.949340e-02 -0.995 0.995 9.949340e-02 -100.8595 609.6112)" class="st0" cx="286.4" cy="360.5" rx="1.9" ry="1.9"/>
<ellipse transform="matrix(9.949340e-02 -0.995 0.995 9.949340e-02 -90.5911 623.4993)" class="st0" cx="299.2" cy="361.8" rx="1.9" ry="1.9"/>
<path class="st0" d="M287.5,349.6c1,0.1,2-0.6,2.1-1.7c0-0.2,0-0.3,0-0.5l-3.8,0.7C286,349,286.6,349.6,287.5,349.6z"/>
<ellipse transform="matrix(9.949340e-02 -0.995 0.995 9.949340e-02 -76.705 613.2507)" class="st0" cx="300.5" cy="349" rx="1.9" ry="1.9"/>
<path class="st0" d="M279.3,366.3l1.9,0.2c0.1-1.1-0.7-2-1.7-2.1L279.3,366.3z"/>
<path class="st0" d="M281.8,355c0.8-0.7,0.9-1.9,0.3-2.7c-0.3-0.4-0.8-0.6-1.3-0.7l-0.4,3.8C281,355.5,281.5,355.3,281.8,355z"/>
<path class="st0" d="M307.3,345.2l0.1-0.9l-1.4,0.2C306.3,344.9,306.8,345.1,307.3,345.2z"/>
<path class="st0" d="M302.6,392.5c-1.1-0.1-2,0.7-2.1,1.7l1.9,0.2L302.6,392.5z"/>
<path class="st0" d="M289.8,391.2c-1.1-0.1-2,0.7-2.1,1.7l3.8,0.4C291.6,392.3,290.8,391.3,289.8,391.2z"/>
<path class="st0" d="M302.7,379.9c-0.9,0.5-1.3,1.7-0.8,2.6c0.3,0.6,0.9,0.9,1.5,1l0.4-3.8C303.4,379.7,303.1,379.7,302.7,379.9z"/>
<ellipse transform="matrix(9.950372e-02 -0.995 0.995 9.950372e-02 -113.4827 632.8331)" class="st0" cx="292.9" cy="379.1" rx="1.9" ry="1.9"/>
<ellipse transform="matrix(9.949340e-02 -0.995 0.995 9.949340e-02 -128.6157 630.1299)" class="st0" cx="283.8" cy="386.1" rx="1.9" ry="1.9"/>
<ellipse transform="matrix(9.949340e-02 -0.995 0.995 9.949340e-02 -118.3742 644.0063)" class="st0" cx="296.6" cy="387.4" rx="1.9" ry="1.9"/>
<ellipse transform="matrix(9.949340e-02 -0.995 0.995 9.949340e-02 -114.7376 619.8706)" class="st0" cx="285.1" cy="373.3" rx="1.9" ry="1.9"/>
<ellipse transform="matrix(9.949340e-02 -0.995 0.995 9.949340e-02 -104.4881 633.7577)" class="st0" cx="297.9" cy="374.6" rx="1.9" ry="1.9"/>
<path class="st0" d="M277,389.9l-0.2,1.9l1.9,0.2C278.8,391,278.1,390,277,389.9L277,389.9z"/>
<path class="st0" d="M279.3,380.6c0.8-0.7,0.9-1.9,0.3-2.7c-0.3-0.4-0.8-0.6-1.3-0.7l-0.4,3.8C278.4,381,278.9,380.9,279.3,380.6z"
	/>
<path class="st0" d="M304.9,368.8l-1.9-0.2c-0.1,0.6,0.2,1.3,0.7,1.7c0.3,0.2,0.6,0.4,1,0.4L304.9,368.8z"/>
<path class="st0" d="M291.9,369.5c1.1,0.1,2-0.7,2.1-1.7l-3.8-0.4C290.1,368.4,290.9,369.4,291.9,369.5L291.9,369.5z"/>
<path class="st0" d="M279.1,368.2c1.1,0.1,2-0.7,2.1-1.7l-1.9-0.2L279.1,368.2z"/>
<path class="st0" d="M300,418.1c-1-0.1-2,0.6-2.1,1.6l2-0.8L300,418.1z"/>
<path class="st0" d="M287.2,416.8c-1.1-0.1-2,0.7-2.1,1.7l3.8,0.4C289,417.9,288.3,416.9,287.2,416.8z"/>
<path class="st0" d="M300.2,405.5c-0.9,0.5-1.3,1.7-0.8,2.6c0.3,0.6,0.9,0.9,1.5,1l0.4-3.8C300.9,405.3,300.5,405.3,300.2,405.5z"/>
<ellipse transform="matrix(9.949340e-02 -0.995 0.995 9.949340e-02 -144.3295 652.4368)" class="st0" cx="288.3" cy="406" rx="1.9" ry="1.9"/>
<ellipse transform="matrix(9.949340e-02 -0.995 0.995 9.949340e-02 -156.378 650.62)" class="st0" cx="281.3" cy="411.7" rx="1.9" ry="1.9"/>
<ellipse transform="matrix(9.949340e-02 -0.995 0.995 9.949340e-02 -146.1394 664.5151)" class="st0" cx="294.1" cy="413" rx="1.9" ry="1.9"/>
<ellipse transform="matrix(9.949340e-02 -0.995 0.995 9.949340e-02 -142.4999 640.3606)" class="st0" cx="282.5" cy="398.9" rx="1.9" ry="1.9"/>
<ellipse transform="matrix(9.949340e-02 -0.995 0.995 9.949340e-02 -132.2613 654.2557)" class="st0" cx="295.3" cy="400.2" rx="1.9" ry="1.9"/>
<path class="st0" d="M274.4,415.5l-0.2,1.9l1.9,0.2C276.2,416.6,275.5,415.6,274.4,415.5L274.4,415.5z"/>
<path class="st0" d="M277,403.4c-0.3-0.4-0.8-0.6-1.3-0.7l-0.4,3.8c1.1,0.1,2-0.7,2.1-1.7C277.5,404.3,277.3,403.8,277,403.4
	L277,403.4z"/>
<path class="st0" d="M302.4,394.4l-1.9-0.2c-0.1,1.1,0.7,2,1.7,2.1L302.4,394.4z"/>
<path class="st0" d="M287.6,393c-0.1,1.1,0.6,2,1.7,2.2c1.1,0.1,2-0.6,2.2-1.7c0,0,0-0.1,0-0.1L287.6,393z"/>
<path class="st0" d="M276.6,393.8c1.1,0.1,2-0.7,2.1-1.7l-1.9-0.2L276.6,393.8z"/>
<path class="st0" d="M280.2,422.6c-1.1-0.1-2,0.7-2.1,1.7c0,0.1,0,0.2,0,0.2c1,0.2,2,0.2,3,0.2c0.2,0,0.5,0,0.8-0.1
	C282,423.6,281.2,422.7,280.2,422.6z"/>
<path class="st0" d="M286.8,420.7c1.1,0.1,2-0.7,2.1-1.7l-3.8-0.4C285,419.6,285.8,420.6,286.8,420.7z"/>
<path class="st0" d="M274,419.4c1.1,0.1,2-0.7,2.1-1.7l-1.9-0.2L274,419.4z"/>
<path class="st0" d="M279.5,364.4c-1.1-0.1-2,0.7-2.1,1.7l1.9,0.2L279.5,364.4z"/>
<path class="st0" d="M266.7,363.1c-1.1-0.1-2,0.7-2.1,1.7l3.8,0.4C268.6,364.1,267.8,363.2,266.7,363.1z"/>
<path class="st0" d="M279.4,355c0.3,0.2,0.6,0.4,1,0.4l0.4-3.8c-1.1-0.1-2,0.7-2.1,1.7C278.6,354,278.9,354.6,279.4,355L279.4,355z"
	/>
<path class="st0" d="M267.6,354.1c1.1,0.1,2-0.6,2.1-1.7c0.1-0.5-0.1-0.9-0.3-1.3l-3.5,0.7c0,0.1,0,0.1,0,0.2
	C265.8,353,266.6,354,267.6,354.1z"/>
<ellipse transform="matrix(9.949340e-02 -0.995 0.995 9.949340e-02 -121.3496 581.8489)" class="st0" cx="260.8" cy="358" rx="1.9" ry="1.9"/>
<ellipse transform="matrix(9.949340e-02 -0.995 0.995 9.949340e-02 -111.1081 595.7252)" class="st0" cx="273.6" cy="359.2" rx="1.9" ry="1.9"/>
<path class="st0" d="M253.7,363.7l1.9,0.2c0.1-1.1-0.7-2-1.7-2.1L253.7,363.7z"/>
<path class="st0" d="M277,389.9c-1.1-0.1-2,0.7-2.1,1.7l1.9,0.2L277,389.9z"/>
<path class="st0" d="M264.2,388.7c-1.1-0.1-2,0.7-2.1,1.7l3.8,0.4C266,389.7,265.2,388.8,264.2,388.7z"/>
<path class="st0" d="M276.8,380.5c0.3,0.2,0.6,0.4,1,0.4l0.4-3.8c-1.1-0.1-2,0.7-2.1,1.7C276,379.5,276.3,380.1,276.8,380.5
	L276.8,380.5z"/>
<ellipse transform="matrix(9.949340e-02 -0.995 0.995 9.949340e-02 -137.0544 604.1657)" class="st0" cx="265.3" cy="377.8" rx="1.9" ry="1.9"/>
<ellipse transform="matrix(9.949340e-02 -0.995 0.995 9.949340e-02 -149.1137 602.3568)" class="st0" cx="258.2" cy="383.6" rx="1.9" ry="1.9"/>
<ellipse transform="matrix(9.949340e-02 -0.995 0.995 9.949340e-02 -138.8643 616.2439)" class="st0" cx="271" cy="384.8" rx="1.9" ry="1.9"/>
<ellipse transform="matrix(9.949340e-02 -0.995 0.995 9.949340e-02 -135.2356 592.0975)" class="st0" cx="259.5" cy="370.8" rx="1.9" ry="1.9"/>
<ellipse transform="matrix(9.949340e-02 -0.995 0.995 9.949340e-02 -124.9862 605.9845)" class="st0" cx="272.3" cy="372" rx="1.9" ry="1.9"/>
<path class="st0" d="M251.4,387.4l-0.2,1.9l1.9,0.2C253.2,388.4,252.4,387.5,251.4,387.4L251.4,387.4z"/>
<path class="st0" d="M254.3,377.1c0.3-1-0.3-2.1-1.3-2.4c-0.1,0-0.2-0.1-0.4-0.1l-0.4,3.8C253.2,378.5,254,378,254.3,377.1z"/>
<path class="st0" d="M278.1,367.8c0.3,0.2,0.6,0.4,1,0.4l0.2-1.9l-1.9-0.2C277.3,366.7,277.6,367.4,278.1,367.8L278.1,367.8z"/>
<path class="st0" d="M266.4,366.9c1.1,0.1,2-0.7,2.1-1.7l-3.8-0.4C264.5,365.9,265.3,366.8,266.4,366.9L266.4,366.9z"/>
<path class="st0" d="M253.6,365.6c1.1,0.1,2-0.7,2.1-1.7l-1.9-0.2L253.6,365.6z"/>
<path class="st0" d="M274.4,415.5c-1.1-0.1-2,0.7-2.1,1.7l1.9,0.2L274.4,415.5z"/>
<path class="st0" d="M261.6,414.3c-1.1-0.1-2,0.7-2.1,1.7c0,0,0,0,0,0l3.8,0.4C263.5,415.3,262.7,414.4,261.6,414.3
	C261.6,414.3,261.6,414.3,261.6,414.3z"/>
<path class="st0" d="M274.6,403c-0.9,0.5-1.3,1.7-0.8,2.6c0.3,0.6,0.9,0.9,1.5,1l0.4-3.8C275.3,402.7,274.9,402.8,274.6,403z"/>
<ellipse transform="matrix(9.949340e-02 -0.995 0.995 9.949340e-02 -164.8275 624.6637)" class="st0" cx="262.7" cy="403.4" rx="1.9" ry="1.9"/>
<ellipse transform="matrix(9.949340e-02 -0.995 0.995 9.949340e-02 -176.876 622.8469)" class="st0" cx="255.7" cy="409.1" rx="1.9" ry="1.9"/>
<ellipse transform="matrix(9.949340e-02 -0.995 0.995 9.949340e-02 -166.6374 636.7419)" class="st0" cx="268.5" cy="410.4" rx="1.9" ry="1.9"/>
<ellipse transform="matrix(9.949340e-02 -0.995 0.995 9.949340e-02 -163.0088 612.5955)" class="st0" cx="256.9" cy="396.4" rx="1.9" ry="1.9"/>
<ellipse transform="matrix(9.949340e-02 -0.995 0.995 9.949340e-02 -152.7593 626.4825)" class="st0" cx="269.7" cy="397.6" rx="1.9" ry="1.9"/>
<path class="st0" d="M248.8,413l-0.2,1.9l1.9,0.2C250.7,414,249.9,413.1,248.8,413L248.8,413z"/>
<path class="st0" d="M251.8,401.9c-0.1-0.9-0.8-1.6-1.7-1.7l-0.4,3.8c1.1,0.1,2-0.7,2.1-1.7C251.8,402.2,251.8,402,251.8,401.9z"/>
<path class="st0" d="M276.8,391.9l-1.9-0.2c-0.1,1.1,0.7,2,1.7,2.1L276.8,391.9z"/>
<path class="st0" d="M263.8,392.5c1.1,0.1,2-0.7,2.1-1.7l-3.8-0.4C262,391.5,262.7,392.4,263.8,392.5z"/>
<path class="st0" d="M251,391.2c1.1,0.1,2-0.7,2.1-1.7l-1.9-0.2L251,391.2z"/>
<path class="st0" d="M267.4,421.3c-0.7-0.1-1.4,0.3-1.8,0.9l3.5,0.8C269,422.1,268.3,421.4,267.4,421.3z"/>
<path class="st0" d="M274.2,417.5l-1.9-0.2c-0.1,1.1,0.7,2,1.7,2.1L274.2,417.5z"/>
<path class="st0" d="M261.2,418.1c1.1,0.1,2-0.7,2.1-1.7l-3.8-0.4C259.4,417.1,260.2,418,261.2,418.1z"/>
<path class="st0" d="M248.4,416.8c1.1,0.1,2-0.7,2.1-1.7l-1.9-0.2L248.4,416.8z"/>
<path class="st0" d="M251.8,363.5l1.9,0.2l0.2-1.9C252.9,361.7,251.9,362.5,251.8,363.5z"/>
<path class="st0" d="M241.1,360.5c-1.1-0.1-2,0.7-2.1,1.7l3.8,0.4C243,361.6,242.2,360.6,241.1,360.5z"/>
<path class="st0" d="M247.8,358.6c1.1,0.1,2-0.6,2.1-1.7c0.1-0.6-0.2-1.2-0.6-1.7l-3.1,0.7c-0.1,0.2-0.1,0.4-0.1,0.5
	C245.9,357.5,246.7,358.5,247.8,358.6C247.8,358.6,247.8,358.6,247.8,358.6z"/>
<path class="st0" d="M230.1,361.4c0-0.5-0.1-0.9-0.4-1.3l-1.5,0.4l-0.1,0.7L230.1,361.4z"/>
<path class="st0" d="M251.4,387.4c-1.1-0.1-2,0.7-2.1,1.7l1.9,0.2L251.4,387.4z"/>
<path class="st0" d="M238.6,386.1c-1.1-0.1-2,0.7-2.1,1.7l3.8,0.4C240.4,387.2,239.6,386.2,238.6,386.1z"/>
<path class="st0" d="M250.6,376.3c-0.1,1.1,0.7,2,1.7,2.1l0.4-3.8C251.6,374.5,250.7,375.3,250.6,376.3z"/>
<ellipse transform="matrix(9.949340e-02 -0.995 0.995 9.949340e-02 -157.5524 576.3926)" class="st0" cx="239.7" cy="375.2" rx="1.9" ry="1.9"/>
<ellipse transform="matrix(9.949340e-02 -0.995 0.995 9.949340e-02 -169.6207 574.5737)" class="st0" cx="232.6" cy="381" rx="1.9" ry="1.9"/>
<ellipse transform="matrix(9.949340e-02 -0.995 0.995 9.949340e-02 -159.3713 588.4608)" class="st0" cx="245.4" cy="382.3" rx="1.9" ry="1.9"/>
<ellipse transform="matrix(9.949340e-02 -0.995 0.995 9.949340e-02 -155.7336 564.3243)" class="st0" cx="233.9" cy="368.2" rx="1.9" ry="1.9"/>
<ellipse transform="matrix(9.949340e-02 -0.995 0.995 9.949340e-02 -145.4842 578.2114)" class="st0" cx="246.7" cy="369.5" rx="1.9" ry="1.9"/>
<path class="st0" d="M225.8,384.8l-0.2,1.9l1.9,0.2C227.6,385.9,226.9,384.9,225.8,384.8z"/>
<path class="st0" d="M228.8,374.1c0.1-1.1-0.7-2-1.7-2.1l-0.4,3.8C227.7,376,228.7,375.2,228.8,374.1z"/>
<path class="st0" d="M253.7,363.7l-1.9-0.2c-0.1,1.1,0.7,2,1.7,2.1L253.7,363.7z"/>
<path class="st0" d="M240.8,364.4c1.1,0.1,2-0.7,2.1-1.7l-3.8-0.4C238.9,363.3,239.7,364.3,240.8,364.4L240.8,364.4z"/>
<path class="st0" d="M228,363.1c1.1,0.1,2-0.7,2.1-1.7l-1.9-0.2L228,363.1z"/>
<path class="st0" d="M248.8,413c-1.1-0.1-2,0.7-2.1,1.7l1.9,0.2L248.8,413z"/>
<path class="st0" d="M236,411.7c-1.1-0.1-2,0.7-2.1,1.7l3.8,0.4C237.8,412.7,237.1,411.8,236,411.7z"/>
<path class="st0" d="M248,401.9c-0.1,1.1,0.7,2,1.7,2.1l0.4-3.8C249,400.1,248.1,400.8,248,401.9z"/>
<ellipse transform="matrix(9.949340e-02 -0.995 0.995 9.949340e-02 -185.3256 596.8906)" class="st0" cx="237.1" cy="400.8" rx="1.9" ry="1.9"/>
<ellipse transform="matrix(9.949340e-02 -0.995 0.995 9.949340e-02 -197.3948 595.0907)" class="st0" cx="230.1" cy="406.6" rx="1.9" ry="1.9"/>
<ellipse transform="matrix(9.949340e-02 -0.995 0.995 9.949340e-02 -187.1354 608.9688)" class="st0" cx="242.9" cy="407.9" rx="1.9" ry="1.9"/>
<ellipse transform="matrix(9.949340e-02 -0.995 0.995 9.949340e-02 -183.5087 584.8421)" class="st0" cx="231.4" cy="393.8" rx="1.9" ry="1.9"/>
<ellipse transform="matrix(9.949340e-02 -0.995 0.995 9.949340e-02 -173.2494 598.7202)" class="st0" cx="244.2" cy="395.1" rx="1.9" ry="1.9"/>
<path class="st0" d="M223.2,410.4l-0.1,1l1.8,0.5C224.7,411.1,224.1,410.5,223.2,410.4z"/>
<path class="st0" d="M226.2,399.7c0.1-1.1-0.7-2-1.7-2.1l-0.4,3.8C225.2,401.6,226.1,400.8,226.2,399.7z"/>
<path class="st0" d="M251.2,389.3l-1.9-0.2c-0.1,1.1,0.7,2,1.7,2.1L251.2,389.3z"/>
<path class="st0" d="M238.2,390c1.1,0.1,2-0.7,2.1-1.7l-3.8-0.4C236.4,388.9,237.1,389.8,238.2,390z"/>
<path class="st0" d="M225.4,388.7c1.1,0.1,2-0.7,2.1-1.7l-1.9-0.2L225.4,388.7z"/>
<path class="st0" d="M248.6,414.9l-1.9-0.2c-0.1,1.1,0.7,2,1.7,2.1L248.6,414.9z"/>
<path class="st0" d="M237.8,413.8l-3.8-0.4c0,0.3,0,0.7,0.2,1l2.9,0.8C237.4,414.9,237.7,414.4,237.8,413.8z"/>
<path class="st0" d="M228.2,360.4l-1.9,0.5l1.8,0.2L228.2,360.4z"/>
<path class="st0" d="M225.8,384.8c-1.1-0.1-2,0.7-2.1,1.7l1.9,0.2L225.8,384.8z"/>
<path class="st0" d="M213,383.5c-1.1-0.1-2,0.7-2.1,1.7l3.8,0.4C214.8,384.6,214.1,383.7,213,383.5z"/>
<path class="st0" d="M225,373.8c-0.1,1.1,0.7,2,1.7,2.1l0.4-3.8C226,371.9,225.1,372.7,225,373.8z"/>
<ellipse transform="matrix(9.949340e-02 -0.995 0.995 9.949340e-02 -178.0504 548.6194)" class="st0" cx="214.1" cy="372.7" rx="1.9" ry="1.9"/>
<ellipse transform="matrix(9.949340e-02 -0.995 0.995 9.949340e-02 -190.1286 546.8096)" class="st0" cx="207" cy="378.4" rx="1.9" ry="1.9"/>
<ellipse transform="matrix(9.949340e-02 -0.995 0.995 9.949340e-02 -179.8693 560.6877)" class="st0" cx="219.8" cy="379.7" rx="1.9" ry="1.9"/>
<path class="st0" d="M210.2,366.1l-0.2,0.1l-2.8,1c0.8,0.6,2,0.5,2.7-0.4C210,366.6,210.1,366.4,210.2,366.1L210.2,366.1z"/>
<ellipse transform="matrix(9.949340e-02 -0.995 0.995 9.949340e-02 -165.993 550.4462)" class="st0" cx="221.1" cy="366.9" rx="1.9" ry="1.9"/>
<path class="st0" d="M200.2,382.3l-0.2,1.9l1.9,0.2C202,383.3,201.3,382.4,200.2,382.3L200.2,382.3z"/>
<path class="st0" d="M203.1,372c0.3-1-0.3-2.1-1.3-2.4c-0.1,0-0.2-0.1-0.4-0.1l-0.4,3.8C202,373.4,202.8,372.9,203.1,372z"/>
<path class="st0" d="M226.9,362.6c0.3,0.2,0.6,0.4,1,0.4l0.2-1.9l-1.8-0.2h-0.1C226.1,361.6,226.4,362.2,226.9,362.6L226.9,362.6z"
	/>
<path class="st0" d="M223.2,410.4c-0.6-0.1-1.1,0.1-1.6,0.6l1.4,0.4L223.2,410.4z"/>
<path class="st0" d="M223.4,397.9c-0.9,0.5-1.3,1.7-0.8,2.6c0.3,0.6,0.9,0.9,1.5,1l0.4-3.8C224.1,397.6,223.7,397.7,223.4,397.9z"/>
<ellipse transform="matrix(9.949340e-02 -0.995 0.995 9.949340e-02 -205.8156 569.1282)" class="st0" cx="211.5" cy="398.3" rx="1.9" ry="1.9"/>
<path class="st0" d="M206.4,404.2c0.1-1.1-0.7-2-1.7-2.1c-1.1-0.1-2,0.7-2.1,1.7c-0.1,0.6,0.2,1.2,0.6,1.6l1.6,0.5
	C205.6,405.8,206.3,405.1,206.4,404.2z"/>
<ellipse transform="matrix(9.949340e-02 -0.995 0.995 9.949340e-02 -207.6334 581.1956)" class="st0" cx="217.3" cy="405.3" rx="1.9" ry="1.9"/>
<ellipse transform="matrix(9.949340e-02 -0.995 0.995 9.949340e-02 -204.0067 557.069)" class="st0" cx="205.8" cy="391.2" rx="1.9" ry="1.9"/>
<ellipse transform="matrix(9.949340e-02 -0.995 0.995 9.949340e-02 -193.7473 570.947)" class="st0" cx="218.6" cy="392.5" rx="1.9" ry="1.9"/>
<path class="st0" d="M198.9,395.1l-0.4,3.8c1.1,0.1,2-0.7,2.1-1.8C200.7,396.1,199.9,395.2,198.9,395.1z"/>
<path class="st0" d="M225.6,386.8l-1.9-0.2c-0.1,1.1,0.7,2,1.7,2.1L225.6,386.8z"/>
<path class="st0" d="M212.6,387.4c1.1,0.1,2-0.7,2.1-1.7l-3.8-0.4C210.8,386.3,211.5,387.3,212.6,387.4z"/>
<path class="st0" d="M199.8,386.1c1.1,0.1,2-0.7,2.1-1.7l-1.9-0.2L199.8,386.1z"/>
<path class="st0" d="M200.2,382.3c-1.1-0.1-2,0.7-2.1,1.7l1.9,0.2L200.2,382.3z"/>
<path class="st0" d="M187.4,381c-1.1-0.1-2,0.7-2.1,1.7l3.8,0.4C189.2,382,188.5,381.1,187.4,381z"/>
<path class="st0" d="M199.4,371.2c-0.1,1.1,0.7,2,1.7,2.1l0.4-3.8h-0.2L200,370C199.6,370.3,199.4,370.7,199.4,371.2z"/>
<ellipse transform="matrix(9.949340e-02 -0.995 0.995 9.949340e-02 -200.378 532.9224)" class="st0" cx="194.2" cy="377.2" rx="1.9" ry="1.9"/>
<path class="st0" d="M197.8,395.3c-0.9,0.5-1.3,1.7-0.8,2.6c0.3,0.6,0.9,0.9,1.5,1l0.4-3.8C198.5,395,198.1,395.1,197.8,395.3z"/>
<ellipse transform="matrix(9.949340e-02 -0.995 0.995 9.949340e-02 -226.3235 541.364)" class="st0" cx="185.9" cy="395.7" rx="1.9" ry="1.9"/>
<path class="st0" d="M191.9,400.8c-0.5,0-1,0.1-1.3,0.4l3,1.1C193.3,401.5,192.7,400.9,191.9,400.8z"/>
<ellipse transform="matrix(9.949340e-02 -0.995 0.995 9.949340e-02 -224.5047 529.2958)" class="st0" cx="180.2" cy="388.7" rx="1.9" ry="1.9"/>
<ellipse transform="matrix(9.949340e-02 -0.995 0.995 9.949340e-02 -214.2453 543.1739)" class="st0" cx="193" cy="390" rx="1.9" ry="1.9"/>
<path class="st0" d="M200,384.2l-1.9-0.2c-0.1,1.1,0.7,2,1.7,2.1L200,384.2z"/>
<path class="st0" d="M187,384.8c1.1,0.1,2-0.7,2.1-1.7l-3.8-0.4C185.2,383.8,185.9,384.7,187,384.8z"/>
<polygon class="st1" points="179.7,276.5 191.8,389.4 289.9,414.8 302.4,303.5 "/>
<path class="st1" d="M289.9,414.8c0,0,115.4-59.8,115.4-62.8s15.2-92.8,15.2-92.8l-118.2,44.3L289.9,414.8z"/>
<path class="st1" d="M340.1,183.4l5.6-36.5c0.9-5.8-10.2-8.7-11.2-2.3l-5.6,36.5C328,186.9,339.1,189.8,340.1,183.4z"/>
<path class="st1" d="M376.8,191l20.5-20.5c4.5-4.6-5-11-9.2-6.8l-20.5,20.5C363,188.8,372.6,195.2,376.8,191z"/>
<path class="st1" d="M406.8,227.4l32-9.4c7-2,0.9-11-4.8-9.3l-32,9.3C395,220,401.1,229,406.8,227.4L406.8,227.4z"/>
<polygon class="st1" points="172,266 315.7,224.9 427.9,249 307.8,294.9 "/>
<polygon class="st1" points="171.9,265.9 171.9,279.9 306.4,311.6 307.8,294.9 "/>
<polygon class="st1" points="307,311.5 308.3,294.8 428.4,249 426.1,262.2 "/>
<path class="st1" d="M171.9,263.8c2.6,1.1,141.3-39.8,141.3-39.8l-50.8-93.6l-141.5,22.5L171.9,263.8z"/>
<path class="st1" d="M120.9,152.9c0,0-48.6,25.7-27.3,81.6s78.3,29.3,78.3,29.3L120.9,152.9z"/>
<path class="st1" d="M121.4,167.4c0,0-36.8,19.5-20.7,61.9s59.4,22.2,59.4,22.2L121.4,167.4z"/>
<polygon class="st1" points="199.2,264.9 314,231 410.5,249.6 309.1,286.9 "/>
<path class="st1" d="M216.1,311.1l47.3,9.8c4.1,1.1,6.8,5,6.2,9.2c-0.8,7.5-9.8,7.1-9.8,7.1l-43.9-9.3c0,0-8.4-1.9-7.6-10.2
	S216.1,311.1,216.1,311.1z"/>
<polygon class="st1" points="132.7,160 178,253.2 299.5,221 252.8,140.4 "/>
<path class="st1" d="M254,142c0,0-37.3,14.8-18.5,56.4s63.4,22.8,63.4,22.8L254,142z"/>
<line class="st2" x1="127.2" y1="170.9" x2="130.9" y2="164"/>
<line class="st2" x1="131.1" y1="180.3" x2="141" y2="161.6"/>
<line class="st2" x1="135" y1="189.6" x2="151.1" y2="159.3"/>
<line class="st2" x1="139" y1="199" x2="161.2" y2="157"/>
<line class="st2" x1="142.9" y1="208.4" x2="171.3" y2="154.6"/>
<line class="st2" x1="146.8" y1="217.7" x2="181.4" y2="152.3"/>
<line class="st2" x1="150.7" y1="227.1" x2="191.5" y2="149.9"/>
<line class="st2" x1="154.6" y1="236.4" x2="201.6" y2="147.6"/>
<line class="st2" x1="158.6" y1="245.8" x2="211.7" y2="145.2"/>
<line class="st2" x1="162.5" y1="255.2" x2="221.8" y2="142.9"/>
<line class="st2" x1="167.1" y1="263.2" x2="231.9" y2="140.5"/>
<line class="st2" x1="177.8" y1="259.8" x2="242.1" y2="138.2"/>
<line class="st2" x1="188.4" y1="256.4" x2="252.2" y2="135.9"/>
<line class="st2" x1="199.1" y1="253" x2="262.3" y2="133.5"/>
<line class="st2" x1="267.7" y1="140" x2="209.8" y2="249.6"/>
<line class="st2" x1="220.4" y1="246.2" x2="272.2" y2="148.3"/>
<line class="st2" x1="231.1" y1="242.8" x2="276.6" y2="156.6"/>
<line class="st2" x1="241.8" y1="239.4" x2="281.1" y2="164.9"/>
<line class="st2" x1="252.4" y1="236" x2="285.6" y2="173.3"/>
<line class="st2" x1="263.1" y1="232.6" x2="290.1" y2="181.6"/>
<line class="st2" x1="273.8" y1="229.2" x2="294.5" y2="189.9"/>
<line class="st2" x1="284.4" y1="225.8" x2="299" y2="198.2"/>
<line class="st2" x1="295.1" y1="222.4" x2="303.5" y2="206.5"/>
<line class="st2" x1="305.8" y1="219" x2="308" y2="214.8"/>
<path class="st1" d="M189.2,368.6c6.5-1,12.9,2.4,15.8,8.4c5.3,10.4,4.3,17,4.3,17"/>
<path class="st1" d="M275.8,411.1c0,0,0.4-11.4,5.5-15.1s12.2-1.7,12.2-1.7"/>
<path class="st1" d="M305.5,405.5c0,0,2.9-6.2-0.8-9.9s-10.7-3.5-10.7-3.5"/>
<path class="st1" d="M394.9,358.4c0-4.3,0.2-9.7,4.2-13.6s8.1-7.2,8.1-7.2"/>
<path class="st1" d="M357.7,317l-2.9,14.9l9.7-5.7l-1.6-10.7c0,0,3.4-3.8,2.6-8c-1.2-6.7-9.8-4.1-11.1-1.5
	C349.5,315.8,359.1,318.2,357.7,317z"/>
<line class="st2" x1="372.3" y1="259.9" x2="372.3" y2="262"/>
<line class="st2" x1="363.5" y1="258.2" x2="363.5" y2="266.1"/>
<line class="st2" x1="354.8" y1="256.5" x2="354.8" y2="270.2"/>
<line class="st2" x1="346" y1="254.9" x2="346" y2="272.3"/>
<line class="st2" x1="337.2" y1="253.2" x2="337.2" y2="275.5"/>
<line class="st2" x1="328.5" y1="252.4" x2="328.5" y2="279.6"/>
<line class="st2" x1="319.7" y1="250.7" x2="319.7" y2="281.7"/>
<line class="st2" x1="311" y1="249" x2="311" y2="285.8"/>
<line class="st2" x1="302.2" y1="250.9" x2="302.2" y2="285"/>
<line class="st2" x1="293.4" y1="254.4" x2="293.4" y2="284.1"/>
<line class="st2" x1="284.7" y1="258.8" x2="284.7" y2="281.2"/>
<line class="st2" x1="275.9" y1="262.3" x2="275.9" y2="280.3"/>
<line class="st2" x1="267.1" y1="265.8" x2="267.1" y2="278.6"/>
<line class="st2" x1="258.4" y1="269.2" x2="258.4" y2="275.8"/>
<line class="st2" x1="249.6" y1="272.7" x2="249.6" y2="275.1"/>
<line class="st2" x1="254" y1="271" x2="254" y2="276"/>
<line class="st2" x1="262.8" y1="267.5" x2="262.8" y2="277.7"/>
<line class="st2" x1="271.5" y1="264" x2="271.5" y2="278.5"/>
<line class="st2" x1="280.3" y1="260.5" x2="280.3" y2="281.2"/>
<line class="st2" x1="289" y1="256.1" x2="289" y2="283.1"/>
<line class="st2" x1="297.8" y1="252.6" x2="297.8" y2="284"/>
<line class="st2" x1="306.6" y1="249.2" x2="306.6" y2="285.9"/>
<line class="st2" x1="315.3" y1="249.8" x2="315.3" y2="284.8"/>
<line class="st2" x1="324.1" y1="251.5" x2="324.1" y2="280.6"/>
<line class="st2" x1="332.9" y1="253.2" x2="332.9" y2="277.5"/>
<line class="st2" x1="341.6" y1="254" x2="341.6" y2="274.4"/>
<line class="st2" x1="350.4" y1="255.7" x2="350.4" y2="271.3"/>
<line class="st2" x1="359.1" y1="257.4" x2="359.1" y2="268.2"/>
<line class="st2" x1="367.9" y1="259.1" x2="367.9" y2="264"/>
<line class="st2" x1="376.6" y1="260" x2="376.6" y2="261.9"/>
</svg>
