<?xml version="1.0" encoding="utf-8"?>
<!-- Generator: Adobe Illustrator 21.0.2, SVG Export Plug-In . SVG Version: 6.00 Build 0)  -->
<svg version="1.1" id="Layer_1" xmlns="http://www.w3.org/2000/svg" xmlns:xlink="http://www.w3.org/1999/xlink" x="0px" y="0px"
	 viewBox="0 0 450 450" style="enable-background:new 0 0 450 450;" xml:space="preserve">
<style type="text/css">
	.st0{fill:#05C2DE;stroke:#45C9A8;stroke-miterlimit:10;}
	.st1{fill:#45C9A8;stroke:#6AD4B9;stroke-width:2;stroke-miterlimit:10;}
	.st2{fill:#45C9A8;stroke:#6AD4B9;stroke-width:2;stroke-linecap:round;stroke-linejoin:round;}
	.st3{fill:none;stroke:#6AD4B9;stroke-width:2;stroke-linecap:round;stroke-linejoin:round;}
</style>
<title>hki-mies</title>
<circle class="st0" cx="341.7" cy="399.9" r="1.5"/>
<circle class="st0" cx="336.8" cy="394.9" r="1.5"/>
<path class="st0" d="M331.8,391.4c0.2,0,0.5-0.1,0.7-0.2l-2.1-0.9C330.6,391,331.2,391.4,331.8,391.4z"/>
<path class="st0" d="M326.9,393.4c-0.8,0-1.5,0.7-1.5,1.5c0,0.8,0.7,1.5,1.5,1.5c0.8,0,1.5-0.7,1.5-1.5c0-0.4-0.2-0.8-0.4-1.1
	C327.6,393.6,327.2,393.4,326.9,393.4z"/>
<path class="st0" d="M345.8,403.6c-0.4,0.2-0.6,0.6-0.6,1.1c0.3-0.4,0.6-0.8,0.9-1.2C346,403.5,345.9,403.5,345.8,403.6z"/>
<circle class="st0" cx="336.8" cy="404.8" r="1.5"/>
<circle class="st0" cx="331.8" cy="409.8" r="1.5"/>
<circle class="st0" cx="331.8" cy="399.9" r="1.5"/>
<path class="st0" d="M326.9,413.2c-0.8,0-1.5,0.7-1.5,1.5c0,0.5,0.2,1,0.7,1.2c0.2,0.2,0.5,0.3,0.8,0.2h0.2l0.8-0.4l0.1-0.1
	c0.6-0.6,0.6-1.5,0-2.1C327.6,413.4,327.2,413.3,326.9,413.2L326.9,413.2z"/>
<path class="st0" d="M326.9,403.3c-0.8,0-1.5,0.7-1.5,1.5c0,0.8,0.7,1.5,1.5,1.5c0.8,0,1.5-0.7,1.5-1.5c0-0.4-0.2-0.8-0.4-1.1
	C327.6,403.5,327.2,403.3,326.9,403.3z"/>
<circle class="st0" cx="316.9" cy="394.9" r="1.5"/>
<path class="st0" d="M316.9,386.5c0.8,0,1.4-0.6,1.5-1.4l-2.6-1.1c-0.5,0.6-0.5,1.5,0.1,2.1C316.2,386.3,316.6,386.5,316.9,386.5
	L316.9,386.5z"/>
<circle class="st0" cx="312" cy="389.9" r="1.5"/>
<circle class="st0" cx="321.9" cy="389.9" r="1.5"/>
<path class="st0" d="M307,393.4c-0.8,0-1.5,0.7-1.5,1.5s0.7,1.5,1.5,1.5c0.8,0,1.5-0.7,1.5-1.5c0-0.1,0-0.2,0-0.3
	C308.3,393.9,307.7,393.4,307,393.4z"/>
<path class="st0" d="M307,383.5c-0.8,0-1.5,0.7-1.5,1.5s0.7,1.5,1.5,1.5c0.8,0,1.5-0.7,1.5-1.5c0-0.1,0-0.2,0-0.3
	C308.3,384,307.7,383.5,307,383.5z"/>
<path class="st0" d="M316.9,413.2c-0.8,0-1.5,0.7-1.5,1.5c0,0.8,0.7,1.5,1.5,1.5c0.8,0,1.5-0.7,1.5-1.5c0,0,0,0,0,0
	C318.4,413.9,317.8,413.2,316.9,413.2z"/>
<circle class="st0" cx="316.9" cy="404.8" r="1.5"/>
<circle class="st0" cx="312" cy="409.8" r="1.5"/>
<circle class="st0" cx="321.9" cy="409.8" r="1.5"/>
<circle class="st0" cx="312" cy="399.9" r="1.5"/>
<circle class="st0" cx="321.9" cy="399.9" r="1.5"/>
<path class="st0" d="M307,413.2c-0.8,0-1.5,0.7-1.5,1.5s0.7,1.5,1.5,1.5c0.8,0,1.5-0.7,1.5-1.5c0-0.1,0-0.2,0-0.3
	C308.3,413.7,307.7,413.2,307,413.2z"/>
<path class="st0" d="M307,403.3c-0.8,0-1.5,0.7-1.5,1.5s0.7,1.5,1.5,1.5c0.8,0,1.5-0.7,1.5-1.5c0-0.1,0-0.2,0-0.3
	C308.3,403.8,307.7,403.3,307,403.3z"/>
<circle class="st0" cx="312" cy="419.7" r="1.5"/>
<path class="st0" d="M320.6,419l1.7-0.7C321.7,418.1,320.9,418.4,320.6,419z"/>
<circle class="st0" cx="297.1" cy="394.9" r="1.5"/>
<circle class="st0" cx="297.1" cy="385" r="1.5"/>
<circle class="st0" cx="292.2" cy="389.9" r="1.5"/>
<circle class="st0" cx="302.1" cy="389.9" r="1.5"/>
<circle class="st0" cx="292.2" cy="380" r="1.5"/>
<path class="st0" d="M301,379c-0.6,0.6-0.6,1.5-0.1,2.1c0.6,0.6,1.5,0.6,2.1,0.1c0.4-0.4,0.6-1,0.4-1.5
	C302.7,379.4,301.9,379.2,301,379z"/>
<path class="st0" d="M287.2,393.4c-0.8,0-1.5,0.7-1.5,1.5c0,0.8,0.7,1.5,1.5,1.5c0.8,0,1.5-0.7,1.5-1.5c0,0,0,0,0,0
	C288.7,394.1,288.1,393.4,287.2,393.4C287.2,393.4,287.2,393.4,287.2,393.4z"/>
<path class="st0" d="M287.2,383.5c-0.8,0-1.5,0.7-1.5,1.5c0,0.8,0.7,1.5,1.5,1.5c0.8,0,1.5-0.7,1.5-1.5
	C288.7,384.2,288.1,383.5,287.2,383.5C287.2,383.5,287.2,383.5,287.2,383.5z"/>
<path class="st0" d="M287.7,376.5l-0.5-0.1l-0.8-0.1C286.8,376.6,287.3,376.6,287.7,376.5z"/>
<path class="st0" d="M297.1,413.2c-0.8,0-1.5,0.7-1.5,1.5c0,0.8,0.7,1.5,1.5,1.5c0.8,0,1.5-0.7,1.5-1.5c0,0,0,0,0,0
	C298.6,413.9,298,413.2,297.1,413.2z"/>
<circle class="st0" cx="297.1" cy="404.8" r="1.5"/>
<circle class="st0" cx="292.2" cy="409.8" r="1.5"/>
<circle class="st0" cx="302.1" cy="409.8" r="1.5"/>
<circle class="st0" cx="292.2" cy="399.9" r="1.5"/>
<circle class="st0" cx="302.1" cy="399.9" r="1.5"/>
<path class="st0" d="M287.2,413.2c-0.8,0-1.5,0.7-1.5,1.5c0,0.8,0.7,1.5,1.5,1.5c0.8,0,1.5-0.7,1.5-1.5c0,0,0,0,0,0
	C288.7,413.9,288.1,413.2,287.2,413.2C287.2,413.2,287.2,413.2,287.2,413.2z"/>
<path class="st0" d="M287.2,403.3c-0.8,0-1.5,0.7-1.5,1.5c0,0.8,0.7,1.5,1.5,1.5c0.8,0,1.5-0.7,1.5-1.5c0,0,0,0,0,0
	C288.7,404,288.1,403.3,287.2,403.3C287.2,403.3,287.2,403.3,287.2,403.3z"/>
<path class="st0" d="M305.6,424.6l1.5-0.5l1.1-0.4c-0.5-0.6-1.5-0.7-2.1-0.2C305.8,423.8,305.6,424.1,305.6,424.6L305.6,424.6z"/>
<circle class="st0" cx="297.1" cy="424.6" r="1.5"/>
<path class="st0" d="M290.8,429.1l2.4-0.7c-0.6-0.5-1.5-0.5-2.1,0.2C290.9,428.7,290.8,428.9,290.8,429.1z"/>
<circle class="st0" cx="292.2" cy="419.7" r="1.5"/>
<circle class="st0" cx="302.1" cy="419.7" r="1.5"/>
<path class="st0" d="M287.2,423.1c-0.8,0-1.5,0.7-1.5,1.5c0,0.8,0.7,1.5,1.5,1.5c0.8,0,1.5-0.7,1.5-1.5c0,0,0,0,0,0
	C288.7,423.8,288.1,423.1,287.2,423.1C287.2,423.1,287.2,423.1,287.2,423.1z"/>
<path class="st0" d="M267.4,374.9h-1.5c0,0.1,0,0.1,0,0.2c0,0.8,0.7,1.5,1.5,1.5s1.5-0.7,1.5-1.5c0,0,0-0.1,0-0.1L267.4,374.9z"/>
<circle class="st0" cx="277.3" cy="394.9" r="1.5"/>
<circle class="st0" cx="277.3" cy="385" r="1.5"/>
<circle class="st0" cx="272.4" cy="389.9" r="1.5"/>
<circle class="st0" cx="282.3" cy="389.9" r="1.5"/>
<circle class="st0" cx="272.4" cy="380" r="1.5"/>
<circle class="st0" cx="282.3" cy="380" r="1.5"/>
<path class="st0" d="M267.4,393.4c-0.8,0-1.5,0.7-1.5,1.5c0,0.8,0.7,1.5,1.5,1.5c0.8,0,1.5-0.7,1.5-1.5c0,0,0,0,0,0
	C268.9,394.1,268.2,393.4,267.4,393.4C267.4,393.4,267.4,393.4,267.4,393.4z"/>
<path class="st0" d="M267.4,383.5c-0.8,0-1.5,0.7-1.5,1.5c0,0.8,0.7,1.5,1.5,1.5c0.8,0,1.5-0.7,1.5-1.5c0,0,0,0,0,0
	C268.9,384.2,268.2,383.5,267.4,383.5C267.4,383.5,267.4,383.5,267.4,383.5z"/>
<path class="st0" d="M277.3,376.6c0.6,0,1.2-0.4,1.4-1l-2.9-0.2C276,376.1,276.6,376.6,277.3,376.6z"/>
<path class="st0" d="M277.3,413.2c-0.8,0-1.5,0.7-1.5,1.5c0,0.8,0.7,1.5,1.5,1.5c0.8,0,1.5-0.7,1.5-1.5c0,0,0,0,0,0
	C278.8,413.9,278.1,413.2,277.3,413.2z"/>
<circle class="st0" cx="277.3" cy="404.8" r="1.5"/>
<circle class="st0" cx="272.4" cy="409.8" r="1.5"/>
<circle class="st0" cx="282.3" cy="409.8" r="1.5"/>
<circle class="st0" cx="272.4" cy="399.9" r="1.5"/>
<circle class="st0" cx="282.3" cy="399.9" r="1.5"/>
<path class="st0" d="M267.4,413.2c-0.8,0-1.5,0.7-1.5,1.5c0,0.8,0.7,1.5,1.5,1.5c0.8,0,1.5-0.7,1.5-1.5c0,0,0,0,0,0
	C268.9,413.9,268.2,413.2,267.4,413.2C267.4,413.2,267.4,413.2,267.4,413.2z"/>
<path class="st0" d="M267.4,403.3c-0.8,0-1.5,0.7-1.5,1.5c0,0.8,0.7,1.5,1.5,1.5c0.8,0,1.5-0.7,1.5-1.5c0,0,0,0,0,0
	C268.9,404,268.2,403.3,267.4,403.3C267.4,403.3,267.4,403.3,267.4,403.3z"/>
<circle class="st0" cx="277.3" cy="424.6" r="1.5"/>
<circle class="st0" cx="272.4" cy="429.6" r="1.5"/>
<circle class="st0" cx="282.3" cy="429.6" r="1.5"/>
<circle class="st0" cx="272.4" cy="419.7" r="1.5"/>
<circle class="st0" cx="282.3" cy="419.7" r="1.5"/>
<path class="st0" d="M267.4,433c-0.7,0-1.2,0.4-1.4,1.1c0.4,0,0.9,0,1.4-0.1l1.3-0.1C268.5,433.3,268,433,267.4,433z"/>
<path class="st0" d="M267.4,423.1c-0.8,0-1.5,0.7-1.5,1.5c0,0.8,0.7,1.5,1.5,1.5c0.8,0,1.5-0.7,1.5-1.5c0,0,0,0,0,0
	C268.9,423.8,268.2,423.1,267.4,423.1C267.4,423.1,267.4,423.1,267.4,423.1z"/>
<path class="st0" d="M256.1,374.7c-0.2,0.8,0.2,1.6,1,1.8c0.8,0.2,1.6-0.2,1.8-1c0.1-0.3,0.1-0.5,0-0.8H256.1z"/>
<path class="st0" d="M247.6,374.7h-1.4c-0.2,0.8,0.2,1.6,1,1.8s1.6-0.2,1.8-1c0.1-0.3,0.1-0.6,0-0.8H247.6z"/>
<circle class="st0" cx="257.5" cy="394.9" r="1.5"/>
<circle class="st0" cx="257.5" cy="385" r="1.5"/>
<circle class="st0" cx="252.5" cy="389.9" r="1.5"/>
<circle class="st0" cx="262.4" cy="389.9" r="1.5"/>
<circle class="st0" cx="252.5" cy="380" r="1.5"/>
<circle class="st0" cx="262.4" cy="380" r="1.5"/>
<path class="st0" d="M247.6,393.4c-0.8,0-1.5,0.7-1.5,1.5c0,0.8,0.7,1.5,1.5,1.5s1.5-0.7,1.5-1.5l0,0
	C249.1,394.1,248.4,393.4,247.6,393.4C247.6,393.4,247.6,393.4,247.6,393.4z"/>
<path class="st0" d="M247.6,383.5c-0.8,0-1.5,0.7-1.5,1.5c0,0.8,0.7,1.5,1.5,1.5s1.5-0.7,1.5-1.5l0,0
	C249.1,384.2,248.4,383.5,247.6,383.5C247.6,383.5,247.6,383.5,247.6,383.5z"/>
<path class="st0" d="M257.5,413.2c-0.8,0-1.5,0.7-1.5,1.5c0,0.8,0.7,1.5,1.5,1.5c0.8,0,1.5-0.7,1.5-1.5c0,0,0,0,0,0
	C259,413.9,258.3,413.2,257.5,413.2z"/>
<circle class="st0" cx="257.5" cy="404.8" r="1.5"/>
<circle class="st0" cx="252.5" cy="409.8" r="1.5"/>
<circle class="st0" cx="262.4" cy="409.8" r="1.5"/>
<circle class="st0" cx="252.5" cy="399.9" r="1.5"/>
<circle class="st0" cx="262.4" cy="399.9" r="1.5"/>
<path class="st0" d="M247.6,413.2c-0.8,0-1.5,0.7-1.5,1.5c0,0.5,0.2,1,0.7,1.2c0.7,0.5,1.6,0.3,2.1-0.4c0.5-0.7,0.3-1.6-0.4-2.1
	C248.2,413.3,247.9,413.2,247.6,413.2z"/>
<path class="st0" d="M247.6,403.3c-0.8,0-1.5,0.7-1.5,1.5c0,0.8,0.7,1.5,1.5,1.5s1.5-0.7,1.5-1.5l0,0
	C249.1,404,248.4,403.3,247.6,403.3C247.6,403.3,247.6,403.3,247.6,403.3z"/>
<path class="st0" d="M257.5,433c-0.7,0-1.4,0.6-1.5,1.3l2.9-0.1C258.8,433.5,258.2,433,257.5,433z"/>
<circle class="st0" cx="257.5" cy="424.6" r="1.5"/>
<circle class="st0" cx="252.5" cy="429.6" r="1.5"/>
<circle class="st0" cx="262.4" cy="429.6" r="1.5"/>
<circle class="st0" cx="252.5" cy="419.7" r="1.5"/>
<circle class="st0" cx="262.4" cy="419.7" r="1.5"/>
<path class="st0" d="M247.6,433c-0.8,0-1.5,0.7-1.5,1.5c0,0.1,0,0.1,0,0.2h1.5l1.5,0c0,0,0,0,0-0.1C249.1,433.7,248.4,433,247.6,433
	C247.6,433,247.6,433,247.6,433z"/>
<path class="st0" d="M247.6,423.1c-0.8,0-1.5,0.7-1.5,1.5c0,0.8,0.7,1.5,1.5,1.5s1.5-0.7,1.5-1.5l0,0
	C249.1,423.8,248.4,423.1,247.6,423.1C247.6,423.1,247.6,423.1,247.6,423.1z"/>
<path class="st0" d="M236.2,375c0,0,0,0.1,0,0.1c0,0.8,0.7,1.5,1.5,1.5s1.5-0.7,1.5-1.5c0-0.1,0-0.1,0-0.2L236.2,375z"/>
<circle class="st0" cx="237.7" cy="394.9" r="1.5"/>
<circle class="st0" cx="237.7" cy="385" r="1.5"/>
<circle class="st0" cx="232.7" cy="389.9" r="1.5"/>
<circle class="st0" cx="242.6" cy="389.9" r="1.5"/>
<circle class="st0" cx="232.7" cy="380" r="1.5"/>
<circle class="st0" cx="242.6" cy="380" r="1.5"/>
<path class="st0" d="M227.8,393.4c-0.8,0-1.5,0.7-1.5,1.5s0.7,1.5,1.5,1.5c0.8,0,1.5-0.7,1.5-1.5c0-0.3-0.1-0.6-0.3-0.8
	C228.7,393.7,228.3,393.4,227.8,393.4z"/>
<path class="st0" d="M227.8,383.5c-0.8,0-1.5,0.7-1.5,1.5s0.7,1.5,1.5,1.5c0.8,0,1.5-0.7,1.5-1.5c0-0.3-0.1-0.6-0.3-0.8
	C228.7,383.7,228.3,383.5,227.8,383.5z"/>
<path class="st0" d="M237.7,413.2c-0.8,0-1.5,0.7-1.5,1.5c0,0.8,0.7,1.5,1.5,1.5s1.5-0.7,1.5-1.5l0,0
	C239.2,413.9,238.5,413.2,237.7,413.2z"/>
<circle class="st0" cx="237.7" cy="404.8" r="1.5"/>
<circle class="st0" cx="232.7" cy="409.8" r="1.5"/>
<circle class="st0" cx="242.6" cy="409.8" r="1.5"/>
<circle class="st0" cx="232.7" cy="399.9" r="1.5"/>
<circle class="st0" cx="242.6" cy="399.9" r="1.5"/>
<path class="st0" d="M227.8,413.2c-0.8,0-1.5,0.7-1.5,1.5c0,0.5,0.2,1,0.7,1.2c0.7,0.5,1.6,0.3,2.1-0.4c0.5-0.7,0.3-1.6-0.4-2.1
	C228.4,413.3,228.1,413.2,227.8,413.2z"/>
<path class="st0" d="M227.8,403.3c-0.8,0-1.5,0.7-1.5,1.5c0,0.8,0.7,1.5,1.5,1.5c0.8,0,1.5-0.7,1.5-1.5c0-0.3-0.1-0.6-0.2-0.8
	C228.7,403.6,228.3,403.3,227.8,403.3z"/>
<path class="st0" d="M237.7,433c-0.8,0-1.5,0.6-1.5,1.5c0,0.1,0,0.3,0.1,0.4h2.9c0.2-0.8-0.3-1.6-1.1-1.8
	C237.9,433.1,237.8,433,237.7,433L237.7,433z"/>
<circle class="st0" cx="237.7" cy="424.6" r="1.5"/>
<circle class="st0" cx="232.7" cy="429.6" r="1.5"/>
<circle class="st0" cx="242.6" cy="429.6" r="1.5"/>
<circle class="st0" cx="232.7" cy="419.7" r="1.5"/>
<circle class="st0" cx="242.6" cy="419.7" r="1.5"/>
<path class="st0" d="M227.8,433c-0.8,0-1.5,0.6-1.5,1.5c0,0.1,0,0.3,0,0.4h1.4h1.4c0.1-0.4,0.1-0.9-0.2-1.2
	C228.7,433.2,228.2,433,227.8,433z"/>
<path class="st0" d="M227.8,423.1c-0.8,0-1.5,0.7-1.5,1.5s0.7,1.5,1.5,1.5c0.8,0,1.5-0.7,1.5-1.5c0-0.3-0.1-0.6-0.3-0.8
	C228.7,423.4,228.3,423.1,227.8,423.1z"/>
<circle class="st0" cx="217.9" cy="394.9" r="1.5"/>
<circle class="st0" cx="217.9" cy="385" r="1.5"/>
<circle class="st0" cx="212.9" cy="389.9" r="1.5"/>
<circle class="st0" cx="222.8" cy="389.9" r="1.5"/>
<circle class="st0" cx="212.9" cy="380" r="1.5"/>
<circle class="st0" cx="222.8" cy="380" r="1.5"/>
<path class="st0" d="M207.9,393.4c-0.8,0-1.5,0.7-1.5,1.5c0,0.8,0.7,1.5,1.5,1.5c0.8,0,1.5-0.7,1.5-1.5c0-0.4-0.2-0.8-0.4-1.1
	C208.7,393.6,208.3,393.4,207.9,393.4z"/>
<path class="st0" d="M207.9,383.5c-0.8,0-1.5,0.7-1.5,1.5c0,0.8,0.7,1.5,1.5,1.5c0.8,0,1.5-0.7,1.5-1.5c0-0.4-0.2-0.8-0.4-1.1
	C208.7,383.7,208.3,383.5,207.9,383.5z"/>
<path class="st0" d="M226.9,376.3c0.7,0.5,1.6,0.3,2-0.4c0.1-0.2,0.2-0.4,0.3-0.6l-1.5,0.1l-1.4,0.1
	C226.4,375.8,226.6,376.1,226.9,376.3z"/>
<path class="st0" d="M219,376l-2.2,0.2c0.6,0.6,1.5,0.5,2.1,0C218.9,376.1,219,376.1,219,376z"/>
<path class="st0" d="M217.9,413.2c-0.8,0-1.5,0.7-1.5,1.5c0,0.8,0.7,1.5,1.5,1.5s1.5-0.7,1.5-1.5l0,0
	C219.3,413.9,218.7,413.2,217.9,413.2z"/>
<circle class="st0" cx="217.9" cy="404.8" r="1.5"/>
<circle class="st0" cx="212.9" cy="409.8" r="1.5"/>
<circle class="st0" cx="222.8" cy="409.8" r="1.5"/>
<circle class="st0" cx="212.9" cy="399.9" r="1.5"/>
<circle class="st0" cx="222.8" cy="399.9" r="1.5"/>
<path class="st0" d="M207.9,413.2c-0.8,0-1.5,0.7-1.5,1.5c0,0.8,0.7,1.5,1.5,1.5c0.8,0,1.5-0.7,1.5-1.5c0-0.4-0.2-0.8-0.4-1.1
	C208.7,413.4,208.3,413.2,207.9,413.2z"/>
<path class="st0" d="M207.9,403.3c-0.8,0-1.5,0.7-1.5,1.5c0,0.8,0.7,1.5,1.5,1.5c0.8,0,1.5-0.7,1.5-1.5c0-0.4-0.2-0.8-0.4-1.1
	C208.7,403.5,208.3,403.3,207.9,403.3z"/>
<path class="st0" d="M217.9,433c-0.8,0-1.5,0.7-1.5,1.5h0.3l2.7,0.1c0,0,0-0.1,0-0.1C219.3,433.7,218.7,433,217.9,433z"/>
<circle class="st0" cx="217.9" cy="424.6" r="1.5"/>
<circle class="st0" cx="212.9" cy="429.6" r="1.5"/>
<circle class="st0" cx="222.8" cy="429.6" r="1.5"/>
<circle class="st0" cx="212.9" cy="419.7" r="1.5"/>
<circle class="st0" cx="222.8" cy="419.7" r="1.5"/>
<path class="st0" d="M207.9,433c-0.5,0-1,0.3-1.3,0.7l1.3,0.1l1.4,0.1C209.1,433.4,208.6,433,207.9,433L207.9,433z"/>
<path class="st0" d="M207.9,423.1c-0.8,0-1.5,0.7-1.5,1.5c0,0.8,0.7,1.5,1.5,1.5c0.8,0,1.5-0.7,1.5-1.5c0-0.4-0.2-0.8-0.4-1.1
	C208.7,423.3,208.3,423.1,207.9,423.1z"/>
<circle class="st0" cx="198" cy="394.9" r="1.5"/>
<circle class="st0" cx="198" cy="385" r="1.5"/>
<circle class="st0" cx="193.1" cy="389.9" r="1.5"/>
<circle class="st0" cx="203" cy="389.9" r="1.5"/>
<path class="st0" d="M191.8,379.3c-0.1,0.2-0.2,0.5-0.2,0.7c0,0.8,0.7,1.5,1.5,1.5c0.8,0,1.5-0.7,1.5-1.5c0-0.4-0.2-0.8-0.5-1.1
	L191.8,379.3z"/>
<circle class="st0" cx="203" cy="380" r="1.5"/>
<path class="st0" d="M188.1,393.4c-0.8,0-1.5,0.7-1.5,1.5c0,0.8,0.7,1.5,1.5,1.5c0.8,0,1.5-0.7,1.5-1.5c0-0.4-0.2-0.8-0.4-1.1
	C188.9,393.6,188.5,393.4,188.1,393.4z"/>
<path class="st0" d="M188.1,383.5c-0.8,0-1.5,0.7-1.5,1.5c0,0.8,0.7,1.5,1.5,1.5c0.8,0,1.5-0.7,1.5-1.5c0-0.4-0.2-0.8-0.4-1.1
	C188.9,383.7,188.5,383.5,188.1,383.5z"/>
<path class="st0" d="M198,413.2c-0.8,0-1.5,0.7-1.5,1.5c0,0.8,0.7,1.5,1.5,1.5s1.5-0.7,1.5-1.5l0,0
	C199.5,413.9,198.8,413.2,198,413.2z"/>
<circle class="st0" cx="198" cy="404.8" r="1.5"/>
<circle class="st0" cx="193.1" cy="409.8" r="1.5"/>
<circle class="st0" cx="203" cy="409.8" r="1.5"/>
<circle class="st0" cx="193.1" cy="399.9" r="1.5"/>
<circle class="st0" cx="203" cy="399.9" r="1.5"/>
<path class="st0" d="M188.1,413.2c-0.8,0-1.5,0.7-1.5,1.5c0,0.8,0.7,1.5,1.5,1.5c0.8,0,1.5-0.7,1.5-1.5c0-0.4-0.2-0.8-0.4-1.1
	C188.9,413.4,188.5,413.2,188.1,413.2z"/>
<path class="st0" d="M188.1,403.3c-0.8,0-1.5,0.7-1.5,1.5c0,0.8,0.7,1.5,1.5,1.5c0.8,0,1.5-0.7,1.5-1.5c0-0.4-0.2-0.8-0.4-1.1
	C188.9,403.5,188.5,403.3,188.1,403.3z"/>
<circle class="st0" cx="198" cy="424.6" r="1.5"/>
<circle class="st0" cx="193.1" cy="429.6" r="1.5"/>
<circle class="st0" cx="203" cy="429.6" r="1.5"/>
<circle class="st0" cx="193.1" cy="419.7" r="1.5"/>
<circle class="st0" cx="203" cy="419.7" r="1.5"/>
<path class="st0" d="M188.1,423.1c-0.8,0-1.5,0.7-1.5,1.5c0,0.8,0.7,1.5,1.5,1.5c0.8,0,1.5-0.7,1.5-1.5c0-0.4-0.2-0.8-0.4-1.1
	C188.9,423.3,188.5,423.1,188.1,423.1z"/>
<circle class="st0" cx="178.2" cy="394.9" r="1.5"/>
<circle class="st0" cx="178.2" cy="385" r="1.5"/>
<circle class="st0" cx="173.3" cy="389.9" r="1.5"/>
<circle class="st0" cx="183.2" cy="389.9" r="1.5"/>
<path class="st0" d="M184.5,380.7l-2.2,0.5c0.6,0.5,1.6,0.4,2.1-0.2C184.4,380.9,184.4,380.8,184.5,380.7z"/>
<path class="st0" d="M168.3,393.4c-0.8,0-1.5,0.7-1.5,1.5c0,0.8,0.7,1.5,1.5,1.5c0.8,0,1.5-0.7,1.5-1.5c0-0.4-0.2-0.8-0.4-1.1
	C169.1,393.6,168.7,393.4,168.3,393.4z"/>
<path class="st0" d="M168.3,385l-1.4,0.5c0.2,0.8,1.1,1.2,1.9,1c0.6-0.2,1-0.8,1-1.4c0-0.2,0-0.3-0.1-0.5L168.3,385z"/>
<path class="st0" d="M178.2,413.2c-0.8,0-1.5,0.7-1.5,1.5c0,0.8,0.7,1.5,1.5,1.5s1.5-0.7,1.5-1.5l0,0
	C179.7,413.9,179,413.2,178.2,413.2z"/>
<circle class="st0" cx="178.2" cy="404.8" r="1.5"/>
<circle class="st0" cx="173.3" cy="409.8" r="1.5"/>
<circle class="st0" cx="183.2" cy="409.8" r="1.5"/>
<circle class="st0" cx="173.3" cy="399.9" r="1.5"/>
<circle class="st0" cx="183.2" cy="399.9" r="1.5"/>
<path class="st0" d="M168.3,413.2c-0.8,0-1.5,0.7-1.5,1.5c0,0.5,0.2,1,0.7,1.2c0.7,0.5,1.6,0.3,2.1-0.4c0.5-0.7,0.3-1.6-0.4-2.1
	C168.9,413.3,168.6,413.2,168.3,413.2z"/>
<path class="st0" d="M168.3,403.3c-0.8,0-1.5,0.7-1.5,1.5c0,0.8,0.7,1.5,1.5,1.5c0.8,0,1.5-0.7,1.5-1.5c0-0.4-0.2-0.8-0.4-1.1
	C169.1,403.5,168.7,403.3,168.3,403.3z"/>
<circle class="st0" cx="178.2" cy="424.6" r="1.5"/>
<path class="st0" d="M183.2,428.1c-0.6,0-1.2,0.4-1.4,1c0.9,0.3,1.9,0.5,2.9,0.8c0.2-0.8-0.3-1.6-1.1-1.8
	C183.4,428.1,183.3,428,183.2,428.1L183.2,428.1z"/>
<circle class="st0" cx="173.3" cy="419.7" r="1.5"/>
<circle class="st0" cx="183.2" cy="419.7" r="1.5"/>
<path class="st0" d="M168.3,423.1c-0.4,0-0.7,0.2-1,0.4l1,0.5l1.5,0.7c0,0,0-0.1,0-0.1C169.8,423.8,169.1,423.1,168.3,423.1
	L168.3,423.1z"/>
<circle class="st0" cx="158.4" cy="394.9" r="1.5"/>
<circle class="st0" cx="163.4" cy="389.9" r="1.5"/>
<path class="st0" d="M158.4,413.2c-0.8,0-1.5,0.7-1.5,1.5c0,0.8,0.7,1.5,1.5,1.5s1.5-0.7,1.5-1.5l0,0
	C159.9,413.9,159.2,413.2,158.4,413.2z"/>
<circle class="st0" cx="158.4" cy="404.8" r="1.5"/>
<circle class="st0" cx="153.4" cy="409.8" r="1.5"/>
<circle class="st0" cx="163.4" cy="409.8" r="1.5"/>
<circle class="st0" cx="153.4" cy="399.9" r="1.5"/>
<circle class="st0" cx="163.4" cy="399.9" r="1.5"/>
<path class="st0" d="M148.5,403.3c-0.6,0-1.1,0.3-1.3,0.8c0.1,0.7,0.3,1.4,0.5,2c0.7,0.4,1.6,0.2,2-0.5c0.1-0.2,0.2-0.3,0.2-0.5
	c0.2-0.8-0.4-1.6-1.2-1.8C148.7,403.3,148.6,403.3,148.5,403.3L148.5,403.3z"/>
<path class="st0" d="M149.9,395.2c-0.3,0.3-0.6,0.7-0.8,1C149.5,396,149.8,395.7,149.9,395.2z"/>
<circle class="st0" cx="163.4" cy="419.7" r="1.5"/>
<path class="st1" d="M329.9,98.7l-0.2-3.8L327,39l-9.3-0.5l-7.2,49.8l-33.6,20.6c-4.2,2.1-8.5,2.2-13.7,1.9l0.4-25.8h-30.5
	l-3.2,25.7c-8.7,0.4-14.8-0.4-21.3,0.1c-4,0.4-7.5,2.9-9.1,6.6l-29.4,49.2l-3,4.6l1.1,3.5l18.7,59.8l9.1-2l-7.5-56.6l13.2-13.7
	c0.2,2,0.4,3.8,0.6,5.6c2.5,16.7,5.3,38.9,6.5,50c0.6,4.9,0.5,14.7,3.9,15c6.2,0.6,19.6-5.2,32.7-5.2c12.4,0,20.7,3.6,25.8,3
	c3.1-0.4,6.7,0.5,7.4-9.8c0.6-9.7,0.6-29,4.3-53.2c1.5-10.1,2.9-21,4-30.5l38.7-34.6L329.9,98.7z"/>
<path class="st2" d="M277.5,226l-68,1l0.3,3l-0.1,3.1l-0.9,15.5l-0.8,19.5l-1.4,39.5v0.8l2.4,44.6l1.3,22.3l1.4,22.3h12.6l1.5-22.3
	l1.4-22.3l2.6-44.6v0.9l5.1-39.3l2.5-19.7l1.3-3.6l1.5-0.1l4.8,0.3c0.1,2.7,1,5.2,1,8.2c0.1,7.9,0.3,17,0.4,26.9
	c0,4.9,0.1,10,0.1,15.2l0.1,7.8v2v1.5l0.1,1l0.2,3.9l1.8,30.9l1.4,27l1.2,26.3h12.6l1.3-26.3l1.5-27l1.9-30.9l0.2-3.9l0.1-1v-0.1
	c0-0.1,0,0.9,0,0.5v-0.1v-0.2l0-0.5l0.2-2l0.8-7.8l1.6-15.1c1-9.8,2.1-19,3-26.8s1.7-14.4,2.2-19C276.8,235.1,277.5,226,277.5,226z"
	/>
<polygon class="st2" points="224.2,412.3 194.6,415.9 194.6,410 210.8,397.5 224.2,397.5 "/>
<polygon class="st2" points="264.6,412.3 235.1,415.9 235.1,410 251.2,397.5 263.6,397.5 "/>
<polygon class="st2" points="328.9,17.7 319.8,14.2 316.3,28 309.9,23.6 306.7,26.8 317.6,39.7 319.3,40.7 322,40.6 327.5,42.5 
	331.6,31.1 "/>
<polygon class="st2" points="195.3,229 207.1,241.9 203.9,245.1 195.6,239.5 "/>
<polygon class="st2" points="186,230.1 195.4,229.2 201.3,236 203.9,253.3 194.1,253.5 186.4,242.2 "/>
<path class="st2" d="M265,72.1c0,10.4-2.2,22.5-16.6,22.5c-13.8,0-16.6-12-16.6-22.5c0-16.5,9.4-18.9,16.6-18.9S265,56,265,72.1z"/>
<path class="st2" d="M229.2,111c0,0,3.4,6.7,15.7,6.7s19.3-6.7,19.3-6.7"/>
<line class="st3" x1="288.2" y1="102" x2="304.8" y2="121.1"/>
<line class="st3" x1="184.9" y1="141.5" x2="198.8" y2="165.2"/>
<line class="st3" x1="277" y1="222" x2="271" y2="222"/>
<line class="st3" x1="279" y1="214" x2="272" y2="214"/>
<line class="st3" x1="279" y1="207" x2="271" y2="207"/>
<line class="st3" x1="280" y1="199" x2="270" y2="199"/>
<line class="st3" x1="280" y1="191" x2="270" y2="191"/>
<line class="st3" x1="281" y1="184" x2="269" y2="184"/>
<line class="st3" x1="281" y1="176" x2="268" y2="176"/>
<line class="st3" x1="282" y1="169" x2="267" y2="169"/>
<line class="st3" x1="283" y1="161" x2="268" y2="161"/>
<line class="st3" x1="285" y1="153" x2="270" y2="153"/>
<line class="st3" x1="285" y1="146" x2="274" y2="146"/>
<line class="st3" x1="287" y1="138" x2="276" y2="138"/>
<line class="st3" x1="294" y1="131" x2="277" y2="131"/>
<line class="st3" x1="302" y1="124" x2="277" y2="124"/>
<line class="st3" x1="302" y1="118" x2="274" y2="118"/>
<line class="st3" x1="297" y1="112" x2="272" y2="112"/>
<line class="st3" x1="293" y1="107" x2="281" y2="107"/>
<path class="st2" d="M246.6,53.3c0,0,2.4,3.5,1,6.2c-1.2,2-2.8,3.7-4.6,5"/>
<path class="st2" d="M243,53.8c0.6,1.9,0.4,3.9-0.4,5.7c-0.6,1.5-2,2.7-3.6,3"/>
<path class="st2" d="M251.7,54.1c0.6,1.7,0.6,3.5,0,5.2c-0.5,1.7-1.5,3.3-2.8,4.5"/>
<path class="st2" d="M257.1,55.1c0.1,1.7,0,3.4-0.4,5c-0.6,3-2.2,3.8-2.2,3.8"/>
</svg>
