<?xml version="1.0" encoding="utf-8"?>
<!-- Generator: Adobe Illustrator 21.0.2, SVG Export Plug-In . SVG Version: 6.00 Build 0)  -->
<svg version="1.1" id="Layer_1" xmlns="http://www.w3.org/2000/svg" xmlns:xlink="http://www.w3.org/1999/xlink" x="0px" y="0px"
	 viewBox="0 0 237.2 219.2" style="enable-background:new 0 0 237.2 219.2;" xml:space="preserve">
<style type="text/css">
	.st0{fill:#FFFFFF;}
	.st1{fill:#0000BF;}
</style>
<title>osallistu</title>
<g id="Layer_2">
	<g id="Layer_1-2">
		<rect x="6.9" y="26.7" class="st0" width="213.8" height="105.6"/>
		<path class="st1" d="M25.7,105.2c-0.1-0.2-0.1-0.3-0.2-0.5c-1.3,1.2-2.3,2.6-3.2,4.2c-1,1.6-1.7,3.3-2,5.2
			c-0.5,3.8,2.5,5.1,5.2,2.8c2.4-2.1,4.2-5.5,5.3-8.8C28.9,108.1,26.4,107.1,25.7,105.2z"/>
		<path class="st1" d="M223.5,14.6C222,8.2,216.5,3.5,210,3c-14.4-1.2-49.4-3-90.2-3C77.3,0,37.3,4,19.6,5.2
			c-7,0.5-12.7,5.6-13.9,12.5c-7.7,43.5-7.6,88,0.1,131.4c1.2,6.6,6.5,11.6,13.1,12.4c14.8,1.8,48.8,2.5,94.4,2.5
			c8.8,0,16.9-0.1,24.8-0.3l4.1,47.6l31.7-49c17-0.9,28.9-2,36-2.9c6.4-0.8,11.6-5.4,13.1-11.7c5-22.7,7.5-45.8,7.5-69
			C230.6,49.2,226.5,26.8,223.5,14.6z M55.9,108.9c-3,8.2-10.5,8.9-17.9,5.7c-0.5-0.2-0.9-0.5-1.3-0.8c-2,4.1-4.8,7.6-7.9,9.5
			c-3.8,2.3-8.7,2.1-12.3-0.5c-3.9-2.9-4.2-7.2-3.1-11.6c1.4-5.7,6.7-13.8,13-15.6c0.5-1.1,1.4-1.9,2.4-2.5c3.5-1.8,7.9,0.5,9.5,3.9
			s1.4,7.6,0.3,11.8c0.6,0,1.3,0.1,1.9,0.4c2.1,0.9,4.8,2,6.8,0.2c1-0.9,2.2-3.5,1.5-4.8c-0.6-1.1-3.4-1.9-4.4-2.6
			c-1-0.6-1.8-1.4-2.3-2.4c-2.7-5.2,4.8-9.7,8.8-11.3c3.6-1.4,7.5,4.3,3.1,6c-1.7,0.7-2.4,1.7-3.8,2.6c-0.1,0.1-0.8,1-1.2,1
			c1,0.9,4.5,2.6,5.1,3.1C56.4,102.8,57.2,106.1,55.9,108.9z M80.6,103.2c-2.1,2.2-4.9,1.8-6.8,0.2c-0.6,1-1.2,2-1.8,2.9
			c-2.6,3.7-8,6.2-11.8,2.5c-4-3.9-0.1-11.1,2-15c2.6-4.6,5.8-9.3,11.5-9.3l0.2-0.4c1.5-3.7,8.2-0.7,6.8,3.1l-0.8,2.1
			c-0.5,1.5-0.8,3.1-1,4.8c-0.2,1.4-0.3,2.8-0.3,4.2C80.7,99,82.3,101.3,80.6,103.2z M81.6,118.9c2.4-20.4,6.3-40.6,11.6-60.4
			c1-3.8,7.9-0.8,6.8,3c-5.1,19.3-8.9,39-11.2,58.8C88.4,124.6,81.2,122.7,81.6,118.9z M106.2,108.7c-0.1,4.2-7.4,2.3-7.3-1.5
			c0.6-20.9,5.4-41.5,14.2-60.5c1.7-3.6,8.5-0.5,6.8,3C111.4,68.3,106.8,88.3,106.2,108.7z M127.6,75.8c-2.4,6.7-3.4,13.7-3.1,20.8
			c0.2,4.1-7.1,2.3-7.3-1.5c-0.3-7.6,0.9-15.2,3.5-22.4C122.1,69.1,129,72.1,127.6,75.8z M131.6,64.9c-1.7,0.5-3.5,0-4.6-1.3
			c-1.1-1.1-1.1-2.8,0-3.9c0.1-0.2,0.3-0.3,0.5-0.4c1.3-0.7,2.8-0.9,4.2-0.6c1.8,0.4,3.4,1.8,3.4,3.8c-0.1,0.8-0.6,1.6-1.3,2
			C133.1,64.8,132.4,65,131.6,64.9L131.6,64.9z M211.3,58.3l-5.5,16.1c-1,3-5.7,1.6-6.8-1c-1.5,0.8-3.1,1.4-4.8,1.6
			c-7,0.9-7.9-5.1-7.2-11l0,0c-3.4,1-6.8,1.9-10.2,2.8c-1.7,8.4-3,16.8-4,25.3c-0.5,4.2-7.7,2.3-7.3-1.5c0.3-2.5,0.6-5,1-7.4
			c-3.7,6.2-19.2,6.2-24.4,6.3c-4.1,0.1-6.2-6.2-1.4-6.3c3.6,0,7.1-0.3,10.7-0.8c1.3-0.2,3.2-0.2,4.4-0.8c1.3,0.1,2-0.6,2.1-2.1
			c1.2-1.3,1-2-0.5-2.2c-2-1.6-6.8-1.7-9.3-2.2c-2.9-0.5-5.8-0.9-8.7-1.6s-7.2-2.2-6-6.1s7.3-6.3,10.7-7.5c3.7-1.3,7.6,4.5,3.1,6
			c-1.6,0.6-3.2,1.3-4.6,2.1l0.8,0.1c1.7,0.3,3.5,0.6,5.2,0.9c2.9,0.5,5.8,1.1,8.6,1.9c3.8,1.2,8.5,3.1,9.7,7.3
			c0.1,0.2,0.1,0.4,0.1,0.7c0.5-3.4,1.1-6.8,1.8-10.2c-1.1,0.2-2.3,0.5-3.4,0.8c-3.8,0.8-7.7-5.1-3.1-6c2.7-0.6,5.3-1.2,8-1.8
			c1.3-6.2,2.9-12.3,4.6-18.4c1.1-3.8,7.9-0.8,6.9,3c-1.2,4.4-2.4,8.9-3.4,13.3c1.8-0.5,3.7-1,5.5-1.6c1.5-0.3,3,0.2,4,1.3
			c0.4-1.6,0.9-3.1,1.2-4.2c1.2-3.7,8.1-0.7,6.9,3c-1,2.9-1.6,5.9-1.9,8.9v0.7l1.3-0.7c4.2-2.8,6.6-7.5,9-11.8
			C206.4,51.8,212.6,54.6,211.3,58.3L211.3,58.3z"/>
		<path class="st0" d="M25,134.8c60-23.7,123.4-38,187.8-42.3c4.9-0.3,2.8-6.5-1.4-6.3c-65,4.3-129,18.6-189.6,42.5
			C17.5,130.5,21.4,136.2,25,134.8L25,134.8z"/>
	</g>
</g>
</svg>
