<?xml version="1.0" encoding="utf-8"?>
<!-- Generator: Adobe Illustrator 21.0.2, SVG Export Plug-In . SVG Version: 6.00 Build 0)  -->
<svg version="1.1" id="Layer_1" xmlns="http://www.w3.org/2000/svg" xmlns:xlink="http://www.w3.org/1999/xlink" x="0px" y="0px"
	 viewBox="0 0 257 228.8" style="enable-background:new 0 0 257 228.8;" xml:space="preserve">
<style type="text/css">
	.st0{fill:#FFFFFF;}
	.st1{fill:#0000BF;}
</style>
<title>twitter</title>
<rect x="18" y="35.8" class="st0" width="213.8" height="105.6"/>
<path class="st1" d="M234.6,23.7c-1.5-6.4-7-11-13.5-11.6c-14.4-1.2-49.3-3-90.2-3c-42.5,0-82.6,4-100.2,5.2
	C23.8,14.8,18,20,16.8,26.8c-7.7,43.5-7.6,88,0.1,131.4c1.2,6.5,6.5,11.6,13.1,12.4c14.8,1.8,48.8,2.5,94.3,2.5
	c8.8,0,16.9-0.1,24.8-0.3l4.1,47.6l31.7-49c17-0.9,28.9-2,36-2.9c6.4-0.8,11.6-5.4,13.1-11.7c5-22.7,7.5-45.8,7.5-69
	C241.6,58.3,237.6,36,234.6,23.7z"/>
<path class="st0" d="M171.9,67.8c0.1,1,0.1,1.9,0.1,2.9c0,29.7-22.6,63.9-63.9,63.9c-12.2,0-24.2-3.5-34.5-10.1
	c1.8,0.2,3.6,0.3,5.4,0.3c10.1,0,19.9-3.4,27.9-9.6c-9.6-0.2-18-6.4-21-15.6c1.4,0.2,2.8,0.3,4.2,0.3c2,0,4-0.3,5.9-0.8
	C85.5,97,78,87.7,78,77v-0.3c3.1,1.7,6.6,2.7,10.2,2.8c-9.9-6.6-13-19.8-7-30.1c11.4,14.1,28.3,22.6,46.3,23.5
	c-0.3-1.7-0.5-3.4-0.5-5.1c0-12.4,10.1-22.5,22.5-22.5c6.2,0,12.1,2.6,16.4,7.1c5-1,9.9-2.8,14.3-5.4c-1.7,5.2-5.2,9.6-9.9,12.4
	c4.5-0.5,8.8-1.7,12.9-3.5C180.1,60.7,176.3,64.6,171.9,67.8z"/>
</svg>
