<?xml version="1.0" encoding="utf-8"?>
<!-- Generator: Adobe Illustrator 21.0.2, SVG Export Plug-In . SVG Version: 6.00 Build 0)  -->
<svg version="1.1" id="FI_x5F_EAKR" xmlns="http://www.w3.org/2000/svg" xmlns:xlink="http://www.w3.org/1999/xlink" x="0px"
	 y="0px" viewBox="0 0 300 96" style="enable-background:new 0 0 300 96;" xml:space="preserve">
<style type="text/css">
	.st0{fill:#FFFFFF;}
</style>
<path class="st0" d="M121,58.1h-16.3l16.2-29.7h1.2L121,58.1 M38.8,54.1c5.2,0,8.9,4.4,8.9,9.5c0,6.6-3.8,10.8-9.7,10.8
	c-5.9,0-9.3-4.9-9.3-10.3C28.7,59.1,31.7,54.1,38.8,54.1z M267.6,68c-2,2.6-4.8,4.8-8.5,4.8c-4.3,0-8.1-2.9-8.1-9
	c0-9.6,5.2-18.3,13.9-18.3c3.5,0,6.9,2.2,6.9,2.2L267.6,68z M158.5,16.9c0,5.1,3.9,9.1,8.8,9.1c5,0,8.9-4,8.9-9.1s-3.9-9.1-8.9-9.1
	C162.4,7.8,158.5,11.9,158.5,16.9z M162.2,84.3l10.5-50.8h-16.3l-10.4,50.8H162.2z M227.2,84.3l-11.7-29l21.4-21.8H219l-18.6,19.2
	l8.7-41.5h-16.4l-15,73.1h16l6.2-29.4l9.6,29.4H227.2z M281.1,84.3c3.3-17.2,6.7-33.5,9.9-50.8h-14.2l-1.3,2.1c0,0-5.2-3.1-10.9-3.1
	c-22.3,0-31.2,20.2-31.2,32.1c0,13.6,6.6,20.6,17.1,20.6c10.7,0,13.9-4.4,13.9-4.4h0.6v3.5H281.1z M38.4,87.1
	c17.4,0,24.8-12,24.8-24.9c0-11-8.4-20-20.2-20c-10.3,0-14.7,4.2-16.2,6.8c2.2-15.4,10.6-21.4,23-21.4c3.3,0,8,0.7,12.9,2.3V16.6
	c-3.4-1.3-8.5-2.2-13.6-2.2c-20.9,0-38,13.1-38,40.3C11,72.5,18.5,87.1,38.4,87.1z M72,84.3h18L97.8,70h22.7l-0.3,14.4h16.7V15.2
	h-25L72,84.3z"/>
</svg>
