<?xml version="1.0" encoding="utf-8"?>
<!-- Generator: Adobe Illustrator 21.0.2, SVG Export Plug-In . SVG Version: 6.00 Build 0)  -->
<svg version="1.1" id="FI_x5F_EAKR" xmlns="http://www.w3.org/2000/svg" xmlns:xlink="http://www.w3.org/1999/xlink" x="0px"
	 y="0px" viewBox="0 0 300 308" style="enable-background:new 0 0 300 308;" xml:space="preserve">
<style type="text/css">
	.st0{fill:#000099;}
	.st1{fill:#FFCC00;}
</style>
<g>
	<rect x="5.7" y="5.9" class="st0" width="289" height="192.7"/>
	<g>
		<polygon class="st1" points="150.2,27.4 152.6,34.9 160.4,34.9 154.1,39.5 156.5,46.9 150.2,42.3 143.9,46.9 146.3,39.5 140,34.9 
			147.8,34.9 		"/>
		<polygon class="st1" points="182.3,36.1 184.7,43.5 192.5,43.5 186.2,48.1 188.6,55.5 182.3,50.9 176,55.5 178.4,48.1 172.1,43.5 
			179.9,43.5 		"/>
		<polygon class="st1" points="205.7,59.5 208.1,66.9 215.9,66.9 209.6,71.5 212,78.9 205.7,74.4 199.4,78.9 201.8,71.5 195.5,66.9 
			203.3,66.9 		"/>
		<polygon class="st1" points="214.2,91.5 216.7,98.9 224.5,98.9 218.2,103.5 220.6,110.9 214.2,106.4 207.9,110.9 210.3,103.5 
			204,98.9 211.8,98.9 		"/>
		<polygon class="st1" points="205.7,123.5 208.1,130.9 215.9,130.9 209.6,135.5 212,142.9 205.7,138.4 199.4,142.9 201.8,135.5 
			195.5,130.9 203.3,130.9 		"/>
		<polygon class="st1" points="182.3,147 184.7,154.4 192.5,154.4 186.2,159 188.6,166.4 182.3,161.8 176,166.4 178.4,159 
			172.1,154.4 179.9,154.4 		"/>
		<polygon class="st1" points="150.2,155.6 152.6,163 160.4,163 154.1,167.6 156.5,175 150.2,170.4 143.9,175 146.3,167.6 140,163 
			147.8,163 		"/>
		<polygon class="st1" points="118.1,147 120.5,154.4 128.3,154.4 122,159 124.4,166.4 118.1,161.8 111.7,166.4 114.1,159 
			107.8,154.4 115.6,154.4 		"/>
		<polygon class="st1" points="94.7,123.5 97.1,130.9 104.9,130.9 98.6,135.5 101,142.9 94.7,138.4 88.4,142.9 90.8,135.5 
			84.5,130.9 92.3,130.9 		"/>
		<polygon class="st1" points="86.1,91.5 88.5,98.9 96.3,98.9 90,103.5 92.4,110.9 86.1,106.4 79.8,110.9 82.2,103.5 75.9,98.9 
			83.7,98.9 		"/>
		<polygon class="st1" points="94.7,59.5 97.1,66.9 104.9,66.9 98.6,71.5 101,78.9 94.7,74.4 88.4,78.9 90.8,71.5 84.5,66.9 
			92.3,66.9 		"/>
		<polygon class="st1" points="118.1,36.1 120.5,43.5 128.3,43.5 122,48.1 124.4,55.5 118.1,50.9 111.7,55.5 114.1,48.1 107.8,43.5 
			115.6,43.5 		"/>
	</g>
	<g>
		<path d="M292.4,258c-1-1.1-2.4-1.7-4-1.7c-1.7,0-3,0.6-4,1.7c-1,1.1-1.5,2.8-1.5,4.8c0,2,0.5,3.6,1.5,4.8c1,1.2,2.4,1.8,4.1,1.8
			c1.7,0,3-0.6,4-1.7c1-1.1,1.5-2.7,1.5-4.8C293.9,260.7,293.4,259.1,292.4,258z M290.8,266.2c-0.6,0.7-1.4,1.1-2.4,1.1
			c-1,0-1.8-0.4-2.4-1.1c-0.6-0.8-0.8-1.9-0.8-3.4c0-1.6,0.3-2.7,0.8-3.5c0.6-0.7,1.4-1.1,2.4-1.1c1,0,1.8,0.4,2.4,1.1
			c0.6,0.7,0.8,1.9,0.8,3.5C291.6,264.3,291.3,265.5,290.8,266.2z"/>
		<polygon points="6.6,269 16.9,269 16.9,266.9 8.9,266.9 8.9,261 16.4,261 16.4,258.9 8.9,258.9 8.9,254.6 16.9,254.6 16.9,252.5 
			6.6,252.5 		"/>
		<path d="M26.6,265.7c-0.5,0.4-1,0.7-1.5,1c-0.6,0.3-1.1,0.4-1.6,0.4c-0.5,0-0.9-0.1-1.2-0.2c-0.3-0.1-0.5-0.4-0.6-0.6
			c-0.2-0.3-0.3-0.7-0.3-1.1c0-0.4-0.1-1-0.1-1.6v-7h-2.2v8c0,0.8,0.1,1.5,0.3,2.1c0.2,0.6,0.5,1.1,0.8,1.5c0.4,0.4,0.8,0.7,1.3,0.9
			c0.5,0.2,1,0.3,1.5,0.3c0.7,0,1.4-0.1,1.9-0.4c0.5-0.3,1.1-0.6,1.7-1.1v1.2h2.2v-12.4h-2.2V265.7z"/>
		<path d="M38.1,256.6c-0.1,0-0.3,0-0.5,0c-0.5,0-1.1,0.1-1.7,0.4c-0.5,0.3-1.1,0.7-1.8,1.3v-1.7h-2.2V269h2.2v-8.7
			c0.5-0.4,1-0.8,1.5-1c0.5-0.2,1.1-0.4,1.6-0.4c0.2,0,0.4,0,0.6,0c0.2,0,0.3,0,0.5,0.1l0.2,0v-2.3l-0.1,0
			C38.3,256.6,38.2,256.6,38.1,256.6z"/>
		<path d="M44.7,256.3c-1.7,0-3,0.6-4,1.7c-1,1.1-1.5,2.8-1.5,4.8c0,2,0.5,3.6,1.5,4.8c1,1.2,2.4,1.8,4.1,1.8c1.7,0,3-0.6,4-1.7
			c1-1.1,1.5-2.7,1.5-4.8c0-2.1-0.5-3.7-1.5-4.8C47.7,256.8,46.4,256.3,44.7,256.3z M47.1,266.2c-0.6,0.7-1.4,1.1-2.4,1.1
			c-1,0-1.8-0.4-2.4-1.1c-0.6-0.8-0.8-1.9-0.8-3.4c0-1.6,0.3-2.7,0.8-3.5c0.6-0.7,1.4-1.1,2.4-1.1c1,0,1.8,0.4,2.4,1.1
			c0.6,0.7,0.8,1.9,0.8,3.5C47.9,264.3,47.7,265.5,47.1,266.2z"/>
		<path d="M57.1,256.3c-1.7,0-3,0.6-4,1.7c-1,1.1-1.5,2.8-1.5,4.8c0,2,0.5,3.6,1.5,4.8c1,1.2,2.4,1.8,4.1,1.8c1.7,0,3-0.6,4-1.7
			c1-1.1,1.5-2.7,1.5-4.8c0-2.1-0.5-3.7-1.5-4.8C60.1,256.8,58.7,256.3,57.1,256.3z M59.5,266.2c-0.6,0.7-1.4,1.1-2.4,1.1
			c-1,0-1.8-0.4-2.4-1.1c-0.6-0.8-0.8-1.9-0.8-3.4c0-1.6,0.3-2.7,0.8-3.5c0.6-0.7,1.4-1.1,2.4-1.1c1,0,1.8,0.4,2.4,1.1
			c0.6,0.7,0.8,1.9,0.8,3.5C60.3,264.3,60,265.5,59.5,266.2z"/>
		<path d="M70.6,256.3c-0.7,0-1.4,0.2-2.1,0.5c-0.6,0.3-1.1,0.6-1.6,1v-1.2h-2.2v16.9H67v-5c0.4,0.3,0.9,0.4,1.3,0.6
			c0.5,0.1,1,0.2,1.6,0.2c1.5,0,2.8-0.6,3.8-1.8c1-1.2,1.5-2.9,1.5-4.9c0-1.9-0.4-3.4-1.2-4.5C73.2,256.8,72,256.3,70.6,256.3z
			 M72,266c-0.6,0.8-1.4,1.1-2.4,1.1c-0.5,0-0.9,0-1.3-0.1c-0.4-0.1-0.8-0.3-1.3-0.5v-6.8c0.5-0.4,1-0.7,1.5-1
			c0.5-0.3,1.1-0.4,1.6-0.4c1,0,1.6,0.4,2.1,1.1c0.4,0.7,0.7,1.8,0.7,3.2C72.9,264.2,72.6,265.3,72,266z"/>
		<path d="M85,257.2c-0.5-0.3-1-0.6-1.6-0.7c-0.6-0.1-1.3-0.2-2.1-0.2c-0.7,0-1.4,0.1-2.1,0.2c-0.7,0.1-1.3,0.3-1.6,0.4l-0.1,0v2.2
			h0.2l0,0c0.6-0.3,1.3-0.5,1.9-0.6c0.6-0.1,1.2-0.2,1.6-0.2c0.4,0,0.8,0,1.2,0.1c0.4,0.1,0.7,0.2,0.9,0.3c0.2,0.1,0.4,0.4,0.6,0.6
			c0.1,0.3,0.2,0.7,0.2,1.1v0.3c-1,0.1-2,0.1-2.9,0.3c-0.9,0.1-1.8,0.3-2.4,0.7c-0.8,0.4-1.4,0.8-1.7,1.5c-0.4,0.6-0.5,1.3-0.5,2.2
			c0,0.6,0.1,1.1,0.3,1.6c0.2,0.5,0.5,0.9,0.8,1.3c0.3,0.3,0.8,0.6,1.2,0.8c0.5,0.2,1,0.3,1.5,0.3c0.6,0,1.1-0.1,1.5-0.2
			c0.3-0.1,0.7-0.3,1.1-0.4c0.3-0.1,0.5-0.3,0.8-0.5c0.2-0.2,0.4-0.3,0.5-0.4v1.2h2.2v-8.4c0-0.8-0.1-1.4-0.3-2
			C85.8,258,85.5,257.6,85,257.2z M84.1,265.8c-0.4,0.4-0.9,0.7-1.4,1c-0.5,0.3-1.1,0.4-1.7,0.4c-0.7,0-1.3-0.2-1.7-0.5
			c-0.4-0.3-0.6-0.8-0.6-1.5c0-0.6,0.2-1.1,0.5-1.4c0.3-0.3,0.8-0.6,1.3-0.7c0.5-0.1,1.1-0.2,1.8-0.3c0.7-0.1,1.3-0.1,1.7-0.2V265.8
			z"/>
		<path d="M95.1,256.3c-0.7,0-1.3,0.1-1.9,0.4c-0.6,0.3-1.1,0.6-1.7,1.1v-1.2h-2.2V269h2.2v-9.1c0.5-0.4,1-0.8,1.5-1
			c0.5-0.3,1-0.4,1.5-0.4c0.5,0,0.9,0.1,1.2,0.2c0.3,0.1,0.5,0.4,0.7,0.6c0.1,0.3,0.2,0.7,0.3,1.1c0.1,0.5,0.1,1,0.1,1.6v7H99v-8
			c0-1.5-0.3-2.7-1-3.5C97.3,256.7,96.3,256.3,95.1,256.3z"/>
		<path d="M116.8,257.2c-0.5-0.3-1-0.6-1.6-0.7c-0.6-0.1-1.3-0.2-2.1-0.2c-0.7,0-1.4,0.1-2.1,0.2c-0.7,0.1-1.3,0.3-1.6,0.4l-0.1,0
			v2.2h0.2l0,0c0.6-0.3,1.3-0.5,1.9-0.6c0.6-0.1,1.2-0.2,1.6-0.2c0.4,0,0.8,0,1.2,0.1c0.4,0.1,0.7,0.2,0.9,0.3
			c0.2,0.1,0.4,0.4,0.6,0.6c0.1,0.3,0.2,0.7,0.2,1.1v0.3c-1,0.1-2,0.1-2.9,0.3c-0.9,0.1-1.8,0.3-2.4,0.7c-0.8,0.4-1.4,0.8-1.7,1.5
			c-0.4,0.6-0.5,1.3-0.5,2.2c0,0.6,0.1,1.1,0.3,1.6c0.2,0.5,0.5,0.9,0.8,1.3c0.3,0.3,0.8,0.6,1.2,0.8s1,0.3,1.5,0.3
			c0.6,0,1.1-0.1,1.5-0.2c0.3-0.1,0.7-0.3,1.1-0.4c0.3-0.1,0.5-0.3,0.8-0.5c0.2-0.2,0.4-0.3,0.5-0.4v1.2h2.2v-8.4
			c0-0.8-0.1-1.4-0.3-2C117.6,258,117.3,257.6,116.8,257.2z M116,265.8c-0.4,0.4-0.9,0.7-1.4,1c-0.5,0.3-1.1,0.4-1.7,0.4
			c-0.7,0-1.3-0.2-1.7-0.5c-0.4-0.3-0.6-0.8-0.6-1.5c0-0.6,0.2-1.1,0.5-1.4c0.3-0.3,0.8-0.6,1.3-0.7c0.5-0.1,1.1-0.2,1.8-0.3
			c0.7-0.1,1.3-0.1,1.7-0.2V265.8z"/>
		<rect x="121.2" y="251.8" width="2.2" height="17.2"/>
		<path d="M133.9,267.7v1.2h2.2v-12.4h-2.2v9.1c-0.5,0.4-1,0.7-1.5,1c-0.6,0.3-1.1,0.4-1.6,0.4c-0.5,0-0.9-0.1-1.2-0.2
			c-0.3-0.1-0.5-0.4-0.6-0.6c-0.2-0.3-0.3-0.7-0.3-1.1c0-0.4-0.1-1-0.1-1.6v-7h-2.2v8c0,0.8,0.1,1.5,0.3,2.1
			c0.2,0.6,0.5,1.1,0.8,1.5c0.4,0.4,0.8,0.7,1.3,0.9c0.5,0.2,1,0.3,1.5,0.3c0.7,0,1.4-0.1,1.9-0.4
			C132.7,268.6,133.3,268.2,133.9,267.7z"/>
		<path d="M147.8,268.6c0.4-0.1,0.7-0.3,0.9-0.4l0.1,0v-2.4h-0.2l0,0c-0.2,0.1-0.4,0.3-0.6,0.4c-0.2,0.2-0.6,0.3-0.9,0.5
			c-0.3,0.2-0.7,0.3-1.2,0.4c-0.4,0.1-0.9,0.2-1.3,0.2c-1.2,0-2.2-0.4-2.9-1.1c-0.7-0.7-1-1.8-1-3.1h8.4v-1.2c0-1-0.1-1.8-0.4-2.5
			c-0.2-0.7-0.6-1.3-1-1.7c-0.4-0.5-1-0.8-1.6-1c-0.6-0.2-1.3-0.3-2-0.3c-1.7,0-3.1,0.6-4.1,1.8c-1.1,1.2-1.6,2.8-1.6,4.8
			c0,2,0.5,3.6,1.6,4.7c1.1,1.1,2.6,1.7,4.6,1.7c0.5,0,0.9,0,1.2-0.1c0.3-0.1,0.7-0.1,1.1-0.3C147.1,268.8,147.5,268.7,147.8,268.6z
			 M140.9,260.1c0.2-0.4,0.4-0.7,0.7-1c0.3-0.3,0.6-0.5,1-0.7c0.4-0.2,0.8-0.2,1.4-0.2c0.5,0,1,0.1,1.4,0.2c0.4,0.2,0.7,0.4,0.9,0.7
			c0.2,0.3,0.4,0.6,0.5,1c0.1,0.4,0.2,0.8,0.2,1.3h-6.2C140.6,260.9,140.7,260.4,140.9,260.1z"/>
		<polygon points="160.8,256.6 158,256.6 153.3,261.6 153.3,251.8 151.1,251.8 151.1,269 153.3,269 153.3,263.8 154.1,263.1 
			158.5,268.9 158.6,269 161.5,269 155.7,261.8 160.7,256.7 		"/>
		<path d="M171.9,268.2v-2.4h-0.2l0,0c-0.2,0.1-0.4,0.3-0.6,0.4c-0.2,0.2-0.6,0.3-0.9,0.5c-0.3,0.2-0.7,0.3-1.2,0.4
			c-0.4,0.1-0.9,0.2-1.3,0.2c-1.2,0-2.2-0.4-2.9-1.1c-0.7-0.7-1-1.8-1-3.1h8.4v-1.2c0-1-0.1-1.8-0.4-2.5c-0.2-0.7-0.6-1.3-1-1.7
			c-0.4-0.5-1-0.8-1.6-1c-0.6-0.2-1.3-0.3-2-0.3c-1.7,0-3.1,0.6-4.1,1.8c-1.1,1.2-1.6,2.8-1.6,4.8c0,2,0.5,3.6,1.6,4.7
			c1.1,1.1,2.6,1.7,4.6,1.7c0.5,0,0.9,0,1.2-0.1c0.3-0.1,0.7-0.1,1.1-0.3c0.3-0.1,0.6-0.2,1-0.3
			C171.3,268.4,171.6,268.3,171.9,268.2L171.9,268.2z M164,260.1c0.2-0.4,0.4-0.7,0.7-1c0.3-0.3,0.6-0.5,1-0.7
			c0.4-0.2,0.8-0.2,1.4-0.2c0.5,0,1,0.1,1.4,0.2c0.4,0.2,0.7,0.4,0.9,0.7c0.2,0.3,0.4,0.6,0.5,1c0.1,0.4,0.2,0.8,0.2,1.3h-6.2
			C163.7,260.9,163.8,260.4,164,260.1z"/>
		<path d="M184,269v-8c0-1.5-0.3-2.7-1-3.5c-0.7-0.8-1.7-1.2-2.9-1.2c-0.7,0-1.3,0.1-1.9,0.4c-0.6,0.3-1.1,0.6-1.7,1.1v-6h-2.2V269
			h2.2v-9.1c0.5-0.4,1-0.8,1.5-1c0.5-0.3,1-0.4,1.5-0.4c0.5,0,0.9,0.1,1.2,0.2c0.3,0.1,0.5,0.4,0.7,0.6c0.1,0.3,0.2,0.7,0.3,1.1
			c0.1,0.5,0.1,1,0.1,1.6v7H184z"/>
		<rect x="187" y="256.6" width="2.2" height="12.4"/>
		<rect x="186.8" y="252.4" width="2.5" height="2.3"/>
		<path d="M200.6,273.5h2.4l6.6-16.7l0-0.1h-2.3l-3.3,8.8l-3.2-8.8l0-0.1h-2.3h-0.1h-3.7v-3.5h-2.2v3.5H191v1.9h1.4v6.7
			c0,1.4,0.3,2.4,1,3.1c0.6,0.7,1.5,1,2.7,1c0.3,0,0.7,0,1.1-0.1c0.4-0.1,0.8-0.1,1.2-0.3l0.1,0v-2h-0.2l0,0
			c-0.1,0.1-0.4,0.1-0.7,0.2c-0.3,0.1-0.6,0.1-0.9,0.1c-0.5,0-0.8-0.1-1.1-0.2c-0.3-0.1-0.4-0.3-0.6-0.5c-0.1-0.3-0.2-0.6-0.2-0.9
			c0-0.3,0-0.8,0-1.4v-5.7h3.8v-1.6l4.3,11.4l-2.2,5L200.6,273.5z"/>
		<path d="M216.6,269c0.6-0.2,1.1-0.5,1.5-0.8c0.4-0.3,0.7-0.8,0.9-1.2c0.2-0.5,0.3-1,0.3-1.5c0-0.9-0.2-1.7-0.7-2.2
			c-0.5-0.5-1.2-0.9-2.1-1.2c-0.4-0.1-0.8-0.2-1.2-0.3c-0.4-0.1-0.7-0.2-1-0.2c-0.6-0.2-1-0.4-1.3-0.6c-0.3-0.2-0.4-0.6-0.4-1.1
			c0-0.5,0.2-0.9,0.7-1.2c0.4-0.3,1-0.4,1.7-0.4c0.6,0,1.3,0.1,1.9,0.4c0.6,0.2,1.2,0.6,1.7,1l0,0h0.2v-2.3l0,0
			c-0.5-0.3-1.1-0.5-1.7-0.6c-0.7-0.2-1.4-0.3-2.1-0.3c-1.4,0-2.5,0.4-3.4,1.1c-0.8,0.7-1.3,1.6-1.3,2.8c0,0.8,0.2,1.5,0.7,2.1
			c0.4,0.6,1.1,1,2.1,1.3c0.4,0.1,0.8,0.2,1.2,0.3c0.4,0.1,0.8,0.2,1,0.2c0.7,0.2,1.1,0.4,1.4,0.6c0.2,0.2,0.4,0.6,0.4,1
			c0,0.4-0.1,0.6-0.2,0.8c-0.1,0.2-0.3,0.3-0.5,0.5c-0.2,0.1-0.4,0.2-0.8,0.3c-0.9,0.2-1.6,0.1-2.3-0.1c-0.4-0.1-0.8-0.3-1.1-0.4
			c-0.4-0.2-0.7-0.4-0.9-0.5c-0.2-0.2-0.4-0.3-0.6-0.5l0,0h-0.2v2.5l0,0c0.5,0.2,1.1,0.5,1.8,0.7c0.7,0.2,1.5,0.3,2.3,0.3
			C215.4,269.3,216.1,269.2,216.6,269z"/>
		<path d="M227.3,258.9c0.2,0,0.3,0,0.5,0.1l0.2,0v-2.3l-0.1,0c-0.1,0-0.3,0-0.4-0.1c-0.1,0-0.3,0-0.5,0c-0.5,0-1.1,0.1-1.7,0.4
			c-0.5,0.3-1.1,0.7-1.8,1.3v-1.7h-2.2V269h2.2v-8.7c0.5-0.4,1-0.8,1.5-1c0.5-0.2,1.1-0.4,1.6-0.4
			C226.9,258.9,227.1,258.9,227.3,258.9z"/>
		<path d="M236,267.8v1.2h2.2v-8.4c0-0.8-0.1-1.4-0.3-2c-0.2-0.5-0.6-1-1-1.3c-0.5-0.3-1-0.6-1.6-0.7c-0.6-0.1-1.3-0.2-2.1-0.2
			c-0.7,0-1.4,0.1-2.1,0.2c-0.7,0.1-1.3,0.3-1.6,0.4l-0.1,0v2.2h0.2l0,0c0.6-0.3,1.3-0.5,1.9-0.6c0.6-0.1,1.2-0.2,1.6-0.2
			c0.4,0,0.8,0,1.2,0.1c0.4,0.1,0.7,0.2,0.9,0.3c0.2,0.1,0.4,0.4,0.6,0.6c0.1,0.3,0.2,0.7,0.2,1.1v0.3c-1,0.1-2,0.1-2.9,0.3
			c-0.9,0.1-1.8,0.3-2.4,0.7c-0.8,0.4-1.4,0.8-1.7,1.5c-0.4,0.6-0.5,1.3-0.5,2.2c0,0.6,0.1,1.1,0.3,1.6c0.2,0.5,0.5,0.9,0.8,1.3
			c0.3,0.3,0.8,0.6,1.2,0.8s1,0.3,1.5,0.3c0.6,0,1.1-0.1,1.5-0.2c0.3-0.1,0.7-0.3,1.1-0.4c0.3-0.1,0.5-0.3,0.8-0.5
			C235.7,268,235.9,267.9,236,267.8z M234.6,266.8c-0.5,0.3-1.1,0.4-1.7,0.4c-0.7,0-1.3-0.2-1.7-0.5c-0.4-0.3-0.6-0.8-0.6-1.5
			c0-0.6,0.2-1.1,0.5-1.4c0.3-0.3,0.8-0.6,1.3-0.7c0.5-0.1,1.1-0.2,1.8-0.3c0.7-0.1,1.3-0.1,1.7-0.2v3.2
			C235.6,266.2,235.1,266.6,234.6,266.8z"/>
		<path d="M243.4,259.8c0.5-0.4,1-0.8,1.5-1c0.5-0.3,1-0.4,1.5-0.4c0.5,0,0.9,0.1,1.2,0.2c0.3,0.1,0.5,0.4,0.7,0.6
			c0.1,0.3,0.2,0.7,0.3,1.1c0.1,0.5,0.1,1,0.1,1.6v7h2.2v-8c0-1.5-0.3-2.7-1-3.5c-0.7-0.8-1.7-1.2-2.9-1.2c-0.7,0-1.3,0.1-1.9,0.4
			c-0.6,0.3-1.1,0.6-1.7,1.1v-6h-2.2V269h2.2V259.8z"/>
		<path d="M261.5,257.2c-0.5-0.3-1-0.6-1.6-0.7c-0.6-0.1-1.3-0.2-2.1-0.2c-0.7,0-1.4,0.1-2.1,0.2c-0.7,0.1-1.3,0.3-1.6,0.4l-0.1,0
			v2.2h0.2l0,0c0.6-0.3,1.3-0.5,1.9-0.6c0.6-0.1,1.2-0.2,1.6-0.2c0.4,0,0.8,0,1.2,0.1c0.4,0.1,0.7,0.2,0.9,0.3
			c0.2,0.1,0.4,0.4,0.6,0.6c0.1,0.3,0.2,0.7,0.2,1.1v0.3c-1,0.1-2,0.1-2.9,0.3c-0.9,0.1-1.8,0.3-2.4,0.7c-0.8,0.4-1.4,0.8-1.7,1.5
			c-0.4,0.6-0.5,1.3-0.5,2.2c0,0.6,0.1,1.1,0.3,1.6c0.2,0.5,0.5,0.9,0.8,1.3c0.3,0.3,0.8,0.6,1.2,0.8s1,0.3,1.5,0.3
			c0.6,0,1.1-0.1,1.5-0.2c0.3-0.1,0.7-0.3,1.1-0.4c0.3-0.1,0.5-0.3,0.8-0.5c0.2-0.2,0.4-0.3,0.5-0.4v1.2h2.2v-8.4
			c0-0.8-0.1-1.4-0.3-2C262.3,258,262,257.6,261.5,257.2z M260.7,265.8c-0.4,0.4-0.9,0.7-1.4,1c-0.5,0.3-1.1,0.4-1.7,0.4
			c-0.7,0-1.3-0.2-1.7-0.5c-0.4-0.3-0.6-0.8-0.6-1.5c0-0.6,0.2-1.1,0.5-1.4c0.3-0.3,0.8-0.6,1.3-0.7c0.5-0.1,1.1-0.2,1.8-0.3
			c0.7-0.1,1.3-0.1,1.7-0.2V265.8z"/>
		<path d="M271.3,262c-0.4-0.1-0.8-0.2-1.2-0.3c-0.4-0.1-0.7-0.2-1-0.2c-0.6-0.2-1-0.4-1.3-0.6c-0.3-0.2-0.4-0.6-0.4-1.1
			c0-0.5,0.2-0.9,0.7-1.2c0.4-0.3,1-0.4,1.7-0.4c0.6,0,1.3,0.1,1.9,0.4c0.6,0.2,1.2,0.6,1.7,1l0,0h0.2v-2.3l0,0
			c-0.5-0.3-1.1-0.5-1.7-0.6c-0.7-0.2-1.4-0.3-2.1-0.3c-1.4,0-2.5,0.4-3.4,1.1c-0.8,0.7-1.3,1.6-1.3,2.8c0,0.8,0.2,1.5,0.7,2.1
			c0.4,0.6,1.1,1,2.1,1.3c0.4,0.1,0.8,0.2,1.2,0.3c0.4,0.1,0.8,0.2,1,0.2c0.7,0.2,1.1,0.4,1.4,0.6c0.2,0.2,0.4,0.6,0.4,1
			c0,0.4-0.1,0.6-0.2,0.8c-0.1,0.2-0.3,0.3-0.5,0.5c-0.2,0.1-0.4,0.2-0.8,0.3c-0.9,0.2-1.6,0.1-2.3-0.1c-0.4-0.1-0.8-0.3-1.1-0.4
			c-0.4-0.2-0.7-0.4-0.9-0.5c-0.2-0.2-0.4-0.3-0.6-0.5l0,0h-0.2v2.5l0,0c0.5,0.2,1.1,0.5,1.8,0.7c0.7,0.2,1.5,0.3,2.3,0.3
			c0.8,0,1.5-0.1,2.1-0.3c0.6-0.2,1.1-0.5,1.5-0.8c0.4-0.3,0.7-0.8,0.9-1.2c0.2-0.5,0.3-1,0.3-1.5c0-0.9-0.2-1.7-0.7-2.2
			C272.9,262.6,272.2,262.2,271.3,262z"/>
		<path d="M278.4,253.1h-2.2v3.5h-1.4v1.9h1.4v6.7c0,1.4,0.3,2.4,1,3.1c0.6,0.7,1.5,1,2.7,1c0.3,0,0.7,0,1.1-0.1
			c0.4-0.1,0.8-0.1,1.2-0.3l0.1,0v-2h-0.2l0,0c-0.1,0.1-0.4,0.1-0.7,0.2c-0.3,0.1-0.6,0.1-0.9,0.1c-0.5,0-0.8-0.1-1.1-0.2
			c-0.3-0.1-0.4-0.3-0.6-0.5c-0.1-0.3-0.2-0.6-0.2-0.9c0-0.3,0-0.8,0-1.4v-5.7h3.8v-1.9h-3.8V253.1z"/>
		<polygon points="6.6,298.6 16.9,298.6 16.9,296.5 8.9,296.5 8.9,290.6 16.4,290.6 16.4,288.5 8.9,288.5 8.9,284.2 16.9,284.2 
			16.9,282.1 6.6,282.1 		"/>
		<path d="M26.6,295.3c-0.5,0.4-1,0.7-1.5,1c-0.6,0.3-1.1,0.4-1.6,0.4c-0.5,0-0.9-0.1-1.2-0.2c-0.3-0.1-0.5-0.4-0.6-0.6
			c-0.2-0.3-0.3-0.7-0.3-1.1c0-0.4-0.1-1-0.1-1.6v-7h-2.2v8c0,0.8,0.1,1.5,0.3,2.1c0.2,0.6,0.5,1.1,0.8,1.5c0.4,0.4,0.8,0.7,1.3,0.9
			c0.5,0.2,1,0.3,1.5,0.3c0.7,0,1.4-0.1,1.9-0.4c0.5-0.3,1.1-0.6,1.7-1.1v1.2h2.2v-12.4h-2.2V295.3z"/>
		<path d="M38.1,286.2c-0.1,0-0.3,0-0.5,0c-0.5,0-1.1,0.1-1.7,0.4c-0.5,0.3-1.1,0.7-1.8,1.3v-1.7h-2.2v12.4h2.2v-8.7
			c0.5-0.4,1-0.8,1.5-1c0.5-0.2,1.1-0.4,1.6-0.4c0.2,0,0.4,0,0.6,0c0.2,0,0.3,0,0.5,0.1l0.2,0v-2.3l-0.1,0
			C38.3,286.2,38.2,286.2,38.1,286.2z"/>
		<path d="M44.7,285.9c-1.7,0-3,0.6-4,1.7c-1,1.1-1.5,2.8-1.5,4.8c0,2,0.5,3.6,1.5,4.8c1,1.2,2.4,1.8,4.1,1.8c1.7,0,3-0.6,4-1.7
			c1-1.1,1.5-2.7,1.5-4.8c0-2.1-0.5-3.7-1.5-4.8C47.7,286.4,46.4,285.9,44.7,285.9z M47.1,295.8c-0.6,0.7-1.4,1.1-2.4,1.1
			c-1,0-1.8-0.4-2.4-1.1c-0.6-0.8-0.8-1.9-0.8-3.4c0-1.6,0.3-2.7,0.8-3.5c0.6-0.7,1.4-1.1,2.4-1.1c1,0,1.8,0.4,2.4,1.1
			c0.6,0.7,0.8,1.9,0.8,3.5C47.9,293.9,47.7,295.1,47.1,295.8z"/>
		<path d="M57.1,285.9c-1.7,0-3,0.6-4,1.7c-1,1.1-1.5,2.8-1.5,4.8c0,2,0.5,3.6,1.5,4.8c1,1.2,2.4,1.8,4.1,1.8c1.7,0,3-0.6,4-1.7
			c1-1.1,1.5-2.7,1.5-4.8c0-2.1-0.5-3.7-1.5-4.8C60.1,286.4,58.7,285.9,57.1,285.9z M59.5,295.8c-0.6,0.7-1.4,1.1-2.4,1.1
			c-1,0-1.8-0.4-2.4-1.1c-0.6-0.8-0.8-1.9-0.8-3.4c0-1.6,0.3-2.7,0.8-3.5c0.6-0.7,1.4-1.1,2.4-1.1c1,0,1.8,0.4,2.4,1.1
			c0.6,0.7,0.8,1.9,0.8,3.5C60.3,293.9,60,295.1,59.5,295.8z"/>
		<path d="M70.6,285.9c-0.7,0-1.4,0.2-2.1,0.5c-0.6,0.3-1.1,0.6-1.6,1v-1.2h-2.2v16.9H67v-5c0.4,0.3,0.9,0.4,1.3,0.6
			c0.5,0.1,1,0.2,1.6,0.2c1.5,0,2.8-0.6,3.8-1.8c1-1.2,1.5-2.9,1.5-4.9c0-1.9-0.4-3.4-1.2-4.5C73.2,286.4,72,285.9,70.6,285.9z
			 M72,295.6c-0.6,0.8-1.4,1.1-2.4,1.1c-0.5,0-0.9,0-1.3-0.1c-0.4-0.1-0.8-0.3-1.3-0.5v-6.8c0.5-0.4,1-0.7,1.5-1
			c0.5-0.3,1.1-0.4,1.6-0.4c1,0,1.6,0.4,2.1,1.1c0.4,0.7,0.7,1.8,0.7,3.2C72.9,293.8,72.6,294.9,72,295.6z"/>
		<path d="M85,286.8c-0.5-0.3-1-0.6-1.6-0.7c-0.6-0.1-1.3-0.2-2.1-0.2c-0.7,0-1.4,0.1-2.1,0.2c-0.7,0.1-1.3,0.3-1.6,0.4l-0.1,0v2.2
			h0.2l0,0c0.6-0.3,1.3-0.5,1.9-0.6c0.6-0.1,1.2-0.2,1.6-0.2c0.4,0,0.8,0,1.2,0.1c0.4,0.1,0.7,0.2,0.9,0.3c0.2,0.1,0.4,0.4,0.6,0.6
			c0.1,0.3,0.2,0.7,0.2,1.1v0.3c-1,0.1-2,0.1-2.9,0.3c-0.9,0.1-1.8,0.3-2.4,0.7c-0.8,0.4-1.4,0.8-1.7,1.5c-0.4,0.6-0.5,1.3-0.5,2.2
			c0,0.6,0.1,1.1,0.3,1.6c0.2,0.5,0.5,0.9,0.8,1.3c0.3,0.3,0.8,0.6,1.2,0.8c0.5,0.2,1,0.3,1.5,0.3c0.6,0,1.1-0.1,1.5-0.2
			c0.3-0.1,0.7-0.3,1.1-0.4c0.3-0.1,0.5-0.3,0.8-0.5c0.2-0.2,0.4-0.3,0.5-0.4v1.2h2.2v-8.4c0-0.8-0.1-1.4-0.3-2
			C85.8,287.6,85.5,287.2,85,286.8z M84.1,295.4c-0.4,0.4-0.9,0.7-1.4,1c-0.5,0.3-1.1,0.4-1.7,0.4c-0.7,0-1.3-0.2-1.7-0.5
			c-0.4-0.3-0.6-0.8-0.6-1.5c0-0.6,0.2-1.1,0.5-1.4c0.3-0.3,0.8-0.6,1.3-0.7c0.5-0.1,1.1-0.2,1.8-0.3c0.7-0.1,1.3-0.1,1.7-0.2V295.4
			z"/>
		<path d="M95.1,285.9c-0.7,0-1.3,0.1-1.9,0.4c-0.6,0.3-1.1,0.6-1.7,1.1v-1.2h-2.2v12.4h2.2v-9.1c0.5-0.4,1-0.8,1.5-1
			c0.5-0.3,1-0.4,1.5-0.4c0.5,0,0.9,0.1,1.2,0.2c0.3,0.1,0.5,0.4,0.7,0.6c0.1,0.3,0.2,0.7,0.3,1.1c0.1,0.5,0.1,1,0.1,1.6v7H99v-8
			c0-1.5-0.3-2.7-1-3.5C97.3,286.3,96.3,285.9,95.1,285.9z"/>
		<path d="M114.6,291.6c-0.4-0.1-0.8-0.2-1.2-0.3c-0.4-0.1-0.7-0.2-1-0.2c-0.6-0.2-1-0.4-1.3-0.6c-0.3-0.2-0.4-0.6-0.4-1.1
			c0-0.5,0.2-0.9,0.7-1.2c0.4-0.3,1-0.4,1.7-0.4c0.6,0,1.3,0.1,1.9,0.4c0.6,0.2,1.2,0.6,1.7,1l0,0h0.2v-2.3l0,0
			c-0.5-0.3-1.1-0.5-1.7-0.6c-0.7-0.2-1.4-0.3-2.1-0.3c-1.4,0-2.5,0.4-3.4,1.1c-0.8,0.7-1.3,1.6-1.3,2.8c0,0.8,0.2,1.5,0.7,2.1
			c0.4,0.6,1.1,1,2.1,1.3c0.4,0.1,0.8,0.2,1.2,0.3c0.4,0.1,0.8,0.2,1,0.2c0.7,0.2,1.1,0.4,1.4,0.6c0.2,0.2,0.4,0.6,0.4,1
			c0,0.4-0.1,0.6-0.2,0.8c-0.1,0.2-0.3,0.3-0.5,0.5c-0.2,0.1-0.4,0.2-0.8,0.3c-0.9,0.2-1.6,0.1-2.3-0.1c-0.4-0.1-0.8-0.3-1.1-0.4
			c-0.4-0.2-0.7-0.4-0.9-0.5c-0.2-0.2-0.4-0.3-0.6-0.5l0,0h-0.2v2.5l0,0c0.5,0.2,1.1,0.5,1.8,0.7c0.7,0.2,1.5,0.3,2.3,0.3
			c0.8,0,1.5-0.1,2.1-0.3c0.6-0.2,1.1-0.5,1.5-0.8c0.4-0.3,0.7-0.8,0.9-1.2c0.2-0.5,0.3-1,0.3-1.5c0-0.9-0.2-1.7-0.7-2.2
			C116.2,292.2,115.5,291.8,114.6,291.6z"/>
		<path d="M124,285.9c-1.7,0-3,0.6-4,1.7c-1,1.1-1.5,2.8-1.5,4.8c0,2,0.5,3.6,1.5,4.8c1,1.2,2.4,1.8,4.1,1.8c1.7,0,3-0.6,4-1.7
			c1-1.1,1.5-2.7,1.5-4.8c0-2.1-0.5-3.7-1.5-4.8C127.1,286.4,125.7,285.9,124,285.9z M126.4,295.8c-0.6,0.7-1.4,1.1-2.4,1.1
			c-1,0-1.8-0.4-2.4-1.1c-0.6-0.8-0.8-1.9-0.8-3.4c0-1.6,0.3-2.7,0.8-3.5c0.6-0.7,1.4-1.1,2.4-1.1c1,0,1.8,0.4,2.4,1.1
			c0.6,0.7,0.8,1.9,0.8,3.5C127.3,293.9,127,295.1,126.4,295.8z"/>
		<path d="M137.2,291.6c-0.4-0.1-0.8-0.2-1.2-0.3c-0.4-0.1-0.7-0.2-1-0.2c-0.6-0.2-1-0.4-1.3-0.6c-0.3-0.2-0.4-0.6-0.4-1.1
			c0-0.5,0.2-0.9,0.7-1.2c0.4-0.3,1-0.4,1.7-0.4c0.6,0,1.3,0.1,1.9,0.4c0.6,0.2,1.2,0.6,1.7,1l0,0h0.2v-2.3l0,0
			c-0.5-0.3-1.1-0.5-1.7-0.6c-0.7-0.2-1.4-0.3-2.1-0.3c-1.4,0-2.5,0.4-3.4,1.1c-0.8,0.7-1.3,1.6-1.3,2.8c0,0.8,0.2,1.5,0.7,2.1
			c0.4,0.6,1.1,1,2.1,1.3c0.4,0.1,0.8,0.2,1.2,0.3c0.4,0.1,0.8,0.2,1,0.2c0.7,0.2,1.1,0.4,1.4,0.6c0.2,0.2,0.4,0.6,0.4,1
			c0,0.4-0.1,0.6-0.2,0.8c-0.1,0.2-0.3,0.3-0.5,0.5c-0.2,0.1-0.4,0.2-0.8,0.3c-0.9,0.2-1.6,0.1-2.3-0.1c-0.4-0.1-0.8-0.3-1.1-0.4
			c-0.4-0.2-0.7-0.4-0.9-0.5c-0.2-0.2-0.4-0.3-0.6-0.5l0,0H131v2.5l0,0c0.5,0.2,1.1,0.5,1.8,0.7c0.7,0.2,1.5,0.3,2.3,0.3
			c0.8,0,1.5-0.1,2.1-0.3c0.6-0.2,1.1-0.5,1.5-0.8c0.4-0.3,0.7-0.8,0.9-1.2c0.2-0.5,0.3-1,0.3-1.5c0-0.9-0.2-1.7-0.7-2.2
			C138.8,292.2,138.1,291.8,137.2,291.6z"/>
		<rect x="142" y="286.2" width="2.2" height="12.4"/>
		<rect x="141.8" y="282" width="2.5" height="2.3"/>
		<path d="M154.9,286.8c-0.5-0.3-1-0.6-1.6-0.7c-0.6-0.1-1.3-0.2-2.1-0.2c-0.7,0-1.4,0.1-2.1,0.2c-0.7,0.1-1.3,0.3-1.6,0.4l-0.1,0
			v2.2h0.2l0,0c0.6-0.3,1.3-0.5,1.9-0.6s1.2-0.2,1.6-0.2c0.4,0,0.8,0,1.2,0.1c0.4,0.1,0.7,0.2,0.9,0.3c0.2,0.1,0.4,0.4,0.6,0.6
			c0.1,0.3,0.2,0.7,0.2,1.1v0.3c-1,0.1-2,0.1-2.9,0.3c-0.9,0.1-1.8,0.3-2.4,0.7c-0.8,0.4-1.4,0.8-1.7,1.5c-0.4,0.6-0.5,1.3-0.5,2.2
			c0,0.6,0.1,1.1,0.3,1.6c0.2,0.5,0.5,0.9,0.8,1.3c0.3,0.3,0.8,0.6,1.2,0.8c0.5,0.2,1,0.3,1.5,0.3c0.6,0,1.1-0.1,1.5-0.2
			c0.3-0.1,0.7-0.3,1.1-0.4c0.3-0.1,0.5-0.3,0.8-0.5c0.2-0.2,0.4-0.3,0.5-0.4v1.2h2.2v-8.4c0-0.8-0.1-1.4-0.3-2
			C155.7,287.6,155.4,287.2,154.9,286.8z M154,295.4c-0.4,0.4-0.9,0.7-1.4,1c-0.5,0.3-1.1,0.4-1.7,0.4c-0.7,0-1.3-0.2-1.7-0.5
			c-0.4-0.3-0.6-0.8-0.6-1.5c0-0.6,0.2-1.1,0.5-1.4c0.3-0.3,0.8-0.6,1.3-0.7c0.5-0.1,1.1-0.2,1.8-0.3c0.7-0.1,1.3-0.1,1.7-0.2V295.4
			z"/>
		<path d="M166.9,286.8c-0.5-0.3-1-0.6-1.6-0.7c-0.6-0.1-1.3-0.2-2.1-0.2c-0.7,0-1.4,0.1-2.1,0.2c-0.7,0.1-1.3,0.3-1.6,0.4l-0.1,0
			v2.2h0.2l0,0c0.6-0.3,1.3-0.5,1.9-0.6c0.6-0.1,1.2-0.2,1.6-0.2c0.4,0,0.8,0,1.2,0.1c0.4,0.1,0.7,0.2,0.9,0.3
			c0.2,0.1,0.4,0.4,0.6,0.6c0.1,0.3,0.2,0.7,0.2,1.1v0.3c-1,0.1-2,0.1-2.9,0.3c-0.9,0.1-1.8,0.3-2.4,0.7c-0.8,0.4-1.4,0.8-1.7,1.5
			c-0.4,0.6-0.5,1.3-0.5,2.2c0,0.6,0.1,1.1,0.3,1.6c0.2,0.5,0.5,0.9,0.8,1.3c0.3,0.3,0.8,0.6,1.2,0.8c0.5,0.2,1,0.3,1.5,0.3
			c0.6,0,1.1-0.1,1.5-0.2c0.3-0.1,0.7-0.3,1.1-0.4c0.3-0.1,0.5-0.3,0.8-0.5c0.2-0.2,0.4-0.3,0.5-0.4v1.2h2.2v-8.4
			c0-0.8-0.1-1.4-0.3-2C167.7,287.6,167.3,287.2,166.9,286.8z M166,295.4c-0.4,0.4-0.9,0.7-1.4,1c-0.5,0.3-1.1,0.4-1.7,0.4
			c-0.7,0-1.3-0.2-1.7-0.5c-0.4-0.3-0.6-0.8-0.6-1.5c0-0.6,0.2-1.1,0.5-1.4c0.3-0.3,0.8-0.6,1.3-0.7c0.5-0.1,1.1-0.2,1.8-0.3
			c0.7-0.1,1.3-0.1,1.7-0.2V295.4z"/>
		<rect x="171.2" y="281.4" width="2.2" height="17.2"/>
		<rect x="176.5" y="286.2" width="2.2" height="12.4"/>
		<rect x="176.4" y="282" width="2.5" height="2.3"/>
		<path d="M188,286.2c-0.1,0-0.3,0-0.5,0c-0.5,0-1.1,0.1-1.7,0.4c-0.5,0.3-1.1,0.7-1.8,1.3v-1.7h-2.2v12.4h2.2v-8.7
			c0.5-0.4,1-0.8,1.5-1c0.5-0.2,1.1-0.4,1.6-0.4c0.2,0,0.4,0,0.6,0c0.2,0,0.3,0,0.5,0.1l0.2,0v-2.3l-0.1,0
			C188.3,286.2,188.1,286.2,188,286.2z"/>
		<path d="M197.4,286.8c-0.5-0.3-1-0.6-1.6-0.7c-0.6-0.1-1.3-0.2-2.1-0.2c-0.7,0-1.4,0.1-2.1,0.2c-0.7,0.1-1.3,0.3-1.6,0.4l-0.1,0
			v2.2h0.2l0,0c0.6-0.3,1.3-0.5,1.9-0.6s1.2-0.2,1.6-0.2c0.4,0,0.8,0,1.2,0.1c0.4,0.1,0.7,0.2,0.9,0.3c0.2,0.1,0.4,0.4,0.6,0.6
			c0.1,0.3,0.2,0.7,0.2,1.1v0.3c-1,0.1-2,0.1-2.9,0.3c-0.9,0.1-1.8,0.3-2.4,0.7c-0.8,0.4-1.4,0.8-1.7,1.5c-0.4,0.6-0.5,1.3-0.5,2.2
			c0,0.6,0.1,1.1,0.3,1.6c0.2,0.5,0.5,0.9,0.8,1.3c0.3,0.3,0.8,0.6,1.2,0.8c0.5,0.2,1,0.3,1.5,0.3c0.6,0,1.1-0.1,1.5-0.2
			c0.3-0.1,0.7-0.3,1.1-0.4c0.3-0.1,0.5-0.3,0.8-0.5c0.2-0.2,0.4-0.3,0.5-0.4v1.2h2.2v-8.4c0-0.8-0.1-1.4-0.3-2
			C198.2,287.6,197.8,287.2,197.4,286.8z M196.5,295.4c-0.4,0.4-0.9,0.7-1.4,1c-0.5,0.3-1.1,0.4-1.7,0.4c-0.7,0-1.3-0.2-1.7-0.5
			c-0.4-0.3-0.6-0.8-0.6-1.5c0-0.6,0.2-1.1,0.5-1.4c0.3-0.3,0.8-0.6,1.3-0.7c0.5-0.1,1.1-0.2,1.8-0.3c0.7-0.1,1.3-0.1,1.7-0.2V295.4
			z"/>
		<path d="M207.5,285.9c-0.7,0-1.3,0.1-1.9,0.4c-0.6,0.3-1.1,0.6-1.7,1.1v-6h-2.2v17.2h2.2v-9.1c0.5-0.4,1-0.8,1.5-1
			c0.5-0.3,1-0.4,1.5-0.4c0.5,0,0.9,0.1,1.2,0.2c0.3,0.1,0.5,0.4,0.7,0.6c0.1,0.3,0.2,0.7,0.3,1.1c0.1,0.5,0.1,1,0.1,1.6v7h2.2v-8
			c0-1.5-0.3-2.7-1-3.5C209.7,286.3,208.7,285.9,207.5,285.9z"/>
		<path d="M222,286.8c-0.5-0.3-1-0.6-1.6-0.7c-0.6-0.1-1.3-0.2-2.1-0.2c-0.7,0-1.4,0.1-2.1,0.2c-0.7,0.1-1.3,0.3-1.6,0.4l-0.1,0v2.2
			h0.2l0,0c0.6-0.3,1.3-0.5,1.9-0.6c0.6-0.1,1.2-0.2,1.6-0.2c0.4,0,0.8,0,1.2,0.1c0.4,0.1,0.7,0.2,0.9,0.3c0.2,0.1,0.4,0.4,0.6,0.6
			c0.1,0.3,0.2,0.7,0.2,1.1v0.3c-1,0.1-2,0.1-2.9,0.3c-0.9,0.1-1.8,0.3-2.4,0.7c-0.8,0.4-1.4,0.8-1.7,1.5c-0.4,0.6-0.5,1.3-0.5,2.2
			c0,0.6,0.1,1.1,0.3,1.6c0.2,0.5,0.5,0.9,0.8,1.3c0.3,0.3,0.8,0.6,1.2,0.8c0.5,0.2,1,0.3,1.5,0.3c0.6,0,1.1-0.1,1.5-0.2
			c0.3-0.1,0.7-0.3,1.1-0.4c0.3-0.1,0.5-0.3,0.8-0.5c0.2-0.2,0.4-0.3,0.5-0.4v1.2h2.2v-8.4c0-0.8-0.1-1.4-0.3-2
			C222.8,287.6,222.5,287.2,222,286.8z M221.2,295.4c-0.4,0.4-0.9,0.7-1.4,1c-0.5,0.3-1.1,0.4-1.7,0.4c-0.7,0-1.3-0.2-1.7-0.5
			c-0.4-0.3-0.6-0.8-0.6-1.5c0-0.6,0.2-1.1,0.5-1.4c0.3-0.3,0.8-0.6,1.3-0.7c0.5-0.1,1.1-0.2,1.8-0.3c0.7-0.1,1.3-0.1,1.7-0.2V295.4
			z"/>
		<path d="M231.8,291.6c-0.4-0.1-0.8-0.2-1.2-0.3c-0.4-0.1-0.7-0.2-1-0.2c-0.6-0.2-1-0.4-1.3-0.6c-0.3-0.2-0.4-0.6-0.4-1.1
			c0-0.5,0.2-0.9,0.7-1.2c0.4-0.3,1-0.4,1.7-0.4c0.6,0,1.3,0.1,1.9,0.4c0.6,0.2,1.2,0.6,1.7,1l0,0h0.2v-2.3l0,0
			c-0.5-0.3-1.1-0.5-1.7-0.6c-0.7-0.2-1.4-0.3-2.1-0.3c-1.4,0-2.5,0.4-3.4,1.1c-0.8,0.7-1.3,1.6-1.3,2.8c0,0.8,0.2,1.5,0.7,2.1
			c0.4,0.6,1.1,1,2.1,1.3c0.4,0.1,0.8,0.2,1.2,0.3c0.4,0.1,0.8,0.2,1,0.2c0.7,0.2,1.1,0.4,1.4,0.6c0.2,0.2,0.4,0.6,0.4,1
			c0,0.4-0.1,0.6-0.2,0.8c-0.1,0.2-0.3,0.3-0.5,0.5c-0.2,0.1-0.4,0.2-0.8,0.3c-0.9,0.2-1.6,0.1-2.3-0.1c-0.4-0.1-0.8-0.3-1.1-0.4
			c-0.4-0.2-0.7-0.4-0.9-0.5c-0.2-0.2-0.4-0.3-0.6-0.5l0,0h-0.2v2.5l0,0c0.5,0.2,1.1,0.5,1.8,0.7c0.7,0.2,1.5,0.3,2.3,0.3
			c0.8,0,1.5-0.1,2.1-0.3c0.6-0.2,1.1-0.5,1.5-0.8c0.4-0.3,0.7-0.8,0.9-1.2c0.2-0.5,0.3-1,0.3-1.5c0-0.9-0.2-1.7-0.7-2.2
			C233.4,292.2,232.7,291.8,231.8,291.6z"/>
		<path d="M238.9,282.7h-2.2v3.5h-1.4v1.9h1.4v6.7c0,1.4,0.3,2.4,1,3.1c0.6,0.7,1.5,1,2.7,1c0.3,0,0.7,0,1.1-0.1
			c0.4-0.1,0.8-0.1,1.2-0.3l0.1,0v-2h-0.2l0,0c-0.1,0.1-0.4,0.1-0.7,0.2c-0.3,0.1-0.6,0.1-0.9,0.1c-0.5,0-0.8-0.1-1.1-0.2
			c-0.3-0.1-0.4-0.3-0.6-0.5c-0.1-0.3-0.2-0.6-0.2-0.9c0-0.3,0-0.8,0-1.4v-5.7h3.8v-1.9h-3.8V282.7z"/>
		<path d="M248.9,285.9c-1.7,0-3,0.6-4,1.7c-1,1.1-1.5,2.8-1.5,4.8c0,2,0.5,3.6,1.5,4.8c1,1.2,2.4,1.8,4.1,1.8c1.7,0,3-0.6,4-1.7
			c1-1.1,1.5-2.7,1.5-4.8c0-2.1-0.5-3.7-1.5-4.8C251.9,286.4,250.5,285.9,248.9,285.9z M251.2,295.8c-0.6,0.7-1.4,1.1-2.4,1.1
			c-1,0-1.8-0.4-2.4-1.1c-0.6-0.8-0.8-1.9-0.8-3.4c0-1.6,0.3-2.7,0.8-3.5c0.6-0.7,1.4-1.1,2.4-1.1c1,0,1.8,0.4,2.4,1.1
			c0.6,0.7,0.8,1.9,0.8,3.5C252.1,293.9,251.8,295.1,251.2,295.8z"/>
	</g>
	<g>
		<path d="M6.6,237.7v-29.6h18.5v3.5H10.5v8.1h13.6v3.5H10.5v11h14.6v3.5H6.6z"/>
		<path d="M46.5,237.7h-3.7v-2.5c-1.2,1-2.2,1.8-3.3,2.3c-1,0.5-2.2,0.8-3.5,0.8c-1,0-1.9-0.2-2.7-0.5c-0.9-0.3-1.6-0.8-2.2-1.5
			c-0.6-0.7-1.1-1.6-1.5-2.6c-0.4-1-0.5-2.3-0.5-3.8v-14.4h3.7v12.6c0,1.2,0,2.2,0.1,2.9c0.1,0.8,0.3,1.5,0.6,2
			c0.3,0.6,0.7,1,1.2,1.3c0.5,0.3,1.3,0.4,2.3,0.4c0.9,0,1.9-0.3,2.9-0.8c1-0.5,2-1.2,2.8-1.9v-16.6h3.7V237.7z"/>
		<path d="M63.6,219.5h-0.2c-0.3-0.1-0.6-0.1-0.9-0.1c-0.3,0-0.7,0-1.1,0c-1,0-2,0.2-3,0.7c-1,0.4-1.9,1.1-2.8,1.9v15.8h-3.7v-22.2
			h3.7v3.3c1.4-1.2,2.6-2.1,3.6-2.6c1-0.5,2-0.7,3-0.7c0.4,0,0.7,0,0.9,0c0.2,0,0.4,0,0.6,0.1V219.5z"/>
		<path d="M84.6,226.6c0,3.7-0.9,6.6-2.7,8.7c-1.8,2-4.2,3.1-7.2,3.1c-3.1,0-5.5-1.1-7.3-3.2c-1.8-2.1-2.7-5-2.7-8.6
			c0-3.7,0.9-6.6,2.7-8.7c1.8-2.1,4.2-3.1,7.2-3.1c3,0,5.4,1,7.2,3.1C83.7,220,84.6,222.9,84.6,226.6z M80.8,226.6
			c0-2.9-0.5-5-1.6-6.4c-1-1.4-2.5-2.1-4.5-2.1c-2,0-3.5,0.7-4.5,2.1c-1.1,1.4-1.6,3.5-1.6,6.4c0,2.8,0.5,4.9,1.6,6.3
			c1.1,1.4,2.6,2.2,4.5,2.2c1.9,0,3.4-0.7,4.5-2.1C80.2,231.6,80.8,229.5,80.8,226.6z"/>
		<path d="M106.7,226.6c0,3.7-0.9,6.6-2.7,8.7c-1.8,2-4.2,3.1-7.2,3.1c-3.1,0-5.5-1.1-7.3-3.2c-1.8-2.1-2.7-5-2.7-8.6
			c0-3.7,0.9-6.6,2.7-8.7c1.8-2.1,4.2-3.1,7.2-3.1c3,0,5.4,1,7.2,3.1C105.8,220,106.7,222.9,106.7,226.6z M102.9,226.6
			c0-2.9-0.5-5-1.6-6.4c-1-1.4-2.5-2.1-4.5-2.1c-2,0-3.5,0.7-4.5,2.1c-1.1,1.4-1.6,3.5-1.6,6.4c0,2.8,0.5,4.9,1.6,6.3
			c1.1,1.4,2.6,2.2,4.5,2.2c1.9,0,3.4-0.7,4.5-2.1C102.4,231.6,102.9,229.5,102.9,226.6z"/>
		<path d="M129.2,226.1c0,3.7-0.9,6.6-2.7,8.8s-4,3.3-6.7,3.3c-1.1,0-2.1-0.1-2.9-0.4s-1.7-0.6-2.6-1.2v9.3h-3.7v-30.4h3.7v2.3
			c0.9-0.8,2-1.5,3.1-2.1c1.1-0.6,2.4-0.8,3.7-0.8c2.5,0,4.5,1,6,3C128.5,220,129.2,222.7,129.2,226.1z M125.4,226.5
			c0-2.5-0.4-4.5-1.2-5.9c-0.8-1.4-2.1-2.1-3.9-2.1c-1.1,0-2.1,0.2-3.1,0.7c-1,0.5-1.9,1.1-2.8,1.8v12.6c1,0.5,1.8,0.8,2.5,1
			c0.7,0.2,1.5,0.3,2.4,0.3c1.9,0,3.4-0.7,4.5-2.1C124.8,231.3,125.4,229.2,125.4,226.5z"/>
		<path d="M145.5,235.4c-0.3,0.2-0.7,0.5-1.2,0.9c-0.5,0.4-1,0.7-1.5,1c-0.7,0.3-1.3,0.6-1.9,0.8c-0.6,0.2-1.5,0.3-2.6,0.3
			c-0.9,0-1.8-0.2-2.6-0.5c-0.8-0.3-1.5-0.8-2.2-1.5c-0.6-0.6-1.1-1.4-1.4-2.3c-0.4-0.9-0.5-1.8-0.5-2.8c0-1.5,0.3-2.8,1-3.9
			c0.7-1.1,1.7-1.9,3.1-2.6c1.2-0.6,2.7-1,4.4-1.2c1.7-0.2,3.5-0.4,5.5-0.5v-0.7c0-0.9-0.1-1.6-0.4-2.1s-0.6-1-1.1-1.2
			c-0.5-0.3-1.1-0.5-1.8-0.6c-0.7-0.1-1.4-0.1-2.1-0.1c-0.9,0-1.9,0.1-3,0.4c-1.2,0.3-2.3,0.6-3.5,1.1h-0.2V216
			c0.7-0.2,1.7-0.4,3-0.7c1.3-0.2,2.6-0.4,3.8-0.4c1.5,0,2.8,0.1,3.9,0.4c1,0.2,2,0.7,2.8,1.3c0.8,0.6,1.4,1.4,1.8,2.4
			c0.4,1,0.6,2.2,0.6,3.5v15.2h-3.7V235.4z M145.5,232.3v-6.2c-0.9,0.1-2,0.2-3.4,0.3c-1.4,0.1-2.5,0.3-3.3,0.6
			c-1,0.3-1.8,0.8-2.5,1.4c-0.6,0.6-1,1.5-1,2.6c0,1.3,0.4,2.2,1.1,2.9c0.7,0.7,1.8,1,3.1,1c1.2,0,2.2-0.3,3.2-0.8
			C143.8,233.6,144.7,233,145.5,232.3z"/>
		<path d="M172,237.7h-3.7v-12.6c0-1,0-2-0.1-2.9c-0.1-0.9-0.3-1.6-0.6-2.1c-0.3-0.6-0.7-1-1.3-1.2c-0.5-0.3-1.3-0.4-2.2-0.4
			c-0.9,0-1.9,0.2-2.9,0.7c-1,0.5-2,1.1-2.9,1.9v16.6h-3.7v-22.2h3.7v2.5c1.1-1,2.2-1.8,3.3-2.3c1.1-0.5,2.2-0.8,3.4-0.8
			c2.2,0,3.9,0.7,5.1,2.2c1.2,1.4,1.9,3.5,1.9,6.3V237.7z"/>
		<path d="M207.2,237.7h-3.7v-2.5c-1.2,1-2.2,1.8-3.3,2.3s-2.2,0.8-3.5,0.8c-1,0-1.9-0.2-2.7-0.5c-0.9-0.3-1.6-0.8-2.2-1.5
			c-0.6-0.7-1.1-1.6-1.5-2.6c-0.4-1-0.5-2.3-0.5-3.8v-14.4h3.7v12.6c0,1.2,0,2.2,0.1,2.9c0.1,0.8,0.3,1.5,0.6,2
			c0.3,0.6,0.7,1,1.2,1.3c0.5,0.3,1.3,0.4,2.3,0.4c0.9,0,1.9-0.3,2.9-0.8c1-0.5,2-1.2,2.8-1.9v-16.6h3.7V237.7z"/>
		<path d="M230.1,237.7h-3.7v-12.6c0-1,0-2-0.1-2.9c-0.1-0.9-0.3-1.6-0.6-2.1c-0.3-0.6-0.7-1-1.3-1.2c-0.5-0.3-1.3-0.4-2.2-0.4
			c-0.9,0-1.9,0.2-2.9,0.7c-1,0.5-2,1.1-2.9,1.9v16.6h-3.7v-22.2h3.7v2.5c1.1-1,2.2-1.8,3.3-2.3c1.1-0.5,2.2-0.8,3.4-0.8
			c2.2,0,3.9,0.7,5.1,2.2c1.2,1.4,1.9,3.5,1.9,6.3V237.7z"/>
		<path d="M239.4,211.8h-4.3v-3.9h4.3V211.8z M239.2,237.7h-3.7v-22.2h3.7V237.7z"/>
		<path d="M263,226.6c0,3.7-0.9,6.6-2.7,8.7c-1.8,2-4.2,3.1-7.2,3.1c-3.1,0-5.5-1.1-7.3-3.2c-1.8-2.1-2.7-5-2.7-8.6
			c0-3.7,0.9-6.6,2.7-8.7c1.8-2.1,4.2-3.1,7.2-3.1c3,0,5.4,1,7.2,3.1C262.1,220,263,222.9,263,226.6z M259.1,226.6
			c0-2.9-0.5-5-1.6-6.4c-1-1.4-2.5-2.1-4.5-2.1c-2,0-3.5,0.7-4.5,2.1c-1.1,1.4-1.6,3.5-1.6,6.4c0,2.8,0.5,4.9,1.6,6.3
			c1.1,1.4,2.6,2.2,4.5,2.2c1.9,0,3.4-0.7,4.5-2.1C258.6,231.6,259.1,229.5,259.1,226.6z"/>
		<path d="M284.3,237.7h-3.7v-12.6c0-1,0-2-0.1-2.9c-0.1-0.9-0.3-1.6-0.6-2.1c-0.3-0.6-0.7-1-1.3-1.2c-0.5-0.3-1.3-0.4-2.2-0.4
			c-0.9,0-1.9,0.2-2.9,0.7c-1,0.5-2,1.1-2.9,1.9v16.6h-3.7v-22.2h3.7v2.5c1.1-1,2.2-1.8,3.3-2.3c1.1-0.5,2.2-0.8,3.4-0.8
			c2.2,0,3.9,0.7,5.1,2.2c1.2,1.4,1.9,3.5,1.9,6.3V237.7z"/>
		<path d="M293.6,211.8h-4.3v-3.9h4.3V211.8z M293.3,237.7h-3.7v-22.2h3.7V237.7z"/>
	</g>
</g>
</svg>
