<?xml version="1.0" encoding="utf-8"?>
<!-- Generator: Adobe Illustrator 21.0.2, SVG Export Plug-In . SVG Version: 6.00 Build 0)  -->
<svg version="1.1" id="FI_x5F_EAKR" xmlns="http://www.w3.org/2000/svg" xmlns:xlink="http://www.w3.org/1999/xlink" x="0px"
	 y="0px" viewBox="0 0 300 308" style="enable-background:new 0 0 300 308;" xml:space="preserve">
<style type="text/css">
	.st0{fill:#FFFFFF;}
</style>
<g>
	<g>
		<path class="st0" d="M294.6,5.9V198H5.5V5.9H294.6 M295.5,5H4.6v194h290.9V5L295.5,5z"/>
		<polygon class="st0" points="150,26.7 152.5,34.1 160.3,34.2 154,38.8 156.4,46.2 150,41.6 143.7,46.2 146.1,38.8 139.8,34.2 
			147.6,34.1 		"/>
		<polygon class="st0" points="182.4,35.4 184.8,42.8 192.6,42.8 186.3,47.5 188.7,54.9 182.4,50.3 176,54.9 178.4,47.5 172.1,42.8 
			179.9,42.8 		"/>
		<polygon class="st0" points="205.9,59 208.3,66.4 216.2,66.4 209.8,71 212.3,78.5 205.9,73.9 199.5,78.5 202,71 195.6,66.4 
			203.5,66.4 		"/>
		<polygon class="st0" points="214.5,91.2 217,98.6 224.8,98.6 218.5,103.3 220.9,110.7 214.5,106.1 208.2,110.7 210.6,103.3 
			204.2,98.6 212.1,98.6 		"/>
		<polygon class="st0" points="205.9,123.4 208.3,130.8 216.2,130.9 209.8,135.5 212.3,142.9 205.9,138.3 199.5,142.9 202,135.5 
			195.6,130.9 203.5,130.8 		"/>
		<polygon class="st0" points="182.4,147 184.8,154.4 192.6,154.4 186.3,159.1 188.7,166.5 182.4,161.9 176,166.5 178.4,159.1 
			172.1,154.4 179.9,154.4 		"/>
		<polygon class="st0" points="150,155.7 152.5,163.1 160.3,163.1 154,167.8 156.4,175.2 150,170.6 143.7,175.2 146.1,167.8 
			139.7,163.1 147.6,163.1 		"/>
		<polygon class="st0" points="117.7,147 120.1,154.4 128,154.4 121.6,159.1 124.1,166.5 117.7,161.9 111.3,166.5 113.8,159.1 
			107.4,154.4 115.3,154.4 		"/>
		<polygon class="st0" points="94.2,123.4 96.6,130.8 104.4,130.9 98.1,135.5 100.5,142.9 94.2,138.3 87.8,142.9 90.2,135.5 
			83.9,130.9 91.7,130.8 		"/>
		<polygon class="st0" points="85.5,91.2 88,98.6 95.8,98.6 89.5,103.3 91.9,110.7 85.5,106.1 79.2,110.7 81.6,103.3 75.3,98.6 
			83.1,98.6 		"/>
		<polygon class="st0" points="94.2,59 96.6,66.4 104.4,66.4 98.1,71 100.5,78.5 94.2,73.9 87.8,78.5 90.2,71 83.9,66.4 91.7,66.4 
					"/>
		<polygon class="st0" points="117.7,35.4 120.1,42.8 128,42.8 121.6,47.5 124.1,54.9 117.7,50.3 111.3,54.9 113.8,47.5 107.4,42.8 
			115.3,42.8 		"/>
	</g>
	<g>
		<path class="st0" d="M293.2,258.7c-1-1.1-2.4-1.7-4-1.7c-1.7,0-3,0.6-4.1,1.7c-1,1.1-1.5,2.8-1.5,4.8c0,2,0.5,3.6,1.5,4.8
			c1,1.2,2.4,1.8,4.1,1.8c1.7,0,3-0.6,4-1.7c1-1.1,1.5-2.8,1.5-4.8C294.7,261.4,294.2,259.8,293.2,258.7z M291.5,267
			c-0.6,0.8-1.4,1.1-2.4,1.1c-1,0-1.9-0.4-2.4-1.2c-0.6-0.8-0.9-1.9-0.9-3.4c0-1.6,0.3-2.7,0.9-3.5c0.6-0.7,1.4-1.1,2.4-1.1
			c1,0,1.8,0.4,2.4,1.1c0.6,0.8,0.8,1.9,0.8,3.5C292.4,265,292.1,266.2,291.5,267z"/>
		<polygon class="st0" points="5.5,269.7 15.9,269.7 15.9,267.6 7.9,267.6 7.9,261.7 15.4,261.7 15.4,259.6 7.9,259.6 7.9,255.3 
			15.9,255.3 15.9,253.2 5.5,253.2 		"/>
		<path class="st0" d="M25.7,266.5c-0.5,0.4-1,0.7-1.5,1c-0.6,0.3-1.1,0.4-1.6,0.4c-0.5,0-0.9-0.1-1.2-0.2c-0.3-0.1-0.5-0.4-0.6-0.7
			c-0.2-0.3-0.3-0.7-0.3-1.1c0-0.4-0.1-1-0.1-1.6v-7.1h-2.3v8.1c0,0.8,0.1,1.6,0.3,2.1c0.2,0.6,0.5,1.1,0.8,1.5
			c0.4,0.4,0.8,0.7,1.3,0.9c0.5,0.2,1,0.3,1.5,0.3c0.7,0,1.4-0.1,2-0.4c0.5-0.3,1.1-0.7,1.7-1.1v1.2h2.3v-12.5h-2.3V266.5z"/>
		<path class="st0" d="M37.2,257.3c-0.1,0-0.3,0-0.5,0c-0.5,0-1.1,0.1-1.7,0.4c-0.5,0.3-1.1,0.7-1.8,1.3v-1.7H31v12.5h2.3V261
			c0.5-0.5,1-0.8,1.5-1c0.5-0.2,1.1-0.4,1.6-0.4c0.2,0,0.4,0,0.6,0c0.2,0,0.3,0,0.5,0.1l0.2,0v-2.3l-0.1,0
			C37.4,257.3,37.3,257.3,37.2,257.3z"/>
		<path class="st0" d="M43.9,256.9c-1.7,0-3,0.6-4.1,1.7c-1,1.1-1.5,2.8-1.5,4.8c0,2,0.5,3.6,1.5,4.8c1,1.2,2.4,1.8,4.1,1.8
			c1.7,0,3-0.6,4-1.7c1-1.1,1.5-2.8,1.5-4.8c0-2.1-0.5-3.7-1.5-4.8C46.9,257.5,45.6,256.9,43.9,256.9z M46.3,267
			c-0.6,0.8-1.4,1.1-2.4,1.1c-1,0-1.9-0.4-2.4-1.2c-0.6-0.8-0.9-1.9-0.9-3.4c0-1.6,0.3-2.7,0.9-3.5c0.6-0.7,1.4-1.1,2.4-1.1
			c1,0,1.8,0.4,2.4,1.1c0.6,0.8,0.8,1.9,0.8,3.5C47.1,265,46.9,266.2,46.3,267z"/>
		<path class="st0" d="M56.3,256.9c-1.7,0-3,0.6-4.1,1.7c-1,1.1-1.5,2.8-1.5,4.8c0,2,0.5,3.6,1.5,4.8c1,1.2,2.4,1.8,4.1,1.8
			c1.7,0,3-0.6,4-1.7c1-1.1,1.5-2.8,1.5-4.8c0-2.1-0.5-3.7-1.5-4.8C59.4,257.5,58,256.9,56.3,256.9z M58.7,267
			c-0.6,0.8-1.4,1.1-2.4,1.1c-1,0-1.9-0.4-2.4-1.2c-0.6-0.8-0.9-1.9-0.9-3.4c0-1.6,0.3-2.7,0.9-3.5c0.6-0.7,1.4-1.1,2.4-1.1
			c1,0,1.8,0.4,2.4,1.1c0.6,0.8,0.8,1.9,0.8,3.5C59.6,265,59.3,266.2,58.7,267z"/>
		<path class="st0" d="M70,256.9c-0.8,0-1.5,0.2-2.1,0.5c-0.6,0.3-1.1,0.6-1.6,1v-1.2h-2.3v17h2.3v-5.1c0.4,0.3,0.9,0.4,1.3,0.6
			c0.5,0.1,1,0.2,1.6,0.2c1.5,0,2.8-0.6,3.8-1.9c1-1.2,1.5-2.9,1.5-4.9c0-1.9-0.4-3.4-1.2-4.5C72.5,257.5,71.4,256.9,70,256.9z
			 M71.3,266.8c-0.6,0.8-1.4,1.1-2.4,1.1c-0.5,0-0.9,0-1.3-0.1c-0.4-0.1-0.8-0.3-1.3-0.5v-6.8c0.5-0.4,1-0.7,1.5-1
			c0.5-0.3,1.1-0.4,1.7-0.4c1,0,1.7,0.4,2.1,1.1c0.4,0.8,0.7,1.8,0.7,3.2C72.2,264.9,71.9,266,71.3,266.8z"/>
		<path class="st0" d="M84.4,257.9c-0.5-0.3-1-0.6-1.6-0.7c-0.6-0.1-1.3-0.2-2.2-0.2c-0.7,0-1.4,0.1-2.1,0.2
			c-0.7,0.1-1.3,0.3-1.6,0.4l-0.1,0v2.3h0.2l0,0c0.6-0.3,1.3-0.5,1.9-0.6c0.6-0.1,1.2-0.2,1.7-0.2c0.4,0,0.8,0,1.2,0.1
			c0.4,0.1,0.7,0.2,0.9,0.3c0.2,0.2,0.4,0.4,0.6,0.6c0.1,0.3,0.2,0.7,0.2,1.1v0.3c-1,0.1-2,0.1-3,0.3c-0.9,0.1-1.8,0.3-2.5,0.7
			c-0.8,0.4-1.4,0.8-1.7,1.5c-0.4,0.6-0.6,1.4-0.6,2.2c0,0.6,0.1,1.1,0.3,1.6c0.2,0.5,0.5,0.9,0.8,1.3c0.4,0.4,0.8,0.6,1.2,0.8
			c0.5,0.2,1,0.3,1.5,0.3c0.6,0,1.1-0.1,1.5-0.2c0.3-0.1,0.7-0.3,1.1-0.4c0.3-0.1,0.5-0.3,0.8-0.5c0.2-0.2,0.4-0.3,0.5-0.4v1.2h2.2
			v-8.5c0-0.8-0.1-1.4-0.3-2C85.2,258.7,84.9,258.2,84.4,257.9z M83.6,266.6c-0.4,0.4-0.9,0.7-1.4,1c-0.5,0.3-1.1,0.4-1.7,0.4
			c-0.7,0-1.3-0.2-1.7-0.5c-0.4-0.3-0.6-0.9-0.6-1.5c0-0.6,0.2-1.1,0.5-1.4c0.3-0.3,0.8-0.6,1.3-0.8c0.5-0.1,1.1-0.2,1.8-0.3
			c0.7-0.1,1.3-0.1,1.8-0.2V266.6z"/>
		<path class="st0" d="M94.6,256.9c-0.7,0-1.3,0.2-1.9,0.4c-0.6,0.3-1.1,0.7-1.7,1.1v-1.2h-2.3v12.5H91v-9.2c0.5-0.4,1-0.8,1.5-1
			c0.5-0.3,1-0.4,1.5-0.4c0.5,0,0.9,0.1,1.2,0.2c0.3,0.1,0.5,0.4,0.7,0.6c0.1,0.3,0.2,0.7,0.3,1.1c0.1,0.5,0.1,1,0.1,1.6v7.1h2.3
			v-8.1c0-1.5-0.4-2.7-1-3.5C96.8,257.3,95.8,256.9,94.6,256.9z"/>
		<path class="st0" d="M116.5,257.9c-0.5-0.3-1-0.6-1.6-0.7c-0.6-0.1-1.3-0.2-2.2-0.2c-0.7,0-1.4,0.1-2.1,0.2
			c-0.7,0.1-1.3,0.3-1.6,0.4l-0.1,0v2.3h0.2l0,0c0.6-0.3,1.3-0.5,1.9-0.6s1.2-0.2,1.7-0.2c0.4,0,0.8,0,1.2,0.1
			c0.4,0.1,0.7,0.2,0.9,0.3c0.2,0.2,0.4,0.4,0.6,0.6c0.1,0.3,0.2,0.7,0.2,1.1v0.3c-1,0.1-2,0.1-3,0.3c-0.9,0.1-1.8,0.3-2.5,0.7
			c-0.8,0.4-1.4,0.8-1.7,1.5c-0.4,0.6-0.6,1.4-0.6,2.2c0,0.6,0.1,1.1,0.3,1.6c0.2,0.5,0.5,0.9,0.8,1.3c0.4,0.4,0.8,0.6,1.2,0.8
			c0.5,0.2,1,0.3,1.5,0.3c0.6,0,1.1-0.1,1.5-0.2c0.3-0.1,0.7-0.3,1.1-0.4c0.3-0.1,0.5-0.3,0.8-0.5c0.2-0.2,0.4-0.3,0.5-0.4v1.2h2.2
			v-8.5c0-0.8-0.1-1.4-0.3-2C117.3,258.7,116.9,258.2,116.5,257.9z M115.6,266.6c-0.4,0.4-0.9,0.7-1.4,1c-0.5,0.3-1.1,0.4-1.7,0.4
			c-0.7,0-1.3-0.2-1.7-0.5c-0.4-0.3-0.6-0.9-0.6-1.5c0-0.6,0.2-1.1,0.5-1.4c0.3-0.3,0.8-0.6,1.3-0.8c0.5-0.1,1.1-0.2,1.8-0.3
			c0.7-0.1,1.3-0.1,1.8-0.2V266.6z"/>
		<rect x="120.8" y="252.4" class="st0" width="2.3" height="17.3"/>
		<path class="st0" d="M133.6,268.5v1.2h2.3v-12.5h-2.3v9.2c-0.5,0.4-1,0.7-1.5,1c-0.6,0.3-1.1,0.4-1.6,0.4c-0.5,0-0.9-0.1-1.2-0.2
			c-0.3-0.1-0.5-0.4-0.6-0.7c-0.2-0.3-0.3-0.7-0.3-1.1c0-0.4-0.1-1-0.1-1.6v-7.1h-2.3v8.1c0,0.8,0.1,1.6,0.3,2.1
			c0.2,0.6,0.5,1.1,0.8,1.5c0.4,0.4,0.8,0.7,1.3,0.9c0.5,0.2,1,0.3,1.5,0.3c0.7,0,1.4-0.1,2-0.4C132.5,269.3,133,269,133.6,268.5z"
			/>
		<path class="st0" d="M147.7,269.3c0.4-0.1,0.7-0.3,0.9-0.4l0.1,0v-2.4h-0.2l0,0c-0.2,0.1-0.4,0.3-0.6,0.4
			c-0.3,0.2-0.6,0.3-0.9,0.5c-0.3,0.2-0.7,0.3-1.2,0.4c-0.4,0.1-0.9,0.2-1.3,0.2c-1.2,0-2.2-0.4-2.9-1.1c-0.7-0.7-1-1.8-1.1-3.1h8.5
			v-1.2c0-1-0.1-1.8-0.4-2.5c-0.2-0.7-0.6-1.3-1-1.8c-0.4-0.5-1-0.8-1.6-1.1c-0.6-0.2-1.3-0.3-2.1-0.3c-1.7,0-3.1,0.6-4.2,1.8
			c-1.1,1.2-1.6,2.8-1.6,4.8c0,2,0.6,3.6,1.6,4.8c1.1,1.1,2.6,1.7,4.6,1.7c0.5,0,0.9,0,1.3-0.1c0.3-0.1,0.7-0.1,1.1-0.3
			C147,269.6,147.3,269.5,147.7,269.3z M140.6,260.8c0.2-0.4,0.4-0.7,0.7-1c0.3-0.3,0.6-0.5,1-0.7c0.4-0.2,0.8-0.2,1.4-0.2
			c0.5,0,1,0.1,1.4,0.2c0.4,0.2,0.7,0.4,0.9,0.7c0.2,0.3,0.4,0.6,0.5,1c0.1,0.4,0.2,0.8,0.2,1.3h-6.3
			C140.4,261.6,140.5,261.1,140.6,260.8z"/>
		<polygon class="st0" points="160.8,257.3 157.9,257.3 153.2,262.3 153.2,252.4 151,252.4 151,269.7 153.2,269.7 153.2,264.5 
			153.9,263.8 158.4,269.7 158.5,269.7 161.4,269.7 155.6,262.5 160.6,257.4 		"/>
		<path class="st0" d="M171.9,268.9v-2.4h-0.2l0,0c-0.2,0.1-0.4,0.3-0.6,0.4c-0.3,0.2-0.6,0.3-0.9,0.5c-0.3,0.2-0.7,0.3-1.2,0.4
			c-0.4,0.1-0.9,0.2-1.3,0.2c-1.2,0-2.2-0.4-2.9-1.1c-0.7-0.7-1-1.8-1.1-3.1h8.5v-1.2c0-1-0.1-1.8-0.4-2.5c-0.2-0.7-0.6-1.3-1-1.8
			c-0.4-0.5-1-0.8-1.6-1.1c-0.6-0.2-1.3-0.3-2.1-0.3c-1.7,0-3.1,0.6-4.2,1.8c-1.1,1.2-1.6,2.8-1.6,4.8c0,2,0.6,3.6,1.6,4.8
			c1.1,1.1,2.6,1.7,4.6,1.7c0.5,0,0.9,0,1.3-0.1c0.3-0.1,0.7-0.1,1.1-0.3c0.3-0.1,0.6-0.2,1-0.3
			C171.3,269.2,171.6,269.1,171.9,268.9L171.9,268.9z M163.9,260.8c0.2-0.4,0.4-0.7,0.7-1c0.3-0.3,0.6-0.5,1-0.7
			c0.4-0.2,0.8-0.2,1.4-0.2c0.5,0,1,0.1,1.4,0.2c0.4,0.2,0.7,0.4,0.9,0.7c0.2,0.3,0.4,0.6,0.5,1c0.1,0.4,0.2,0.8,0.2,1.3h-6.3
			C163.7,261.6,163.8,261.1,163.9,260.8z"/>
		<path class="st0" d="M184.1,269.7v-8.1c0-1.5-0.4-2.7-1-3.5c-0.7-0.8-1.7-1.2-2.9-1.2c-0.7,0-1.3,0.2-1.9,0.4
			c-0.6,0.3-1.1,0.7-1.7,1.1v-6.1h-2.3v17.3h2.3v-9.2c0.5-0.4,1-0.8,1.5-1c0.5-0.3,1-0.4,1.5-0.4c0.5,0,0.9,0.1,1.2,0.2
			c0.3,0.1,0.5,0.4,0.7,0.6c0.1,0.3,0.2,0.7,0.3,1.1c0.1,0.5,0.1,1,0.1,1.6v7.1H184.1z"/>
		<rect x="187.1" y="257.3" class="st0" width="2.3" height="12.5"/>
		<rect x="186.9" y="253.1" class="st0" width="2.5" height="2.3"/>
		<path class="st0" d="M200.7,274.2h2.4l6.6-16.8l0-0.1h-2.4l-3.3,8.9l-3.3-8.8l0-0.1h-2.3h-0.1h-3.7v-3.5h-2.3v3.5h-1.4v1.9h1.4
			v6.7c0,1.4,0.3,2.4,1,3.1c0.6,0.7,1.6,1,2.7,1c0.3,0,0.7,0,1.1-0.1c0.4-0.1,0.8-0.2,1.2-0.3l0.1,0v-2h-0.2l0,0
			c-0.1,0.1-0.4,0.1-0.7,0.2c-0.3,0.1-0.6,0.1-0.9,0.1c-0.5,0-0.8-0.1-1.1-0.2c-0.3-0.1-0.4-0.3-0.6-0.5c-0.1-0.3-0.2-0.6-0.2-0.9
			c0-0.3,0-0.8,0-1.4v-5.7h3.8v-1.6L203,269l-2.2,5.1L200.7,274.2z"/>
		<path class="st0" d="M216.9,269.7c0.6-0.2,1.1-0.5,1.5-0.9c0.4-0.3,0.7-0.8,0.9-1.2c0.2-0.5,0.3-1,0.3-1.5c0-0.9-0.2-1.7-0.7-2.2
			c-0.5-0.5-1.2-0.9-2.1-1.2c-0.4-0.1-0.8-0.2-1.2-0.3c-0.4-0.1-0.7-0.2-1-0.2c-0.6-0.2-1-0.4-1.3-0.6c-0.3-0.2-0.4-0.6-0.4-1.1
			c0-0.5,0.2-0.9,0.7-1.2c0.5-0.3,1-0.4,1.7-0.4c0.6,0,1.3,0.1,1.9,0.4c0.6,0.2,1.2,0.6,1.7,1l0,0h0.2v-2.4l0,0
			c-0.5-0.3-1.1-0.5-1.8-0.6c-0.7-0.2-1.4-0.3-2.1-0.3c-1.4,0-2.5,0.4-3.4,1.1c-0.9,0.7-1.3,1.6-1.3,2.8c0,0.8,0.2,1.5,0.7,2.1
			c0.4,0.6,1.1,1,2.1,1.3c0.4,0.1,0.8,0.2,1.2,0.3c0.4,0.1,0.8,0.2,1,0.2c0.7,0.2,1.1,0.4,1.4,0.6c0.2,0.2,0.4,0.6,0.4,1
			c0,0.4-0.1,0.6-0.2,0.8c-0.1,0.2-0.3,0.3-0.5,0.5c-0.2,0.1-0.4,0.2-0.8,0.3c-0.9,0.2-1.6,0.1-2.3-0.1c-0.4-0.1-0.8-0.3-1.1-0.4
			c-0.4-0.2-0.7-0.4-0.9-0.5c-0.2-0.2-0.4-0.3-0.6-0.5l0,0h-0.2v2.5l0,0c0.5,0.3,1.1,0.5,1.8,0.7c0.7,0.2,1.5,0.3,2.3,0.3
			C215.6,270,216.3,269.9,216.9,269.7z"/>
		<path class="st0" d="M227.6,259.6c0.2,0,0.3,0,0.5,0.1l0.2,0v-2.3l-0.1,0c-0.1,0-0.3,0-0.4-0.1c-0.1,0-0.3,0-0.5,0
			c-0.5,0-1.1,0.1-1.7,0.4c-0.5,0.3-1.1,0.7-1.8,1.3v-1.7h-2.3v12.5h2.3V261c0.5-0.5,1-0.8,1.5-1c0.5-0.2,1.1-0.4,1.6-0.4
			C227.3,259.6,227.5,259.6,227.6,259.6z"/>
		<path class="st0" d="M236.4,268.5v1.2h2.2v-8.5c0-0.8-0.1-1.4-0.3-2c-0.2-0.5-0.6-1-1-1.3c-0.5-0.3-1-0.6-1.6-0.7
			c-0.6-0.1-1.3-0.2-2.2-0.2c-0.7,0-1.4,0.1-2.1,0.2c-0.7,0.1-1.3,0.3-1.6,0.4l-0.1,0v2.3h0.2l0,0c0.6-0.3,1.3-0.5,1.9-0.6
			s1.2-0.2,1.7-0.2c0.4,0,0.8,0,1.2,0.1c0.4,0.1,0.7,0.2,0.9,0.3c0.2,0.2,0.4,0.4,0.6,0.6c0.1,0.3,0.2,0.7,0.2,1.1v0.3
			c-1,0.1-2,0.1-3,0.3c-0.9,0.1-1.8,0.3-2.5,0.7c-0.8,0.4-1.4,0.8-1.7,1.5c-0.4,0.6-0.6,1.4-0.6,2.2c0,0.6,0.1,1.1,0.3,1.6
			c0.2,0.5,0.5,0.9,0.8,1.3c0.4,0.4,0.8,0.6,1.2,0.8c0.5,0.2,1,0.3,1.5,0.3c0.6,0,1.1-0.1,1.5-0.2c0.3-0.1,0.7-0.3,1.1-0.4
			c0.3-0.1,0.5-0.3,0.8-0.5C236.1,268.7,236.3,268.6,236.4,268.5z M235,267.6c-0.5,0.3-1.1,0.4-1.7,0.4c-0.7,0-1.3-0.2-1.7-0.5
			c-0.4-0.3-0.6-0.9-0.6-1.5c0-0.6,0.2-1.1,0.5-1.4c0.3-0.3,0.8-0.6,1.3-0.8c0.5-0.1,1.1-0.2,1.8-0.3c0.7-0.1,1.3-0.1,1.8-0.2v3.3
			C236,267,235.5,267.3,235,267.6z"/>
		<path class="st0" d="M243.9,260.5c0.5-0.4,1-0.8,1.5-1c0.5-0.3,1-0.4,1.5-0.4c0.5,0,0.9,0.1,1.2,0.2c0.3,0.1,0.5,0.4,0.7,0.6
			c0.1,0.3,0.2,0.7,0.3,1.1c0.1,0.5,0.1,1,0.1,1.6v7.1h2.3v-8.1c0-1.5-0.4-2.7-1-3.5c-0.7-0.8-1.7-1.2-2.9-1.2
			c-0.7,0-1.3,0.2-1.9,0.4c-0.6,0.3-1.1,0.7-1.7,1.1v-6.1h-2.3v17.3h2.3V260.5z"/>
		<path class="st0" d="M262.1,257.9c-0.5-0.3-1-0.6-1.6-0.7c-0.6-0.1-1.3-0.2-2.2-0.2c-0.7,0-1.4,0.1-2.1,0.2
			c-0.7,0.1-1.3,0.3-1.6,0.4l-0.1,0v2.3h0.2l0,0c0.6-0.3,1.3-0.5,1.9-0.6c0.6-0.1,1.2-0.2,1.7-0.2c0.4,0,0.8,0,1.2,0.1
			c0.4,0.1,0.7,0.2,0.9,0.3c0.2,0.2,0.4,0.4,0.6,0.6c0.1,0.3,0.2,0.7,0.2,1.1v0.3c-1,0.1-2,0.1-3,0.3c-0.9,0.1-1.8,0.3-2.5,0.7
			c-0.8,0.4-1.4,0.8-1.7,1.5c-0.4,0.6-0.6,1.4-0.6,2.2c0,0.6,0.1,1.1,0.3,1.6c0.2,0.5,0.5,0.9,0.8,1.3c0.4,0.4,0.8,0.6,1.2,0.8
			c0.5,0.2,1,0.3,1.5,0.3c0.6,0,1.1-0.1,1.5-0.2c0.3-0.1,0.7-0.3,1.1-0.4c0.3-0.1,0.5-0.3,0.8-0.5c0.2-0.2,0.4-0.3,0.5-0.4v1.2h2.2
			v-8.5c0-0.8-0.1-1.4-0.3-2C262.9,258.7,262.6,258.2,262.1,257.9z M261.2,266.6c-0.4,0.4-0.9,0.7-1.4,1c-0.5,0.3-1.1,0.4-1.7,0.4
			c-0.7,0-1.3-0.2-1.7-0.5c-0.4-0.3-0.6-0.9-0.6-1.5c0-0.6,0.2-1.1,0.5-1.4c0.3-0.3,0.8-0.6,1.3-0.8c0.5-0.1,1.1-0.2,1.8-0.3
			c0.7-0.1,1.3-0.1,1.8-0.2V266.6z"/>
		<path class="st0" d="M271.9,262.7c-0.4-0.1-0.8-0.2-1.2-0.3c-0.4-0.1-0.7-0.2-1-0.2c-0.6-0.2-1-0.4-1.3-0.6
			c-0.3-0.2-0.4-0.6-0.4-1.1c0-0.5,0.2-0.9,0.7-1.2c0.5-0.3,1-0.4,1.7-0.4c0.6,0,1.3,0.1,1.9,0.4c0.6,0.2,1.2,0.6,1.7,1l0,0h0.2
			v-2.4l0,0c-0.5-0.3-1.1-0.5-1.8-0.6c-0.7-0.2-1.4-0.3-2.1-0.3c-1.4,0-2.5,0.4-3.4,1.1c-0.9,0.7-1.3,1.6-1.3,2.8
			c0,0.8,0.2,1.5,0.7,2.1c0.4,0.6,1.1,1,2.1,1.3c0.4,0.1,0.8,0.2,1.2,0.3c0.4,0.1,0.8,0.2,1,0.2c0.7,0.2,1.1,0.4,1.4,0.6
			c0.2,0.2,0.4,0.6,0.4,1c0,0.4-0.1,0.6-0.2,0.8c-0.1,0.2-0.3,0.3-0.5,0.5c-0.2,0.1-0.4,0.2-0.8,0.3c-0.9,0.2-1.6,0.1-2.3-0.1
			c-0.4-0.1-0.8-0.3-1.1-0.4c-0.4-0.2-0.7-0.4-0.9-0.5c-0.2-0.2-0.4-0.3-0.6-0.5l0,0h-0.2v2.5l0,0c0.5,0.3,1.1,0.5,1.8,0.7
			c0.7,0.2,1.5,0.3,2.3,0.3c0.8,0,1.6-0.1,2.1-0.3c0.6-0.2,1.1-0.5,1.5-0.9c0.4-0.3,0.7-0.8,0.9-1.2c0.2-0.5,0.3-1,0.3-1.5
			c0-0.9-0.2-1.7-0.7-2.2C273.5,263.3,272.8,262.9,271.9,262.7z"/>
		<path class="st0" d="M279.1,253.7h-2.3v3.5h-1.4v1.9h1.4v6.7c0,1.4,0.3,2.4,1,3.1c0.6,0.7,1.6,1,2.7,1c0.3,0,0.7,0,1.1-0.1
			c0.4-0.1,0.8-0.2,1.2-0.3l0.1,0v-2h-0.2l0,0c-0.1,0.1-0.4,0.1-0.7,0.2c-0.3,0.1-0.6,0.1-0.9,0.1c-0.5,0-0.8-0.1-1.1-0.2
			c-0.3-0.1-0.4-0.3-0.6-0.5c-0.1-0.3-0.2-0.6-0.2-0.9c0-0.3,0-0.8,0-1.4v-5.7h3.8v-1.9h-3.8V253.7z"/>
		<polygon class="st0" points="5.5,299.5 15.9,299.5 15.9,297.4 7.9,297.4 7.9,291.5 15.4,291.5 15.4,289.4 7.9,289.4 7.9,285.1 
			15.9,285.1 15.9,283 5.5,283 		"/>
		<path class="st0" d="M25.7,296.3c-0.5,0.4-1,0.7-1.5,1c-0.6,0.3-1.1,0.4-1.6,0.4c-0.5,0-0.9-0.1-1.2-0.2c-0.3-0.1-0.5-0.4-0.6-0.7
			c-0.2-0.3-0.3-0.7-0.3-1.1c0-0.4-0.1-1-0.1-1.6v-7.1h-2.3v8.1c0,0.8,0.1,1.6,0.3,2.1c0.2,0.6,0.5,1.1,0.8,1.5
			c0.4,0.4,0.8,0.7,1.3,0.9c0.5,0.2,1,0.3,1.5,0.3c0.7,0,1.4-0.1,2-0.4c0.5-0.3,1.1-0.7,1.7-1.1v1.2h2.3v-12.5h-2.3V296.3z"/>
		<path class="st0" d="M37.2,287.1c-0.1,0-0.3,0-0.5,0c-0.5,0-1.1,0.1-1.7,0.4c-0.5,0.3-1.1,0.7-1.8,1.3v-1.7H31v12.5h2.3v-8.8
			c0.5-0.5,1-0.8,1.5-1c0.5-0.2,1.1-0.4,1.6-0.4c0.2,0,0.4,0,0.6,0c0.2,0,0.3,0,0.5,0.1l0.2,0v-2.3l-0.1,0
			C37.4,287.1,37.3,287.1,37.2,287.1z"/>
		<path class="st0" d="M43.9,286.7c-1.7,0-3,0.6-4.1,1.7c-1,1.1-1.5,2.8-1.5,4.8c0,2,0.5,3.6,1.5,4.8c1,1.2,2.4,1.8,4.1,1.8
			c1.7,0,3-0.6,4-1.7c1-1.1,1.5-2.8,1.5-4.8c0-2.1-0.5-3.7-1.5-4.8C46.9,287.3,45.6,286.7,43.9,286.7z M46.3,296.8
			c-0.6,0.8-1.4,1.1-2.4,1.1c-1,0-1.9-0.4-2.4-1.2c-0.6-0.8-0.9-1.9-0.9-3.4c0-1.6,0.3-2.7,0.9-3.5c0.6-0.7,1.4-1.1,2.4-1.1
			c1,0,1.8,0.4,2.4,1.1c0.6,0.8,0.8,1.9,0.8,3.5C47.1,294.8,46.9,296,46.3,296.8z"/>
		<path class="st0" d="M56.3,286.7c-1.7,0-3,0.6-4.1,1.7c-1,1.1-1.5,2.8-1.5,4.8c0,2,0.5,3.6,1.5,4.8c1,1.2,2.4,1.8,4.1,1.8
			c1.7,0,3-0.6,4-1.7c1-1.1,1.5-2.8,1.5-4.8c0-2.1-0.5-3.7-1.5-4.8C59.4,287.3,58,286.7,56.3,286.7z M58.7,296.8
			c-0.6,0.8-1.4,1.1-2.4,1.1c-1,0-1.9-0.4-2.4-1.2c-0.6-0.8-0.9-1.9-0.9-3.4c0-1.6,0.3-2.7,0.9-3.5c0.6-0.7,1.4-1.1,2.4-1.1
			c1,0,1.8,0.4,2.4,1.1c0.6,0.8,0.8,1.9,0.8,3.5C59.6,294.8,59.3,296,58.7,296.8z"/>
		<path class="st0" d="M70,286.7c-0.8,0-1.5,0.2-2.1,0.5c-0.6,0.3-1.1,0.6-1.6,1v-1.2h-2.3v17h2.3V299c0.4,0.3,0.9,0.4,1.3,0.6
			c0.5,0.1,1,0.2,1.6,0.2c1.5,0,2.8-0.6,3.8-1.9c1-1.2,1.5-2.9,1.5-4.9c0-1.9-0.4-3.4-1.2-4.5C72.5,287.3,71.4,286.7,70,286.7z
			 M71.3,296.6c-0.6,0.8-1.4,1.1-2.4,1.1c-0.5,0-0.9,0-1.3-0.1c-0.4-0.1-0.8-0.3-1.3-0.5v-6.8c0.5-0.4,1-0.7,1.5-1
			c0.5-0.3,1.1-0.4,1.7-0.4c1,0,1.7,0.4,2.1,1.1c0.4,0.8,0.7,1.8,0.7,3.2C72.2,294.7,71.9,295.8,71.3,296.6z"/>
		<path class="st0" d="M84.4,287.7c-0.5-0.3-1-0.6-1.6-0.7c-0.6-0.1-1.3-0.2-2.2-0.2c-0.7,0-1.4,0.1-2.1,0.2
			c-0.7,0.1-1.3,0.3-1.6,0.4l-0.1,0v2.3h0.2l0,0c0.6-0.3,1.3-0.5,1.9-0.6c0.6-0.1,1.2-0.2,1.7-0.2c0.4,0,0.8,0,1.2,0.1
			c0.4,0.1,0.7,0.2,0.9,0.3c0.2,0.2,0.4,0.4,0.6,0.6c0.1,0.3,0.2,0.7,0.2,1.1v0.3c-1,0.1-2,0.1-3,0.3c-0.9,0.1-1.8,0.3-2.5,0.7
			c-0.8,0.4-1.4,0.8-1.7,1.5c-0.4,0.6-0.6,1.4-0.6,2.2c0,0.6,0.1,1.1,0.3,1.6c0.2,0.5,0.5,0.9,0.8,1.3c0.4,0.4,0.8,0.6,1.2,0.8
			c0.5,0.2,1,0.3,1.5,0.3c0.6,0,1.1-0.1,1.5-0.2c0.3-0.1,0.7-0.3,1.1-0.4c0.3-0.1,0.5-0.3,0.8-0.5c0.2-0.2,0.4-0.3,0.5-0.4v1.2h2.2
			V291c0-0.8-0.1-1.4-0.3-2C85.2,288.5,84.9,288,84.4,287.7z M83.6,296.4c-0.4,0.4-0.9,0.7-1.4,1c-0.5,0.3-1.1,0.4-1.7,0.4
			c-0.7,0-1.3-0.2-1.7-0.5c-0.4-0.3-0.6-0.9-0.6-1.5c0-0.6,0.2-1.1,0.5-1.4c0.3-0.3,0.8-0.6,1.3-0.8c0.5-0.1,1.1-0.2,1.8-0.3
			c0.7-0.1,1.3-0.1,1.8-0.2V296.4z"/>
		<path class="st0" d="M94.6,286.7c-0.7,0-1.3,0.2-1.9,0.4c-0.6,0.3-1.1,0.7-1.7,1.1v-1.2h-2.3v12.5H91v-9.2c0.5-0.4,1-0.8,1.5-1
			c0.5-0.3,1-0.4,1.5-0.4c0.5,0,0.9,0.1,1.2,0.2c0.3,0.1,0.5,0.4,0.7,0.6c0.1,0.3,0.2,0.7,0.3,1.1c0.1,0.5,0.1,1,0.1,1.6v7.1h2.3
			v-8.1c0-1.5-0.4-2.7-1-3.5C96.8,287.1,95.8,286.7,94.6,286.7z"/>
		<path class="st0" d="M114.2,292.5c-0.4-0.1-0.8-0.2-1.2-0.3c-0.4-0.1-0.7-0.2-1-0.2c-0.6-0.2-1-0.4-1.3-0.6
			c-0.3-0.2-0.4-0.6-0.4-1.1c0-0.5,0.2-0.9,0.7-1.2c0.5-0.3,1-0.4,1.7-0.4c0.6,0,1.3,0.1,1.9,0.4c0.6,0.2,1.2,0.6,1.7,1l0,0h0.2
			v-2.4l0,0c-0.5-0.3-1.1-0.5-1.8-0.6c-0.7-0.2-1.4-0.3-2.1-0.3c-1.4,0-2.5,0.4-3.4,1.1c-0.9,0.7-1.3,1.6-1.3,2.8
			c0,0.8,0.2,1.5,0.7,2.1c0.4,0.6,1.1,1,2.1,1.3c0.4,0.1,0.8,0.2,1.2,0.3c0.4,0.1,0.8,0.2,1,0.2c0.7,0.2,1.1,0.4,1.4,0.6
			c0.2,0.2,0.4,0.6,0.4,1c0,0.4-0.1,0.6-0.2,0.8c-0.1,0.2-0.3,0.3-0.5,0.5c-0.2,0.1-0.4,0.2-0.8,0.3c-0.9,0.2-1.6,0.1-2.3-0.1
			c-0.4-0.1-0.8-0.3-1.1-0.4c-0.4-0.2-0.7-0.4-0.9-0.5c-0.2-0.2-0.4-0.3-0.6-0.5l0,0H108v2.5l0,0c0.5,0.3,1.1,0.5,1.8,0.7
			c0.7,0.2,1.5,0.3,2.3,0.3c0.8,0,1.6-0.1,2.1-0.3c0.6-0.2,1.1-0.5,1.5-0.9c0.4-0.3,0.7-0.8,0.9-1.2c0.2-0.5,0.3-1,0.3-1.5
			c0-0.9-0.2-1.7-0.7-2.2C115.9,293.1,115.2,292.7,114.2,292.5z"/>
		<path class="st0" d="M123.7,286.7c-1.7,0-3,0.6-4.1,1.7c-1,1.1-1.5,2.8-1.5,4.8c0,2,0.5,3.6,1.5,4.8c1,1.2,2.4,1.8,4.1,1.8
			c1.7,0,3-0.6,4-1.7c1-1.1,1.5-2.8,1.5-4.8c0-2.1-0.5-3.7-1.5-4.8C126.8,287.3,125.4,286.7,123.7,286.7z M126.1,296.8
			c-0.6,0.8-1.4,1.1-2.4,1.1c-1,0-1.9-0.4-2.4-1.2c-0.6-0.8-0.9-1.9-0.9-3.4c0-1.6,0.3-2.7,0.9-3.5c0.6-0.7,1.4-1.1,2.4-1.1
			c1,0,1.8,0.4,2.4,1.1c0.6,0.8,0.8,1.9,0.8,3.5C127,294.8,126.7,296,126.1,296.8z"/>
		<path class="st0" d="M136.9,292.5c-0.4-0.1-0.8-0.2-1.2-0.3c-0.4-0.1-0.7-0.2-1-0.2c-0.6-0.2-1-0.4-1.3-0.6
			c-0.3-0.2-0.4-0.6-0.4-1.1c0-0.5,0.2-0.9,0.7-1.2c0.5-0.3,1-0.4,1.7-0.4c0.6,0,1.3,0.1,1.9,0.4c0.6,0.2,1.2,0.6,1.7,1l0,0h0.2
			v-2.4l0,0c-0.5-0.3-1.1-0.5-1.8-0.6c-0.7-0.2-1.4-0.3-2.1-0.3c-1.4,0-2.5,0.4-3.4,1.1c-0.9,0.7-1.3,1.6-1.3,2.8
			c0,0.8,0.2,1.5,0.7,2.1c0.4,0.6,1.1,1,2.1,1.3c0.4,0.1,0.8,0.2,1.2,0.3c0.4,0.1,0.8,0.2,1,0.2c0.7,0.2,1.1,0.4,1.4,0.6
			c0.2,0.2,0.4,0.6,0.4,1c0,0.4-0.1,0.6-0.2,0.8c-0.1,0.2-0.3,0.3-0.5,0.5c-0.2,0.1-0.4,0.2-0.8,0.3c-0.9,0.2-1.6,0.1-2.3-0.1
			c-0.4-0.1-0.8-0.3-1.1-0.4c-0.4-0.2-0.7-0.4-0.9-0.5c-0.2-0.2-0.4-0.3-0.6-0.5l0,0h-0.2v2.5l0,0c0.5,0.3,1.1,0.5,1.8,0.7
			c0.7,0.2,1.5,0.3,2.3,0.3c0.8,0,1.6-0.1,2.1-0.3c0.6-0.2,1.1-0.5,1.5-0.9c0.4-0.3,0.7-0.8,0.9-1.2c0.2-0.5,0.3-1,0.3-1.5
			c0-0.9-0.2-1.7-0.7-2.2C138.6,293.1,137.9,292.7,136.9,292.5z"/>
		<rect x="141.8" y="287.1" class="st0" width="2.3" height="12.5"/>
		<rect x="141.6" y="282.9" class="st0" width="2.5" height="2.3"/>
		<path class="st0" d="M154.8,287.7c-0.5-0.3-1-0.6-1.6-0.7c-0.6-0.1-1.3-0.2-2.2-0.2c-0.7,0-1.4,0.1-2.1,0.2
			c-0.7,0.1-1.3,0.3-1.6,0.4l-0.1,0v2.3h0.2l0,0c0.6-0.3,1.3-0.5,1.9-0.6c0.6-0.1,1.2-0.2,1.7-0.2c0.4,0,0.8,0,1.2,0.1
			c0.4,0.1,0.7,0.2,0.9,0.3c0.2,0.2,0.4,0.4,0.6,0.6c0.1,0.3,0.2,0.7,0.2,1.1v0.3c-1,0.1-2,0.1-3,0.3c-0.9,0.1-1.8,0.3-2.5,0.7
			c-0.8,0.4-1.4,0.8-1.7,1.5c-0.4,0.6-0.6,1.4-0.6,2.2c0,0.6,0.1,1.1,0.3,1.6c0.2,0.5,0.5,0.9,0.8,1.3c0.4,0.4,0.8,0.6,1.2,0.8
			c0.5,0.2,1,0.3,1.5,0.3c0.6,0,1.1-0.1,1.5-0.2c0.3-0.1,0.7-0.3,1.1-0.4c0.3-0.1,0.5-0.3,0.8-0.5c0.2-0.2,0.4-0.3,0.5-0.4v1.2h2.2
			V291c0-0.8-0.1-1.4-0.3-2C155.6,288.5,155.3,288,154.8,287.7z M153.9,296.4c-0.4,0.4-0.9,0.7-1.4,1c-0.5,0.3-1.1,0.4-1.7,0.4
			c-0.7,0-1.3-0.2-1.7-0.5c-0.4-0.3-0.6-0.9-0.6-1.5c0-0.6,0.2-1.1,0.5-1.4c0.3-0.3,0.8-0.6,1.3-0.8c0.5-0.1,1.1-0.2,1.8-0.3
			c0.7-0.1,1.3-0.1,1.8-0.2V296.4z"/>
		<path class="st0" d="M166.8,287.7c-0.5-0.3-1-0.6-1.6-0.7c-0.6-0.1-1.3-0.2-2.2-0.2c-0.7,0-1.4,0.1-2.1,0.2
			c-0.7,0.1-1.3,0.3-1.6,0.4l-0.1,0v2.3h0.2l0,0c0.6-0.3,1.3-0.5,1.9-0.6c0.6-0.1,1.2-0.2,1.7-0.2c0.4,0,0.8,0,1.2,0.1
			c0.4,0.1,0.7,0.2,0.9,0.3c0.2,0.2,0.4,0.4,0.6,0.6c0.1,0.3,0.2,0.7,0.2,1.1v0.3c-1,0.1-2,0.1-3,0.3c-0.9,0.1-1.8,0.3-2.5,0.7
			c-0.8,0.4-1.4,0.8-1.7,1.5c-0.4,0.6-0.6,1.4-0.6,2.2c0,0.6,0.1,1.1,0.3,1.6c0.2,0.5,0.5,0.9,0.8,1.3c0.4,0.4,0.8,0.6,1.2,0.8
			c0.5,0.2,1,0.3,1.5,0.3c0.6,0,1.1-0.1,1.5-0.2c0.3-0.1,0.7-0.3,1.1-0.4c0.3-0.1,0.5-0.3,0.8-0.5c0.2-0.2,0.4-0.3,0.5-0.4v1.2h2.2
			V291c0-0.8-0.1-1.4-0.3-2C167.6,288.5,167.3,288,166.8,287.7z M166,296.4c-0.4,0.4-0.9,0.7-1.4,1c-0.5,0.3-1.1,0.4-1.7,0.4
			c-0.7,0-1.3-0.2-1.7-0.5c-0.4-0.3-0.6-0.9-0.6-1.5c0-0.6,0.2-1.1,0.5-1.4c0.3-0.3,0.8-0.6,1.3-0.8c0.5-0.1,1.1-0.2,1.8-0.3
			c0.7-0.1,1.3-0.1,1.8-0.2V296.4z"/>
		<rect x="171.2" y="282.2" class="st0" width="2.3" height="17.3"/>
		<rect x="176.6" y="287.1" class="st0" width="2.3" height="12.5"/>
		<rect x="176.4" y="282.9" class="st0" width="2.5" height="2.3"/>
		<path class="st0" d="M188.1,287.1c-0.1,0-0.3,0-0.5,0c-0.5,0-1.1,0.1-1.7,0.4c-0.5,0.3-1.1,0.7-1.8,1.3v-1.7h-2.3v12.5h2.3v-8.8
			c0.5-0.5,1-0.8,1.5-1c0.5-0.2,1.1-0.4,1.6-0.4c0.2,0,0.4,0,0.6,0c0.2,0,0.3,0,0.5,0.1l0.2,0v-2.3l-0.1,0
			C188.4,287.1,188.2,287.1,188.1,287.1z"/>
		<path class="st0" d="M197.6,287.7c-0.5-0.3-1-0.6-1.6-0.7c-0.6-0.1-1.3-0.2-2.2-0.2c-0.7,0-1.4,0.1-2.1,0.2
			c-0.7,0.1-1.3,0.3-1.6,0.4l-0.1,0v2.3h0.2l0,0c0.6-0.3,1.3-0.5,1.9-0.6c0.6-0.1,1.2-0.2,1.7-0.2c0.4,0,0.8,0,1.2,0.1
			c0.4,0.1,0.7,0.2,0.9,0.3c0.2,0.2,0.4,0.4,0.6,0.6c0.1,0.3,0.2,0.7,0.2,1.1v0.3c-1,0.1-2,0.1-3,0.3c-0.9,0.1-1.8,0.3-2.5,0.7
			c-0.8,0.4-1.4,0.8-1.7,1.5c-0.4,0.6-0.6,1.4-0.6,2.2c0,0.6,0.1,1.1,0.3,1.6c0.2,0.5,0.5,0.9,0.8,1.3c0.4,0.4,0.8,0.6,1.2,0.8
			c0.5,0.2,1,0.3,1.5,0.3c0.6,0,1.1-0.1,1.5-0.2c0.3-0.1,0.7-0.3,1.1-0.4c0.3-0.1,0.5-0.3,0.8-0.5c0.2-0.2,0.4-0.3,0.5-0.4v1.2h2.2
			V291c0-0.8-0.1-1.4-0.3-2C198.4,288.5,198,288,197.6,287.7z M196.7,296.4c-0.4,0.4-0.9,0.7-1.4,1c-0.5,0.3-1.1,0.4-1.7,0.4
			c-0.7,0-1.3-0.2-1.7-0.5c-0.4-0.3-0.6-0.9-0.6-1.5c0-0.6,0.2-1.1,0.5-1.4c0.3-0.3,0.8-0.6,1.3-0.8c0.5-0.1,1.1-0.2,1.8-0.3
			c0.7-0.1,1.3-0.1,1.8-0.2V296.4z"/>
		<path class="st0" d="M207.7,286.7c-0.7,0-1.3,0.2-1.9,0.4c-0.6,0.3-1.1,0.7-1.7,1.1v-6.1h-2.3v17.3h2.3v-9.2c0.5-0.4,1-0.8,1.5-1
			c0.5-0.3,1-0.4,1.5-0.4c0.5,0,0.9,0.1,1.2,0.2c0.3,0.1,0.5,0.4,0.7,0.6c0.1,0.3,0.2,0.7,0.3,1.1c0.1,0.5,0.1,1,0.1,1.6v7.1h2.3
			v-8.1c0-1.5-0.4-2.7-1-3.5C209.9,287.1,209,286.7,207.7,286.7z"/>
		<path class="st0" d="M222.3,287.7c-0.5-0.3-1-0.6-1.6-0.7c-0.6-0.1-1.3-0.2-2.2-0.2c-0.7,0-1.4,0.1-2.1,0.2
			c-0.7,0.1-1.3,0.3-1.6,0.4l-0.1,0v2.3h0.2l0,0c0.6-0.3,1.3-0.5,1.9-0.6c0.6-0.1,1.2-0.2,1.7-0.2c0.4,0,0.8,0,1.2,0.1
			c0.4,0.1,0.7,0.2,0.9,0.3c0.2,0.2,0.4,0.4,0.6,0.6c0.1,0.3,0.2,0.7,0.2,1.1v0.3c-1,0.1-2,0.1-3,0.3c-0.9,0.1-1.8,0.3-2.5,0.7
			c-0.8,0.4-1.4,0.8-1.7,1.5c-0.4,0.6-0.6,1.4-0.6,2.2c0,0.6,0.1,1.1,0.3,1.6c0.2,0.5,0.5,0.9,0.8,1.3c0.4,0.4,0.8,0.6,1.2,0.8
			c0.5,0.2,1,0.3,1.5,0.3c0.6,0,1.1-0.1,1.5-0.2c0.3-0.1,0.7-0.3,1.1-0.4c0.3-0.1,0.5-0.3,0.8-0.5c0.2-0.2,0.4-0.3,0.5-0.4v1.2h2.2
			V291c0-0.8-0.1-1.4-0.3-2C223.2,288.5,222.8,288,222.3,287.7z M221.5,296.4c-0.4,0.4-0.9,0.7-1.4,1c-0.5,0.3-1.1,0.4-1.7,0.4
			c-0.7,0-1.3-0.2-1.7-0.5c-0.4-0.3-0.6-0.9-0.6-1.5c0-0.6,0.2-1.1,0.5-1.4c0.3-0.3,0.8-0.6,1.3-0.8c0.5-0.1,1.1-0.2,1.8-0.3
			c0.7-0.1,1.3-0.1,1.8-0.2V296.4z"/>
		<path class="st0" d="M232.1,292.5c-0.4-0.1-0.8-0.2-1.2-0.3c-0.4-0.1-0.7-0.2-1-0.2c-0.6-0.2-1-0.4-1.3-0.6
			c-0.3-0.2-0.4-0.6-0.4-1.1c0-0.5,0.2-0.9,0.7-1.2c0.5-0.3,1-0.4,1.7-0.4c0.6,0,1.3,0.1,1.9,0.4c0.6,0.2,1.2,0.6,1.7,1l0,0h0.2
			v-2.4l0,0c-0.5-0.3-1.1-0.5-1.8-0.6c-0.7-0.2-1.4-0.3-2.1-0.3c-1.4,0-2.5,0.4-3.4,1.1c-0.9,0.7-1.3,1.6-1.3,2.8
			c0,0.8,0.2,1.5,0.7,2.1c0.4,0.6,1.1,1,2.1,1.3c0.4,0.1,0.8,0.2,1.2,0.3c0.4,0.1,0.8,0.2,1,0.2c0.7,0.2,1.1,0.4,1.4,0.6
			c0.2,0.2,0.4,0.6,0.4,1c0,0.4-0.1,0.6-0.2,0.8c-0.1,0.2-0.3,0.3-0.5,0.5c-0.2,0.1-0.4,0.2-0.8,0.3c-0.9,0.2-1.6,0.1-2.3-0.1
			c-0.4-0.1-0.8-0.3-1.1-0.4c-0.4-0.2-0.7-0.4-0.9-0.5c-0.2-0.2-0.4-0.3-0.6-0.5l0,0h-0.2v2.5l0,0c0.5,0.3,1.1,0.5,1.8,0.7
			c0.7,0.2,1.5,0.3,2.3,0.3c0.8,0,1.6-0.1,2.1-0.3c0.6-0.2,1.1-0.5,1.5-0.9c0.4-0.3,0.7-0.8,0.9-1.2c0.2-0.5,0.3-1,0.3-1.5
			c0-0.9-0.2-1.7-0.7-2.2C233.8,293.1,233.1,292.7,232.1,292.5z"/>
		<path class="st0" d="M239.3,283.5H237v3.5h-1.4v1.9h1.4v6.7c0,1.4,0.3,2.4,1,3.1c0.6,0.7,1.6,1,2.7,1c0.3,0,0.7,0,1.1-0.1
			c0.4-0.1,0.8-0.2,1.2-0.3l0.1,0v-2h-0.2l0,0c-0.1,0.1-0.4,0.1-0.7,0.2c-0.3,0.1-0.6,0.1-0.9,0.1c-0.5,0-0.8-0.1-1.1-0.2
			c-0.3-0.1-0.4-0.3-0.6-0.5c-0.1-0.3-0.2-0.6-0.2-0.9c0-0.3,0-0.8,0-1.4V289h3.8v-1.9h-3.8V283.5z"/>
		<path class="st0" d="M249.4,286.7c-1.7,0-3,0.6-4.1,1.7c-1,1.1-1.5,2.8-1.5,4.8c0,2,0.5,3.6,1.5,4.8c1,1.2,2.4,1.8,4.1,1.8
			c1.7,0,3-0.6,4-1.7c1-1.1,1.5-2.8,1.5-4.8c0-2.1-0.5-3.7-1.5-4.8C252.4,287.3,251,286.7,249.4,286.7z M251.8,296.8
			c-0.6,0.8-1.4,1.1-2.4,1.1c-1,0-1.9-0.4-2.4-1.2c-0.6-0.8-0.9-1.9-0.9-3.4c0-1.6,0.3-2.7,0.9-3.5c0.6-0.7,1.4-1.1,2.4-1.1
			c1,0,1.8,0.4,2.4,1.1c0.6,0.8,0.8,1.9,0.8,3.5C252.6,294.8,252.3,296,251.8,296.8z"/>
	</g>
	<g>
		<path class="st0" d="M5.5,238.3v-29.8h18.6v3.5H9.5v8.2h13.7v3.5H9.5v11.1h14.7v3.5H5.5z"/>
		<path class="st0" d="M45.6,238.3h-3.8v-2.5c-1.2,1-2.3,1.8-3.3,2.3c-1,0.5-2.2,0.8-3.5,0.8c-1,0-1.9-0.2-2.8-0.5
			c-0.9-0.3-1.6-0.8-2.3-1.5c-0.6-0.7-1.1-1.6-1.5-2.6c-0.4-1.1-0.5-2.3-0.5-3.8V216h3.8v12.7c0,1.2,0,2.2,0.1,3
			c0.1,0.8,0.3,1.5,0.6,2.1c0.3,0.6,0.7,1,1.3,1.3c0.5,0.3,1.3,0.4,2.3,0.4c0.9,0,1.9-0.3,2.9-0.8c1-0.5,2-1.2,2.9-1.9V216h3.8
			V238.3z"/>
		<path class="st0" d="M62.9,220h-0.2c-0.3-0.1-0.6-0.1-0.9-0.2c-0.3,0-0.7,0-1.1,0c-1,0-2,0.2-3,0.7c-1,0.4-1.9,1.1-2.8,2v15.9
			h-3.8V216h3.8v3.3c1.4-1.2,2.6-2.1,3.6-2.6c1-0.5,2-0.7,3-0.7c0.4,0,0.7,0,0.9,0c0.2,0,0.4,0.1,0.6,0.1V220z"/>
		<path class="st0" d="M84.1,227.2c0,3.8-0.9,6.7-2.7,8.7c-1.8,2-4.2,3.1-7.2,3.1c-3.1,0-5.6-1.1-7.3-3.2c-1.8-2.1-2.7-5-2.7-8.6
			c0-3.7,0.9-6.6,2.8-8.7c1.8-2.1,4.3-3.1,7.3-3.1c3,0,5.4,1,7.2,3.1C83.2,220.5,84.1,223.4,84.1,227.2z M80.2,227.2
			c0-2.9-0.5-5-1.6-6.5c-1.1-1.4-2.6-2.1-4.5-2.1c-2,0-3.5,0.7-4.5,2.1c-1.1,1.4-1.6,3.6-1.6,6.5c0,2.8,0.5,4.9,1.6,6.4
			c1.1,1.4,2.6,2.2,4.5,2.2c1.9,0,3.4-0.7,4.5-2.1C79.6,232.1,80.2,230,80.2,227.2z"/>
		<path class="st0" d="M106.3,227.2c0,3.8-0.9,6.7-2.7,8.7c-1.8,2-4.2,3.1-7.2,3.1c-3.1,0-5.6-1.1-7.3-3.2s-2.7-5-2.7-8.6
			c0-3.7,0.9-6.6,2.8-8.7c1.8-2.1,4.3-3.1,7.3-3.1c3,0,5.4,1,7.2,3.1C105.4,220.5,106.3,223.4,106.3,227.2z M102.4,227.2
			c0-2.9-0.5-5-1.6-6.5c-1.1-1.4-2.6-2.1-4.5-2.1c-2,0-3.5,0.7-4.5,2.1c-1.1,1.4-1.6,3.6-1.6,6.5c0,2.8,0.5,4.9,1.6,6.4
			c1.1,1.4,2.6,2.2,4.5,2.2c1.9,0,3.4-0.7,4.5-2.1C101.9,232.1,102.4,230,102.4,227.2z"/>
		<path class="st0" d="M128.9,226.6c0,3.7-0.9,6.7-2.7,8.9s-4,3.3-6.8,3.3c-1.1,0-2.1-0.1-2.9-0.4c-0.9-0.3-1.7-0.6-2.6-1.2v9.4
			h-3.8V216h3.8v2.3c0.9-0.8,2-1.5,3.1-2.1c1.1-0.6,2.4-0.9,3.7-0.9c2.6,0,4.6,1,6,3C128.2,220.4,128.9,223.1,128.9,226.6z
			 M125.1,227c0-2.6-0.4-4.5-1.2-5.9c-0.8-1.4-2.1-2.1-4-2.1c-1.1,0-2.1,0.2-3.1,0.7c-1,0.5-1.9,1.1-2.8,1.8v12.7
			c1,0.5,1.8,0.8,2.5,1c0.7,0.2,1.5,0.3,2.4,0.3c1.9,0,3.5-0.7,4.5-2.1C124.5,231.8,125.1,229.7,125.1,227z"/>
		<path class="st0" d="M145.3,235.9c-0.3,0.2-0.7,0.5-1.2,1c-0.5,0.4-1,0.7-1.5,1c-0.7,0.3-1.3,0.6-1.9,0.8
			c-0.6,0.2-1.5,0.3-2.6,0.3c-0.9,0-1.8-0.2-2.6-0.5c-0.8-0.3-1.6-0.8-2.2-1.5c-0.6-0.6-1.1-1.4-1.4-2.3c-0.4-0.9-0.5-1.9-0.5-2.9
			c0-1.5,0.3-2.9,1-4c0.7-1.1,1.7-2,3.1-2.6c1.3-0.6,2.7-1,4.4-1.2c1.7-0.2,3.5-0.4,5.5-0.5v-0.7c0-0.9-0.1-1.6-0.4-2.1
			c-0.3-0.5-0.6-1-1.1-1.3c-0.5-0.3-1.1-0.5-1.8-0.6c-0.7-0.1-1.4-0.2-2.1-0.2c-0.9,0-1.9,0.1-3.1,0.4c-1.2,0.3-2.3,0.6-3.5,1.1
			h-0.2v-3.8c0.7-0.2,1.7-0.4,3-0.7c1.3-0.2,2.6-0.4,3.8-0.4c1.5,0,2.8,0.1,3.9,0.4c1.1,0.2,2,0.7,2.8,1.3c0.8,0.6,1.4,1.4,1.8,2.4
			c0.4,1,0.6,2.2,0.6,3.6v15.3h-3.7V235.9z M145.3,232.8v-6.2c-0.9,0.1-2,0.2-3.4,0.3c-1.4,0.1-2.5,0.3-3.3,0.6
			c-1,0.3-1.8,0.8-2.5,1.4c-0.7,0.6-1,1.5-1,2.7c0,1.3,0.4,2.2,1.1,2.9c0.7,0.7,1.8,1,3.2,1c1.2,0,2.3-0.3,3.2-0.8
			C143.6,234.2,144.5,233.6,145.3,232.8z"/>
		<path class="st0" d="M171.9,238.3h-3.8v-12.7c0-1-0.1-2-0.2-2.9c-0.1-0.9-0.3-1.6-0.6-2.1c-0.3-0.6-0.7-1-1.3-1.3
			c-0.5-0.3-1.3-0.4-2.2-0.4c-0.9,0-1.9,0.2-2.9,0.7c-1,0.5-2,1.2-2.9,2v16.7h-3.8V216h3.8v2.5c1.1-1,2.2-1.8,3.3-2.3
			c1.1-0.5,2.2-0.8,3.5-0.8c2.2,0,3.9,0.7,5.2,2.2c1.2,1.4,1.9,3.5,1.9,6.3V238.3z"/>
		<path class="st0" d="M207.5,238.3h-3.8v-2.5c-1.2,1-2.3,1.8-3.3,2.3c-1,0.5-2.2,0.8-3.5,0.8c-1,0-1.9-0.2-2.8-0.5
			c-0.9-0.3-1.6-0.8-2.3-1.5c-0.6-0.7-1.1-1.6-1.5-2.6c-0.4-1.1-0.5-2.3-0.5-3.8V216h3.8v12.7c0,1.2,0,2.2,0.1,3
			c0.1,0.8,0.3,1.5,0.6,2.1c0.3,0.6,0.7,1,1.3,1.3c0.5,0.3,1.3,0.4,2.3,0.4c0.9,0,1.9-0.3,2.9-0.8c1-0.5,2-1.2,2.9-1.9V216h3.8
			V238.3z"/>
		<path class="st0" d="M230.5,238.3h-3.8v-12.7c0-1-0.1-2-0.2-2.9s-0.3-1.6-0.6-2.1c-0.3-0.6-0.7-1-1.3-1.3
			c-0.5-0.3-1.3-0.4-2.2-0.4c-0.9,0-1.9,0.2-2.9,0.7s-2,1.2-2.9,2v16.7h-3.8V216h3.8v2.5c1.1-1,2.2-1.8,3.3-2.3
			c1.1-0.5,2.2-0.8,3.5-0.8c2.2,0,3.9,0.7,5.2,2.2c1.2,1.4,1.9,3.5,1.9,6.3V238.3z"/>
		<path class="st0" d="M239.9,212.2h-4.3v-3.9h4.3V212.2z M239.6,238.3h-3.8V216h3.8V238.3z"/>
		<path class="st0" d="M263.5,227.2c0,3.8-0.9,6.7-2.7,8.7c-1.8,2-4.2,3.1-7.2,3.1c-3.1,0-5.6-1.1-7.3-3.2c-1.8-2.1-2.7-5-2.7-8.6
			c0-3.7,0.9-6.6,2.8-8.7c1.8-2.1,4.3-3.1,7.3-3.1c3,0,5.4,1,7.2,3.1C262.6,220.5,263.5,223.4,263.5,227.2z M259.7,227.2
			c0-2.9-0.5-5-1.6-6.5c-1.1-1.4-2.6-2.1-4.5-2.1c-2,0-3.5,0.7-4.5,2.1c-1.1,1.4-1.6,3.6-1.6,6.5c0,2.8,0.5,4.9,1.6,6.4
			c1.1,1.4,2.6,2.2,4.5,2.2c1.9,0,3.4-0.7,4.5-2.1C259.1,232.1,259.7,230,259.7,227.2z"/>
		<path class="st0" d="M285,238.3h-3.8v-12.7c0-1-0.1-2-0.2-2.9c-0.1-0.9-0.3-1.6-0.6-2.1c-0.3-0.6-0.7-1-1.3-1.3
			c-0.5-0.3-1.3-0.4-2.2-0.4c-0.9,0-1.9,0.2-2.9,0.7c-1,0.5-2,1.2-2.9,2v16.7h-3.8V216h3.8v2.5c1.1-1,2.2-1.8,3.3-2.3
			c1.1-0.5,2.2-0.8,3.5-0.8c2.2,0,3.9,0.7,5.2,2.2c1.2,1.4,1.9,3.5,1.9,6.3V238.3z"/>
		<path class="st0" d="M294.4,212.2h-4.3v-3.9h4.3V212.2z M294.1,238.3h-3.8V216h3.8V238.3z"/>
	</g>
</g>
</svg>
