<?xml version="1.0" encoding="utf-8"?>
<!-- Generator: Adobe Illustrator 21.0.2, SVG Export Plug-In . SVG Version: 6.00 Build 0)  -->
<svg version="1.1" id="musta" xmlns="http://www.w3.org/2000/svg" xmlns:xlink="http://www.w3.org/1999/xlink" x="0px" y="0px"
	 viewBox="0 0 450 300" style="enable-background:new 0 0 450 300;" xml:space="preserve">
<style type="text/css">
	.st0{fill:#82BE41;}
</style>
<g>
	<g>
		<path d="M40.2,258.8c0.5-0.4,1-0.8,1.6-1.3c0.6-0.5,1.3-1,2-1.5c0.7-0.5,1.3-1.1,1.9-1.5c0.6-0.5,1.1-0.9,1.6-1.3
			c0.5-0.4,0.8-0.6,0.9-0.7c1.6-1.2,3-2.4,4.2-3.4c1.2-1.1,2.3-2.1,3.2-3c0.9-0.9,1.7-1.9,2.3-2.7c0.6-0.9,1.1-1.7,1.5-2.6
			c0.4-0.9,0.7-1.7,0.9-2.6c0.2-0.9,0.3-1.8,0.3-2.7c0-1.7-0.3-3.3-0.9-4.8c-0.6-1.5-1.5-2.8-2.6-3.9c-1.2-1.1-2.6-2-4.3-2.6
			c-1.7-0.6-3.7-1-6-1c-1.6,0-3.1,0.1-4.4,0.4c-1.4,0.2-2.7,0.6-4,1.1c-1.3,0.5-2.6,1.2-3.9,2c-1.3,0.8-2.7,1.8-4.1,2.9l3,4.5
			c1.4-1,2.6-1.9,3.7-2.5c1.1-0.6,2.1-1.1,3.1-1.5c1-0.3,1.9-0.6,2.7-0.7c0.9-0.1,1.8-0.2,2.7-0.2c1.2,0,2.4,0.2,3.4,0.5
			c1,0.3,1.9,0.8,2.6,1.5c0.7,0.6,1.3,1.4,1.7,2.3c0.4,0.9,0.6,1.9,0.6,2.9c0,0.6-0.1,1.3-0.2,1.9c-0.1,0.6-0.4,1.3-0.7,1.9
			c-0.3,0.7-0.8,1.3-1.3,2c-0.6,0.7-1.2,1.5-2.1,2.3c-0.8,0.8-1.8,1.7-2.9,2.7c-1.1,1-2.5,2-4,3.2c-0.6,0.4-1.2,0.9-1.9,1.5
			c-0.7,0.5-1.4,1.1-2.2,1.6c-0.7,0.6-1.5,1.1-2.3,1.7c-0.8,0.6-1.5,1.1-2.2,1.7c-1.7,1.3-3.4,2.6-5.2,3.9l0.6,4.1h32.7l0.6-5.3
			H39.2C39.4,259.4,39.7,259.2,40.2,258.8z"/>
		<path d="M90.5,223.2c-2.2,0-4.2,0.2-6,0.7c-1.9,0.5-3.6,1.2-5.1,2.1c-1.5,0.9-2.9,2-4.1,3.3c-1.2,1.3-2.2,2.7-3,4.3
			c-0.8,1.6-1.4,3.3-1.9,5.1c-0.4,1.8-0.6,3.8-0.6,5.8c0,3.2,0.4,6.1,1.1,8.7c0.7,2.6,1.9,4.7,3.4,6.5c1.5,1.8,3.5,3.1,5.9,4.1
			c2.4,0.9,5.2,1.4,8.6,1.4c2.2,0,4.3-0.2,6.2-0.7c1.9-0.5,3.6-1.2,5.1-2.1c1.5-0.9,2.9-2,4.1-3.3c1.2-1.3,2.2-2.8,3-4.4
			c0.8-1.6,1.4-3.4,1.8-5.3c0.4-1.9,0.6-3.9,0.6-6c0-6.7-1.6-11.7-4.7-15.1C101.6,224.9,96.9,223.2,90.5,223.2z M101.3,251
			c-0.6,2-1.5,3.7-2.6,5c-1.1,1.3-2.4,2.3-4,3c-1.6,0.7-3.3,1-5.2,1c-2.3,0-4.2-0.3-5.8-1c-1.6-0.7-2.9-1.7-3.9-3
			c-1-1.3-1.8-3-2.2-5c-0.5-2-0.7-4.3-0.7-6.9c0-2.3,0.3-4.4,0.9-6.3c0.6-1.9,1.4-3.6,2.5-4.9c1.1-1.4,2.5-2.4,4.1-3.2
			c1.6-0.8,3.5-1.1,5.6-1.1c4,0,7.1,1.3,9.1,3.8c2,2.5,3.1,6.4,3.1,11.5C102.2,246.6,101.9,249,101.3,251z"/>
		<polygon points="115.5,229.9 126.8,230.2 126.8,264.8 133.8,264.8 133.8,224.3 115.7,225 		"/>
		<path d="M174.2,224.3l-6.5-0.5c-4.1,5.3-8.3,10.7-12.4,16c-4.1,5.3-8.3,10.6-12.4,15.9l1,4.9h23.5v17.1l6.8-0.3v-16.7h7.2l0.3-5.2
			h-7.5V224.3z M167.4,255.3h-17.9c3-3.9,6-7.7,9-11.6c3-3.8,5.9-7.7,8.9-11.6V255.3z"/>
		<polygon points="187.3,245.4 229.3,245.4 229.7,240.6 187.8,240.6 		"/>
		<path d="M247,258.8c0.5-0.4,1-0.8,1.6-1.3c0.6-0.5,1.3-1,2-1.5c0.7-0.5,1.3-1.1,2-1.5c0.6-0.5,1.1-0.9,1.6-1.3
			c0.5-0.4,0.8-0.6,0.9-0.7c1.6-1.2,3-2.4,4.2-3.4c1.2-1.1,2.3-2.1,3.2-3c0.9-0.9,1.7-1.9,2.3-2.7c0.6-0.9,1.1-1.7,1.5-2.6
			c0.4-0.9,0.7-1.7,0.9-2.6c0.2-0.9,0.3-1.8,0.3-2.7c0-1.7-0.3-3.3-0.9-4.8c-0.6-1.5-1.5-2.8-2.6-3.9c-1.2-1.1-2.6-2-4.3-2.6
			c-1.7-0.6-3.7-1-6-1c-1.6,0-3.1,0.1-4.4,0.4c-1.4,0.2-2.7,0.6-4,1.1c-1.3,0.5-2.6,1.2-3.9,2c-1.3,0.8-2.7,1.8-4.1,2.9l3,4.5
			c1.4-1,2.6-1.9,3.7-2.5c1.1-0.6,2.1-1.1,3.1-1.5c0.9-0.3,1.9-0.6,2.7-0.7c0.9-0.1,1.8-0.2,2.7-0.2c1.2,0,2.4,0.2,3.4,0.5
			c1,0.3,1.9,0.8,2.6,1.5c0.7,0.6,1.3,1.4,1.7,2.3c0.4,0.9,0.6,1.9,0.6,2.9c0,0.6-0.1,1.3-0.2,1.9c-0.1,0.6-0.4,1.3-0.7,1.9
			c-0.3,0.7-0.8,1.3-1.3,2c-0.6,0.7-1.2,1.5-2.1,2.3c-0.8,0.8-1.8,1.7-2.9,2.7c-1.1,1-2.5,2-4,3.2c-0.6,0.4-1.2,0.9-1.9,1.5
			c-0.7,0.5-1.4,1.1-2.2,1.6c-0.8,0.6-1.5,1.1-2.3,1.7c-0.8,0.6-1.5,1.1-2.2,1.7c-1.7,1.3-3.4,2.6-5.2,3.9l0.6,4.1h32.7l0.6-5.3H246
			C246.2,259.4,246.5,259.2,247,258.8z"/>
		<path d="M297.3,223.2c-2.2,0-4.2,0.2-6,0.7c-1.9,0.5-3.6,1.2-5.1,2.1c-1.5,0.9-2.9,2-4.1,3.3c-1.2,1.3-2.2,2.7-3,4.3
			c-0.8,1.6-1.4,3.3-1.9,5.1c-0.4,1.8-0.6,3.8-0.6,5.8c0,3.2,0.4,6.1,1.1,8.7c0.7,2.6,1.9,4.7,3.4,6.5c1.5,1.8,3.5,3.1,5.9,4.1
			c2.4,0.9,5.2,1.4,8.5,1.4c2.2,0,4.3-0.2,6.2-0.7c1.9-0.5,3.6-1.2,5.1-2.1c1.5-0.9,2.9-2,4.1-3.3c1.2-1.3,2.2-2.8,3-4.4
			c0.8-1.6,1.4-3.4,1.8-5.3c0.4-1.9,0.6-3.9,0.6-6c0-6.7-1.6-11.7-4.7-15.1C308.4,224.9,303.7,223.2,297.3,223.2z M308.1,251
			c-0.6,2-1.5,3.7-2.6,5c-1.1,1.3-2.4,2.3-4,3c-1.6,0.7-3.3,1-5.2,1c-2.2,0-4.2-0.3-5.8-1c-1.6-0.7-2.9-1.7-3.9-3
			c-1-1.3-1.7-3-2.2-5c-0.5-2-0.7-4.3-0.7-6.9c0-2.3,0.3-4.4,0.9-6.3c0.6-1.9,1.4-3.6,2.5-4.9c1.1-1.4,2.5-2.4,4.1-3.2
			c1.6-0.8,3.5-1.1,5.6-1.1c4,0,7.1,1.3,9.1,3.8c2,2.5,3.1,6.4,3.1,11.5C309,246.6,308.7,249,308.1,251z"/>
		<path d="M334.4,258.8c0.5-0.4,1-0.8,1.6-1.3c0.6-0.5,1.3-1,2-1.5c0.7-0.5,1.3-1.1,1.9-1.5c0.6-0.5,1.1-0.9,1.6-1.3
			c0.5-0.4,0.8-0.6,0.9-0.7c1.6-1.2,3-2.4,4.2-3.4c1.2-1.1,2.3-2.1,3.2-3c0.9-0.9,1.7-1.9,2.3-2.7c0.6-0.9,1.1-1.7,1.5-2.6
			c0.4-0.9,0.7-1.7,0.9-2.6c0.2-0.9,0.3-1.8,0.3-2.7c0-1.7-0.3-3.3-0.9-4.8c-0.6-1.5-1.5-2.8-2.6-3.9c-1.2-1.1-2.6-2-4.3-2.6
			c-1.7-0.6-3.7-1-6-1c-1.6,0-3.1,0.1-4.4,0.4c-1.4,0.2-2.7,0.6-4,1.1c-1.3,0.5-2.6,1.2-3.9,2c-1.3,0.8-2.7,1.8-4.1,2.9l3,4.5
			c1.4-1,2.6-1.9,3.7-2.5c1.1-0.6,2.1-1.1,3.1-1.5c1-0.3,1.9-0.6,2.7-0.7c0.9-0.1,1.8-0.2,2.7-0.2c1.2,0,2.4,0.2,3.4,0.5
			c1,0.3,1.9,0.8,2.6,1.5c0.7,0.6,1.3,1.4,1.7,2.3c0.4,0.9,0.6,1.9,0.6,2.9c0,0.6-0.1,1.3-0.2,1.9c-0.1,0.6-0.4,1.3-0.7,1.9
			c-0.3,0.7-0.8,1.3-1.3,2c-0.6,0.7-1.2,1.5-2.1,2.3c-0.8,0.8-1.8,1.7-3,2.7c-1.1,1-2.5,2-4,3.2c-0.6,0.4-1.2,0.9-1.9,1.5
			c-0.7,0.5-1.4,1.1-2.2,1.6c-0.7,0.6-1.5,1.1-2.3,1.7c-0.8,0.6-1.5,1.1-2.2,1.7c-1.7,1.3-3.4,2.6-5.2,3.9l0.6,4.1h32.7l0.6-5.3
			h-23.5C333.6,259.4,333.9,259.2,334.4,258.8z"/>
		<path d="M384.6,223.2c-2.2,0-4.2,0.2-6.1,0.7c-1.9,0.5-3.6,1.2-5.1,2.1c-1.5,0.9-2.9,2-4.1,3.3c-1.2,1.3-2.2,2.7-3,4.3
			c-0.8,1.6-1.4,3.3-1.9,5.1c-0.4,1.8-0.6,3.8-0.6,5.8c0,3.2,0.4,6.1,1.1,8.7c0.7,2.6,1.9,4.7,3.4,6.5c1.5,1.8,3.5,3.1,5.9,4.1
			c2.4,0.9,5.2,1.4,8.6,1.4c2.2,0,4.3-0.2,6.2-0.7c1.9-0.5,3.6-1.2,5.1-2.1c1.5-0.9,2.9-2,4.1-3.3c1.2-1.3,2.2-2.8,3-4.4
			c0.8-1.6,1.4-3.4,1.8-5.3c0.4-1.9,0.6-3.9,0.6-6c0-6.7-1.6-11.7-4.7-15.1C395.8,224.9,391,223.2,384.6,223.2z M395.4,251
			c-0.6,2-1.5,3.7-2.6,5c-1.1,1.3-2.4,2.3-4,3c-1.6,0.7-3.3,1-5.2,1c-2.3,0-4.2-0.3-5.8-1c-1.6-0.7-2.9-1.7-3.9-3
			c-1-1.3-1.8-3-2.2-5c-0.5-2-0.7-4.3-0.7-6.9c0-2.3,0.3-4.4,0.9-6.3c0.6-1.9,1.4-3.6,2.5-4.9c1.1-1.4,2.5-2.4,4.1-3.2
			c1.6-0.8,3.5-1.1,5.6-1.1c4,0,7.1,1.3,9.1,3.8c2,2.5,3.1,6.4,3.1,11.5C396.4,246.6,396,249,395.4,251z"/>
		<path d="M345.7,184.2c0,13.1,8.7,18.6,18.7,18.6c9.6,0,18.4-3.9,25-11.3c0,7.2,2.7,10.7,9.8,10.7c4.7,0,9-0.9,12.1-2l-0.5-5.8
			c-2.8,0.6-6.5,1.1-9.6,1.1c-3.5,0-3.9-1.3-3.9-4.9l0.2-43.8c0-12.3-5.4-18.9-17.8-18.9c-13.1,0-21.6,3.6-30.4,10.1l3.9,5.5
			c7.1-5.5,16.7-8.8,24.7-8.8c8.2,0,12,3.8,11.8,12.9l-0.2,17C350.9,167,345.7,174.3,345.7,184.2z M389.4,184.3
			c-4.6,6-14.2,12.1-22.5,12.1c-8.8,0-13.2-5.4-13.2-13.2c0-7.6,10.1-10.7,35.9-12.4L389.4,184.3z"/>
		<path d="M299.1,185.9c0,11.5,4.9,16.7,15.9,16.7c7.1,0,13.7-1.7,19.7-5.4l-2.2-6.1c-5.2,2.8-10.7,4.6-15.9,4.6
			c-6.9,0-9.6-2.8-9.6-10.5v-49h25.2l0.5-6.9H307v-24.6l-6.5,0.6l-1.4,24.1l-9.8,0.6l-0.6,5.5l10.4,0.3V185.9z"/>
		<path d="M269,202.1c4.7,0,8.8-0.6,12-1.7l-0.5-5.8c-3,0.6-6.3,0.9-9.6,0.9c-3.3,0-3.8-1.3-3.8-4.7l-0.5-100.5l-7.9,0.6l0.5,100
			C259.3,198.8,261.9,202.1,269,202.1z"/>
		<path d="M193.9,95.8h-7.7v63c0,23.8-8.3,36.7-32.4,36.7c-23.3,0-31.2-11.8-31.2-35V95.8h-8V162c0,26.1,9.4,40.5,38.9,40.5
			c28.3,0,40.5-17.6,40.5-43.2V95.8z"/>
		<rect x="220.4" y="140.2" width="12.4" height="10.6"/>
		<polygon points="91.7,194.9 40,194.9 40,149.9 84.8,149.9 84.8,143.1 40,143.1 40,102.4 91.7,102.4 92.2,95.8 31.8,95.8 
			31.8,201.5 92.2,201.5 		"/>
		<rect x="220.4" y="180.9" width="12.4" height="10.6"/>
	</g>
	<path class="st0" d="M376.8,61.1c0,2.1,1.2,3.6,3.2,3.6c2.1,0,3.7-0.9,4.7-1.8v-5.2C377.4,58.3,376.8,59.1,376.8,61.1 M375.4,72.3
		c-5.5,0-9.9-4.1-9.9-10.8c0-5,2.8-8.4,19.3-9.7v-3.4c0-2.3-0.6-2.9-2.4-2.9c-3.6,0-7.7,1.5-11.2,3.8l-4.5-7.1
		c5.3-3.8,11-5.7,18.6-5.7c8.6,0,11.6,4.2,11.6,11v14.5c0,0.8,0.7,1.1,3.8,1.6l-1.9,8.6c-1.3,0.1-2.4,0.1-3.4,0.1
		c-6.5,0-8.9-1.3-10.1-4C382.4,71.2,379.6,72.3,375.4,72.3 M338.9,61.1c0,2.1,1.2,3.6,3.2,3.6c2.1,0,3.7-0.9,4.7-1.8v-5.2
		C339.4,58.3,338.9,59.1,338.9,61.1 M337.5,72.3c-5.5,0-9.9-4.1-9.9-10.8c0-5,2.8-8.4,19.3-9.7v-3.4c0-2.3-0.6-2.9-2.4-2.9
		c-3.6,0-7.7,1.5-11.2,3.8l-4.5-7.1c5.3-3.8,11-5.7,18.6-5.7c8.6,0,11.5,4.2,11.5,11v14.5c0,0.8,0.7,1.1,3.8,1.6l-1.9,8.6
		c-1.3,0.1-2.4,0.1-3.4,0.1c-6.5,0-8.9-1.3-10.1-4C344.5,71.2,341.6,72.3,337.5,72.3 M310,49.1c0-1.8-0.8-2.4-2.3-2.4
		c-1.5,0-3.6,1.1-5.6,2.8v22.2h-11.6V49.1c0-1.8-0.8-2.4-2.3-2.4c-1.5,0-3.7,1.1-5.7,2.8v22.2H271V37.5l10.3-0.6
		c0.4,1.1,0.8,3,1,4.7c3.5-3,7.4-5,11-5c5.5,0,7.5,2.3,8.4,5.2c2.8-2.5,7.2-5.2,10.8-5.2c7,0,9.2,3.2,9.2,9.5v25.7H310V49.1z
		 M251.5,22.1H263v10.1h-11.5V22.1z M251.4,71.7V37.8l11.9-0.6v34.5H251.4z M227.9,45.2c-3.3,0-5.2,2.8-5.2,8.9
		c0,7.4,1.2,9.9,4.9,9.9c4,0,5.4-2.9,5.4-9.8C233,47.4,231.5,45.2,227.9,45.2 M226.9,72.3c-11.6,0-16.7-5.7-16.7-17.3
		c0-11,6.9-18.3,18.3-18.3c11.6,0,16.9,5.5,16.9,17.1C245.4,64.4,239,72.3,226.9,72.3 M190.4,55.2c0.4,1.4,0.6,2.8,0.6,3.7
		c0-0.9,0.2-2.3,0.6-3.7l5.8-17.5h10.8l-12.8,34.1h-10.9l-12.1-34.1H185L190.4,55.2z M137.3,37.8l12.1-0.5v22.5
		c0,1.8,0.6,2.5,2.1,2.5c1.5,0,3-0.8,5.2-2.6V37.8l12-0.5v34.2l-10.6,0.6c-0.4-1.1-0.7-3-1-4.7c-3.3,2.9-7.4,5-10.8,5
		c-6.5,0-9-3.1-9-9.9V37.8z M114.1,46.2c-1.6,0-3,0.7-4.6,1.8v15.4c0.9,0.3,2.5,0.5,3.7,0.5c4,0,6-2.5,6-9.4
		C119.2,48.9,117.2,46.2,114.1,46.2 M113.7,71.8c-0.9,0-3.5-0.1-4.2-0.1v8l-12.1,0.6V37.5l10.6-0.6c0.4,1.2,0.6,2.3,0.9,4
		c3-2.9,6.3-4.3,10.2-4.3c7,0,12.2,4.7,12.2,16.9C131.4,63.3,127,71.8,113.7,71.8 M77.9,22.1h11.5v10.1H77.9V22.1z M77.8,71.7V37.8
		l11.9-0.6v34.5H77.8z M62.6,22h11.8L56.3,71.7H44.4L28.4,22h14.2l8.6,30.6c0.4,1.3,0.5,2.7,0.5,3.6c0-0.9,0.3-2.4,0.7-3.6L62.6,22z
		"/>
</g>
</svg>
