<?xml version="1.0" encoding="utf-8"?>
<!-- Generator: Adobe Illustrator 21.0.2, SVG Export Plug-In . SVG Version: 6.00 Build 0)  -->
<svg version="1.1" id="musta" xmlns="http://www.w3.org/2000/svg" xmlns:xlink="http://www.w3.org/1999/xlink" x="0px" y="0px"
	 viewBox="0 0 450 300" style="enable-background:new 0 0 450 300;" xml:space="preserve">
<style type="text/css">
	.st0{fill:#FFFFFF;}
</style>
<g>
	<g>
		<path class="st0" d="M40.6,258.9c0.5-0.4,1-0.8,1.6-1.3c0.6-0.5,1.3-1,2-1.5c0.7-0.5,1.3-1.1,1.9-1.5c0.6-0.5,1.1-0.9,1.6-1.3
			c0.5-0.4,0.8-0.6,0.9-0.7c1.6-1.2,3-2.4,4.2-3.4c1.2-1.1,2.3-2.1,3.2-3c0.9-0.9,1.7-1.9,2.3-2.7c0.6-0.9,1.1-1.7,1.5-2.6
			c0.4-0.9,0.7-1.7,0.9-2.6c0.2-0.9,0.3-1.8,0.3-2.7c0-1.7-0.3-3.3-0.9-4.8c-0.6-1.5-1.5-2.8-2.6-3.9c-1.2-1.1-2.6-2-4.3-2.6
			c-1.7-0.6-3.7-1-6-1c-1.6,0-3.1,0.1-4.4,0.4c-1.4,0.2-2.7,0.6-4,1.1c-1.3,0.5-2.6,1.2-3.9,2c-1.3,0.8-2.7,1.8-4.1,2.9l3,4.5
			c1.4-1,2.6-1.9,3.7-2.5c1.1-0.6,2.1-1.1,3.1-1.5c0.9-0.3,1.9-0.6,2.7-0.7c0.9-0.1,1.8-0.2,2.7-0.2c1.2,0,2.4,0.2,3.4,0.5
			c1,0.3,1.9,0.8,2.6,1.5c0.7,0.6,1.3,1.4,1.7,2.3c0.4,0.9,0.6,1.9,0.6,2.9c0,0.6-0.1,1.3-0.2,1.9c-0.1,0.6-0.4,1.3-0.7,1.9
			c-0.3,0.7-0.8,1.3-1.3,2c-0.6,0.7-1.2,1.5-2.1,2.3c-0.8,0.8-1.8,1.7-2.9,2.7c-1.1,1-2.5,2-4,3.2c-0.6,0.4-1.2,0.9-1.9,1.5
			c-0.7,0.5-1.4,1.1-2.2,1.6c-0.7,0.6-1.5,1.1-2.3,1.7c-0.8,0.6-1.5,1.1-2.2,1.7c-1.7,1.3-3.4,2.6-5.2,3.9l0.6,4.1h32.6l0.6-5.2
			H39.6C39.8,259.5,40.1,259.3,40.6,258.9z"/>
		<path class="st0" d="M90.8,223.3c-2.2,0-4.2,0.2-6,0.7c-1.9,0.5-3.6,1.2-5.1,2.1c-1.5,0.9-2.9,2-4.1,3.3c-1.2,1.3-2.2,2.7-3,4.3
			c-0.8,1.6-1.4,3.3-1.9,5.1c-0.4,1.8-0.6,3.8-0.6,5.8c0,3.2,0.4,6.1,1.1,8.7c0.7,2.6,1.9,4.7,3.4,6.5c1.5,1.8,3.5,3.1,5.9,4.1
			c2.4,0.9,5.2,1.4,8.5,1.4c2.2,0,4.3-0.2,6.2-0.7c1.9-0.5,3.6-1.2,5.1-2.1c1.5-0.9,2.9-2,4.1-3.3c1.2-1.3,2.2-2.7,3-4.4
			c0.8-1.6,1.4-3.4,1.8-5.3c0.4-1.9,0.6-3.9,0.6-6c0-6.7-1.6-11.7-4.7-15.1C102,225,97.2,223.3,90.8,223.3z M101.6,251.1
			c-0.6,2-1.5,3.7-2.6,5c-1.1,1.3-2.4,2.3-4,3c-1.6,0.7-3.3,1-5.2,1c-2.2,0-4.2-0.3-5.8-1c-1.6-0.7-2.9-1.7-3.9-3
			c-1-1.3-1.8-3-2.2-5c-0.5-2-0.7-4.3-0.7-6.9c0-2.3,0.3-4.4,0.9-6.3c0.6-1.9,1.4-3.5,2.5-4.9c1.1-1.4,2.5-2.4,4.1-3.2
			c1.6-0.8,3.5-1.1,5.6-1.1c4,0,7.1,1.3,9.1,3.8c2,2.5,3.1,6.4,3.1,11.5C102.5,246.7,102.2,249.1,101.6,251.1z"/>
		<polygon class="st0" points="115.8,230 127.1,230.3 127.1,264.9 134.1,264.9 134.1,224.5 116,225.2 		"/>
		<path class="st0" d="M174.4,224.4l-6.5-0.5c-4.1,5.3-8.2,10.7-12.4,16c-4.1,5.3-8.3,10.6-12.4,15.9l1,4.9h23.5v17.1l6.7-0.3v-16.7
			h7.2l0.3-5.2h-7.5V224.4z M167.7,255.4h-17.9c3-3.9,6-7.7,9-11.6c3-3.8,5.9-7.7,8.9-11.5V255.4z"/>
		<polygon class="st0" points="187.5,245.6 229.5,245.6 229.9,240.8 188,240.8 		"/>
		<path class="st0" d="M247.2,258.9c0.5-0.4,1-0.8,1.6-1.3c0.6-0.5,1.3-1,2-1.5c0.7-0.5,1.3-1.1,1.9-1.5c0.6-0.5,1.1-0.9,1.6-1.3
			c0.5-0.4,0.8-0.6,0.9-0.7c1.6-1.2,3-2.4,4.2-3.4c1.2-1.1,2.3-2.1,3.2-3c0.9-0.9,1.7-1.9,2.3-2.7c0.6-0.9,1.1-1.7,1.5-2.6
			c0.4-0.9,0.7-1.7,0.9-2.6c0.2-0.9,0.3-1.8,0.3-2.7c0-1.7-0.3-3.3-0.9-4.8c-0.6-1.5-1.5-2.8-2.6-3.9c-1.2-1.1-2.6-2-4.3-2.6
			c-1.7-0.6-3.7-1-6-1c-1.6,0-3.1,0.1-4.4,0.4c-1.4,0.2-2.7,0.6-4,1.1c-1.3,0.5-2.6,1.2-3.9,2c-1.3,0.8-2.7,1.8-4.1,2.9l3,4.5
			c1.4-1,2.6-1.9,3.7-2.5c1.1-0.6,2.1-1.1,3.1-1.5c0.9-0.3,1.9-0.6,2.7-0.7c0.9-0.1,1.8-0.2,2.7-0.2c1.2,0,2.4,0.2,3.4,0.5
			c1,0.3,1.9,0.8,2.6,1.5c0.7,0.6,1.3,1.4,1.7,2.3c0.4,0.9,0.6,1.9,0.6,2.9c0,0.6-0.1,1.3-0.2,1.9c-0.1,0.6-0.4,1.3-0.7,1.9
			c-0.3,0.7-0.8,1.3-1.3,2c-0.6,0.7-1.2,1.5-2.1,2.3c-0.8,0.8-1.8,1.7-2.9,2.7c-1.1,1-2.5,2-4,3.2c-0.6,0.4-1.2,0.9-1.9,1.5
			c-0.7,0.5-1.4,1.1-2.2,1.6c-0.8,0.6-1.5,1.1-2.3,1.7c-0.8,0.6-1.5,1.1-2.2,1.7c-1.7,1.3-3.4,2.6-5.2,3.9l0.6,4.1H269l0.6-5.2
			h-23.4C246.4,259.5,246.7,259.3,247.2,258.9z"/>
		<path class="st0" d="M297.4,223.3c-2.2,0-4.2,0.2-6,0.7c-1.9,0.5-3.6,1.2-5.1,2.1c-1.5,0.9-2.9,2-4.1,3.3c-1.2,1.3-2.2,2.7-3,4.3
			c-0.8,1.6-1.4,3.3-1.9,5.1c-0.4,1.8-0.6,3.8-0.6,5.8c0,3.2,0.4,6.1,1.1,8.7c0.7,2.6,1.9,4.7,3.4,6.5c1.5,1.8,3.5,3.1,5.9,4.1
			c2.4,0.9,5.2,1.4,8.5,1.4c2.2,0,4.3-0.2,6.2-0.7c1.9-0.5,3.6-1.2,5.1-2.1c1.5-0.9,2.9-2,4.1-3.3c1.2-1.3,2.2-2.7,3-4.4
			c0.8-1.6,1.4-3.4,1.8-5.3c0.4-1.9,0.6-3.9,0.6-6c0-6.7-1.6-11.7-4.7-15.1C308.5,225,303.8,223.3,297.4,223.3z M308.2,251.1
			c-0.6,2-1.5,3.7-2.6,5c-1.1,1.3-2.4,2.3-4,3c-1.6,0.7-3.3,1-5.2,1c-2.2,0-4.2-0.3-5.8-1c-1.6-0.7-2.9-1.7-3.9-3
			c-1-1.3-1.7-3-2.2-5c-0.5-2-0.7-4.3-0.7-6.9c0-2.3,0.3-4.4,0.9-6.3c0.6-1.9,1.4-3.5,2.5-4.9c1.1-1.4,2.5-2.4,4.1-3.2
			c1.6-0.8,3.5-1.1,5.6-1.1c4,0,7.1,1.3,9.1,3.8c2,2.5,3.1,6.4,3.1,11.5C309.1,246.7,308.8,249.1,308.2,251.1z"/>
		<path class="st0" d="M334.5,258.9c0.5-0.4,1-0.8,1.6-1.3c0.6-0.5,1.3-1,2-1.5c0.7-0.5,1.3-1.1,1.9-1.5c0.6-0.5,1.1-0.9,1.6-1.3
			c0.5-0.4,0.8-0.6,0.9-0.7c1.6-1.2,3-2.4,4.2-3.4c1.2-1.1,2.3-2.1,3.2-3c0.9-0.9,1.7-1.9,2.3-2.7c0.6-0.9,1.1-1.7,1.5-2.6
			c0.4-0.9,0.7-1.7,0.9-2.6c0.2-0.9,0.3-1.8,0.3-2.7c0-1.7-0.3-3.3-0.9-4.8c-0.6-1.5-1.5-2.8-2.6-3.9c-1.2-1.1-2.6-2-4.3-2.6
			c-1.7-0.6-3.7-1-6-1c-1.6,0-3.1,0.1-4.4,0.4c-1.4,0.2-2.7,0.6-4,1.1c-1.3,0.5-2.6,1.2-3.9,2c-1.3,0.8-2.7,1.8-4.1,2.9l3,4.5
			c1.4-1,2.6-1.9,3.7-2.5c1.1-0.6,2.1-1.1,3.1-1.5c0.9-0.3,1.9-0.6,2.7-0.7c0.9-0.1,1.8-0.2,2.7-0.2c1.2,0,2.4,0.2,3.4,0.5
			c1,0.3,1.9,0.8,2.6,1.5c0.7,0.6,1.3,1.4,1.7,2.3c0.4,0.9,0.6,1.9,0.6,2.9c0,0.6-0.1,1.3-0.2,1.9c-0.1,0.6-0.4,1.3-0.7,1.9
			c-0.3,0.7-0.8,1.3-1.3,2c-0.6,0.7-1.2,1.5-2.1,2.3c-0.8,0.8-1.8,1.7-3,2.7c-1.1,1-2.5,2-4,3.2c-0.6,0.4-1.2,0.9-1.9,1.5
			c-0.7,0.5-1.4,1.1-2.2,1.6c-0.7,0.6-1.5,1.1-2.3,1.7c-0.8,0.6-1.5,1.1-2.2,1.7c-1.7,1.3-3.4,2.6-5.2,3.9l0.6,4.1h32.6l0.6-5.2
			h-23.4C333.7,259.5,334,259.3,334.5,258.9z"/>
		<path class="st0" d="M384.7,223.3c-2.2,0-4.2,0.2-6,0.7c-1.9,0.5-3.6,1.2-5.1,2.1c-1.5,0.9-2.9,2-4.1,3.3c-1.2,1.3-2.2,2.7-3,4.3
			c-0.8,1.6-1.4,3.3-1.9,5.1c-0.4,1.8-0.6,3.8-0.6,5.8c0,3.2,0.4,6.1,1.1,8.7c0.7,2.6,1.9,4.7,3.4,6.5c1.5,1.8,3.5,3.1,5.9,4.1
			c2.4,0.9,5.2,1.4,8.5,1.4c2.2,0,4.3-0.2,6.2-0.7c1.9-0.5,3.6-1.2,5.1-2.1c1.5-0.9,2.9-2,4.1-3.3c1.2-1.3,2.2-2.7,3-4.4
			c0.8-1.6,1.4-3.4,1.8-5.3c0.4-1.9,0.6-3.9,0.6-6c0-6.7-1.6-11.7-4.7-15.1C395.8,225,391.1,223.3,384.7,223.3z M395.5,251.1
			c-0.6,2-1.5,3.7-2.6,5c-1.1,1.3-2.4,2.3-4,3c-1.6,0.7-3.3,1-5.2,1c-2.2,0-4.2-0.3-5.8-1c-1.6-0.7-2.9-1.7-3.9-3
			c-1-1.3-1.8-3-2.2-5c-0.5-2-0.7-4.3-0.7-6.9c0-2.3,0.3-4.4,0.9-6.3c0.6-1.9,1.4-3.5,2.5-4.9c1.1-1.4,2.5-2.4,4.1-3.2
			c1.6-0.8,3.5-1.1,5.6-1.1c4,0,7.1,1.3,9.1,3.8c2,2.5,3.1,6.4,3.1,11.5C396.4,246.7,396.1,249.1,395.5,251.1z"/>
		<path class="st0" d="M345.8,184.4c0,13.1,8.7,18.6,18.7,18.6c9.6,0,18.4-3.9,25-11.3c0,7.2,2.7,10.7,9.8,10.7c4.7,0,9-0.9,12.1-2
			l-0.5-5.8c-2.8,0.6-6.4,1.1-9.6,1.1c-3.5,0-3.9-1.3-3.9-4.9l0.2-43.7c0-12.3-5.3-18.9-17.8-18.9c-13.1,0-21.6,3.6-30.4,10.1
			l3.9,5.5c7.1-5.5,16.7-8.8,24.7-8.8c8.2,0,12,3.8,11.8,12.9l-0.2,17C351,167.2,345.8,174.5,345.8,184.4z M389.4,184.5
			c-4.6,6-14.2,12.1-22.5,12.1c-8.8,0-13.2-5.3-13.2-13.2c0-7.6,10.1-10.7,35.9-12.4L389.4,184.5z"/>
		<path class="st0" d="M299.2,186.1c0,11.5,4.9,16.7,15.9,16.7c7.1,0,13.7-1.7,19.7-5.4l-2.2-6.1c-5.2,2.8-10.7,4.6-15.9,4.6
			c-6.9,0-9.6-2.8-9.6-10.5v-48.9h25.2l0.5-6.9h-25.6v-24.6l-6.5,0.6l-1.4,24.1l-9.8,0.6l-0.6,5.5l10.4,0.3V186.1z"/>
		<path class="st0" d="M269.2,202.3c4.7,0,8.8-0.6,12-1.7l-0.5-5.8c-3,0.6-6.3,0.9-9.6,0.9c-3.3,0-3.8-1.3-3.8-4.7l-0.5-100.4
			l-7.9,0.6l0.5,99.9C259.4,199,262.1,202.3,269.2,202.3z"/>
		<path class="st0" d="M194.1,96.1h-7.7V159c0,23.8-8.3,36.7-32.4,36.7c-23.3,0-31.2-11.8-31.2-34.9V96.1h-8v66.1
			c0,26.1,9.4,40.4,38.9,40.4c28.3,0,40.4-17.6,40.4-43.1V96.1z"/>
		<rect x="220.6" y="140.5" class="st0" width="12.4" height="10.5"/>
		<polygon class="st0" points="92,195.1 40.4,195.1 40.4,150.1 85.1,150.1 85.1,143.3 40.4,143.3 40.4,102.7 92,102.7 92.5,96.1 
			32.2,96.1 32.2,201.7 92.5,201.7 		"/>
		<rect x="220.6" y="181.1" class="st0" width="12.4" height="10.5"/>
	</g>
	<path class="st0" d="M376.9,61.4c0,2.1,1.2,3.6,3.2,3.6c2.1,0,3.7-0.9,4.7-1.8V58C377.5,58.7,376.9,59.4,376.9,61.4 M375.5,72.6
		c-5.5,0-9.9-4.1-9.9-10.8c0-5,2.8-8.4,19.3-9.7v-3.4c0-2.3-0.6-2.9-2.4-2.9c-3.6,0-7.7,1.5-11.2,3.8l-4.5-7.1
		c5.3-3.8,11-5.7,18.5-5.7c8.6,0,11.5,4.2,11.5,11v14.4c0,0.8,0.7,1.1,3.8,1.6l-1.9,8.6c-1.3,0.1-2.4,0.1-3.4,0.1
		c-6.5,0-8.8-1.3-10.1-4C382.5,71.5,379.7,72.6,375.5,72.6 M339,61.4c0,2.1,1.2,3.6,3.2,3.6c2.1,0,3.7-0.9,4.7-1.8V58
		C339.5,58.7,339,59.4,339,61.4 M337.5,72.6c-5.4,0-9.9-4.1-9.9-10.8c0-5,2.8-8.4,19.3-9.7v-3.4c0-2.3-0.6-2.9-2.4-2.9
		c-3.6,0-7.7,1.5-11.2,3.8l-4.5-7.1c5.3-3.8,11-5.7,18.5-5.7c8.6,0,11.5,4.2,11.5,11v14.4c0,0.8,0.7,1.1,3.8,1.6l-1.9,8.6
		c-1.3,0.1-2.4,0.1-3.4,0.1c-6.5,0-8.8-1.3-10.1-4C344.6,71.5,341.7,72.6,337.5,72.6 M310.2,49.5c0-1.8-0.8-2.4-2.3-2.4
		c-1.5,0-3.6,1.1-5.6,2.8V72h-11.6V49.5c0-1.8-0.8-2.4-2.3-2.4c-1.5,0-3.7,1.1-5.7,2.8V72h-11.6V37.8l10.3-0.6c0.4,1.1,0.8,3,1,4.7
		c3.5-3,7.4-5,11-5c5.4,0,7.5,2.3,8.4,5.2c2.8-2.5,7.2-5.2,10.8-5.2c7,0,9.2,3.2,9.2,9.5V72h-11.7V49.5z M251.7,22.4h11.5v10h-11.5
		V22.4z M251.5,72V38.1l11.9-0.6V72H251.5z M228.1,45.5c-3.3,0-5.2,2.8-5.2,8.9c0,7.4,1.2,9.9,4.9,9.9c4,0,5.4-2.9,5.4-9.8
		C233.1,47.8,231.7,45.5,228.1,45.5 M227.1,72.6c-11.5,0-16.7-5.7-16.7-17.3c0-11,6.9-18.3,18.3-18.3c11.6,0,16.9,5.4,16.9,17.1
		C245.6,64.7,239.2,72.6,227.1,72.6 M190.6,55.5c0.4,1.4,0.6,2.8,0.6,3.7c0-0.9,0.2-2.3,0.6-3.7l5.8-17.5h10.8l-12.8,34h-10.9
		l-12.1-34h12.5L190.6,55.5z M137.6,38.1l12.1-0.5v22.5c0,1.8,0.6,2.5,2.1,2.5c1.5,0,3-0.8,5.2-2.6V38.1l12-0.5v34.1l-10.6,0.6
		c-0.4-1.1-0.7-3-1-4.7c-3.3,2.9-7.4,5-10.8,5c-6.5,0-9-3.1-9-9.9V38.1z M114.4,46.6c-1.6,0-3,0.7-4.6,1.8v15.4
		c0.9,0.3,2.5,0.5,3.7,0.5c4,0,5.9-2.5,5.9-9.4C119.5,49.2,117.5,46.6,114.4,46.6 M114,72.1c-0.8,0-3.5-0.1-4.2-0.1v8l-12.1,0.6
		V37.8l10.6-0.6c0.4,1.2,0.6,2.3,0.9,4c3-2.9,6.3-4.3,10.2-4.3c7,0,12.2,4.7,12.2,16.9C131.7,63.6,127.3,72.1,114,72.1 M78.3,22.4
		h11.5v10H78.3V22.4z M78.1,72V38.1L90,37.6V72H78.1z M63,22.3h11.8L56.7,72H44.8l-16-49.7H43l8.6,30.6c0.4,1.3,0.5,2.7,0.5,3.6
		c0-0.9,0.3-2.4,0.7-3.6L63,22.3z"/>
</g>
</svg>
