<?xml version="1.0" encoding="utf-8"?>
<!-- Generator: Adobe Illustrator 20.1.0, SVG Export Plug-In . SVG Version: 6.00 Build 0)  -->
<svg version="1.1" id="Layer_1" xmlns="http://www.w3.org/2000/svg" xmlns:xlink="http://www.w3.org/1999/xlink" x="0px" y="0px"
	 viewBox="0 0 281 198.2" style="enable-background:new 0 0 281 198.2;" xml:space="preserve">
<style type="text/css">
	.st0{fill:#FFFFFF;}
</style>
<g id="Layer_3">
</g>
<g id="Layer_2">
</g>
<g id="Layer_1_1_">
	<g>
		<path class="st0" d="M247.5,4.6c-6.2-6.2-16.4-6.2-22.6,0c-3.2,3.2-4.8,7.5-4.7,12v0.3v39.3h39.5h0.1c4.5,0.2,8.8-1.5,12-4.7
			c6.2-6.2,6.2-16.4,0-22.6c-3.1-3.1-7.2-4.8-11.6-4.7c-0.5,0-0.9,0-1.4,0.1l-7.5,0.8l0.8-7.5c0.1-0.5,0.1-0.9,0.1-1.4
			C252.3,11.9,250.6,7.9,247.5,4.6z"/>
		<polygon class="st0" points="44.7,56.2 44.7,76.8 16.5,76.8 16.5,56.2 3.5,56.2 3.5,110.6 16.5,110.6 16.5,89.9 44.7,89.9 
			44.7,110.6 57.8,110.6 57.8,56.2 		"/>
		<polygon class="st0" points="140.7,69.2 140.7,56.2 86.4,56.2 86.4,110.6 140.7,110.6 140.7,97.6 99.5,97.6 99.5,89.9 125.5,89.9 
			125.5,76.8 99.5,76.8 99.5,69.2 		"/>
		<polygon class="st0" points="140.7,150.6 140.7,137.6 86.4,137.6 86.4,191.9 140.7,191.9 140.7,178.9 99.5,178.9 99.5,171.4 
			125.5,171.4 125.5,158.2 99.5,158.2 99.5,150.6 		"/>
		<polygon class="st0" points="179.8,97.6 179.8,56.2 166.7,56.2 166.7,110.6 221,110.6 221,97.6 		"/>
		<polygon class="st0" points="210.2,137.6 194.6,174.8 177.6,137.6 164.6,137.6 188.5,191.9 201.5,191.9 223.2,137.6 		"/>
		<path class="st0" d="M57.8,165.4c0-14.6-11.6-26.6-26.1-27.1H3.5v54.3h28.2C46.2,191.9,57.8,179.9,57.8,165.4z M30.6,179.4H16.5
			v-28.2h14.1c7.8,0,14.1,6.3,14.1,14.1S38.4,179.4,30.6,179.4z"/>
	</g>
</g>
</svg>
