<svg id="helsinki-vaakuna" xmlns="http://www.w3.org/2000/svg" viewBox="0 0 64 64"><defs><style>.cls-1{fill:#fff;}</style></defs><title>helsinki-vaakuna</title><path class="cls-1" d="M42.14,19.77H22a.26.26,0,0,1,0-.52H42.14a.26.26,0,0,1,0,.52Z"/><path class="cls-1" d="M32,16.85a1.45,1.45,0,1,1,1.48-1.48A1.45,1.45,0,0,1,32,16.85Zm0-2.38a.93.93,0,0,0,0,1.86.94.94,0,0,0,1-1,.92.92,0,0,0-1-.9Z"/><path class="cls-1" d="M37.64,20c-.8,0-1.48.48-1.48,1.05s.66,1.11,1.48,1.11,1.48-.48,1.48-1.11S38.47,20,37.64,20Zm0,1.64c-.5,0-1-.28-1-.59s.44-.53,1-.53,1,.28,1,.53S38.16,21.68,37.64,21.68Z"/><path class="cls-1" d="M34.3,20.91l-2.17-1a.26.26,0,0,0-.22,0l-2.12,1a.26.26,0,0,0,0,.47l2.12,1,.11,0,.11,0,2.17-1a.26.26,0,0,0,.16-.24A.26.26,0,0,0,34.3,20.91Zm-2.28.9-1.5-.67,1.5-.71,1.54.71Z"/><path class="cls-1" d="M42,20.14a.26.26,0,0,0-.27,0l-1.64.79a.26.26,0,0,0,0,.47l1.64.69.1,0A.26.26,0,0,0,42,22a1.19,1.19,0,0,0,0-1.9Zm-.21,1.39-1-.4,1-.47a.67.67,0,0,1,0,.87Z"/><path class="cls-1" d="M24.24,20.86l-1.64-.74a.26.26,0,0,0-.24,0,1.1,1.1,0,0,0-.55,1,1.24,1.24,0,0,0,.53.95.26.26,0,0,0,.16.05l.11,0,1.64-.74a.26.26,0,0,0,0-.47Zm-1.7.67a.64.64,0,0,1-.21-.43.58.58,0,0,1,.19-.44l1,.44Z"/><path class="cls-1" d="M26.47,20c-.8,0-1.48.48-1.48,1.05s.66,1.11,1.48,1.11,1.48-.48,1.48-1.11S27.29,20,26.47,20Zm0,1.64c-.5,0-1-.28-1-.59s.44-.53,1-.53,1,.28,1,.53S27,21.68,26.47,21.68Z"/><path class="cls-1" d="M42.14,19.77a.26.26,0,0,0,0-.52H22a.26.26,0,0,0,0,.52Z"/><path class="cls-1" d="M44.78,11.57a1.41,1.41,0,0,0-1.27.76,1.54,1.54,0,0,0-1.38.45,1.35,1.35,0,0,0-.36,1,.26.26,0,0,0,.14.21l.41.21.07.09-.06,0a1,1,0,0,1-.36.08.86.86,0,0,1-.34-.09.91.91,0,0,1-.32-.2.74.74,0,0,1-.2-.27.26.26,0,0,0-.19-.17.26.26,0,0,0-.24.07,1.58,1.58,0,0,0-.23.3l-.1.17a1.71,1.71,0,0,0-.07.56c0,.07,0,.14,0,.21a1,1,0,0,0-.2.07,1.41,1.41,0,0,0-.53.33,1.68,1.68,0,0,0-.22.3l-.07.11a.27.27,0,0,0,0,.29l.07.11a1.68,1.68,0,0,0,.22.3,1.34,1.34,0,0,0,.49.31l.2.08a1.07,1.07,0,0,0,0,.22,1.78,1.78,0,0,0,.12.56,1.17,1.17,0,0,0,.33.47.26.26,0,0,0,.24.07.26.26,0,0,0,.19-.17.73.73,0,0,1,.2-.27,1.49,1.49,0,0,1,.27-.2,1.2,1.2,0,0,1,.75,0l0,0a2.6,2.6,0,0,1-2,.92,2.51,2.51,0,0,1-2.2-1.18,1.48,1.48,0,1,0-1.12,0,2.54,2.54,0,0,1-2.19,1.18,2.6,2.6,0,0,1-2.17-1.17l.18-.13a1.27,1.27,0,0,1,.39,0h.28l.21.12a.78.78,0,0,1,.18.11.9.9,0,0,1,.2.32.26.26,0,0,0,.43.1,1.17,1.17,0,0,0,.17-.24.83.83,0,0,1,.09-.14.26.26,0,0,0,.06-.1,1.68,1.68,0,0,0,.07-.56c0-.07,0-.15,0-.23a.82.82,0,0,0,.26-.08l.2-.12.26-.17a1.19,1.19,0,0,0,.23-.37l0-.07a.26.26,0,0,0,0-.2,1.19,1.19,0,0,0-.77-.79,1.35,1.35,0,0,0-.23-.09c0-.07,0-.14,0-.21a.94.94,0,0,0-.14-.61,1.85,1.85,0,0,0-.22-.43.27.27,0,0,0-.43,0c0,.07-.08.14-.12.21a.82.82,0,0,1-.11.18.89.89,0,0,1-.32.2h0c0-.06,0-.12,0-.18a1.45,1.45,0,0,1,0-.36,1.35,1.35,0,0,1,.22-.3.9.9,0,0,1,.32-.2.26.26,0,0,0,.1-.43,1.33,1.33,0,0,0-.49-.31,1.42,1.42,0,0,0-.78-.11.71.71,0,0,0-.11-.25l0-.07a1.18,1.18,0,0,0-.23-.37,1.4,1.4,0,0,0-.53-.33.26.26,0,0,0-.2,0,1.86,1.86,0,0,0-.44.31,1.18,1.18,0,0,0-.17.24.73.73,0,0,1-.09.13.26.26,0,0,0-.06.1,1.14,1.14,0,0,0,0,.22,1.6,1.6,0,0,0-.83.11,1.89,1.89,0,0,0-.44.31.26.26,0,0,0,.1.43.89.89,0,0,1,.32.2.77.77,0,0,1,.09.14,1.4,1.4,0,0,0,.12.18,1.49,1.49,0,0,1,0,.35c0,.06,0,.12,0,.18h0a.85.85,0,0,1-.5-.52.26.26,0,0,0-.46-.06l-.14.22-.14.23a1.33,1.33,0,0,0-.08.59c0,.07,0,.14,0,.21a1,1,0,0,0-.2.07.92.92,0,0,0-.53.33,1.64,1.64,0,0,0-.22.3l-.07.11a.26.26,0,0,0,0,.33.79.79,0,0,1,.09.14,1.17,1.17,0,0,0,.17.23,1.24,1.24,0,0,0,.3.2l.19.11a.66.66,0,0,0,.2.06,1.19,1.19,0,0,0,0,.24,1.81,1.81,0,0,0,.13.59,1.88,1.88,0,0,0,.31.44.26.26,0,0,0,.43-.1.91.91,0,0,1,.2-.32l.14-.09.18-.12a1.65,1.65,0,0,1,.71,0,1.42,1.42,0,0,1,.22.14h0a2.6,2.6,0,0,1-2.17,1.16A2.54,2.54,0,0,1,27,17.31,1.52,1.52,0,0,0,27.89,16a1.45,1.45,0,1,0-2,1.36,2.61,2.61,0,0,1-4.18.27l.09,0a.81.81,0,0,1,.31-.06.84.84,0,0,1,.34.09.88.88,0,0,1,.32.2.72.72,0,0,1,.2.27.26.26,0,0,0,.43.1,1.62,1.62,0,0,0,.22-.3l.1-.18a1.7,1.7,0,0,0,.07-.56c0-.07,0-.14,0-.21a.94.94,0,0,0,.2-.07,1.25,1.25,0,0,0,.37-.21l.16-.12a1.1,1.1,0,0,0,.27-.47.26.26,0,0,0,0-.16,1.11,1.11,0,0,0-.31-.51l-.12-.09a1.18,1.18,0,0,0-.33-.2,1.31,1.31,0,0,0-.23-.09c0-.07,0-.14,0-.21a.93.93,0,0,0-.12-.56,1.12,1.12,0,0,0-.27-.47.26.26,0,0,0-.4,0l-.08.12a1.09,1.09,0,0,1-.15.21,1,1,0,0,1-.35.22.86.86,0,0,1-.67,0l-.06,0,.08-.08a.82.82,0,0,1,.29-.19.26.26,0,0,0,.26-.24,1.35,1.35,0,0,0-.36-1,1.54,1.54,0,0,0-1.38-.45,1.41,1.41,0,0,0-1.27-.76A1.5,1.5,0,0,0,17.84,13a.26.26,0,0,0,.26.26.92.92,0,0,1,1,.9,1.59,1.59,0,0,0,.53,1.13,1.38,1.38,0,0,0-.15.62,1.47,1.47,0,0,0,1.16,1.45A3.54,3.54,0,0,0,21,19.1a.78.78,0,0,0-.22.57.71.71,0,0,0,.14.43,1.43,1.43,0,0,0,0,2,.81.81,0,0,0-.15.48.67.67,0,0,0,.58.68H42.83a.66.66,0,0,0,.51-.68.81.81,0,0,0-.15-.48,1.41,1.41,0,0,0,.41-1,1.31,1.31,0,0,0-.41-1,.75.75,0,0,0,.14-.45.82.82,0,0,0-.23-.55,3.17,3.17,0,0,0,.35-1.7A1.46,1.46,0,0,0,44.67,16a1.37,1.37,0,0,0-.16-.64A1.51,1.51,0,0,0,45,14.21a.92.92,0,0,1,.9-.9.26.26,0,0,0,.26-.26A1.45,1.45,0,0,0,44.78,11.57ZM22.12,14.95a1.2,1.2,0,0,0,.51-.12,1.42,1.42,0,0,0,.52-.33l.06-.07v0a.56.56,0,0,1,.06.33,1.05,1.05,0,0,1,0,.31.26.26,0,0,0,0,.25c.11.17.36.12.56.22a.86.86,0,0,1,.22.13l.1.07a.51.51,0,0,1,.12.19.58.58,0,0,1-.08.15l-.14.1a.87.87,0,0,1-.25.15c-.14.07-.42,0-.53.2a.26.26,0,0,0,0,.25,1.07,1.07,0,0,1,0,.31,3.16,3.16,0,0,1,0,.33l0,.06-.09-.09a1.32,1.32,0,0,0-.49-.31,1.26,1.26,0,0,0-.54-.13l-.21,0a1.47,1.47,0,0,0,.41-1,1.4,1.4,0,0,0-.47-1A1.41,1.41,0,0,0,22.12,14.95ZM42.2,17a1.8,1.8,0,0,0-.82.09,1.85,1.85,0,0,0-.44.31l-.1.1h0a1.37,1.37,0,0,1-.09-.39.74.74,0,0,1,.08-.31.26.26,0,0,0,0-.25c-.11-.17-.36-.12-.56-.22a.89.89,0,0,1-.32-.2A1,1,0,0,1,39.8,16a1,1,0,0,1,.14-.19,1,1,0,0,1,.36-.22c.14-.07.42,0,.53-.2a.26.26,0,0,0,0-.25,1.06,1.06,0,0,1,0-.31c0-.15,0-.28,0-.33l0-.06.09.1a1.35,1.35,0,0,0,.49.31,1.28,1.28,0,0,0,.54.13l.25,0a1.42,1.42,0,0,0-.46,1A1.5,1.5,0,0,0,42.2,17ZM36.68,16a1,1,0,1,1,1.15.92h-.4A1,1,0,0,1,36.68,16ZM25.51,16a1,1,0,0,1,1-1,1,1,0,0,1,.9,1,1,1,0,0,1-.68.92l-.06,0h-.36A1,1,0,0,1,25.51,16Zm-5.62-1a1.07,1.07,0,0,1-.31-.71,1.44,1.44,0,0,0-1.19-1.4,1,1,0,0,1,.93-.72.89.89,0,0,1,.87.62.26.26,0,0,0,.33.16,1.07,1.07,0,0,1,1.08.26.84.84,0,0,1,.22.46,1.43,1.43,0,0,0-.4.28,1.21,1.21,0,0,0-.33.47.25.25,0,0,0,0,.22l-.27,0A1.42,1.42,0,0,0,19.89,14.92Zm1,2a.93.93,0,1,1,1-1A.94.94,0,0,1,20.85,16.92Zm21.79,5a.26.26,0,0,0,.07.48c.09,0,.12.15.12.22s0,.15-.09.16H21.39c-.06,0-.12,0-.12-.17s0-.2.12-.22a.26.26,0,0,0,.07-.48.9.9,0,0,1,0-1.56.26.26,0,0,0-.07-.48c-.06,0-.12,0-.12-.17s0-.2.12-.22a.26.26,0,0,0,.16-.39,2.88,2.88,0,0,1-.44-1.42h0a3.13,3.13,0,0,0,5.32-.2h.06a3.12,3.12,0,0,0,5.29.24.37.37,0,0,0,.11-.21.26.26,0,0,0,0-.37L31.84,17a1.85,1.85,0,0,0-.47-.33,1.62,1.62,0,0,0-1.12,0,.24.24,0,0,0-.1.06l-.14.09a1.15,1.15,0,0,0-.24.17l-.11.12a1.26,1.26,0,0,1-.08-.36,1.34,1.34,0,0,1,.09-.39.26.26,0,0,0,0-.23c-.11-.16-.45-.1-.49-.12l-.2-.12a.84.84,0,0,1-.18-.11.79.79,0,0,1-.09-.14l0-.06a1.32,1.32,0,0,1,.16-.21c.05-.08.14-.11.32-.18s.4,0,.52-.19a.26.26,0,0,0,0-.23.92.92,0,0,1,0-.34,2.57,2.57,0,0,1,0-.33l0-.06.09.1a1.44,1.44,0,0,0,.57.34.43.43,0,0,0,.2.05h.16a.26.26,0,0,0,.25-.18,1.68,1.68,0,0,0,.07-.56,1.68,1.68,0,0,0-.07-.56.25.25,0,0,0-.06-.1.76.76,0,0,1-.09-.13,1.11,1.11,0,0,0-.17-.24l-.12-.11a1.08,1.08,0,0,1,.76,0,.26.26,0,0,0,.23,0,.26.26,0,0,0,.11-.21,1.48,1.48,0,0,1,0-.35,1.54,1.54,0,0,0,.12-.18.8.8,0,0,1,.09-.14,1.29,1.29,0,0,1,.2-.16.94.94,0,0,1,.22.16.76.76,0,0,1,.12.21l.06.12a.55.55,0,0,1,.06.33.26.26,0,0,0,.11.21.26.26,0,0,0,.23,0,1,1,0,0,1,.74,0h0l-.11.1a1.82,1.82,0,0,0-.33.47,1.71,1.71,0,0,0-.07.56,1.71,1.71,0,0,0,.07.56c0,.11.24.18.35.18a.35.35,0,0,0,.21-.05h.08a1.41,1.41,0,0,0,.53-.33l.06-.07,0,.07a.71.71,0,0,1,0,.29.94.94,0,0,1,0,.34.26.26,0,0,0,0,.23c.11.16.36.11.55.2a.68.68,0,0,1,.32.2.49.49,0,0,1,.11.18l-.07.16-.2.13L35,16c-.09,0-.41,0-.52.13a.26.26,0,0,0,0,.23,1.26,1.26,0,0,1,0,.39,1.48,1.48,0,0,1,0,.35h0l-.1-.12a1.21,1.21,0,0,0-.3-.2l-.19-.11a1.21,1.21,0,0,0-.54-.08,1.67,1.67,0,0,0-.59.08,1.88,1.88,0,0,0-.44.31l-.05.05a.27.27,0,0,0,0,.37.4.4,0,0,0,.08.17A3.11,3.11,0,0,0,34.88,19a3.06,3.06,0,0,0,2.72-1.59h0A3,3,0,0,0,40.39,19,3.12,3.12,0,0,0,43,17.67,2.63,2.63,0,0,1,42.55,19a.26.26,0,0,0,.14.39.28.28,0,0,1,.14.23c0,.08,0,.17-.17.24a.26.26,0,0,0,0,.47.74.74,0,0,1,.42.71A.88.88,0,0,1,42.64,21.87Zm.55-5a.93.93,0,0,1,0-1.86.93.93,0,1,1,0,1.86Zm1.33-2.7a1,1,0,0,1-.33.7,1.49,1.49,0,0,0-1-.38l-.2,0a.23.23,0,0,0,0-.06.26.26,0,0,0,0-.21l-.07-.12a1.51,1.51,0,0,0-.26-.33,4.06,4.06,0,0,0-.36-.21.84.84,0,0,1,.22-.5,1.08,1.08,0,0,1,1.08-.26.26.26,0,0,0,.33-.17.88.88,0,0,1,.86-.62.92.92,0,0,1,.88.73A1.43,1.43,0,0,0,44.52,14.21Z"/><path class="cls-1" d="M56.42,42.63V4.21A.42.42,0,0,0,56,3.79H8a.42.42,0,0,0-.42.42V49.26a8.22,8.22,0,0,0,2.71,6.22,8.43,8.43,0,0,0,6.17,2.72H28.69A3.4,3.4,0,0,1,31.6,60a.42.42,0,0,0,.37.23h0A.41.41,0,0,0,32.3,60l0,0h0a3.56,3.56,0,0,1,3-1.79H47.54a8.42,8.42,0,0,0,6.17-2.72,8.22,8.22,0,0,0,2.71-6.22V42.63Zm-48-38H55.59V40.25a4.87,4.87,0,0,0-2.23-.52,6.17,6.17,0,0,0-2.89.82,5.3,5.3,0,0,1-2.46.72,5.2,5.2,0,0,1-2.38-.67,20.2,20.2,0,0,0,6.56-14.9,10.5,10.5,0,0,0-.06-1.31.36.36,0,0,0-.52-.28l-2.38,1.16h0a.36.36,0,0,0-.11.1l0,0a.35.35,0,0,0,0,.17v.11c0,.48,0,1-.07,1.43A34.77,34.77,0,0,1,42,30a.36.36,0,0,0-.26.35v2.27A35.83,35.83,0,0,1,32,34a35.68,35.68,0,0,1-9.71-1.39V30.36A.36.36,0,0,0,22,30a34.69,34.69,0,0,1-7-2.89c0-.46-.09-1-.09-1.42v-.11a.36.36,0,0,0-.2-.32l-2.38-1.22a.36.36,0,0,0-.53.32c0,.2,0,.42,0,.64s0,.46,0,.68a20.21,20.21,0,0,0,6.61,14.9,5.2,5.2,0,0,1-2.38.67,5.43,5.43,0,0,1-2.49-.73,6.17,6.17,0,0,0-2.86-.81,5.43,5.43,0,0,0-2.23.51ZM48.24,30.86A17,17,0,0,1,47.38,33,34.57,34.57,0,0,1,32,36.56,34.67,34.67,0,0,1,16.56,33a16.78,16.78,0,0,1-.86-2.19A36,36,0,0,0,32,34.75,36,36,0,0,0,48.24,30.86Zm-5.79,1.56V30.63A35.53,35.53,0,0,0,48.87,28a17,17,0,0,1-.36,1.9A35.3,35.3,0,0,1,42.45,32.42Zm-20.9,0a34.33,34.33,0,0,1-6.12-2.56A16.91,16.91,0,0,1,15.07,28a35.49,35.49,0,0,0,6.48,2.66Zm-.43,7.32a5.46,5.46,0,0,0-2,.52A19.49,19.49,0,0,1,12.48,25.7c0-.2,0-.42,0-.64V25l1.68.86c0,.05,0,.11,0,.16A17.58,17.58,0,0,0,21.12,39.75ZM20,37.85a35.77,35.77,0,0,0,10.91,2,7.86,7.86,0,0,0-1.79.69,5.27,5.27,0,0,1-2.46.72,5.43,5.43,0,0,1-2.49-.73,9.2,9.2,0,0,0-1.55-.62A17,17,0,0,1,20,37.85Zm-1.12-1.2a16.76,16.76,0,0,1-1.78-2.56A35.48,35.48,0,0,0,32,37.29a35.35,35.35,0,0,0,14.79-3.17A16.84,16.84,0,0,1,45,36.67a34.92,34.92,0,0,1-13,2.48A35,35,0,0,1,18.9,36.65Zm25,1.22a17.15,17.15,0,0,1-2.58,2.06,9.15,9.15,0,0,0-1.55.62,5.44,5.44,0,0,1-2.49.73,5.42,5.42,0,0,1-2.49-.73A8.18,8.18,0,0,0,33,39.86,35.64,35.64,0,0,0,43.94,37.87ZM49.66,27.5a.36.36,0,0,0,0-.12c.05-.51.05-1.06.05-1.56l1.7-.83c0,.23,0,.47,0,.71a19.47,19.47,0,0,1-6.54,14.57,5.45,5.45,0,0,0-2.06-.52A17.63,17.63,0,0,0,49.66,27.5Zm3.47,27.38a7.58,7.58,0,0,1-5.58,2.47H35.31A4.22,4.22,0,0,0,32,59a4.11,4.11,0,0,0-3.29-1.68H16.46a7.58,7.58,0,0,1-5.58-2.47A8.26,8.26,0,0,1,8.4,49.26v-8.1a5.09,5.09,0,0,1,2.23-.59,5.42,5.42,0,0,1,2.49.73,6.19,6.19,0,0,0,2.85.81,6.19,6.19,0,0,0,2.86-.81,5.43,5.43,0,0,1,2.49-.73,5.42,5.42,0,0,1,2.49.73,6.2,6.2,0,0,0,2.85.81,6,6,0,0,0,2.83-.81A5.27,5.27,0,0,1,32,40.57a5.43,5.43,0,0,1,2.49.73,6.19,6.19,0,0,0,2.86.81,6.19,6.19,0,0,0,2.86-.81,5.42,5.42,0,0,1,2.49-.73,5.43,5.43,0,0,1,2.49.73,6.19,6.19,0,0,0,2.86.81,6.05,6.05,0,0,0,2.82-.8,5.43,5.43,0,0,1,2.53-.73,4.28,4.28,0,0,1,2.23.62v5.35h0v2.71A8.26,8.26,0,0,1,53.12,54.88Z"/></svg>