<?xml version="1.0" encoding="utf-8"?>
<!-- Generator: Adobe Illustrator 21.0.2, SVG Export Plug-In . SVG Version: 6.00 Build 0)  -->
<svg version="1.1" id="Layer_1" xmlns="http://www.w3.org/2000/svg" xmlns:xlink="http://www.w3.org/1999/xlink" x="0px" y="0px"
	 viewBox="0 0 600 300" style="enable-background:new 0 0 600 300;" xml:space="preserve">
<style type="text/css">
	.st0{fill:#FFFFFF;}
</style>
<g>
	<path class="st0" d="M532.3,53.5V185c0,25.1-20.7,45.6-46.2,45.6H345.4c-16.9,0-32.9,6.1-45.4,17.4c-12.5-11.2-28.5-17.4-45.4-17.4
		h-141c-25.3,0-45.8-20.4-45.8-45.6V53.5H532.3z M307.5,260.5c10.1-10.1,23.6-15.7,38-15.7h140.6c33.3,0,60.4-26.8,60.4-59.8V39.3
		h-493V185c0,33,26.9,59.8,60.1,59.8h141c14.3,0,27.8,5.6,38,15.7l7.5,7.5L307.5,260.5z"/>
	<path class="st0" d="M478.2,113.4c0,4.4-3.5,7.6-7.9,7.6c-4.4,0-7.9-3.2-7.9-7.6c0-4.4,3.5-7.6,7.9-7.6
		C474.7,105.7,478.2,108.9,478.2,113.4 M463.4,175.5h13.7v-48.7h-13.7V175.5z M438.8,146.2l17.9,29.4h-14.9l-12-19.5l-6.5,8.2v11.3
		h-13.6v-70h13.6v32.3c0,6-0.7,12-0.7,12h0.3c0,0,3.2-5.3,5.9-9.1l10.4-13.9h16L438.8,146.2z M395.9,144.3
		c0-12.1-5.9-18.7-15.3-18.7c-8,0-12.2,4.7-14.6,9.2h-0.3l0.7-8h-13.6v48.7h13.6v-28.9c0-5.6,3.3-9.5,8.4-9.5c5.1,0,7.3,3.4,7.3,9.9
		v28.5h13.7V144.3z M339.7,113.4c0,4.4-3.5,7.6-7.9,7.6c-4.4,0-7.9-3.2-7.9-7.6c0-4.4,3.5-7.6,7.9-7.6
		C336.3,105.7,339.7,108.9,339.7,113.4 M324.9,175.5h13.7v-48.7h-13.7V175.5z M301.3,162c0-3.9-5.4-4.7-11.7-6.5
		c-7.3-1.9-16.5-5.6-16.5-14.9c0-9.2,8.8-15,19.2-15c9.7,0,18.6,4.6,22.3,11.1l-11.7,6.6c-1.2-4.3-4.8-7.7-10.2-7.7
		c-3.5,0-6.4,1.5-6.4,4.4c0,3.7,6.4,4.1,13.6,6.4c7.6,2.4,14.6,5.9,14.6,14.8c0,9.8-9.1,15.6-19.6,15.6c-11.4,0-20.4-4.8-24.4-12.6
		l11.9-6.7c1.5,5.3,5.8,9.3,12.3,9.3C298.6,166.7,301.3,165.1,301.3,162 M258,106h-13.7v56.1c0,5,1.1,8.7,3.2,11
		c2.2,2.3,5.6,3.4,10.3,3.4c1.6,0,3.3-0.2,4.9-0.5c1.7-0.4,3-0.9,4.1-1.5l1.2-9.2c-1.1,0.4-2,0.7-2.9,0.8c-0.8,0.2-1.8,0.2-2.9,0.2
		c-1.8,0-2.6-0.5-3.2-1.4c-0.7-0.9-1-2.5-1-4.8V106z M212.4,135.5c-5,0-9.1,3.6-10.2,10.2h19.2C221.5,139.9,217.7,135.5,212.4,135.5
		 M233.5,154.9H202c0.6,7.9,5,11.8,10.7,11.8c5.1,0,8.6-3.4,9.4-8l11.5,6.5c-3.4,6.2-10.7,11.6-20.9,11.6
		c-13.6,0-23.6-9.5-23.6-25.5c0-15.9,10.2-25.5,23.3-25.5c13.1,0,21.8,9.3,21.8,22.5C234.1,152.1,233.5,154.9,233.5,154.9
		 M163.8,175.5H178v-66.9h-14.2v26.5h-26.7v-26.5h-14.2v66.9h14.2v-27.7h26.7V175.5z"/>
</g>
</svg>
