<svg id="Layer_1" data-name="Layer 1" xmlns="http://www.w3.org/2000/svg" viewBox="0 0 450 450"><title>hki-tietoaineisto</title><path d="M375.93,347c2.29,9.2-31.56,28.9-81.32,30.15S209,373.4,203,361.55V329.37L374.89,315Z" fill="#05c2de" stroke="#c3f0f7" stroke-linecap="round" stroke-linejoin="round" stroke-width="2"/><path d="M285.71,297.55c-57.14,2.46-84.64,20.13-80.07,32s40.6,16.84,90.36,15.59,82.35-20.92,80.07-30.11S338.9,295.26,285.71,297.55Z" fill="#05c2de" stroke="#c3f0f7" stroke-linecap="round" stroke-linejoin="round" stroke-width="2"/><line x1="241.06" y1="343.17" x2="271.56" y2="299.1" fill="none" stroke="#c3f0f7" stroke-linecap="round" stroke-linejoin="round" stroke-width="2"/><line x1="260.8" y1="300.38" x2="232.12" y2="341.82" fill="none" stroke="#c3f0f7" stroke-linecap="round" stroke-linejoin="round" stroke-width="2"/><line x1="250.28" y1="344.12" x2="281.98" y2="298.32" fill="none" stroke="#c3f0f7" stroke-linecap="round" stroke-linejoin="round" stroke-width="2"/><line x1="271.56" y1="299.1" x2="241.06" y2="343.17" fill="none" stroke="#c3f0f7" stroke-linecap="round" stroke-linejoin="round" stroke-width="2"/><line x1="259.72" y1="344.75" x2="292.14" y2="297.91" fill="none" stroke="#c3f0f7" stroke-linecap="round" stroke-linejoin="round" stroke-width="2"/><line x1="281.98" y1="298.32" x2="250.28" y2="344.12" fill="none" stroke="#c3f0f7" stroke-linecap="round" stroke-linejoin="round" stroke-width="2"/><line x1="215.58" y1="337.19" x2="237.71" y2="305.21" fill="none" stroke="#c3f0f7" stroke-linecap="round" stroke-linejoin="round" stroke-width="2"/><line x1="224.59" y1="309.9" x2="208.75" y2="332.78" fill="none" stroke="#c3f0f7" stroke-linecap="round" stroke-linejoin="round" stroke-width="2"/><line x1="269.34" y1="345.13" x2="302.07" y2="297.82" fill="none" stroke="#c3f0f7" stroke-linecap="round" stroke-linejoin="round" stroke-width="2"/><line x1="292.14" y1="297.91" x2="259.72" y2="344.75" fill="none" stroke="#c3f0f7" stroke-linecap="round" stroke-linejoin="round" stroke-width="2"/><line x1="223.56" y1="339.93" x2="249.59" y2="302.31" fill="none" stroke="#c3f0f7" stroke-linecap="round" stroke-linejoin="round" stroke-width="2"/><line x1="237.71" y1="305.21" x2="215.58" y2="337.19" fill="none" stroke="#c3f0f7" stroke-linecap="round" stroke-linejoin="round" stroke-width="2"/><line x1="232.12" y1="341.82" x2="260.8" y2="300.38" fill="none" stroke="#c3f0f7" stroke-linecap="round" stroke-linejoin="round" stroke-width="2"/><line x1="249.59" y1="302.31" x2="223.56" y2="339.93" fill="none" stroke="#c3f0f7" stroke-linecap="round" stroke-linejoin="round" stroke-width="2"/><line x1="279.11" y1="345.28" x2="311.8" y2="298.04" fill="none" stroke="#c3f0f7" stroke-linecap="round" stroke-linejoin="round" stroke-width="2"/><line x1="302.07" y1="297.82" x2="269.34" y2="345.13" fill="none" stroke="#c3f0f7" stroke-linecap="round" stroke-linejoin="round" stroke-width="2"/><line x1="343.88" y1="337.3" x2="364.69" y2="307.23" fill="none" stroke="#c3f0f7" stroke-linecap="round" stroke-linejoin="round" stroke-width="2"/><line x1="356.75" y1="304.43" x2="331.67" y2="340.68" fill="none" stroke="#c3f0f7" stroke-linecap="round" stroke-linejoin="round" stroke-width="2"/><line x1="357.49" y1="331.9" x2="371.81" y2="311.21" fill="none" stroke="#c3f0f7" stroke-linecap="round" stroke-linejoin="round" stroke-width="2"/><line x1="364.69" y1="307.23" x2="343.88" y2="337.3" fill="none" stroke="#c3f0f7" stroke-linecap="round" stroke-linejoin="round" stroke-width="2"/><line x1="320.26" y1="342.9" x2="348.35" y2="302.3" fill="none" stroke="#c3f0f7" stroke-linecap="round" stroke-linejoin="round" stroke-width="2"/><line x1="339.61" y1="300.66" x2="309.42" y2="344.28" fill="none" stroke="#c3f0f7" stroke-linecap="round" stroke-linejoin="round" stroke-width="2"/><line x1="331.67" y1="340.68" x2="356.75" y2="304.43" fill="none" stroke="#c3f0f7" stroke-linecap="round" stroke-linejoin="round" stroke-width="2"/><line x1="348.35" y1="302.3" x2="320.26" y2="342.9" fill="none" stroke="#c3f0f7" stroke-linecap="round" stroke-linejoin="round" stroke-width="2"/><line x1="309.42" y1="344.28" x2="339.61" y2="300.66" fill="none" stroke="#c3f0f7" stroke-linecap="round" stroke-linejoin="round" stroke-width="2"/><line x1="330.58" y1="299.44" x2="299.06" y2="344.99" fill="none" stroke="#c3f0f7" stroke-linecap="round" stroke-linejoin="round" stroke-width="2"/><line x1="289.01" y1="345.23" x2="321.31" y2="298.57" fill="none" stroke="#c3f0f7" stroke-linecap="round" stroke-linejoin="round" stroke-width="2"/><line x1="311.8" y1="298.04" x2="279.11" y2="345.28" fill="none" stroke="#c3f0f7" stroke-linecap="round" stroke-linejoin="round" stroke-width="2"/><line x1="299.06" y1="344.99" x2="330.58" y2="299.44" fill="none" stroke="#c3f0f7" stroke-linecap="round" stroke-linejoin="round" stroke-width="2"/><line x1="321.31" y1="298.57" x2="289.01" y2="345.23" fill="none" stroke="#c3f0f7" stroke-linecap="round" stroke-linejoin="round" stroke-width="2"/><path d="M378,299.58c2.29,9.2-31.58,28.9-81.33,30.15S209,326,205,314.18V282l171.91-14.36Z" fill="#05c2de" stroke="#c3f0f7" stroke-linecap="round" stroke-linejoin="round" stroke-width="2"/><path d="M287.74,250.18c-57.14,2.46-84.64,20.13-80.07,32S248.28,299,298,297.75s82.35-20.92,80.07-30.11S340.93,247.89,287.74,250.18Z" fill="#05c2de" stroke="#c3f0f7" stroke-linecap="round" stroke-linejoin="round" stroke-width="2"/><line x1="245.06" y1="295.17" x2="275.56" y2="251.1" fill="none" stroke="#c3f0f7" stroke-linecap="round" stroke-linejoin="round" stroke-width="2"/><line x1="264.8" y1="252.38" x2="236.12" y2="293.82" fill="none" stroke="#c3f0f7" stroke-linecap="round" stroke-linejoin="round" stroke-width="2"/><line x1="254.28" y1="296.12" x2="285.98" y2="250.32" fill="none" stroke="#c3f0f7" stroke-linecap="round" stroke-linejoin="round" stroke-width="2"/><line x1="275.56" y1="251.1" x2="245.06" y2="295.17" fill="none" stroke="#c3f0f7" stroke-linecap="round" stroke-linejoin="round" stroke-width="2"/><line x1="263.72" y1="296.75" x2="296.14" y2="249.91" fill="none" stroke="#c3f0f7" stroke-linecap="round" stroke-linejoin="round" stroke-width="2"/><line x1="285.98" y1="250.32" x2="254.28" y2="296.12" fill="none" stroke="#c3f0f7" stroke-linecap="round" stroke-linejoin="round" stroke-width="2"/><line x1="219.58" y1="289.19" x2="241.71" y2="257.21" fill="none" stroke="#c3f0f7" stroke-linecap="round" stroke-linejoin="round" stroke-width="2"/><line x1="228.59" y1="261.9" x2="212.75" y2="284.78" fill="none" stroke="#c3f0f7" stroke-linecap="round" stroke-linejoin="round" stroke-width="2"/><line x1="273.34" y1="297.13" x2="306.07" y2="249.82" fill="none" stroke="#c3f0f7" stroke-linecap="round" stroke-linejoin="round" stroke-width="2"/><line x1="296.14" y1="249.91" x2="263.72" y2="296.75" fill="none" stroke="#c3f0f7" stroke-linecap="round" stroke-linejoin="round" stroke-width="2"/><line x1="227.56" y1="291.93" x2="253.59" y2="254.31" fill="none" stroke="#c3f0f7" stroke-linecap="round" stroke-linejoin="round" stroke-width="2"/><line x1="241.71" y1="257.21" x2="219.58" y2="289.19" fill="none" stroke="#c3f0f7" stroke-linecap="round" stroke-linejoin="round" stroke-width="2"/><line x1="236.12" y1="293.82" x2="264.8" y2="252.38" fill="none" stroke="#c3f0f7" stroke-linecap="round" stroke-linejoin="round" stroke-width="2"/><line x1="253.59" y1="254.31" x2="227.56" y2="291.93" fill="none" stroke="#c3f0f7" stroke-linecap="round" stroke-linejoin="round" stroke-width="2"/><line x1="283.11" y1="297.28" x2="315.8" y2="250.04" fill="none" stroke="#c3f0f7" stroke-linecap="round" stroke-linejoin="round" stroke-width="2"/><line x1="306.07" y1="249.82" x2="273.34" y2="297.13" fill="none" stroke="#c3f0f7" stroke-linecap="round" stroke-linejoin="round" stroke-width="2"/><line x1="347.88" y1="289.3" x2="368.69" y2="259.23" fill="none" stroke="#c3f0f7" stroke-linecap="round" stroke-linejoin="round" stroke-width="2"/><line x1="360.75" y1="256.43" x2="335.67" y2="292.68" fill="none" stroke="#c3f0f7" stroke-linecap="round" stroke-linejoin="round" stroke-width="2"/><line x1="361.49" y1="283.9" x2="375.81" y2="263.21" fill="none" stroke="#c3f0f7" stroke-linecap="round" stroke-linejoin="round" stroke-width="2"/><line x1="368.69" y1="259.23" x2="347.88" y2="289.3" fill="none" stroke="#c3f0f7" stroke-linecap="round" stroke-linejoin="round" stroke-width="2"/><line x1="324.26" y1="294.9" x2="352.35" y2="254.3" fill="none" stroke="#c3f0f7" stroke-linecap="round" stroke-linejoin="round" stroke-width="2"/><line x1="343.61" y1="252.66" x2="313.42" y2="296.28" fill="none" stroke="#c3f0f7" stroke-linecap="round" stroke-linejoin="round" stroke-width="2"/><line x1="335.67" y1="292.68" x2="360.75" y2="256.43" fill="none" stroke="#c3f0f7" stroke-linecap="round" stroke-linejoin="round" stroke-width="2"/><line x1="352.35" y1="254.3" x2="324.26" y2="294.9" fill="none" stroke="#c3f0f7" stroke-linecap="round" stroke-linejoin="round" stroke-width="2"/><line x1="313.42" y1="296.28" x2="343.61" y2="252.66" fill="none" stroke="#c3f0f7" stroke-linecap="round" stroke-linejoin="round" stroke-width="2"/><line x1="334.58" y1="251.44" x2="303.06" y2="296.99" fill="none" stroke="#c3f0f7" stroke-linecap="round" stroke-linejoin="round" stroke-width="2"/><line x1="293.01" y1="297.23" x2="325.31" y2="250.57" fill="none" stroke="#c3f0f7" stroke-linecap="round" stroke-linejoin="round" stroke-width="2"/><line x1="315.8" y1="250.04" x2="283.11" y2="297.28" fill="none" stroke="#c3f0f7" stroke-linecap="round" stroke-linejoin="round" stroke-width="2"/><line x1="303.06" y1="296.99" x2="334.58" y2="251.44" fill="none" stroke="#c3f0f7" stroke-linecap="round" stroke-linejoin="round" stroke-width="2"/><line x1="325.31" y1="250.57" x2="293.01" y2="297.23" fill="none" stroke="#c3f0f7" stroke-linecap="round" stroke-linejoin="round" stroke-width="2"/><path d="M373.22,256.95c2.29,9.2-31.71,28.9-81.46,30.15S206,283.4,200,271.55l2-32.19L372,225Z" fill="#05c2de" stroke="#c3f0f7" stroke-linecap="round" stroke-linejoin="round" stroke-width="2"/><path d="M283,207.54c-57.14,2.46-84.64,20.13-80.07,32s40.6,16.84,90.36,15.59S375.65,234.2,373.36,225,336.19,205.26,283,207.54Z" fill="#05c2de" stroke="#c3f0f7" stroke-linecap="round" stroke-linejoin="round" stroke-width="2"/><line x1="239.06" y1="253.17" x2="269.56" y2="209.1" fill="none" stroke="#c3f0f7" stroke-linecap="round" stroke-linejoin="round" stroke-width="2"/><line x1="258.8" y1="210.38" x2="230.12" y2="251.82" fill="none" stroke="#c3f0f7" stroke-linecap="round" stroke-linejoin="round" stroke-width="2"/><line x1="248.28" y1="254.12" x2="279.98" y2="208.32" fill="none" stroke="#c3f0f7" stroke-linecap="round" stroke-linejoin="round" stroke-width="2"/><line x1="269.56" y1="209.1" x2="239.06" y2="253.17" fill="none" stroke="#c3f0f7" stroke-linecap="round" stroke-linejoin="round" stroke-width="2"/><line x1="257.72" y1="254.75" x2="290.14" y2="207.91" fill="none" stroke="#c3f0f7" stroke-linecap="round" stroke-linejoin="round" stroke-width="2"/><line x1="279.98" y1="208.32" x2="248.28" y2="254.12" fill="none" stroke="#c3f0f7" stroke-linecap="round" stroke-linejoin="round" stroke-width="2"/><line x1="213.58" y1="247.19" x2="235.71" y2="215.21" fill="none" stroke="#c3f0f7" stroke-linecap="round" stroke-linejoin="round" stroke-width="2"/><line x1="222.59" y1="219.9" x2="206.75" y2="242.78" fill="none" stroke="#c3f0f7" stroke-linecap="round" stroke-linejoin="round" stroke-width="2"/><line x1="267.34" y1="255.13" x2="300.07" y2="207.82" fill="none" stroke="#c3f0f7" stroke-linecap="round" stroke-linejoin="round" stroke-width="2"/><line x1="290.14" y1="207.91" x2="257.72" y2="254.75" fill="none" stroke="#c3f0f7" stroke-linecap="round" stroke-linejoin="round" stroke-width="2"/><line x1="221.56" y1="249.93" x2="247.59" y2="212.31" fill="none" stroke="#c3f0f7" stroke-linecap="round" stroke-linejoin="round" stroke-width="2"/><line x1="235.71" y1="215.21" x2="213.58" y2="247.19" fill="none" stroke="#c3f0f7" stroke-linecap="round" stroke-linejoin="round" stroke-width="2"/><line x1="230.12" y1="251.82" x2="258.8" y2="210.38" fill="none" stroke="#c3f0f7" stroke-linecap="round" stroke-linejoin="round" stroke-width="2"/><line x1="247.59" y1="212.31" x2="221.56" y2="249.93" fill="none" stroke="#c3f0f7" stroke-linecap="round" stroke-linejoin="round" stroke-width="2"/><line x1="277.11" y1="255.28" x2="309.8" y2="208.04" fill="none" stroke="#c3f0f7" stroke-linecap="round" stroke-linejoin="round" stroke-width="2"/><line x1="300.07" y1="207.82" x2="267.34" y2="255.13" fill="none" stroke="#c3f0f7" stroke-linecap="round" stroke-linejoin="round" stroke-width="2"/><line x1="341.88" y1="247.3" x2="362.69" y2="217.23" fill="none" stroke="#c3f0f7" stroke-linecap="round" stroke-linejoin="round" stroke-width="2"/><line x1="354.75" y1="214.43" x2="329.67" y2="250.68" fill="none" stroke="#c3f0f7" stroke-linecap="round" stroke-linejoin="round" stroke-width="2"/><line x1="355.49" y1="241.9" x2="369.81" y2="221.21" fill="none" stroke="#c3f0f7" stroke-linecap="round" stroke-linejoin="round" stroke-width="2"/><line x1="362.69" y1="217.23" x2="341.88" y2="247.3" fill="none" stroke="#c3f0f7" stroke-linecap="round" stroke-linejoin="round" stroke-width="2"/><line x1="318.26" y1="252.9" x2="346.35" y2="212.3" fill="none" stroke="#c3f0f7" stroke-linecap="round" stroke-linejoin="round" stroke-width="2"/><line x1="337.61" y1="210.66" x2="307.42" y2="254.28" fill="none" stroke="#c3f0f7" stroke-linecap="round" stroke-linejoin="round" stroke-width="2"/><line x1="329.67" y1="250.68" x2="354.75" y2="214.43" fill="none" stroke="#c3f0f7" stroke-linecap="round" stroke-linejoin="round" stroke-width="2"/><line x1="346.35" y1="212.3" x2="318.26" y2="252.9" fill="none" stroke="#c3f0f7" stroke-linecap="round" stroke-linejoin="round" stroke-width="2"/><line x1="307.42" y1="254.28" x2="337.61" y2="210.66" fill="none" stroke="#c3f0f7" stroke-linecap="round" stroke-linejoin="round" stroke-width="2"/><line x1="328.58" y1="209.44" x2="297.06" y2="254.99" fill="none" stroke="#c3f0f7" stroke-linecap="round" stroke-linejoin="round" stroke-width="2"/><line x1="287.01" y1="255.23" x2="319.31" y2="208.57" fill="none" stroke="#c3f0f7" stroke-linecap="round" stroke-linejoin="round" stroke-width="2"/><line x1="309.8" y1="208.04" x2="277.11" y2="255.28" fill="none" stroke="#c3f0f7" stroke-linecap="round" stroke-linejoin="round" stroke-width="2"/><line x1="297.06" y1="254.99" x2="328.58" y2="209.44" fill="none" stroke="#c3f0f7" stroke-linecap="round" stroke-linejoin="round" stroke-width="2"/><line x1="319.31" y1="208.57" x2="287.01" y2="255.23" fill="none" stroke="#c3f0f7" stroke-linecap="round" stroke-linejoin="round" stroke-width="2"/><path d="M379,210.93c2.29,9.2-31.58,28.9-81.33,30.15S210,237.38,206,225.53l2-33.19L377.91,179Z" fill="#05c2de" stroke="#c3f0f7" stroke-linecap="round" stroke-linejoin="round" stroke-width="2"/><path d="M287.74,161.53c-57.14,2.46-84.64,20.13-80.07,32s40.6,16.84,90.36,15.59S380.39,188.18,378.1,179,340.93,159.24,287.74,161.53Z" fill="#05c2de" stroke="#c3f0f7" stroke-linecap="round" stroke-linejoin="round" stroke-width="2"/><path d="M268.29,161.11c31.68-6.25,55-32.61,49.44-50.2-6.93-22-45.08-34.95-79.6-27-46.46,10.74-56.81,38.48-52,53.53C192.27,156.66,217.6,171.11,268.29,161.11Z" fill="#05c2de" stroke="#c3f0f7" stroke-linecap="round" stroke-linejoin="round" stroke-width="2"/><path d="M339.65,128.33l4.82-31.51c.77-5-8.83-7.53-9.67-2L330,126.35c-.77,5,8.83,7.53,9.67,2Z" fill="#05c2de" stroke="#c3f0f7" stroke-linecap="round" stroke-linejoin="round" stroke-width="2"/><path d="M371.32,134.89,389,117.21c3.93-3.93-4.33-9.48-7.94-5.86L363.37,129c-3.93,3.93,4.33,9.48,7.94,5.86Z" fill="#05c2de" stroke="#c3f0f7" stroke-linecap="round" stroke-linejoin="round" stroke-width="2"/><path d="M397.23,166.28l27.58-8.07c6-1.77.81-9.5-4.16-8l-27.58,8.07c-6,1.77-.81,9.5,4.16,8Z" fill="#05c2de" stroke="#c3f0f7" stroke-linecap="round" stroke-linejoin="round" stroke-width="2"/><line x1="213.76" y1="161.28" x2="252.44" y2="81.83" fill="none" stroke="#c3f0f7" stroke-linecap="round" stroke-linejoin="round" stroke-width="2"/><line x1="241.78" y1="83.19" x2="205.31" y2="158.08" fill="none" stroke="#c3f0f7" stroke-linecap="round" stroke-linejoin="round" stroke-width="2"/><line x1="222.79" y1="163.26" x2="262.53" y2="81.65" fill="none" stroke="#c3f0f7" stroke-linecap="round" stroke-linejoin="round" stroke-width="2"/><line x1="252.44" y1="81.83" x2="213.76" y2="161.28" fill="none" stroke="#c3f0f7" stroke-linecap="round" stroke-linejoin="round" stroke-width="2"/><line x1="205.31" y1="158.08" x2="241.78" y2="83.19" fill="none" stroke="#c3f0f7" stroke-linecap="round" stroke-linejoin="round" stroke-width="2"/><line x1="230.41" y1="85.99" x2="197.6" y2="153.39" fill="none" stroke="#c3f0f7" stroke-linecap="round" stroke-linejoin="round" stroke-width="2"/><line x1="232.32" y1="164.23" x2="272.13" y2="82.46" fill="none" stroke="#c3f0f7" stroke-linecap="round" stroke-linejoin="round" stroke-width="2"/><line x1="262.53" y1="81.65" x2="222.79" y2="163.26" fill="none" stroke="#c3f0f7" stroke-linecap="round" stroke-linejoin="round" stroke-width="2"/><line x1="185.85" y1="136.45" x2="204.52" y2="98.09" fill="none" stroke="#c3f0f7" stroke-linecap="round" stroke-linejoin="round" stroke-width="2"/><line x1="197.6" y1="153.39" x2="230.41" y2="85.99" fill="none" stroke="#c3f0f7" stroke-linecap="round" stroke-linejoin="round" stroke-width="2"/><line x1="218.26" y1="90.42" x2="190.89" y2="146.64" fill="none" stroke="#c3f0f7" stroke-linecap="round" stroke-linejoin="round" stroke-width="2"/><line x1="190.89" y1="146.64" x2="218.26" y2="90.42" fill="none" stroke="#c3f0f7" stroke-linecap="round" stroke-linejoin="round" stroke-width="2"/><line x1="204.52" y1="98.09" x2="185.85" y2="136.45" fill="none" stroke="#c3f0f7" stroke-linecap="round" stroke-linejoin="round" stroke-width="2"/><line x1="286.92" y1="154.78" x2="312.71" y2="101.81" fill="none" stroke="#c3f0f7" stroke-linecap="round" stroke-linejoin="round" stroke-width="2"/><line x1="305.89" y1="95.27" x2="274.59" y2="159.57" fill="none" stroke="#c3f0f7" stroke-linecap="round" stroke-linejoin="round" stroke-width="2"/><line x1="301.51" y1="145.36" x2="317.92" y2="111.65" fill="none" stroke="#c3f0f7" stroke-linecap="round" stroke-linejoin="round" stroke-width="2"/><line x1="312.71" y1="101.81" x2="286.92" y2="154.78" fill="none" stroke="#c3f0f7" stroke-linecap="round" stroke-linejoin="round" stroke-width="2"/><line x1="317.92" y1="111.65" x2="301.51" y2="145.36" fill="none" stroke="#c3f0f7" stroke-linecap="round" stroke-linejoin="round" stroke-width="2"/><line x1="242.29" y1="164.29" x2="281.29" y2="84.19" fill="none" stroke="#c3f0f7" stroke-linecap="round" stroke-linejoin="round" stroke-width="2"/><line x1="272.13" y1="82.46" x2="232.32" y2="164.23" fill="none" stroke="#c3f0f7" stroke-linecap="round" stroke-linejoin="round" stroke-width="2"/><line x1="252.67" y1="163.51" x2="290.01" y2="86.82" fill="none" stroke="#c3f0f7" stroke-linecap="round" stroke-linejoin="round" stroke-width="2"/><line x1="281.29" y1="84.19" x2="242.29" y2="164.29" fill="none" stroke="#c3f0f7" stroke-linecap="round" stroke-linejoin="round" stroke-width="2"/><line x1="274.59" y1="159.57" x2="305.89" y2="95.27" fill="none" stroke="#c3f0f7" stroke-linecap="round" stroke-linejoin="round" stroke-width="2"/><line x1="298.25" y1="90.44" x2="263.4" y2="162.01" fill="none" stroke="#c3f0f7" stroke-linecap="round" stroke-linejoin="round" stroke-width="2"/><line x1="263.4" y1="162.01" x2="298.25" y2="90.44" fill="none" stroke="#c3f0f7" stroke-linecap="round" stroke-linejoin="round" stroke-width="2"/><line x1="290.01" y1="86.82" x2="252.67" y2="163.51" fill="none" stroke="#c3f0f7" stroke-linecap="round" stroke-linejoin="round" stroke-width="2"/></svg>