<?xml version="1.0" encoding="utf-8"?>
<!-- Generator: Adobe Illustrator 21.0.2, SVG Export Plug-In . SVG Version: 6.00 Build 0)  -->
<svg version="1.1" id="Layer_1" xmlns="http://www.w3.org/2000/svg" xmlns:xlink="http://www.w3.org/1999/xlink" x="0px" y="0px"
	 viewBox="0 0 450 450" style="enable-background:new 0 0 450 450;" xml:space="preserve">
<style type="text/css">
	.st0{fill:#FFFFFF;}
</style>
<title>hki-tietoaineisto</title>
<g>
	<path class="st0" d="M263.4,157.6c-0.7,0-1.4,0-2.1,0.1v-47.4h-30.8c-23.1,0-41.8,18.8-41.8,41.8l0,5.6c-0.7,0-1.4-0.1-2.1-0.1
		h-65.9v153.7c0,0,38.6,0,65.9,0c17.4,0,26.5,5.5,33.4,11.6l4.2,4.2l0.1-0.1c0.2,0.2,0.5,0.5,0.7,0.7c7.7-7.7,16.5-16.5,38.4-16.5
		c27.3,0,65.9,0,65.9,0V157.6H263.4z M206.4,152.1c0-13.3,10.8-24.1,24.1-24.1h13.1v103h-13.1c-8.9,0-17.2,2.9-24,7.8V152.1z
		 M206.4,272.9c0.1-7.8,3.9-14.8,9.7-19.2v40.2l-2.6-2.6c-4.1-4.1-6.8-11.1-7-17.6V272.9z M138.5,293.5V175.3h48.1
		c0.7,0,1.4,0,2.1,0.1l0,97.5c0,7.2,1.8,14.6,5.1,20.9c-2.3-0.2-4.6-0.3-7.2-0.3H138.5z M311.5,293.5h-48.1c-12.5,0-22,2.4-29.5,5.8
		v-50.5h27.5v-73.4c0.7,0,1.4-0.1,2.1-0.1h48.1V293.5z"/>
</g>
<path class="st0" d="M225,433c-114.7,0-208-93.3-208-208S110.3,17,225,17s208,93.3,208,208S339.7,433,225,433z M225,33
	C119.1,33,33,119.1,33,225s86.1,192,192,192s192-86.1,192-192S330.9,33,225,33z"/>
</svg>
