<svg id="Layer_1" data-name="Layer 1" xmlns="http://www.w3.org/2000/svg" viewBox="0 0 450 450"><title>hki-palaute</title><path d="M413.18,74.48a14.41,14.41,0,0,0-12.83-11c-13.72-1.13-46.91-2.88-85.73-2.88-40.42,0-78.51,3.81-95.26,4.93A14.42,14.42,0,0,0,206.12,77.4a357.85,357.85,0,0,0,.13,124.93,14.42,14.42,0,0,0,12.45,11.77c14.07,1.7,46.38,2.37,89.69,2.37,7.42,0,14.56-.08,21.38-.21L364,261.47V215c16.64-.89,29.33-2,36.52-2.9A14.4,14.4,0,0,0,412.83,201a304.85,304.85,0,0,0,7.11-65.62C419.94,107.36,416,86.12,413.18,74.48Z" fill="#05c2de" stroke="#c3f0f7" stroke-linecap="round" stroke-linejoin="round" stroke-width="2"/><path d="M221.76,126.48s27.76-3.83,81.38-4.79,87.12,0,87.12,0" fill="#05c2de" stroke="#c3f0f7" stroke-linecap="round" stroke-linejoin="round" stroke-width="2"/><path d="M221.76,101.58s27.76-3.83,81.38-4.79,87.12,0,87.12,0" fill="#05c2de" stroke="#c3f0f7" stroke-linecap="round" stroke-linejoin="round" stroke-width="2"/><path d="M221.76,155.2s27.76-3.83,81.38-4.79,87.12,0,87.12,0" fill="#05c2de" stroke="#c3f0f7" stroke-linecap="round" stroke-linejoin="round" stroke-width="2"/><path d="M221.76,183.92s27.76-3.83,81.38-4.79,87.12,0,87.12,0" fill="#05c2de" stroke="#c3f0f7" stroke-linecap="round" stroke-linejoin="round" stroke-width="2"/><path d="M217.17,236.55a10.94,10.94,0,0,0-10-9c-12.71-.85-41.59-3.74-72.25-3.74-29.44,0-54.61,1.33-65,2.19a10.93,10.93,0,0,0-9.73,8.33A198.6,198.6,0,0,0,55,280.53,231.2,231.2,0,0,0,60.4,330.3a10.92,10.92,0,0,0,9.34,8.43c4.79.59,12.82,1.32,23.27,1.95v35.47l26-34.38c6.46.16,13.35.26,20.58.26,32.85,0,57.36-.51,68-1.8a10.94,10.94,0,0,0,9.44-8.93,274.12,274.12,0,0,0,4.22-47.65A274.46,274.46,0,0,0,217.17,236.55Z" fill="#05c2de" stroke="#c3f0f7" stroke-linecap="round" stroke-linejoin="round" stroke-width="2"/><path d="M205.31,273.77s-21.06-2.9-61.72-3.63-66.08,0-66.08,0" fill="#05c2de" stroke="#c3f0f7" stroke-linecap="round" stroke-linejoin="round" stroke-width="2"/><path d="M205.31,254.89s-21.06-2.9-61.72-3.63-66.08,0-66.08,0" fill="#05c2de" stroke="#c3f0f7" stroke-linecap="round" stroke-linejoin="round" stroke-width="2"/><path d="M205.31,295.56s-21.06-2.9-61.72-3.63-66.08,0-66.08,0" fill="#05c2de" stroke="#c3f0f7" stroke-linecap="round" stroke-linejoin="round" stroke-width="2"/><path d="M205.31,317.34s-21.06-2.9-61.72-3.63-66.08,0-66.08,0" fill="#05c2de" stroke="#c3f0f7" stroke-linecap="round" stroke-linejoin="round" stroke-width="2"/><path d="M218.71,214.1l.28,0L242.32,206" fill="none" stroke="#c3f0f7" stroke-linecap="round" stroke-linejoin="round" stroke-width="2"/><path d="M215.2,205.45l-6.74,2.35" fill="none" stroke="#c3f0f7" stroke-linecap="round" stroke-linejoin="round" stroke-width="2"/><path d="M243.32,215.65l27.45-9.57" fill="none" stroke="#c3f0f7" stroke-linecap="round" stroke-linejoin="round" stroke-width="2"/><path d="M242.32,206,219,214.13" fill="none" stroke="#c3f0f7" stroke-linecap="round" stroke-linejoin="round" stroke-width="2"/><path d="M298.39,216.46,336,203.35" fill="none" stroke="#c3f0f7" stroke-linecap="round" stroke-linejoin="round" stroke-width="2"/><path d="M301.85,205.25l-31.56,11" fill="none" stroke="#c3f0f7" stroke-linecap="round" stroke-linejoin="round" stroke-width="2"/><path d="M270.29,216.25l31.56-11" fill="none" stroke="#c3f0f7" stroke-linecap="round" stroke-linejoin="round" stroke-width="2"/><path d="M270.77,206.09l-27.45,9.57" fill="none" stroke="#c3f0f7" stroke-linecap="round" stroke-linejoin="round" stroke-width="2"/><path d="M409.1,207.87l-13.89,4.84" fill="none" stroke="#c3f0f7" stroke-linecap="round" stroke-linejoin="round" stroke-width="2"/><line x1="364" y1="253.59" x2="359.28" y2="255.24" fill="none" stroke="#c3f0f7" stroke-linecap="round" stroke-linejoin="round" stroke-width="2"/><line x1="347.31" y1="239.41" x2="364" y2="233.59" fill="none" stroke="#c3f0f7" stroke-linecap="round" stroke-linejoin="round" stroke-width="2"/><line x1="364" y1="223.59" x2="341.32" y2="231.5" fill="none" stroke="#c3f0f7" stroke-linecap="round" stroke-linejoin="round" stroke-width="2"/><line x1="364" y1="233.59" x2="347.31" y2="239.41" fill="none" stroke="#c3f0f7" stroke-linecap="round" stroke-linejoin="round" stroke-width="2"/><line x1="353.29" y1="247.32" x2="364" y2="243.59" fill="none" stroke="#c3f0f7" stroke-linecap="round" stroke-linejoin="round" stroke-width="2"/><line x1="364" y1="243.59" x2="353.29" y2="247.32" fill="none" stroke="#c3f0f7" stroke-linecap="round" stroke-linejoin="round" stroke-width="2"/><line x1="359.28" y1="255.24" x2="364" y2="253.59" fill="none" stroke="#c3f0f7" stroke-linecap="round" stroke-linejoin="round" stroke-width="2"/><path d="M418.54,164.58l-20.16,7" fill="none" stroke="#c3f0f7" stroke-linecap="round" stroke-linejoin="round" stroke-width="2"/><path d="M396.74,182.18,417.38,175" fill="none" stroke="#c3f0f7" stroke-linecap="round" stroke-linejoin="round" stroke-width="2"/><path d="M415.83,185.53l-23.54,8.2" fill="none" stroke="#c3f0f7" stroke-linecap="round" stroke-linejoin="round" stroke-width="2"/><path d="M335.33,223.58l78.53-27.37" fill="none" stroke="#c3f0f7" stroke-linecap="round" stroke-linejoin="round" stroke-width="2"/><path d="M372.66,200.57,327.54,216.3" fill="none" stroke="#c3f0f7" stroke-linecap="round" stroke-linejoin="round" stroke-width="2"/><path d="M402.86,110l15.45-5.39" fill="none" stroke="#c3f0f7" stroke-linecap="round" stroke-linejoin="round" stroke-width="2"/><path d="M417.11,95.08l-14.34,5" fill="none" stroke="#c3f0f7" stroke-linecap="round" stroke-linejoin="round" stroke-width="2"/><path d="M402.71,120.1l16.47-5.74" fill="none" stroke="#c3f0f7" stroke-linecap="round" stroke-linejoin="round" stroke-width="2"/><path d="M418.31,104.66,402.86,110" fill="none" stroke="#c3f0f7" stroke-linecap="round" stroke-linejoin="round" stroke-width="2"/><path d="M402.45,90.19l13.1-4.57" fill="none" stroke="#c3f0f7" stroke-linecap="round" stroke-linejoin="round" stroke-width="2"/><path d="M413.61,76.3l-11.7,4.08" fill="none" stroke="#c3f0f7" stroke-linecap="round" stroke-linejoin="round" stroke-width="2"/><path d="M401.18,70.63l8.26-2.88" fill="none" stroke="#c3f0f7" stroke-linecap="round" stroke-linejoin="round" stroke-width="2"/><path d="M401.92,80.38l11.7-4.08" fill="none" stroke="#c3f0f7" stroke-linecap="round" stroke-linejoin="round" stroke-width="2"/><path d="M409.44,67.75l-8.26,2.88" fill="none" stroke="#c3f0f7" stroke-linecap="round" stroke-linejoin="round" stroke-width="2"/><path d="M402.33,130.23l17.39-6.06" fill="none" stroke="#c3f0f7" stroke-linecap="round" stroke-linejoin="round" stroke-width="2"/><path d="M419.18,114.36l-16.47,5.74" fill="none" stroke="#c3f0f7" stroke-linecap="round" stroke-linejoin="round" stroke-width="2"/><path d="M402.77,100.08l14.34-5" fill="none" stroke="#c3f0f7" stroke-linecap="round" stroke-linejoin="round" stroke-width="2"/><path d="M415.55,85.62l-13.1,4.57" fill="none" stroke="#c3f0f7" stroke-linecap="round" stroke-linejoin="round" stroke-width="2"/><path d="M401.71,140.45l18.21-6.35" fill="none" stroke="#c3f0f7" stroke-linecap="round" stroke-linejoin="round" stroke-width="2"/><path d="M419.72,124.17l-17.39,6.06" fill="none" stroke="#c3f0f7" stroke-linecap="round" stroke-linejoin="round" stroke-width="2"/><path d="M392.29,193.73l23.54-8.2" fill="none" stroke="#c3f0f7" stroke-linecap="round" stroke-linejoin="round" stroke-width="2"/><path d="M417.38,175l-20.64,7.19" fill="none" stroke="#c3f0f7" stroke-linecap="round" stroke-linejoin="round" stroke-width="2"/><path d="M399.75,161.13l19.6-6.83" fill="none" stroke="#c3f0f7" stroke-linecap="round" stroke-linejoin="round" stroke-width="2"/><path d="M419.81,144.14l-19,6.61" fill="none" stroke="#c3f0f7" stroke-linecap="round" stroke-linejoin="round" stroke-width="2"/><path d="M400.85,150.75l19-6.61" fill="none" stroke="#c3f0f7" stroke-linecap="round" stroke-linejoin="round" stroke-width="2"/><path d="M419.93,134.1l-18.21,6.35" fill="none" stroke="#c3f0f7" stroke-linecap="round" stroke-linejoin="round" stroke-width="2"/></svg>