<?xml version="1.0" encoding="utf-8"?>
<!-- Generator: Adobe Illustrator 21.1.0, SVG Export Plug-In . SVG Version: 6.00 Build 0)  -->
<svg version="1.1" id="Layer_1" xmlns="http://www.w3.org/2000/svg" xmlns:xlink="http://www.w3.org/1999/xlink" x="0px" y="0px"
	 viewBox="0 0 450 450" style="enable-background:new 0 0 450 450;" xml:space="preserve">
<style type="text/css">
	.st0{fill:#FFFFFF;}
</style>
<title>hki-palaute</title>
<g>
	<path class="st0" d="M318.3,169.6c-0.3-0.1-0.7-0.1-1-0.1h-4h-5h-10c-2.8,0-5,2.2-5,5s2.2,5,5,5h10h5h4c0.3,0,0.7,0,1-0.1
		c2.3-0.5,4-2.5,4-4.9S320.6,170.1,318.3,169.6z"/>
	<path class="st0" d="M280.1,79.6l-9.7,2.6l7.7,28.6c3.2-1,6.4-1.9,9.7-2.6L280.1,79.6z"/>
	<path class="st0" d="M263.7,116.8l-14.8-25.6l-8.7,5l14.8,25.7C257.8,120,260.7,118.3,263.7,116.8z"/>
	<path class="st0" d="M346.1,82.2l-9.7-2.6l-7.7,28.6c3.3,0.7,6.5,1.6,9.7,2.6L346.1,82.2z"/>
	<path class="st0" d="M195.4,144.6l25.6,14.8c1.5-3,3.2-5.9,5-8.7L200.4,136L195.4,144.6z"/>
	<path class="st0" d="M381,138.4l21-21l-7.1-7.1l-21,21C376.4,133.5,378.8,135.9,381,138.4z"/>
	<path class="st0" d="M395.6,159.4l25.6-14.8l-5-8.7l-25.7,14.8C392.4,153.6,394,156.5,395.6,159.4z"/>
	<path class="st0" d="M214.6,117.4l21,21c2.2-2.5,4.6-4.8,7.1-7.1l-21-21L214.6,117.4z"/>
	<path class="st0" d="M376.4,96.1l-8.7-5l-14.8,25.6c3,1.5,5.9,3.2,8.7,5L376.4,96.1z"/>
	<path class="st0" d="M404.1,183.5l28.6-7.7l-2.6-9.7l-28.6,7.7C402.6,177,403.4,180.3,404.1,183.5z"/>
	<path class="st0" d="M183.8,175.9l28.6,7.7c0.7-3.3,1.6-6.5,2.6-9.7l-28.6-7.7L183.8,175.9z"/>
	<path class="st0" d="M415.3,320.7c-3.4,0.2-13.1,0.4-21.5-4.5c-4.3-2.5-7.4-7-9.5-11.5c-1.1-2.3-1.9-4.5-2.6-6.6
		c-1.4-4.3-2.1-8.3-2.4-10.9c-0.2-1.6-0.3-2.6-0.3-2.7l-0.3-4.6h-4.3h-10h-5h-5h-6.9c-1.8-0.3-4.9-0.9-8.3-2
		c-1.6-0.5-3.4-1.1-5.1-1.8c-1.6-0.7-3.3-1.4-4.8-2.3c-2.2-1.2-4.3-2.6-6.1-4.2c-1.8-1.6-3.4-3.9-4.8-6.6c-1-2-2-4.3-2.7-6.9
		c-0.4-1.4-0.2-2.8,0.7-3.9c0.5-0.7,1.3-1.2,2.1-1.5c0.4-0.1,0.9-0.2,1.4-0.2h18.5h5h5h6.1h5h5h10h5h4.7v-5l0.3,0.7v-66.7
		c0-14.3-11.6-25.9-25.9-25.9h-40.1V6.5h-221v281h10v-5v-266h201v60h-5v29.6c1.7-0.1,3.3-0.1,5-0.1c0,0,0,0,0,0v47.5h-10V26.9v-0.4
		h-181v256v5h10v-5v-246h137.1L147.3,69.8v212.8v42h5h0h5v-1.4v-40.6V77.3l131-37.2v113.4h-28.1c-14.3,0-25.9,11.6-25.9,25.9v17.1
		h-7c-14.3,0-26,11.7-26,26c0,8.6,4.2,16.3,10.7,21c-6.5,4.7-10.7,12.4-10.7,21c0,7,2.8,13.3,7.3,18c1.1,1.1,2.2,2.1,3.4,3
		c-6.5,4.7-10.7,12.4-10.7,21c0,1.4,0.1,2.7,0.3,4c1.9,12.4,12.7,22,25.7,22h7v11.1h5h5v-12.1c3.3-0.9,6.4-2.5,9-4.6v16.6h5h5v-37.1
		v-13.5v-10.5v-18v-42v-27h25h5h5h10h5h5h36v45h-8.1c-4.3-12.5-14.9-22.1-27.9-25c-1.6-0.4-3.3-0.6-5-0.8c-1.2-0.1-2.3-0.2-3.5-0.2
		c-0.5,0-1,0-1.5,0c-3.5,0.1-6.8,0.7-10,1.7c-1.7,0.5-3.4,1.2-5,2c-1.7,0.8-3.4,1.8-5,2.9c-10.2,6.9-17,18.7-17,31.9
		c0,11.8,5.4,22.4,13.8,29.5c1,0.9,2.1,1.7,3.2,2.4c0.4,0.2,0.7,0.5,1.1,0.7c1.1,0.7,2.2,1.3,3.4,1.9c5.1,2.6,10.9,4,17.1,4
		c7.6,0,14.7-2.2,20.6-6c8.1,3.2,15.4,4.3,15.9,4.4l0.3,0h7.6v53.7h5h5V290h5.3c0.7,4.1,2,10.5,4.7,16.8v36.8h5h5v-22
		c1.4,1.2,2.9,2.3,4.5,3.3c8.6,5,18,5.9,23.7,5.9c3.2,0,5.2-0.3,5.5-0.3l-1.4-9.9C416.5,320.6,416.1,320.7,415.3,320.7z
		 M318.3,280.2c-1.6,0.5-3.3,0.9-5,1.1c-1.1,0.1-2.3,0.2-3.5,0.2c-0.5,0-1,0-1.5,0c-3.5-0.2-6.9-1-10-2.4c-1.8-0.8-3.4-1.7-5-2.9
		c-1.8-1.3-3.5-2.8-5-4.5c-4.4-5-7-11.5-7-18.7s2.6-13.7,7-18.7c1.5-1.7,3.2-3.2,5-4.5c1.6-1.1,3.2-2.1,5-2.9
		c3.1-1.4,6.5-2.2,10-2.4c0.5,0,1,0,1.5,0c1.2,0,2.4,0.1,3.5,0.2c1.7,0.2,3.4,0.6,5,1.1c7.5,2.4,13.7,7.7,17.1,14.7h-15.7
		c-0.5,0-0.9,0-1.4,0.1c-1.8,0.2-3.5,0.6-5,1.4c-1.9,1-3.6,2.4-5,4.2c0,0.1-0.1,0.1-0.1,0.2c-2.7,3.7-3.5,8.4-2.2,12.8
		c0.7,2.2,1.5,4.2,2.3,6.2c1.4,3.2,3.1,6.1,5,8.5c0.9,1.2,1.9,2.3,3,3.3c0.6,0.6,1.3,1.2,2,1.7c0.5,0.4,0.9,0.7,1.4,1
		C319.2,279.9,318.7,280.1,318.3,280.2z M318.3,185.5h-5h-5h-10h-5h-5h-35v16.5c-2.6-2.1-5.7-3.6-9-4.6v-18.1
		c0-8.8,7.1-15.9,15.9-15.9h28.1h5h5h10h5h5h40.1c8.8,0,15.9,7.1,15.9,15.9v61.1h-10v-55H318.3z M244.3,320.9
		c-1.5,0.8-3.2,1.3-5,1.5c-0.7,0.1-1.3,0.1-2,0.1h-3h-7c-8.4,0-15.3-6.5-15.9-14.8c0-0.4-0.1-0.8-0.1-1.2c0-8.8,7.2-16,16-16h7h3
		c0.7,0,1.3,0.1,2,0.1c1.8,0.2,3.5,0.7,5,1.5c2.2,1.1,4.2,2.7,5.7,4.7c2.1,2.7,3.3,6.1,3.3,9.7C253.3,312.9,249.6,318.3,244.3,320.9
		z M211.3,264.5c0-8.8,7.2-16,16-16h7h3c0.7,0,1.3,0.1,2,0.1c1.8,0.2,3.5,0.7,5,1.5c5.3,2.6,9,8.1,9,14.4c0,6.3-3.7,11.8-9,14.4
		c-1.5,0.8-3.2,1.3-5,1.5c-0.7,0.1-1.3,0.1-2,0.1h-3h-7C218.5,280.5,211.3,273.4,211.3,264.5z M211.3,222.5c0-8.8,7.2-16,16-16h7h3
		c0.7,0,1.3,0.1,2,0.1c1.8,0.2,3.5,0.7,5,1.5c5.3,2.6,9,8.1,9,14.4s-3.7,11.8-9,14.4c-1.5,0.8-3.2,1.3-5,1.5c-0.7,0.1-1.3,0.1-2,0.1
		h-3h-7C218.5,238.5,211.3,231.4,211.3,222.5z M253.3,244.1c-0.2-0.2-0.5-0.4-0.7-0.5c0.2-0.2,0.5-0.3,0.7-0.5V244.1z M253.3,286.1
		c-0.2-0.2-0.5-0.4-0.7-0.5c0.2-0.2,0.5-0.3,0.7-0.5V286.1z"/>
</g>
</svg>
