<?xml version="1.0" encoding="utf-8"?>
<!-- Generator: Adobe Illustrator 21.1.0, SVG Export Plug-In . SVG Version: 6.00 Build 0)  -->
<svg version="1.1" id="Layer_1" xmlns="http://www.w3.org/2000/svg" xmlns:xlink="http://www.w3.org/1999/xlink" x="0px" y="0px"
	 viewBox="0 0 450 500" style="enable-background:new 0 0 450 500;" xml:space="preserve">
<style type="text/css">
	.st0{fill:#FFFFFF;}
</style>
<title>hki-mies</title>
<title>hki-mies</title>
<title>hki-mies</title>
<g>
	<path class="st0" d="M423.5,118l-6.6-5c-2.3-1.7-3.4-4.5-3-7.3l1.5-11c1.1-7.7-1.5-15.2-6.9-20.6l-14-14
		c-3.6-28.4-27.9-50.4-57.3-50.4c-31.8,0-57.7,25.9-57.7,57.7c0,8.1,0.5,15.6,1.5,22.6c-0.1,0-0.1,0-0.1,0l0.2,0.6
		c3.6,24.3,13,41.7,27.6,51v6.4l-19.7,9.3c-8,3.7-14.9,8.9-20.7,15.2c-8.3-4.8-19.7-7.2-34.3-7.2c-21.5,0-35.9,5.3-44,16.2
		c-2.6-1.7-5.4-3.3-8.3-4.6l-7.8-3.7c11.8-14,18.1-35.9,18.1-64.5c0-31.8-25.9-57.7-57.7-57.7S76.5,77,76.5,108.9
		c0,28.3,6.2,50.1,17.8,64l-8.3,3.9c-16.1,7.5-28.2,21.1-34.3,37.2C33,214.8,18.1,230.2,18.1,249v14.7h12.2V249
		c0-10.9,7.7-20,17.9-22.3c-0.6,3.6-0.9,7.2-0.9,10.9V283v73.8v1.2l5.4,0.6c0.3,0,2.3,0.2,5.3,0.2c4.4,0,11.1-0.5,17.9-2.6v30.8H88
		v-36.8c0.8-0.6,1.7-1.3,2.5-2c0.1-0.1,0.1-0.1,0.2-0.2c7.5-6.8,11.3-16.3,11.3-28.3c0-12.7-4-22.5-11.9-29.1
		c-0.7-0.6-1.4-1.1-2.1-1.6V249c0-15.4-10.1-28.6-24-33.2c5.3-12.1,14.8-22.2,27.1-28l12.7-6c0.6,0.4,1.2,0.8,1.8,1.2v14.5
		c0,15.8,12.8,28.6,28.6,28.6s28.6-12.8,28.6-28.6v-14.5c0.5-0.3,0.9-0.6,1.4-0.9l12.3,5.8c2.8,1.3,5.5,2.9,8,4.6
		c-2.8,9.2-2.8,19.4-2.8,28.7l5.6,5.6c0.4,26.2,7.6,45.1,20.5,55.2v5.9l-8.4,3.9c-14.9,7-25.3,21.1-27.8,37.1
		c-0.4,2.5-0.6,5-0.6,7.6v60.1h6.1h6.1v-60.1c0-3.7,0.6-7.3,1.6-10.7c3-10,10.1-18.4,19.8-23l3.2-1.5l4.1-1.9v8.8c0,3.2,0.7,6.3,2,9
		c0.3,0.6,0.6,1.2,0.9,1.8c3.8,6.7,11,11.2,19.2,11.2c12.1,0,22-9.9,22-22v-7.4v-1.4l0.5,0.2l2.4,1.1l2.1,1l2.6,1.2
		c12.8,6,21.1,19.1,21.1,33.3v82.3v1.2h6.1h0h6.1v-83.6c0-10.5-3.4-20.5-9.3-28.7c-4.8-6.6-11.2-12-18.8-15.6l-6.2-2.9v-9.1
		c11.4-10.5,17.7-28.7,18.1-53.2l5.6-5.6v-1c0-8.2,0-16.6-1.7-24.4c11.6,11,30.8,18,53,18c16.3,0,31-3.8,42.2-10.2
		c3.7-2.1,7.1-4.5,10-7.2c4.1-3.7,7.3-7.9,9.4-12.4c1.4,1.8,2.6,3.6,3.8,5.5c2.6,4.3,4.6,9,5.9,13.9c1.2,4.6,1.9,9.3,1.9,14.1v117.1
		v1.3h6.1h6.1V217.8c0-10.8-2.7-21.3-7.5-30.5c0-1.2-0.1-2.4-0.2-3.6l-1.5-10.9c-0.4-2.8,0.8-5.6,3.1-7.4l6.6-5
		c6.7-5.1,10.5-12.8,10.5-21.2C434,130.8,430.2,123.1,423.5,118z M291.7,67.5c0-25.1,20.5-45.6,45.6-45.6c1.3,0,2.6,0.1,3.9,0.2
		c-0.7,6.7-3.6,22.9-15.5,38.6c-8.6,11.4-22.9,19.7-33,24.5C291.9,78.9,291.7,72.8,291.7,67.5z M353.2,24.8
		c15.8,5.9,27.5,20.3,29.4,37.7c-4.2-0.9-10.7-2.7-18.2-6.6c-6.7-3.4-12.6-9.9-15.4-13.3C351.5,35.3,352.6,29.1,353.2,24.8z
		 M335.4,68.1c3.4-4.4,6.1-8.9,8.3-13.2c3.8,4,9.1,8.8,15.1,11.8c8.5,4.4,16,6.5,21.1,7.6c1,0.2,2,0.4,2.8,0.5
		c-0.2,4.9-0.7,10.1-1.5,15.3c-2.1,13.2-6.5,26.7-15.4,35.9c-1.8,1.9-3.8,3.6-6.1,5.1c-1.9,1.2-3.9,2.3-6.1,3.2
		c-3.6,1.5-7.6,2.5-12.2,2.9c-1.4,0.1-2.8,0.2-4.2,0.2c-1.1,0-2.2,0-3.2-0.1c-0.7,0-1.4-0.1-2.1-0.2c-4.1-0.4-7.8-1.4-11.1-2.8
		c-0.2-0.1-0.5-0.2-0.7-0.3c-1.9-0.8-3.7-1.8-5.4-2.9c-2.2-1.5-4.2-3.2-6.1-5.1c-7.2-7.4-11.5-17.7-13.9-28.4
		C306.1,92.6,324.2,82.7,335.4,68.1z M262.5,259c-1.6,3.6-3.6,6.9-6.1,9.7c-0.5,0.6-1,1.1-1.6,1.7c-1.4,1.3-2.8,2.5-4.5,3.6
		c-0.2,0.1-0.3,0.2-0.5,0.3c-1.8,1.1-3.9,2-6.1,2.7c-1.5,0.5-3.2,0.8-4.9,1.1c-1.6,0.2-3.2,0.3-4.9,0.3c-1.7,0-3.4-0.1-4.9-0.3
		c-1.7-0.2-3.4-0.6-4.9-1.1c-1.5-0.5-2.8-1-4.1-1.7c-0.7-0.3-1.3-0.7-1.9-1.1c-1.5-0.9-2.9-1.9-4.1-3.1c-0.3-0.3-0.6-0.5-0.8-0.8
		c-2-2-3.8-4.3-5.2-6.7c-6.4-10.7-8.1-25.1-8.4-36.3h1l0.6,0.6h5.9h6.2h6.1h31h6.1h6.1h1.6l1-0.6h3.3
		C268.2,237,266.9,249.1,262.5,259z M243.8,308.4c0,5.4-4.4,9.9-9.9,9.9s-9.9-4.4-9.9-9.9v-14.5v-4.2c2.3,0.5,4.6,0.8,7.1,0.9
		c0.9,0,1.8,0.1,2.8,0.1s1.8,0,2.8-0.1c2.5-0.1,4.8-0.4,7.1-0.9v4.2V308.4z M199.5,189.3c5.2-7.3,15.2-11.7,34.4-11.7
		c13.4,0,21.7,2.2,26.9,4.8c2.2,1.1,3.8,2.2,5,3.3c1.9,1.7,2.8,3.2,3.4,4.1c0.2,0.3,0.4,0.7,0.6,1.1c1.3,2.4,2.3,5.1,2.9,8.1
		c1,4.9,1.3,10.5,1.3,16.3h-0.7h-1.8c-0.1-2.8-0.7-5.9-2.5-8.9c-1.1-1.7-2.4-3.3-4-4.7c-1.5-1.3-3.3-2.4-5.3-3.4
		c-1.7-0.8-3.6-1.6-5.6-2.2c-0.6-0.2-1.3-0.4-1.9-0.5c-5.4-1.4-12-2.1-19.8-2.1c-6.8,0-12.7,0.9-17.8,2.8c-2.3,0.8-4.5,1.9-6.5,3.1
		c-1.7,1.1-3.3,2.3-4.8,3.7c-0.2,0.2-0.5,0.4-0.7,0.7c-1.4,1.4-2.5,2.9-3.4,4.3c-1.6,2.5-2.6,5-3.2,7.2h-1.5h-0.6
		c0.1-4.7,0.3-9.2,0.9-13.3c0.2-1.2,0.4-2.4,0.7-3.5c0.3-1.2,0.7-2.4,1.1-3.6C197.3,192.9,198.3,191,199.5,189.3z M214.1,210
		c4.3-2.9,10.4-4.3,18.3-4.3c8.9,0,14.8,1,18.8,2.2c2.8,0.9,4.6,1.9,5.7,2.8c0.9,0.7,1.4,1.4,1.7,1.9c0.5,0.9,0.8,1.8,0.8,2.6
		c0,0.2,0,0.4,0,0.6h-3h-6.1h-34H210h-1.2c0.1-0.2,0.2-0.4,0.3-0.6c0.1-0.2,0.2-0.4,0.4-0.6c0.5-0.9,1.2-1.7,2-2.6
		C212.3,211.3,213.1,210.6,214.1,210z M150.7,197.6c0,9.1-7.4,16.4-16.4,16.4c-9,0-16.4-7.4-16.4-16.4v-9c5.1,1.5,10.5,2.3,16.4,2.3
		s11.4-0.8,16.4-2.3V197.6z M134.2,63.3c23.8,0,43.4,18.4,45.4,41.7c-1.9-1.4-3.7-3.2-5.6-5c-5.7-5.5-12.7-12.4-25.5-12.4
		c-12.8,0-19.9,6.8-25.6,12.3c-5.2,5-9.2,8.9-17.1,8.9c-7.4,0-11.2-3.2-16.4-8.4C93.4,79.3,112,63.3,134.2,63.3z M105.8,121
		c12.8,0,19.9-6.8,25.6-12.3c5.2-5,9.2-8.9,17.1-8.9c7.9,0,11.9,3.9,17,8.9c3.7,3.6,7.9,7.7,14,10.2c-1,16.5-4.9,36.4-16.7,48.6
		c-0.2,0.2-0.3,0.3-0.5,0.5c-1.6,1.6-3.3,3-5.2,4.3c-0.1,0.1-0.3,0.2-0.4,0.3c-1.9,1.2-3.9,2.3-6.1,3.2c-0.1,0-0.1,0-0.1,0.1
		c-4.7,1.9-10,3-16.3,3c-6.3,0-11.7-1.1-16.4-3.1c-0.2-0.1-0.3-0.1-0.5-0.2c-2-0.9-3.9-1.9-5.6-3c-0.3-0.2-0.6-0.4-0.9-0.6
		c-1.8-1.3-3.5-2.8-5.1-4.3c0,0-0.1-0.1-0.1-0.1C93.2,154.5,89.5,133,88.8,116C93.1,118.8,98.5,121,105.8,121z M88,331
		c-1.2,3.2-3.1,6-5.6,8.2c-2,1.8-4.2,3.1-6.6,4.2c-5.7,2.6-12.1,3.2-16.4,3.4v-53c4.3-0.1,10.7,0.2,16.4,2.5
		c2.3,0.9,4.5,2.1,6.4,3.8c2.6,2.2,4.5,4.9,5.7,8.3c1.2,3.3,1.8,7.1,1.8,11.5C89.9,324.1,89.3,327.8,88,331z M75.9,249v34.5
		c-6.1-1.7-12-2-16.4-1.9v-43.9c0-3.5,0.3-6.9,1-10.2C69.4,230.5,75.9,239,75.9,249z M370.7,194.7c-9.1,4.4-20.7,7.1-33.2,7.1
		c-26.9,0-49.8-12.6-52.4-28.1c2.8-2,5.8-3.8,9-5.4l14.6-6.8v16.6h6.1h6.1v-22.3v-6.7v-1.8c0.8,0.2,1.6,0.5,2.4,0.7
		c0.3,0.1,0.5,0.1,0.8,0.2c3.2,0.7,6.6,1.2,10.2,1.3c1,0,2,0.1,3,0.1c0.6,0,1.2,0,1.8,0c1.2,0,2.3-0.1,3.4-0.2
		c2.7-0.2,5.4-0.6,7.9-1.2c1.1-0.3,2.2-0.5,3.2-0.9v2.4v6.7v4.1v17.2v0.4h0.4h5.7h6.1v-5.5v-10.6l13.7,6.4c3.6,1.7,7,3.8,10.2,6.2
		c-1.1,4.8-4.1,9.3-8.6,13.2C378.2,190.5,374.7,192.8,370.7,194.7z M416.1,150.7l-6.6,5c-4.3,3.3-7.1,8.1-7.8,13.4
		c-5-4.6-10.7-8.6-17-11.5l-18.9-8.9v-6.9c17.1-10.9,27.1-33,28.9-64.2l5.2,5.2c2.7,2.7,4,6.5,3.5,10.4l-1.5,11
		c-1,7.2,2,14.3,7.7,18.7l6.6,5c3.6,2.7,5.7,6.9,5.7,11.4C421.8,143.7,419.8,147.9,416.1,150.7z"/>
	<path class="st0" d="M134.9,248.1c-3.4,0-6.1,2.7-6.1,6.1v1.2c0,3.4,2.7,6.1,6.1,6.1s6.1-2.7,6.1-6.1v-1.2
		C140.9,250.8,138.2,248.1,134.9,248.1z"/>
	<path class="st0" d="M134.9,285.7c-3.4,0-6.1,2.7-6.1,6.1v1.2c0,3.4,2.7,6.1,6.1,6.1s6.1-2.7,6.1-6.1v-1.2
		C140.9,288.5,138.2,285.7,134.9,285.7z"/>
	<path class="st0" d="M111.8,163.2c0.5,0.3,0.9,0.6,1.4,0.8c1.4,0.7,2.9,1.3,4.7,1.6c1.1,0.2,2.4,0.3,3.6,0.3c0.7,0,1.4,0,2-0.1
		c4.1-0.4,7.4-2.1,10-4.2c2.5,2.2,6,3.9,10.4,4.2c0.4,0,0.9,0.1,1.3,0.1c2,0,3.8-0.3,5.5-0.8c1.2-0.3,2.2-0.8,3.2-1.3
		c1-0.5,2-1.2,2.9-1.9c3.1-2.4,5.1-5.5,6.1-8c0.1-0.2,0.2-0.4,0.3-0.6l-0.3-0.1l-6.1-2.2l-5.1-1.9c-0.1,0.3-0.5,1.2-1.2,2
		c0,0,0,0.1-0.1,0.1c-1,1.2-2.6,2.4-5.2,2.4c-2.5,0-4-1.3-4.9-2.4c-0.5-0.7-0.7-1.3-0.9-1.7l-11.5-0.5c-0.1,0.3-0.5,1.2-1.3,2.1
		c-1,1.2-2.6,2.4-5.2,2.4c-1.6,0-2.7-0.5-3.6-1.1c-0.5-0.4-0.9-0.9-1.3-1.3c-0.5-0.7-0.8-1.4-0.9-1.8l-4,1.2l-1.8,0.6l-4.2,1.2
		l-1.6,0.5c0.3,1,0.8,2.3,1.6,3.6C107,159,109,161.4,111.8,163.2z"/>
</g>
</svg>
