<?xml version="1.0" encoding="utf-8"?>
<!-- Generator: Adobe Illustrator 21.1.0, SVG Export Plug-In . SVG Version: 6.00 Build 0)  -->
<svg version="1.1" id="Layer_1" xmlns="http://www.w3.org/2000/svg" xmlns:xlink="http://www.w3.org/1999/xlink" x="0px" y="0px"
	 viewBox="0 0 450 450" style="enable-background:new 0 0 450 450;" xml:space="preserve">
<style type="text/css">
	.st0{fill:#FFFFFF;}
</style>
<path class="st0" d="M324,18v49h-39V55h-59v69.7c0,0,0,0,0,0.1c-0.2,0.6-1.5,3.4-4.9,3.4c-3.1,0-4.5-2.5-5-3.5l-7.3-21.9
	c-1.1-3.6-5.4-9.6-14.1-9.6c-6.4,0-11.8,3.6-14.3,9.5l-0.4,0.9v0.3c-0.9,2.7-4.7,14-7.1,21c-0.2,0.6-1.5,3.4-4.9,3.4
	c-3.1,0-4.5-2.5-5-3.5l-7.3-22l-0.1-0.1c-1.3-3.5-5.7-9.4-14-9.4c-6.4,0-11.8,3.6-14.3,9.5l-0.4,0.9v0.2c-1,2.8-5.1,13.7-7.7,20.6
	l0,0.1c-0.2,0.6-1.5,3.4-4.9,3.4c-3.1,0-4.5-2.5-5-3.5l-7.3-21.9c-1.1-3.6-5.4-9.6-14.1-9.6c-6.4,0-11.8,3.6-14.3,9.5l-0.4,0.9v0.3
	c-0.9,2.7-4.7,14-7.1,21c-0.2,0.6-1.5,3.4-4.9,3.4v10c8.7,0,13.1-6.4,14.4-10.1c5-14.4,6.7-19.6,7.3-21.7c0.9-2.1,2.7-3.3,5-3.3
	c3.3,0,4.3,2.1,4.6,2.7l7.4,22.2l0.1,0.3c2.5,6.1,8,9.8,14.3,9.8c8.6,0,13.1-6.3,14.4-10.1c5.4-14.1,7.3-19.2,8-21.3
	c0.9-2.1,2.7-3.4,5-3.4c3.2,0,4.4,2.4,4.6,2.8l7.4,22.1l0.1,0.3c2.5,6.1,8,9.8,14.3,9.8c8.7,0,13.1-6.4,14.4-10.1
	c5-14.4,6.7-19.6,7.3-21.7c0.9-2.1,2.7-3.3,5-3.3c3.3,0,4.3,2.1,4.6,2.7l7.4,22.2l0.1,0.3c2.5,6.1,8,9.8,14.3,9.8
	c1.8,0,3.5-0.3,5-0.8V174h-39v-28h-59v101H79v73h5h5v-63h39v63h5h5v-73v-91h39v18v146h5h5V184h39v136h5h5V174v-47.7
	c4.5-13.1,6.2-18,6.8-20c0.9-2.1,2.7-3.3,5-3.3c3,0,4.4,2.4,4.7,3l7.3,22l0.1,0.3c2.5,6.1,8,9.8,14.3,9.8c0.3,0,0.6,0,0.8,0v12.2
	c-11,6.5-19.7,16.2-25.1,28c-7,15.3-7.6,32.4-1.7,48.2c5.2,14,14.9,25,26.9,32.1V320h5h5v-56.5c7.1,2.7,14.6,4.1,22.3,4.1
	c5.6,0,11.2-0.7,16.7-2.3V320h5h5v-58.4c13.5-6.3,24.3-17.1,30.5-30.9c7-15.3,7.6-32.4,1.7-48.2c-5.8-15.6-17.2-27.9-32.2-35v-10.2
	c5.4-1.8,8.3-6.4,9.3-9.3c5-14.4,6.7-19.6,7.3-21.7c0.9-2.1,2.7-3.3,5-3.3c3.3,0,4.4,1.8,4.6,2.5l0,0.1c2.7,7.1,7,18.4,8,21.3v0.2
	l0.4,0.9c1,2.4,2.5,4.4,4.3,6v186h5h5V137.8v-10V18H324z M359.7,197.4l-25.7,0.8l-5,0.2l-5,0.2l-9.9,0.3l9.9-35l2.5-8.7
	c0.8,0.3,1.7,0.7,2.5,1.1c0.1,0,0.1,0.1,0.2,0.1c1.6,0.8,3.2,1.6,4.8,2.5c10.5,6.1,18.6,15.6,22.9,27.2
	C358.3,189.7,359.2,193.6,359.7,197.4z M355.4,226.6c-4.6,10.1-12.1,18.3-21.4,23.7c-1.6,0.9-3.3,1.8-5,2.6
	c-1.1,0.5-2.2,0.9-3.3,1.4c-0.6,0.2-1.2,0.4-1.7,0.6c-13.2,4.4-27.1,3.3-39-2.2c-1.7-0.8-3.4-1.7-5-2.6c-1.7-1-3.4-2.2-5-3.4
	c-7.7-5.9-13.9-13.9-17.5-23.6c-5-13.3-4.4-27.7,1.4-40.6c3.7-8.1,9.2-14.9,16-20.1c1.6-1.2,3.3-2.3,5-3.4c1.6-1,3.3-1.8,5-2.6
	c1.2-0.5,2.4-1.1,3.7-1.5c6-2.3,12.3-3.4,18.6-3.4c3.2,0,6.5,0.3,9.6,0.9l-16.1,56.9l23.3-0.7l5-0.2l5-0.2l26.2-0.8
	C359.8,214,358.2,220.4,355.4,226.6z M324,124.8c0-0.1-0.1-0.1-0.1-0.2l-7.3-21.9c-1.1-3.6-5.4-9.6-14.1-9.6
	c-6.4,0-11.8,3.6-14.3,9.5l-0.4,0.9v0.1c-0.5,1.2-1.6,3.8-2.8,6.9V77h39V124.8z M285,133.7c1.8-1.8,2.9-3.9,3.5-5.5
	c6.1-14.5,8.2-19.6,8.9-21.8l0,0c0.9-2.1,2.7-3.4,5-3.4c3.3,0,4.3,2.1,4.6,2.7l7.4,22.2l0.1,0.3c1.8,4.4,5.2,7.6,9.4,9v6.5
	c-12.7-3.6-26.2-3-38.8,1.7c-0.1,0-0.1,0-0.2,0.1V133.7z M274.2,128.1c-3.1,0-4.5-2.5-5-3.5l-7.3-22l-0.1-0.4
	c-1.4-3.4-6-9.2-13.9-9.2c-4.7,0-8.9,2-11.8,5.4V65h39v2v61.1C274.7,128.1,274.5,128.1,274.2,128.1z M369.7,102.1
	c-1.2-3.4-5.5-9.1-14-9.1c-6.4,0-11.8,3.6-14.3,9.5l-0.4,0.9v0.3c-0.9,2.7-4.6,13.5-7,20.5V67V28h39v82.9
	C372.1,108.4,371,105.5,369.7,102.1z"/>
</svg>
