<svg id="Layer_1" data-name="Layer 1" xmlns="http://www.w3.org/2000/svg" xmlns:xlink="http://www.w3.org/1999/xlink" viewBox="0 0 450 450"><defs><clipPath id="clip-path"><path d="M239.06,376.15c44.74,1.95,90.74,10.75,86.24,21.31s-18.92,36.82-76.39,36.82-128.48,7.78-140.15,0,39.87-29.83,58.36-36.8S213.52,375,239.06,376.15Z" fill="none"/></clipPath><clipPath id="clip-path-2"><rect x="313" y="359.82" width="28.8" height="28.8" fill="none"/></clipPath><clipPath id="clip-path-3"><rect x="313" y="388.62" width="28.8" height="28.8" fill="none"/></clipPath><clipPath id="clip-path-4"><rect x="313" y="417.42" width="28.8" height="28.8" fill="none"/></clipPath><clipPath id="clip-path-5"><rect x="284.2" y="359.82" width="28.8" height="28.8" fill="none"/></clipPath><clipPath id="clip-path-6"><rect x="284.2" y="388.62" width="28.8" height="28.8" fill="none"/></clipPath><clipPath id="clip-path-7"><rect x="284.2" y="417.42" width="28.8" height="28.8" fill="none"/></clipPath><clipPath id="clip-path-8"><rect x="255.4" y="359.82" width="28.8" height="28.8" fill="none"/></clipPath><clipPath id="clip-path-9"><rect x="255.4" y="388.62" width="28.8" height="28.8" fill="none"/></clipPath><clipPath id="clip-path-10"><rect x="255.4" y="417.42" width="28.8" height="28.8" fill="none"/></clipPath><clipPath id="clip-path-11"><rect x="226.6" y="359.82" width="28.8" height="28.8" fill="none"/></clipPath><clipPath id="clip-path-12"><rect x="226.6" y="388.62" width="28.8" height="28.8" fill="none"/></clipPath><clipPath id="clip-path-13"><rect x="226.6" y="417.42" width="28.8" height="28.8" fill="none"/></clipPath><clipPath id="clip-path-14"><rect x="197.8" y="359.82" width="28.8" height="28.8" fill="none"/></clipPath><clipPath id="clip-path-15"><rect x="197.8" y="388.62" width="28.8" height="28.8" fill="none"/></clipPath><clipPath id="clip-path-16"><rect x="197.8" y="417.42" width="28.8" height="28.8" fill="none"/></clipPath><clipPath id="clip-path-17"><rect x="169" y="359.82" width="28.8" height="28.8" fill="none"/></clipPath><clipPath id="clip-path-18"><rect x="169" y="388.62" width="28.8" height="28.8" fill="none"/></clipPath><clipPath id="clip-path-19"><rect x="169" y="417.42" width="28.8" height="28.8" fill="none"/></clipPath><clipPath id="clip-path-20"><rect x="140.2" y="359.82" width="28.8" height="28.8" fill="none"/></clipPath><clipPath id="clip-path-21"><rect x="140.2" y="388.62" width="28.8" height="28.8" fill="none"/></clipPath><clipPath id="clip-path-22"><rect x="140.2" y="417.42" width="28.8" height="28.8" fill="none"/></clipPath><clipPath id="clip-path-23"><rect x="111.4" y="359.82" width="28.8" height="28.8" fill="none"/></clipPath><clipPath id="clip-path-24"><rect x="111.4" y="388.62" width="28.8" height="28.8" fill="none"/></clipPath><clipPath id="clip-path-25"><rect x="111.4" y="417.42" width="28.8" height="28.8" fill="none"/></clipPath><clipPath id="clip-path-26"><rect x="82.6" y="359.82" width="28.8" height="28.8" fill="none"/></clipPath><clipPath id="clip-path-27"><rect x="82.6" y="388.62" width="28.8" height="28.8" fill="none"/></clipPath><clipPath id="clip-path-28"><rect x="82.6" y="417.42" width="28.8" height="28.8" fill="none"/></clipPath></defs><title>hki-mies</title><g clip-path="url(#clip-path)"><g clip-path="url(#clip-path-2)"><circle cx="341.8" cy="388.62" r="2.16" fill="#05a1d4"/><circle cx="327.4" cy="388.62" r="2.16" fill="#05a1d4"/><circle cx="341.8" cy="374.22" r="2.16" fill="#05a1d4"/><circle cx="327.4" cy="374.22" r="2.16" fill="#05a1d4"/><circle cx="320.2" cy="381.42" r="2.16" fill="#05a1d4"/><circle cx="334.6" cy="381.42" r="2.16" fill="#05a1d4"/><circle cx="320.2" cy="367.02" r="2.16" fill="#05a1d4"/><circle cx="334.6" cy="367.02" r="2.16" fill="#05a1d4"/><circle cx="313" cy="388.62" r="2.16" fill="#05a1d4"/><circle cx="313" cy="374.22" r="2.16" fill="#05a1d4"/><circle cx="341.8" cy="359.82" r="2.16" fill="#05a1d4"/><circle cx="327.4" cy="359.82" r="2.16" fill="#05a1d4"/><circle cx="313" cy="359.82" r="2.16" fill="#05a1d4"/></g><g clip-path="url(#clip-path-3)"><circle cx="341.8" cy="417.42" r="2.16" fill="#05a1d4"/><circle cx="327.4" cy="417.42" r="2.16" fill="#05a1d4"/><circle cx="341.8" cy="403.02" r="2.16" fill="#05a1d4"/><circle cx="327.4" cy="403.02" r="2.16" fill="#05a1d4"/><circle cx="320.2" cy="410.22" r="2.16" fill="#05a1d4"/><circle cx="334.6" cy="410.22" r="2.16" fill="#05a1d4"/><circle cx="320.2" cy="395.82" r="2.16" fill="#05a1d4"/><circle cx="334.6" cy="395.82" r="2.16" fill="#05a1d4"/><circle cx="313" cy="417.42" r="2.16" fill="#05a1d4"/><circle cx="313" cy="403.02" r="2.16" fill="#05a1d4"/><circle cx="341.8" cy="388.62" r="2.16" fill="#05a1d4"/><circle cx="327.4" cy="388.62" r="2.16" fill="#05a1d4"/><circle cx="313" cy="388.62" r="2.16" fill="#05a1d4"/></g><g clip-path="url(#clip-path-4)"><circle cx="341.8" cy="446.22" r="2.16" fill="#05a1d4"/><circle cx="327.4" cy="446.22" r="2.16" fill="#05a1d4"/><circle cx="341.8" cy="431.82" r="2.16" fill="#05a1d4"/><circle cx="327.4" cy="431.82" r="2.16" fill="#05a1d4"/><circle cx="320.2" cy="439.02" r="2.16" fill="#05a1d4"/><circle cx="334.6" cy="439.02" r="2.16" fill="#05a1d4"/><circle cx="320.2" cy="424.62" r="2.16" fill="#05a1d4"/><circle cx="334.6" cy="424.62" r="2.16" fill="#05a1d4"/><circle cx="313" cy="446.22" r="2.16" fill="#05a1d4"/><circle cx="313" cy="431.82" r="2.16" fill="#05a1d4"/><circle cx="341.8" cy="417.42" r="2.16" fill="#05a1d4"/><circle cx="327.4" cy="417.42" r="2.16" fill="#05a1d4"/><circle cx="313" cy="417.42" r="2.16" fill="#05a1d4"/></g><g clip-path="url(#clip-path-5)"><circle cx="313" cy="388.62" r="2.16" fill="#05a1d4"/><circle cx="298.6" cy="388.62" r="2.16" fill="#05a1d4"/><circle cx="313" cy="374.22" r="2.16" fill="#05a1d4"/><circle cx="298.6" cy="374.22" r="2.16" fill="#05a1d4"/><circle cx="291.4" cy="381.42" r="2.16" fill="#05a1d4"/><circle cx="305.8" cy="381.42" r="2.16" fill="#05a1d4"/><circle cx="291.4" cy="367.02" r="2.16" fill="#05a1d4"/><circle cx="305.8" cy="367.02" r="2.16" fill="#05a1d4"/><circle cx="284.2" cy="388.62" r="2.16" fill="#05a1d4"/><circle cx="284.2" cy="374.22" r="2.16" fill="#05a1d4"/><circle cx="313" cy="359.82" r="2.16" fill="#05a1d4"/><circle cx="298.6" cy="359.82" r="2.16" fill="#05a1d4"/><circle cx="284.2" cy="359.82" r="2.16" fill="#05a1d4"/></g><g clip-path="url(#clip-path-6)"><circle cx="313" cy="417.42" r="2.16" fill="#05a1d4"/><circle cx="298.6" cy="417.42" r="2.16" fill="#05a1d4"/><circle cx="313" cy="403.02" r="2.16" fill="#05a1d4"/><circle cx="298.6" cy="403.02" r="2.16" fill="#05a1d4"/><circle cx="291.4" cy="410.22" r="2.16" fill="#05a1d4"/><circle cx="305.8" cy="410.22" r="2.16" fill="#05a1d4"/><circle cx="291.4" cy="395.82" r="2.16" fill="#05a1d4"/><circle cx="305.8" cy="395.82" r="2.16" fill="#05a1d4"/><circle cx="284.2" cy="417.42" r="2.16" fill="#05a1d4"/><circle cx="284.2" cy="403.02" r="2.16" fill="#05a1d4"/><circle cx="313" cy="388.62" r="2.16" fill="#05a1d4"/><circle cx="298.6" cy="388.62" r="2.16" fill="#05a1d4"/><circle cx="284.2" cy="388.62" r="2.16" fill="#05a1d4"/></g><g clip-path="url(#clip-path-7)"><circle cx="313" cy="446.22" r="2.16" fill="#05a1d4"/><circle cx="298.6" cy="446.22" r="2.16" fill="#05a1d4"/><circle cx="313" cy="431.82" r="2.16" fill="#05a1d4"/><circle cx="298.6" cy="431.82" r="2.16" fill="#05a1d4"/><circle cx="291.4" cy="439.02" r="2.16" fill="#05a1d4"/><circle cx="305.8" cy="439.02" r="2.16" fill="#05a1d4"/><circle cx="291.4" cy="424.62" r="2.16" fill="#05a1d4"/><circle cx="305.8" cy="424.62" r="2.16" fill="#05a1d4"/><circle cx="284.2" cy="446.22" r="2.16" fill="#05a1d4"/><circle cx="284.2" cy="431.82" r="2.16" fill="#05a1d4"/><circle cx="313" cy="417.42" r="2.16" fill="#05a1d4"/><circle cx="298.6" cy="417.42" r="2.16" fill="#05a1d4"/><circle cx="284.2" cy="417.42" r="2.16" fill="#05a1d4"/></g><g clip-path="url(#clip-path-8)"><circle cx="284.2" cy="388.62" r="2.16" fill="#05a1d4"/><circle cx="269.8" cy="388.62" r="2.16" fill="#05a1d4"/><circle cx="284.2" cy="374.22" r="2.16" fill="#05a1d4"/><circle cx="269.8" cy="374.22" r="2.16" fill="#05a1d4"/><circle cx="262.6" cy="381.42" r="2.16" fill="#05a1d4"/><circle cx="277" cy="381.42" r="2.16" fill="#05a1d4"/><circle cx="262.6" cy="367.02" r="2.16" fill="#05a1d4"/><circle cx="277" cy="367.02" r="2.16" fill="#05a1d4"/><circle cx="255.4" cy="388.62" r="2.16" fill="#05a1d4"/><circle cx="255.4" cy="374.22" r="2.16" fill="#05a1d4"/><circle cx="284.2" cy="359.82" r="2.16" fill="#05a1d4"/><circle cx="269.8" cy="359.82" r="2.16" fill="#05a1d4"/><circle cx="255.4" cy="359.82" r="2.16" fill="#05a1d4"/></g><g clip-path="url(#clip-path-9)"><circle cx="284.2" cy="417.42" r="2.16" fill="#05a1d4"/><circle cx="269.8" cy="417.42" r="2.16" fill="#05a1d4"/><circle cx="284.2" cy="403.02" r="2.16" fill="#05a1d4"/><circle cx="269.8" cy="403.02" r="2.16" fill="#05a1d4"/><circle cx="262.6" cy="410.22" r="2.16" fill="#05a1d4"/><circle cx="277" cy="410.22" r="2.16" fill="#05a1d4"/><circle cx="262.6" cy="395.82" r="2.16" fill="#05a1d4"/><circle cx="277" cy="395.82" r="2.16" fill="#05a1d4"/><circle cx="255.4" cy="417.42" r="2.16" fill="#05a1d4"/><circle cx="255.4" cy="403.02" r="2.16" fill="#05a1d4"/><circle cx="284.2" cy="388.62" r="2.16" fill="#05a1d4"/><circle cx="269.8" cy="388.62" r="2.16" fill="#05a1d4"/><circle cx="255.4" cy="388.62" r="2.16" fill="#05a1d4"/></g><g clip-path="url(#clip-path-10)"><circle cx="284.2" cy="446.22" r="2.16" fill="#05a1d4"/><circle cx="269.8" cy="446.22" r="2.16" fill="#05a1d4"/><circle cx="284.2" cy="431.82" r="2.16" fill="#05a1d4"/><circle cx="269.8" cy="431.82" r="2.16" fill="#05a1d4"/><circle cx="262.6" cy="439.02" r="2.16" fill="#05a1d4"/><circle cx="277" cy="439.02" r="2.16" fill="#05a1d4"/><circle cx="262.6" cy="424.62" r="2.16" fill="#05a1d4"/><circle cx="277" cy="424.62" r="2.16" fill="#05a1d4"/><circle cx="255.4" cy="446.22" r="2.16" fill="#05a1d4"/><circle cx="255.4" cy="431.82" r="2.16" fill="#05a1d4"/><circle cx="284.2" cy="417.42" r="2.16" fill="#05a1d4"/><circle cx="269.8" cy="417.42" r="2.16" fill="#05a1d4"/><circle cx="255.4" cy="417.42" r="2.16" fill="#05a1d4"/></g><g clip-path="url(#clip-path-11)"><circle cx="255.4" cy="388.62" r="2.16" fill="#05a1d4"/><circle cx="241" cy="388.62" r="2.16" fill="#05a1d4"/><circle cx="255.4" cy="374.22" r="2.16" fill="#05a1d4"/><circle cx="241" cy="374.22" r="2.16" fill="#05a1d4"/><circle cx="233.8" cy="381.42" r="2.16" fill="#05a1d4"/><circle cx="248.2" cy="381.42" r="2.16" fill="#05a1d4"/><circle cx="233.8" cy="367.02" r="2.16" fill="#05a1d4"/><circle cx="248.2" cy="367.02" r="2.16" fill="#05a1d4"/><circle cx="226.6" cy="388.62" r="2.16" fill="#05a1d4"/><circle cx="226.6" cy="374.22" r="2.16" fill="#05a1d4"/><circle cx="255.4" cy="359.82" r="2.16" fill="#05a1d4"/><circle cx="241" cy="359.82" r="2.16" fill="#05a1d4"/><circle cx="226.6" cy="359.82" r="2.16" fill="#05a1d4"/></g><g clip-path="url(#clip-path-12)"><circle cx="255.4" cy="417.42" r="2.16" fill="#05a1d4"/><circle cx="241" cy="417.42" r="2.16" fill="#05a1d4"/><circle cx="255.4" cy="403.02" r="2.16" fill="#05a1d4"/><circle cx="241" cy="403.02" r="2.16" fill="#05a1d4"/><circle cx="233.8" cy="410.22" r="2.16" fill="#05a1d4"/><circle cx="248.2" cy="410.22" r="2.16" fill="#05a1d4"/><circle cx="233.8" cy="395.82" r="2.16" fill="#05a1d4"/><circle cx="248.2" cy="395.82" r="2.16" fill="#05a1d4"/><circle cx="226.6" cy="417.42" r="2.16" fill="#05a1d4"/><circle cx="226.6" cy="403.02" r="2.16" fill="#05a1d4"/><circle cx="255.4" cy="388.62" r="2.16" fill="#05a1d4"/><circle cx="241" cy="388.62" r="2.16" fill="#05a1d4"/><circle cx="226.6" cy="388.62" r="2.16" fill="#05a1d4"/></g><g clip-path="url(#clip-path-13)"><circle cx="255.4" cy="446.22" r="2.16" fill="#05a1d4"/><circle cx="241" cy="446.22" r="2.16" fill="#05a1d4"/><circle cx="255.4" cy="431.82" r="2.16" fill="#05a1d4"/><circle cx="241" cy="431.82" r="2.16" fill="#05a1d4"/><circle cx="233.8" cy="439.02" r="2.16" fill="#05a1d4"/><circle cx="248.2" cy="439.02" r="2.16" fill="#05a1d4"/><circle cx="233.8" cy="424.62" r="2.16" fill="#05a1d4"/><circle cx="248.2" cy="424.62" r="2.16" fill="#05a1d4"/><circle cx="226.6" cy="446.22" r="2.16" fill="#05a1d4"/><circle cx="226.6" cy="431.82" r="2.16" fill="#05a1d4"/><circle cx="255.4" cy="417.42" r="2.16" fill="#05a1d4"/><circle cx="241" cy="417.42" r="2.16" fill="#05a1d4"/><circle cx="226.6" cy="417.42" r="2.16" fill="#05a1d4"/></g><g clip-path="url(#clip-path-14)"><circle cx="226.6" cy="388.62" r="2.16" fill="#05a1d4"/><circle cx="212.2" cy="388.62" r="2.16" fill="#05a1d4"/><circle cx="226.6" cy="374.22" r="2.16" fill="#05a1d4"/><circle cx="212.2" cy="374.22" r="2.16" fill="#05a1d4"/><circle cx="205" cy="381.42" r="2.16" fill="#05a1d4"/><circle cx="219.4" cy="381.42" r="2.16" fill="#05a1d4"/><circle cx="205" cy="367.02" r="2.16" fill="#05a1d4"/><circle cx="219.4" cy="367.02" r="2.16" fill="#05a1d4"/><circle cx="197.8" cy="388.62" r="2.16" fill="#05a1d4"/><circle cx="197.8" cy="374.22" r="2.16" fill="#05a1d4"/><circle cx="226.6" cy="359.82" r="2.16" fill="#05a1d4"/><circle cx="212.2" cy="359.82" r="2.16" fill="#05a1d4"/><circle cx="197.8" cy="359.82" r="2.16" fill="#05a1d4"/></g><g clip-path="url(#clip-path-15)"><circle cx="226.6" cy="417.42" r="2.16" fill="#05a1d4"/><circle cx="212.2" cy="417.42" r="2.16" fill="#05a1d4"/><circle cx="226.6" cy="403.02" r="2.16" fill="#05a1d4"/><circle cx="212.2" cy="403.02" r="2.16" fill="#05a1d4"/><circle cx="205" cy="410.22" r="2.16" fill="#05a1d4"/><circle cx="219.4" cy="410.22" r="2.16" fill="#05a1d4"/><circle cx="205" cy="395.82" r="2.16" fill="#05a1d4"/><circle cx="219.4" cy="395.82" r="2.16" fill="#05a1d4"/><circle cx="197.8" cy="417.42" r="2.16" fill="#05a1d4"/><circle cx="197.8" cy="403.02" r="2.16" fill="#05a1d4"/><circle cx="226.6" cy="388.62" r="2.16" fill="#05a1d4"/><circle cx="212.2" cy="388.62" r="2.16" fill="#05a1d4"/><circle cx="197.8" cy="388.62" r="2.16" fill="#05a1d4"/></g><g clip-path="url(#clip-path-16)"><circle cx="226.6" cy="446.22" r="2.16" fill="#05a1d4"/><circle cx="212.2" cy="446.22" r="2.16" fill="#05a1d4"/><circle cx="226.6" cy="431.82" r="2.16" fill="#05a1d4"/><circle cx="212.2" cy="431.82" r="2.16" fill="#05a1d4"/><circle cx="205" cy="439.02" r="2.16" fill="#05a1d4"/><circle cx="219.4" cy="439.02" r="2.16" fill="#05a1d4"/><circle cx="205" cy="424.62" r="2.16" fill="#05a1d4"/><circle cx="219.4" cy="424.62" r="2.16" fill="#05a1d4"/><circle cx="197.8" cy="446.22" r="2.16" fill="#05a1d4"/><circle cx="197.8" cy="431.82" r="2.16" fill="#05a1d4"/><circle cx="226.6" cy="417.42" r="2.16" fill="#05a1d4"/><circle cx="212.2" cy="417.42" r="2.16" fill="#05a1d4"/><circle cx="197.8" cy="417.42" r="2.16" fill="#05a1d4"/></g><g clip-path="url(#clip-path-17)"><circle cx="197.8" cy="388.62" r="2.16" fill="#05a1d4"/><circle cx="183.4" cy="388.62" r="2.16" fill="#05a1d4"/><circle cx="197.8" cy="374.22" r="2.16" fill="#05a1d4"/><circle cx="183.4" cy="374.22" r="2.16" fill="#05a1d4"/><circle cx="176.2" cy="381.42" r="2.16" fill="#05a1d4"/><circle cx="190.6" cy="381.42" r="2.16" fill="#05a1d4"/><circle cx="176.2" cy="367.02" r="2.16" fill="#05a1d4"/><circle cx="190.6" cy="367.02" r="2.16" fill="#05a1d4"/><circle cx="169" cy="388.62" r="2.16" fill="#05a1d4"/><circle cx="169" cy="374.22" r="2.16" fill="#05a1d4"/><circle cx="197.8" cy="359.82" r="2.16" fill="#05a1d4"/><circle cx="183.4" cy="359.82" r="2.16" fill="#05a1d4"/><circle cx="169" cy="359.82" r="2.16" fill="#05a1d4"/></g><g clip-path="url(#clip-path-18)"><circle cx="197.8" cy="417.42" r="2.16" fill="#05a1d4"/><circle cx="183.4" cy="417.42" r="2.16" fill="#05a1d4"/><circle cx="197.8" cy="403.02" r="2.16" fill="#05a1d4"/><circle cx="183.4" cy="403.02" r="2.16" fill="#05a1d4"/><circle cx="176.2" cy="410.22" r="2.16" fill="#05a1d4"/><circle cx="190.6" cy="410.22" r="2.16" fill="#05a1d4"/><circle cx="176.2" cy="395.82" r="2.16" fill="#05a1d4"/><circle cx="190.6" cy="395.82" r="2.16" fill="#05a1d4"/><circle cx="169" cy="417.42" r="2.16" fill="#05a1d4"/><circle cx="169" cy="403.02" r="2.16" fill="#05a1d4"/><circle cx="197.8" cy="388.62" r="2.16" fill="#05a1d4"/><circle cx="183.4" cy="388.62" r="2.16" fill="#05a1d4"/><circle cx="169" cy="388.62" r="2.16" fill="#05a1d4"/></g><g clip-path="url(#clip-path-19)"><circle cx="197.8" cy="446.22" r="2.16" fill="#05a1d4"/><circle cx="183.4" cy="446.22" r="2.16" fill="#05a1d4"/><circle cx="197.8" cy="431.82" r="2.16" fill="#05a1d4"/><circle cx="183.4" cy="431.82" r="2.16" fill="#05a1d4"/><circle cx="176.2" cy="439.02" r="2.16" fill="#05a1d4"/><circle cx="190.6" cy="439.02" r="2.16" fill="#05a1d4"/><circle cx="176.2" cy="424.62" r="2.16" fill="#05a1d4"/><circle cx="190.6" cy="424.62" r="2.16" fill="#05a1d4"/><circle cx="169" cy="446.22" r="2.16" fill="#05a1d4"/><circle cx="169" cy="431.82" r="2.16" fill="#05a1d4"/><circle cx="197.8" cy="417.42" r="2.16" fill="#05a1d4"/><circle cx="183.4" cy="417.42" r="2.16" fill="#05a1d4"/><circle cx="169" cy="417.42" r="2.16" fill="#05a1d4"/></g><g clip-path="url(#clip-path-20)"><circle cx="169" cy="388.62" r="2.16" fill="#05a1d4"/><circle cx="154.6" cy="388.62" r="2.16" fill="#05a1d4"/><circle cx="169" cy="374.22" r="2.16" fill="#05a1d4"/><circle cx="154.6" cy="374.22" r="2.16" fill="#05a1d4"/><circle cx="147.4" cy="381.42" r="2.16" fill="#05a1d4"/><circle cx="161.8" cy="381.42" r="2.16" fill="#05a1d4"/><circle cx="147.4" cy="367.02" r="2.16" fill="#05a1d4"/><circle cx="161.8" cy="367.02" r="2.16" fill="#05a1d4"/><circle cx="140.2" cy="388.62" r="2.16" fill="#05a1d4"/><circle cx="140.2" cy="374.22" r="2.16" fill="#05a1d4"/><circle cx="169" cy="359.82" r="2.16" fill="#05a1d4"/><circle cx="154.6" cy="359.82" r="2.16" fill="#05a1d4"/><circle cx="140.2" cy="359.82" r="2.16" fill="#05a1d4"/></g><g clip-path="url(#clip-path-21)"><circle cx="169" cy="417.42" r="2.16" fill="#05a1d4"/><circle cx="154.6" cy="417.42" r="2.16" fill="#05a1d4"/><circle cx="169" cy="403.02" r="2.16" fill="#05a1d4"/><circle cx="154.6" cy="403.02" r="2.16" fill="#05a1d4"/><circle cx="147.4" cy="410.22" r="2.16" fill="#05a1d4"/><circle cx="161.8" cy="410.22" r="2.16" fill="#05a1d4"/><circle cx="147.4" cy="395.82" r="2.16" fill="#05a1d4"/><circle cx="161.8" cy="395.82" r="2.16" fill="#05a1d4"/><circle cx="140.2" cy="417.42" r="2.16" fill="#05a1d4"/><circle cx="140.2" cy="403.02" r="2.16" fill="#05a1d4"/><circle cx="169" cy="388.62" r="2.16" fill="#05a1d4"/><circle cx="154.6" cy="388.62" r="2.16" fill="#05a1d4"/><circle cx="140.2" cy="388.62" r="2.16" fill="#05a1d4"/></g><g clip-path="url(#clip-path-22)"><circle cx="169" cy="446.22" r="2.16" fill="#05a1d4"/><circle cx="154.6" cy="446.22" r="2.16" fill="#05a1d4"/><circle cx="169" cy="431.82" r="2.16" fill="#05a1d4"/><circle cx="154.6" cy="431.82" r="2.16" fill="#05a1d4"/><circle cx="147.4" cy="439.02" r="2.16" fill="#05a1d4"/><circle cx="161.8" cy="439.02" r="2.16" fill="#05a1d4"/><circle cx="147.4" cy="424.62" r="2.16" fill="#05a1d4"/><circle cx="161.8" cy="424.62" r="2.16" fill="#05a1d4"/><circle cx="140.2" cy="446.22" r="2.16" fill="#05a1d4"/><circle cx="140.2" cy="431.82" r="2.16" fill="#05a1d4"/><circle cx="169" cy="417.42" r="2.16" fill="#05a1d4"/><circle cx="154.6" cy="417.42" r="2.16" fill="#05a1d4"/><circle cx="140.2" cy="417.42" r="2.16" fill="#05a1d4"/></g><g clip-path="url(#clip-path-23)"><circle cx="140.2" cy="388.62" r="2.16" fill="#05a1d4"/><circle cx="125.8" cy="388.62" r="2.16" fill="#05a1d4"/><circle cx="140.2" cy="374.22" r="2.16" fill="#05a1d4"/><circle cx="125.8" cy="374.22" r="2.16" fill="#05a1d4"/><circle cx="118.6" cy="381.42" r="2.16" fill="#05a1d4"/><circle cx="133" cy="381.42" r="2.16" fill="#05a1d4"/><circle cx="118.6" cy="367.02" r="2.16" fill="#05a1d4"/><circle cx="133" cy="367.02" r="2.16" fill="#05a1d4"/><circle cx="111.4" cy="388.62" r="2.16" fill="#05a1d4"/><circle cx="111.4" cy="374.22" r="2.16" fill="#05a1d4"/><circle cx="140.2" cy="359.82" r="2.16" fill="#05a1d4"/><circle cx="125.8" cy="359.82" r="2.16" fill="#05a1d4"/><circle cx="111.4" cy="359.82" r="2.16" fill="#05a1d4"/></g><g clip-path="url(#clip-path-24)"><circle cx="140.2" cy="417.42" r="2.16" fill="#05a1d4"/><circle cx="125.8" cy="417.42" r="2.16" fill="#05a1d4"/><circle cx="140.2" cy="403.02" r="2.16" fill="#05a1d4"/><circle cx="125.8" cy="403.02" r="2.16" fill="#05a1d4"/><circle cx="118.6" cy="410.22" r="2.16" fill="#05a1d4"/><circle cx="133" cy="410.22" r="2.16" fill="#05a1d4"/><circle cx="118.6" cy="395.82" r="2.16" fill="#05a1d4"/><circle cx="133" cy="395.82" r="2.16" fill="#05a1d4"/><circle cx="111.4" cy="417.42" r="2.16" fill="#05a1d4"/><circle cx="111.4" cy="403.02" r="2.16" fill="#05a1d4"/><circle cx="140.2" cy="388.62" r="2.16" fill="#05a1d4"/><circle cx="125.8" cy="388.62" r="2.16" fill="#05a1d4"/><circle cx="111.4" cy="388.62" r="2.16" fill="#05a1d4"/></g><g clip-path="url(#clip-path-25)"><circle cx="140.2" cy="446.22" r="2.16" fill="#05a1d4"/><circle cx="125.8" cy="446.22" r="2.16" fill="#05a1d4"/><circle cx="140.2" cy="431.82" r="2.16" fill="#05a1d4"/><circle cx="125.8" cy="431.82" r="2.16" fill="#05a1d4"/><circle cx="118.6" cy="439.02" r="2.16" fill="#05a1d4"/><circle cx="133" cy="439.02" r="2.16" fill="#05a1d4"/><circle cx="118.6" cy="424.62" r="2.16" fill="#05a1d4"/><circle cx="133" cy="424.62" r="2.16" fill="#05a1d4"/><circle cx="111.4" cy="446.22" r="2.16" fill="#05a1d4"/><circle cx="111.4" cy="431.82" r="2.16" fill="#05a1d4"/><circle cx="140.2" cy="417.42" r="2.16" fill="#05a1d4"/><circle cx="125.8" cy="417.42" r="2.16" fill="#05a1d4"/><circle cx="111.4" cy="417.42" r="2.16" fill="#05a1d4"/></g><g clip-path="url(#clip-path-26)"><circle cx="111.4" cy="388.62" r="2.16" fill="#05a1d4"/><circle cx="97" cy="388.62" r="2.16" fill="#05a1d4"/><circle cx="111.4" cy="374.22" r="2.16" fill="#05a1d4"/><circle cx="97" cy="374.22" r="2.16" fill="#05a1d4"/><circle cx="89.8" cy="381.42" r="2.16" fill="#05a1d4"/><circle cx="104.2" cy="381.42" r="2.16" fill="#05a1d4"/><circle cx="89.8" cy="367.02" r="2.16" fill="#05a1d4"/><circle cx="104.2" cy="367.02" r="2.16" fill="#05a1d4"/><circle cx="82.6" cy="388.62" r="2.16" fill="#05a1d4"/><circle cx="82.6" cy="374.22" r="2.16" fill="#05a1d4"/><circle cx="111.4" cy="359.82" r="2.16" fill="#05a1d4"/><circle cx="97" cy="359.82" r="2.16" fill="#05a1d4"/><circle cx="82.6" cy="359.82" r="2.16" fill="#05a1d4"/></g><g clip-path="url(#clip-path-27)"><circle cx="111.4" cy="417.42" r="2.16" fill="#05a1d4"/><circle cx="97" cy="417.42" r="2.16" fill="#05a1d4"/><circle cx="111.4" cy="403.02" r="2.16" fill="#05a1d4"/><circle cx="97" cy="403.02" r="2.16" fill="#05a1d4"/><circle cx="89.8" cy="410.22" r="2.16" fill="#05a1d4"/><circle cx="104.2" cy="410.22" r="2.16" fill="#05a1d4"/><circle cx="89.8" cy="395.82" r="2.16" fill="#05a1d4"/><circle cx="104.2" cy="395.82" r="2.16" fill="#05a1d4"/><circle cx="82.6" cy="417.42" r="2.16" fill="#05a1d4"/><circle cx="82.6" cy="403.02" r="2.16" fill="#05a1d4"/><circle cx="111.4" cy="388.62" r="2.16" fill="#05a1d4"/><circle cx="97" cy="388.62" r="2.16" fill="#05a1d4"/><circle cx="82.6" cy="388.62" r="2.16" fill="#05a1d4"/></g><g clip-path="url(#clip-path-28)"><circle cx="111.4" cy="446.22" r="2.16" fill="#05a1d4"/><circle cx="97" cy="446.22" r="2.16" fill="#05a1d4"/><circle cx="111.4" cy="431.82" r="2.16" fill="#05a1d4"/><circle cx="97" cy="431.82" r="2.16" fill="#05a1d4"/><circle cx="89.8" cy="439.02" r="2.16" fill="#05a1d4"/><circle cx="104.2" cy="439.02" r="2.16" fill="#05a1d4"/><circle cx="89.8" cy="424.62" r="2.16" fill="#05a1d4"/><circle cx="104.2" cy="424.62" r="2.16" fill="#05a1d4"/><circle cx="82.6" cy="446.22" r="2.16" fill="#05a1d4"/><circle cx="82.6" cy="431.82" r="2.16" fill="#05a1d4"/><circle cx="111.4" cy="417.42" r="2.16" fill="#05a1d4"/><circle cx="97" cy="417.42" r="2.16" fill="#05a1d4"/><circle cx="82.6" cy="417.42" r="2.16" fill="#05a1d4"/></g></g><path d="M329.9,98.66l-.18-3.8L327,39l-9.31-.45L310.5,88.31l-33.57,20.63c-4.18,2.09-8.54,2.16-13.69,1.89L263.64,85H233.1l-3.16,25.71c-8.68.38-14.8-.4-21.27.09a11,11,0,0,0-9.1,6.55l-29.44,49.23-3,4.59,1.11,3.47,18.69,59.78,9.1-2-7.47-56.55,13.17-13.73c.17,2,.38,3.84.65,5.63,2.52,16.71,5.26,38.88,6.52,50,.56,4.92.49,14.72,3.85,15,6.24.61,19.65-5.21,32.68-5.21,12.41,0,20.66,3.56,25.82,3,3.1-.36,6.7.49,7.36-9.8.63-9.73.61-29,4.32-53.17,1.55-10.09,2.91-21,4-30.52l38.71-34.59Z" fill="#05c2de" stroke="#c3f0f7" stroke-miterlimit="10" stroke-width="2"/><path d="M277.45,226l-68,1,.32,3-.1,3.07-.9,15.52-.8,19.46-1.45,39.47,0,.84,2.44,44.57,1.3,22.28,1.4,22.29,12.55,0,1.47-22.3,1.38-22.3,2.6-44.6,0,.93,5.07-39.34,2.46-19.68,1.34-3.59,1.48-.08,4.83.3c.05,2.69,1,5.2,1,8.18.1,7.9.28,17,.35,26.93q.07,7.41.14,15.19l.07,7.81,0,2v1.5l.06,1,.22,3.94,1.76,30.9,1.42,27,1.24,26.3,12.55,0,1.34-26.29,1.51-26.95,1.87-30.89.24-3.94.06-1v-.12c0-.13,0,.94,0,.46v-.06l0-.25.05-.49.21-2,.83-7.79,1.61-15.14c1-9.82,2.09-19,3-26.84s1.68-14.4,2.21-19C276.75,235.05,277.45,226,277.45,226Z" fill="#05c2de" stroke="#c3f0f7" stroke-linecap="round" stroke-linejoin="round" stroke-width="2"/><polygon points="224.2 412.26 194.61 415.85 194.61 410.02 210.75 397.46 224.2 397.46 224.2 412.26" fill="#05c2de" stroke="#c3f0f7" stroke-linecap="round" stroke-linejoin="round" stroke-width="2"/><polygon points="264.64 412.26 235.05 415.85 235.05 410.02 251.19 397.46 263.64 397.46 264.64 412.26" fill="#05c2de" stroke="#c3f0f7" stroke-linecap="round" stroke-linejoin="round" stroke-width="2"/><polygon points="328.85 17.68 319.77 14.18 316.34 28.03 309.86 23.63 306.7 26.77 317.56 39.68 319.28 40.7 321.95 40.59 327.45 42.49 331.65 31.13 328.85 17.68" fill="#05c2de" stroke="#c3f0f7" stroke-linecap="round" stroke-linejoin="round" stroke-width="2"/><polygon points="195.31 229.03 207.08 241.93 203.92 245.08 195.63 239.46 195.31 229.03" fill="#05c2de" stroke="#c3f0f7" stroke-linecap="round" stroke-linejoin="round" stroke-width="2"/><polygon points="185.96 230.08 195.42 229.19 201.28 236.03 203.88 253.3 194.15 253.54 186.42 242.18 185.96 230.08" fill="#05c2de" stroke="#c3f0f7" stroke-linecap="round" stroke-linejoin="round" stroke-width="2"/><path d="M265,72.11c0,10.44-2.16,22.46-16.58,22.46-13.75,0-16.58-12-16.58-22.46,0-16.51,9.39-18.9,16.58-18.9S265,55.95,265,72.11Z" fill="#05c2de" stroke="#c3f0f7" stroke-linecap="round" stroke-linejoin="round" stroke-width="2"/><path d="M229.16,111s3.41,6.67,15.67,6.67S264.11,111,264.11,111" fill="#05c2de" stroke="#c3f0f7" stroke-linecap="round" stroke-linejoin="round" stroke-width="2"/><line x1="288.24" y1="102" x2="304.8" y2="121.08" fill="#05c2de" stroke="#c3f0f7" stroke-linecap="round" stroke-linejoin="round" stroke-width="2"/><line x1="184.86" y1="141.47" x2="198.77" y2="165.18" fill="#05c2de" stroke="#c3f0f7" stroke-linecap="round" stroke-linejoin="round" stroke-width="2"/><line x1="277" y1="222" x2="271" y2="222" fill="#05c2de" stroke="#c3f0f7" stroke-linecap="round" stroke-linejoin="round" stroke-width="2"/><line x1="279" y1="214" x2="272" y2="214" fill="#05c2de" stroke="#c3f0f7" stroke-linecap="round" stroke-linejoin="round" stroke-width="2"/><line x1="279" y1="207" x2="271" y2="207" fill="#05c2de" stroke="#c3f0f7" stroke-linecap="round" stroke-linejoin="round" stroke-width="2"/><line x1="280" y1="199" x2="270" y2="199" fill="#05c2de" stroke="#c3f0f7" stroke-linecap="round" stroke-linejoin="round" stroke-width="2"/><line x1="280" y1="191" x2="270" y2="191" fill="#05c2de" stroke="#c3f0f7" stroke-linecap="round" stroke-linejoin="round" stroke-width="2"/><line x1="281" y1="184" x2="269" y2="184" fill="#05c2de" stroke="#c3f0f7" stroke-linecap="round" stroke-linejoin="round" stroke-width="2"/><line x1="281" y1="176" x2="268" y2="176" fill="#05c2de" stroke="#c3f0f7" stroke-linecap="round" stroke-linejoin="round" stroke-width="2"/><line x1="282" y1="169" x2="267" y2="169" fill="#05c2de" stroke="#c3f0f7" stroke-linecap="round" stroke-linejoin="round" stroke-width="2"/><line x1="283" y1="161" x2="268" y2="161" fill="#05c2de" stroke="#c3f0f7" stroke-linecap="round" stroke-linejoin="round" stroke-width="2"/><line x1="285" y1="153" x2="270" y2="153" fill="#05c2de" stroke="#c3f0f7" stroke-linecap="round" stroke-linejoin="round" stroke-width="2"/><line x1="285" y1="146" x2="274" y2="146" fill="#05c2de" stroke="#c3f0f7" stroke-linecap="round" stroke-linejoin="round" stroke-width="2"/><line x1="287" y1="138" x2="276" y2="138" fill="#05c2de" stroke="#c3f0f7" stroke-linecap="round" stroke-linejoin="round" stroke-width="2"/><line x1="294" y1="131" x2="277" y2="131" fill="#05c2de" stroke="#c3f0f7" stroke-linecap="round" stroke-linejoin="round" stroke-width="2"/><line x1="302" y1="124" x2="277" y2="124" fill="#05c2de" stroke="#c3f0f7" stroke-linecap="round" stroke-linejoin="round" stroke-width="2"/><line x1="302" y1="118" x2="274" y2="118" fill="#05c2de" stroke="#c3f0f7" stroke-linecap="round" stroke-linejoin="round" stroke-width="2"/><line x1="297" y1="112" x2="272" y2="112" fill="#05c2de" stroke="#c3f0f7" stroke-linecap="round" stroke-linejoin="round" stroke-width="2"/><line x1="293" y1="107" x2="281" y2="107" fill="#05c2de" stroke="#c3f0f7" stroke-linecap="round" stroke-linejoin="round" stroke-width="2"/><path d="M246.63,53.27s2.38,3.48,1,6.23a16.41,16.41,0,0,1-4.63,5" fill="#05c2de" stroke="#c3f0f7" stroke-linecap="round" stroke-linejoin="round" stroke-width="2"/><path d="M243,53.79a8.11,8.11,0,0,1-.37,5.71,5.11,5.11,0,0,1-3.63,3" fill="#05c2de" stroke="#c3f0f7" stroke-linecap="round" stroke-linejoin="round" stroke-width="2"/><path d="M251.73,54.1a8.1,8.1,0,0,1,0,5.16,10.44,10.44,0,0,1-2.8,4.51" fill="#05c2de" stroke="#c3f0f7" stroke-linecap="round" stroke-linejoin="round" stroke-width="2"/><path d="M257.09,55.07a17,17,0,0,1-.35,5c-.6,3-2.18,3.78-2.18,3.78" fill="#05c2de" stroke="#c3f0f7" stroke-linecap="round" stroke-linejoin="round" stroke-width="2"/></svg>