<svg id="Layer_1" data-name="Layer 1" xmlns="http://www.w3.org/2000/svg" viewBox="0 0 450 450"><title>hki-palaute</title><path d="M413.18,74.48a14.41,14.41,0,0,0-12.83-11c-13.72-1.13-46.91-2.88-85.73-2.88-40.42,0-78.51,3.81-95.26,4.93A14.42,14.42,0,0,0,206.12,77.4a357.85,357.85,0,0,0,.13,124.93,14.42,14.42,0,0,0,12.45,11.77c14.07,1.7,46.38,2.37,89.69,2.37,7.42,0,14.56-.08,21.38-.21L364,261.47V215c16.64-.89,29.33-2,36.52-2.9A14.4,14.4,0,0,0,412.83,201a304.85,304.85,0,0,0,7.11-65.62C419.94,107.36,416,86.12,413.18,74.48Z" fill="#05c2de" stroke="#c3f0f7" stroke-linecap="round" stroke-linejoin="round" stroke-width="2"/><path d="M221.76,126.48s27.76-3.83,81.38-4.79,87.12,0,87.12,0" fill="#05c2de" stroke="#c3f0f7" stroke-linecap="round" stroke-linejoin="round" stroke-width="2"/><path d="M221.76,101.58s27.76-3.83,81.38-4.79,87.12,0,87.12,0" fill="#05c2de" stroke="#c3f0f7" stroke-linecap="round" stroke-linejoin="round" stroke-width="2"/><path d="M221.76,155.2s27.76-3.83,81.38-4.79,87.12,0,87.12,0" fill="#05c2de" stroke="#c3f0f7" stroke-linecap="round" stroke-linejoin="round" stroke-width="2"/><path d="M221.76,183.92s27.76-3.83,81.38-4.79,87.12,0,87.12,0" fill="#05c2de" stroke="#c3f0f7" stroke-linecap="round" stroke-linejoin="round" stroke-width="2"/><path d="M217.17,236.55a10.94,10.94,0,0,0-10-9c-12.71-.85-41.59-3.74-72.25-3.74-29.44,0-54.61,1.33-65,2.19a10.93,10.93,0,0,0-9.73,8.33A198.6,198.6,0,0,0,55,280.53,231.2,231.2,0,0,0,60.4,330.3a10.92,10.92,0,0,0,9.34,8.43c4.79.59,12.82,1.32,23.27,1.95v35.47l26-34.38c6.46.16,13.35.26,20.58.26,32.85,0,57.36-.51,68-1.8a10.94,10.94,0,0,0,9.44-8.93,274.12,274.12,0,0,0,4.22-47.65A274.46,274.46,0,0,0,217.17,236.55Z" fill="#05c2de" stroke="#c3f0f7" stroke-linecap="round" stroke-linejoin="round" stroke-width="2"/><path d="M205.31,273.77s-21.06-2.9-61.72-3.63-66.08,0-66.08,0" fill="#05c2de" stroke="#c3f0f7" stroke-linecap="round" stroke-linejoin="round" stroke-width="2"/><path d="M205.31,254.89s-21.06-2.9-61.72-3.63-66.08,0-66.08,0" fill="#05c2de" stroke="#c3f0f7" stroke-linecap="round" stroke-linejoin="round" stroke-width="2"/><path d="M205.31,295.56s-21.06-2.9-61.72-3.63-66.08,0-66.08,0" fill="#05c2de" stroke="#c3f0f7" stroke-linecap="round" stroke-linejoin="round" stroke-width="2"/><path d="M205.31,317.34s-21.06-2.9-61.72-3.63-66.08,0-66.08,0" fill="#05c2de" stroke="#c3f0f7" stroke-linecap="round" stroke-linejoin="round" stroke-width="2"/><path d="M218.71,214.1l.28,0L242.32,206" fill="none" stroke="#c3f0f7" stroke-linecap="round" stroke-linejoin="round" stroke-width="2"/><line x1="215.2" y1="205.45" x2="208.47" y2="207.8" fill="none" stroke="#c3f0f7" stroke-linecap="round" stroke-linejoin="round" stroke-width="2"/><line x1="243.32" y1="215.65" x2="270.77" y2="206.09" fill="none" stroke="#c3f0f7" stroke-linecap="round" stroke-linejoin="round" stroke-width="2"/><line x1="242.32" y1="206" x2="218.99" y2="214.13" fill="none" stroke="#c3f0f7" stroke-linecap="round" stroke-linejoin="round" stroke-width="2"/><line x1="298.39" y1="216.46" x2="336.01" y2="203.35" fill="none" stroke="#c3f0f7" stroke-linecap="round" stroke-linejoin="round" stroke-width="2"/><line x1="301.85" y1="205.25" x2="270.29" y2="216.25" fill="none" stroke="#c3f0f7" stroke-linecap="round" stroke-linejoin="round" stroke-width="2"/><line x1="270.29" y1="216.25" x2="301.85" y2="205.25" fill="none" stroke="#c3f0f7" stroke-linecap="round" stroke-linejoin="round" stroke-width="2"/><line x1="270.77" y1="206.09" x2="243.32" y2="215.65" fill="none" stroke="#c3f0f7" stroke-linecap="round" stroke-linejoin="round" stroke-width="2"/><line x1="409.1" y1="207.87" x2="395.2" y2="212.72" fill="none" stroke="#c3f0f7" stroke-linecap="round" stroke-linejoin="round" stroke-width="2"/><line x1="364" y1="253.59" x2="359.28" y2="255.24" fill="none" stroke="#c3f0f7" stroke-linecap="round" stroke-linejoin="round" stroke-width="2"/><line x1="347.31" y1="239.41" x2="364" y2="233.59" fill="none" stroke="#c3f0f7" stroke-linecap="round" stroke-linejoin="round" stroke-width="2"/><line x1="364" y1="223.59" x2="341.32" y2="231.5" fill="none" stroke="#c3f0f7" stroke-linecap="round" stroke-linejoin="round" stroke-width="2"/><line x1="364" y1="233.59" x2="347.31" y2="239.41" fill="none" stroke="#c3f0f7" stroke-linecap="round" stroke-linejoin="round" stroke-width="2"/><line x1="353.29" y1="247.32" x2="364" y2="243.59" fill="none" stroke="#c3f0f7" stroke-linecap="round" stroke-linejoin="round" stroke-width="2"/><line x1="364" y1="243.59" x2="353.29" y2="247.32" fill="none" stroke="#c3f0f7" stroke-linecap="round" stroke-linejoin="round" stroke-width="2"/><line x1="359.28" y1="255.24" x2="364" y2="253.59" fill="none" stroke="#c3f0f7" stroke-linecap="round" stroke-linejoin="round" stroke-width="2"/><line x1="418.54" y1="164.58" x2="398.39" y2="171.61" fill="none" stroke="#c3f0f7" stroke-linecap="round" stroke-linejoin="round" stroke-width="2"/><line x1="396.74" y1="182.18" x2="417.38" y2="174.99" fill="none" stroke="#c3f0f7" stroke-linecap="round" stroke-linejoin="round" stroke-width="2"/><line x1="415.83" y1="185.53" x2="392.29" y2="193.73" fill="none" stroke="#c3f0f7" stroke-linecap="round" stroke-linejoin="round" stroke-width="2"/><line x1="335.33" y1="223.58" x2="413.86" y2="196.21" fill="none" stroke="#c3f0f7" stroke-linecap="round" stroke-linejoin="round" stroke-width="2"/><line x1="372.66" y1="200.57" x2="327.54" y2="216.3" fill="none" stroke="#c3f0f7" stroke-linecap="round" stroke-linejoin="round" stroke-width="2"/><line x1="402.86" y1="110.05" x2="418.31" y2="104.66" fill="none" stroke="#c3f0f7" stroke-linecap="round" stroke-linejoin="round" stroke-width="2"/><line x1="417.11" y1="95.08" x2="402.77" y2="100.08" fill="none" stroke="#c3f0f7" stroke-linecap="round" stroke-linejoin="round" stroke-width="2"/><line x1="402.71" y1="120.1" x2="419.18" y2="114.36" fill="none" stroke="#c3f0f7" stroke-linecap="round" stroke-linejoin="round" stroke-width="2"/><line x1="418.31" y1="104.66" x2="402.86" y2="110.05" fill="none" stroke="#c3f0f7" stroke-linecap="round" stroke-linejoin="round" stroke-width="2"/><line x1="402.45" y1="90.19" x2="415.55" y2="85.62" fill="none" stroke="#c3f0f7" stroke-linecap="round" stroke-linejoin="round" stroke-width="2"/><line x1="413.61" y1="76.3" x2="401.92" y2="80.38" fill="none" stroke="#c3f0f7" stroke-linecap="round" stroke-linejoin="round" stroke-width="2"/><line x1="401.18" y1="70.63" x2="409.44" y2="67.75" fill="none" stroke="#c3f0f7" stroke-linecap="round" stroke-linejoin="round" stroke-width="2"/><line x1="401.92" y1="80.38" x2="413.61" y2="76.3" fill="none" stroke="#c3f0f7" stroke-linecap="round" stroke-linejoin="round" stroke-width="2"/><line x1="409.44" y1="67.75" x2="401.18" y2="70.63" fill="none" stroke="#c3f0f7" stroke-linecap="round" stroke-linejoin="round" stroke-width="2"/><line x1="402.33" y1="130.23" x2="419.72" y2="124.17" fill="none" stroke="#c3f0f7" stroke-linecap="round" stroke-linejoin="round" stroke-width="2"/><line x1="419.18" y1="114.36" x2="402.71" y2="120.1" fill="none" stroke="#c3f0f7" stroke-linecap="round" stroke-linejoin="round" stroke-width="2"/><line x1="402.77" y1="100.08" x2="417.11" y2="95.08" fill="none" stroke="#c3f0f7" stroke-linecap="round" stroke-linejoin="round" stroke-width="2"/><line x1="415.55" y1="85.62" x2="402.45" y2="90.19" fill="none" stroke="#c3f0f7" stroke-linecap="round" stroke-linejoin="round" stroke-width="2"/><line x1="401.71" y1="140.45" x2="419.93" y2="134.1" fill="none" stroke="#c3f0f7" stroke-linecap="round" stroke-linejoin="round" stroke-width="2"/><line x1="419.72" y1="124.17" x2="402.33" y2="130.23" fill="none" stroke="#c3f0f7" stroke-linecap="round" stroke-linejoin="round" stroke-width="2"/><line x1="392.29" y1="193.73" x2="415.83" y2="185.53" fill="none" stroke="#c3f0f7" stroke-linecap="round" stroke-linejoin="round" stroke-width="2"/><line x1="417.38" y1="174.99" x2="396.74" y2="182.18" fill="none" stroke="#c3f0f7" stroke-linecap="round" stroke-linejoin="round" stroke-width="2"/><line x1="399.75" y1="161.13" x2="419.35" y2="154.3" fill="none" stroke="#c3f0f7" stroke-linecap="round" stroke-linejoin="round" stroke-width="2"/><line x1="419.81" y1="144.14" x2="400.85" y2="150.75" fill="none" stroke="#c3f0f7" stroke-linecap="round" stroke-linejoin="round" stroke-width="2"/><line x1="400.85" y1="150.75" x2="419.81" y2="144.14" fill="none" stroke="#c3f0f7" stroke-linecap="round" stroke-linejoin="round" stroke-width="2"/><line x1="419.93" y1="134.1" x2="401.71" y2="140.45" fill="none" stroke="#c3f0f7" stroke-linecap="round" stroke-linejoin="round" stroke-width="2"/></svg>