<svg id="Layer_1" data-name="Layer 1" xmlns="http://www.w3.org/2000/svg" viewBox="0 0 450 450"><title>hki-mies</title><circle cx="341.72" cy="399.85" r="1.49" fill="#fff"/><circle cx="336.76" cy="394.89" r="1.49" fill="#fff"/><path d="M331.81,391.43a1.47,1.47,0,0,0,.66-.16l-2.07-.88A1.48,1.48,0,0,0,331.81,391.43Z" fill="#fff"/><path d="M326.85,393.41a1.49,1.49,0,1,0,1.05.44A1.48,1.48,0,0,0,326.85,393.41Z" fill="#fff"/><path d="M345.84,403.57a1.48,1.48,0,0,0-.64,1.09,10.88,10.88,0,0,0,.89-1.22A1.48,1.48,0,0,0,345.84,403.57Z" fill="#fff"/><circle cx="336.76" cy="404.8" r="1.49" fill="#fff"/><circle cx="331.81" cy="409.76" r="1.49" fill="#fff"/><circle cx="331.81" cy="399.85" r="1.49" fill="#fff"/><path d="M326.85,413.23a1.49,1.49,0,0,0-1.49,1.49,1.48,1.48,0,0,0,.66,1.23,1.48,1.48,0,0,0,.83.25l.21,0,.77-.35.07-.06a1.49,1.49,0,0,0-1.05-2.54Z" fill="#fff"/><path d="M326.85,403.32a1.49,1.49,0,1,0,1.05.44A1.48,1.48,0,0,0,326.85,403.32Z" fill="#fff"/><circle cx="316.94" cy="394.89" r="1.49" fill="#fff"/><path d="M316.94,386.47a1.48,1.48,0,0,0,1.47-1.35L315.83,384a1.48,1.48,0,0,0,1.12,2.46Z" fill="#fff"/><circle cx="311.99" cy="389.94" r="1.49" fill="#fff"/><circle cx="321.9" cy="389.94" r="1.49" fill="#fff"/><path d="M307,393.41a1.49,1.49,0,1,0,1.46,1.19A1.49,1.49,0,0,0,307,393.41Z" fill="#fff"/><path d="M307,383.5a1.49,1.49,0,1,0,1.46,1.19A1.49,1.49,0,0,0,307,383.5Z" fill="#fff"/><path d="M316.94,413.23a1.49,1.49,0,1,0,1.49,1.49A1.49,1.49,0,0,0,316.94,413.23Z" fill="#fff"/><circle cx="316.94" cy="404.8" r="1.49" fill="#fff"/><circle cx="311.99" cy="409.76" r="1.49" fill="#fff"/><circle cx="321.9" cy="409.76" r="1.49" fill="#fff"/><circle cx="311.99" cy="399.85" r="1.49" fill="#fff"/><circle cx="321.9" cy="399.85" r="1.49" fill="#fff"/><path d="M307,413.23a1.49,1.49,0,1,0,1.46,1.19A1.49,1.49,0,0,0,307,413.23Z" fill="#fff"/><path d="M307,403.32a1.49,1.49,0,1,0,1.46,1.19A1.49,1.49,0,0,0,307,403.32Z" fill="#fff"/><circle cx="311.99" cy="419.67" r="1.49" fill="#fff"/><path d="M320.59,419l1.74-.72a1.45,1.45,0,0,0-1.74.72Z" fill="#fff"/><circle cx="297.13" cy="394.89" r="1.49" fill="#fff"/><circle cx="297.13" cy="384.98" r="1.49" fill="#fff"/><circle cx="292.17" cy="389.94" r="1.49" fill="#fff"/><circle cx="302.08" cy="389.94" r="1.49" fill="#fff"/><circle cx="292.17" cy="380.03" r="1.49" fill="#fff"/><path d="M301,379a1.5,1.5,0,1,0,2.46.66Q302.3,379.28,301,379Z" fill="#fff"/><path d="M287.22,393.41a1.49,1.49,0,1,0,1.49,1.49A1.48,1.48,0,0,0,287.22,393.41Z" fill="#fff"/><path d="M287.22,383.5A1.49,1.49,0,1,0,288.7,385,1.48,1.48,0,0,0,287.22,383.5Z" fill="#fff"/><path d="M287.68,376.48l-.47-.06-.81-.1a1.43,1.43,0,0,0,1.28.16Z" fill="#fff"/><path d="M297.13,413.23a1.49,1.49,0,1,0,1.49,1.49A1.49,1.49,0,0,0,297.13,413.23Z" fill="#fff"/><circle cx="297.13" cy="404.8" r="1.49" fill="#fff"/><circle cx="292.17" cy="409.76" r="1.49" fill="#fff"/><circle cx="302.08" cy="409.76" r="1.49" fill="#fff"/><circle cx="292.17" cy="399.85" r="1.49" fill="#fff"/><circle cx="302.08" cy="399.85" r="1.49" fill="#fff"/><path d="M287.22,413.23a1.49,1.49,0,1,0,1.49,1.49A1.48,1.48,0,0,0,287.22,413.23Z" fill="#fff"/><path d="M287.22,403.32a1.49,1.49,0,1,0,1.49,1.49A1.48,1.48,0,0,0,287.22,403.32Z" fill="#fff"/><path d="M305.56,424.56l1.48-.5,1.13-.39a1.48,1.48,0,0,0-2.61.89Z" fill="#fff"/><circle cx="297.13" cy="424.62" r="1.49" fill="#fff"/><path d="M290.77,429.11l2.36-.67a1.47,1.47,0,0,0-2.36.67Z" fill="#fff"/><circle cx="292.17" cy="419.67" r="1.49" fill="#fff"/><circle cx="302.08" cy="419.67" r="1.49" fill="#fff"/><path d="M287.22,423.14a1.49,1.49,0,1,0,1.49,1.49A1.48,1.48,0,0,0,287.22,423.14Z" fill="#fff"/><path d="M267.4,374.93l-1.47,0a1.47,1.47,0,0,0,0,.19,1.49,1.49,0,1,0,3,0s0-.06,0-.09Z" fill="#fff"/><circle cx="277.31" cy="394.89" r="1.49" fill="#fff"/><circle cx="277.31" cy="384.98" r="1.49" fill="#fff"/><circle cx="272.35" cy="389.94" r="1.49" fill="#fff"/><circle cx="282.26" cy="389.94" r="1.49" fill="#fff"/><circle cx="272.35" cy="380.03" r="1.49" fill="#fff"/><circle cx="282.26" cy="380.03" r="1.49" fill="#fff"/><path d="M267.4,393.41a1.49,1.49,0,1,0,1.49,1.49A1.48,1.48,0,0,0,267.4,393.41Z" fill="#fff"/><path d="M267.4,383.5a1.49,1.49,0,1,0,1.49,1.49A1.48,1.48,0,0,0,267.4,383.5Z" fill="#fff"/><path d="M277.31,376.56a1.48,1.48,0,0,0,1.4-1l-2.86-.2A1.49,1.49,0,0,0,277.31,376.56Z" fill="#fff"/><path d="M277.31,413.23a1.49,1.49,0,1,0,1.49,1.49A1.49,1.49,0,0,0,277.31,413.23Z" fill="#fff"/><circle cx="277.31" cy="404.8" r="1.49" fill="#fff"/><circle cx="272.35" cy="409.76" r="1.49" fill="#fff"/><circle cx="282.26" cy="409.76" r="1.49" fill="#fff"/><circle cx="272.35" cy="399.85" r="1.49" fill="#fff"/><circle cx="282.26" cy="399.85" r="1.49" fill="#fff"/><path d="M267.4,413.23a1.49,1.49,0,1,0,1.49,1.49A1.48,1.48,0,0,0,267.4,413.23Z" fill="#fff"/><path d="M267.4,403.32a1.49,1.49,0,1,0,1.49,1.49A1.48,1.48,0,0,0,267.4,403.32Z" fill="#fff"/><circle cx="277.31" cy="424.62" r="1.49" fill="#fff"/><circle cx="272.35" cy="429.58" r="1.49" fill="#fff"/><circle cx="282.26" cy="429.58" r="1.49" fill="#fff"/><circle cx="272.35" cy="419.67" r="1.49" fill="#fff"/><circle cx="282.26" cy="419.67" r="1.49" fill="#fff"/><path d="M267.4,433a1.47,1.47,0,0,0-1.42,1.07c.44,0,.91,0,1.42-.08l1.34-.13A1.48,1.48,0,0,0,267.4,433Z" fill="#fff"/><path d="M267.4,423.14a1.49,1.49,0,1,0,1.49,1.49A1.48,1.48,0,0,0,267.4,423.14Z" fill="#fff"/><path d="M256.06,374.68a1.49,1.49,0,1,0,2.87,0Z" fill="#fff"/><path d="M247.58,374.68l-1.43,0a1.49,1.49,0,1,0,2.86,0Z" fill="#fff"/><circle cx="257.49" cy="394.89" r="1.49" fill="#fff"/><circle cx="257.49" cy="384.98" r="1.49" fill="#fff"/><circle cx="252.53" cy="389.94" r="1.49" fill="#fff"/><circle cx="262.44" cy="389.94" r="1.49" fill="#fff"/><circle cx="252.53" cy="380.03" r="1.49" fill="#fff"/><circle cx="262.44" cy="380.03" r="1.49" fill="#fff"/><path d="M247.58,393.41a1.49,1.49,0,1,0,1.49,1.49A1.48,1.48,0,0,0,247.58,393.41Z" fill="#fff"/><path d="M247.58,383.5a1.49,1.49,0,1,0,1.49,1.49A1.48,1.48,0,0,0,247.58,383.5Z" fill="#fff"/><path d="M257.49,413.23a1.49,1.49,0,1,0,1.49,1.49A1.49,1.49,0,0,0,257.49,413.23Z" fill="#fff"/><circle cx="257.49" cy="404.8" r="1.49" fill="#fff"/><circle cx="252.53" cy="409.76" r="1.49" fill="#fff"/><circle cx="262.44" cy="409.76" r="1.49" fill="#fff"/><circle cx="252.53" cy="399.85" r="1.49" fill="#fff"/><circle cx="262.44" cy="399.85" r="1.49" fill="#fff"/><path d="M247.58,413.23a1.49,1.49,0,0,0-1.49,1.49,1.48,1.48,0,0,0,.66,1.23,1.49,1.49,0,1,0,.83-2.72Z" fill="#fff"/><path d="M247.58,403.32a1.49,1.49,0,1,0,1.49,1.49A1.48,1.48,0,0,0,247.58,403.32Z" fill="#fff"/><path d="M257.49,433a1.48,1.48,0,0,0-1.47,1.29l2.92-.11A1.49,1.49,0,0,0,257.49,433Z" fill="#fff"/><circle cx="257.49" cy="424.62" r="1.49" fill="#fff"/><circle cx="252.53" cy="429.58" r="1.49" fill="#fff"/><circle cx="262.44" cy="429.58" r="1.49" fill="#fff"/><circle cx="252.53" cy="419.67" r="1.49" fill="#fff"/><circle cx="262.44" cy="419.67" r="1.49" fill="#fff"/><path d="M247.58,433a1.49,1.49,0,0,0-1.49,1.49,1.46,1.46,0,0,0,0,.18l1.47,0,1.48-.05s0,0,0-.07A1.49,1.49,0,0,0,247.58,433Z" fill="#fff"/><path d="M247.58,423.14a1.49,1.49,0,1,0,1.49,1.49A1.48,1.48,0,0,0,247.58,423.14Z" fill="#fff"/><path d="M236.2,375s0,.08,0,.12a1.49,1.49,0,1,0,3,0,1.46,1.46,0,0,0,0-.22Z" fill="#fff"/><circle cx="237.67" cy="394.89" r="1.49" fill="#fff"/><circle cx="237.67" cy="384.98" r="1.49" fill="#fff"/><circle cx="232.71" cy="389.94" r="1.49" fill="#fff"/><circle cx="242.62" cy="389.94" r="1.49" fill="#fff"/><circle cx="232.71" cy="380.03" r="1.49" fill="#fff"/><circle cx="242.62" cy="380.03" r="1.49" fill="#fff"/><path d="M227.76,393.41a1.49,1.49,0,1,0,1.23.66A1.48,1.48,0,0,0,227.76,393.41Z" fill="#fff"/><path d="M227.76,383.5a1.49,1.49,0,1,0,1.23.66A1.48,1.48,0,0,0,227.76,383.5Z" fill="#fff"/><path d="M237.67,413.23a1.49,1.49,0,1,0,1.49,1.49A1.49,1.49,0,0,0,237.67,413.23Z" fill="#fff"/><circle cx="237.67" cy="404.8" r="1.49" fill="#fff"/><circle cx="232.71" cy="409.76" r="1.49" fill="#fff"/><circle cx="242.62" cy="409.76" r="1.49" fill="#fff"/><circle cx="232.71" cy="399.85" r="1.49" fill="#fff"/><circle cx="242.62" cy="399.85" r="1.49" fill="#fff"/><path d="M227.76,413.23a1.49,1.49,0,0,0-1.49,1.49,1.48,1.48,0,0,0,.66,1.23,1.49,1.49,0,1,0,.83-2.72Z" fill="#fff"/><path d="M227.76,403.32A1.49,1.49,0,1,0,229,404,1.48,1.48,0,0,0,227.76,403.32Z" fill="#fff"/><path d="M237.67,433a1.47,1.47,0,0,0-1.43,1.88l2.87,0a1.47,1.47,0,0,0-1.44-1.84Z" fill="#fff"/><circle cx="237.67" cy="424.62" r="1.49" fill="#fff"/><circle cx="232.71" cy="429.58" r="1.49" fill="#fff"/><circle cx="242.62" cy="429.58" r="1.49" fill="#fff"/><circle cx="232.71" cy="419.67" r="1.49" fill="#fff"/><circle cx="242.62" cy="419.67" r="1.49" fill="#fff"/><path d="M227.76,433a1.47,1.47,0,0,0-1.44,1.84l1.44,0,1.43,0a1.44,1.44,0,0,0-.19-1.23A1.48,1.48,0,0,0,227.76,433Z" fill="#fff"/><path d="M227.76,423.14a1.49,1.49,0,1,0,1.23.66A1.48,1.48,0,0,0,227.76,423.14Z" fill="#fff"/><circle cx="217.85" cy="394.89" r="1.49" fill="#fff"/><circle cx="217.85" cy="384.98" r="1.49" fill="#fff"/><circle cx="212.9" cy="389.94" r="1.49" fill="#fff"/><circle cx="222.81" cy="389.94" r="1.49" fill="#fff"/><circle cx="212.9" cy="380.03" r="1.49" fill="#fff"/><circle cx="222.81" cy="380.03" r="1.49" fill="#fff"/><path d="M207.94,393.41a1.49,1.49,0,1,0,1.05.44A1.48,1.48,0,0,0,207.94,393.41Z" fill="#fff"/><path d="M207.94,383.5a1.49,1.49,0,1,0,1.05.44A1.48,1.48,0,0,0,207.94,383.5Z" fill="#fff"/><path d="M226.93,376.31a1.47,1.47,0,0,0,2.3-1l-1.47.08-1.43.09A1.49,1.49,0,0,0,226.93,376.31Z" fill="#fff"/><path d="M219,376l-2.2.18A1.47,1.47,0,0,0,219,376Z" fill="#fff"/><path d="M217.85,413.23a1.49,1.49,0,1,0,1.49,1.49A1.49,1.49,0,0,0,217.85,413.23Z" fill="#fff"/><circle cx="217.85" cy="404.8" r="1.49" fill="#fff"/><circle cx="212.9" cy="409.76" r="1.49" fill="#fff"/><circle cx="222.81" cy="409.76" r="1.49" fill="#fff"/><circle cx="212.9" cy="399.85" r="1.49" fill="#fff"/><circle cx="222.81" cy="399.85" r="1.49" fill="#fff"/><path d="M207.94,413.23a1.49,1.49,0,1,0,1.05.44A1.48,1.48,0,0,0,207.94,413.23Z" fill="#fff"/><path d="M207.94,403.32a1.49,1.49,0,1,0,1.05.44A1.48,1.48,0,0,0,207.94,403.32Z" fill="#fff"/><path d="M217.85,433a1.49,1.49,0,0,0-1.48,1.47l.29,0,2.67.13s0-.09,0-.13A1.49,1.49,0,0,0,217.85,433Z" fill="#fff"/><circle cx="217.85" cy="424.62" r="1.49" fill="#fff"/><circle cx="212.9" cy="429.58" r="1.49" fill="#fff"/><circle cx="222.81" cy="429.58" r="1.49" fill="#fff"/><circle cx="212.9" cy="419.67" r="1.49" fill="#fff"/><circle cx="222.81" cy="419.67" r="1.49" fill="#fff"/><path d="M207.94,433a1.47,1.47,0,0,0-1.26.7l1.26.13,1.38.13a1.47,1.47,0,0,0-1.38-1Z" fill="#fff"/><path d="M207.94,423.14a1.49,1.49,0,1,0,1.05.44A1.48,1.48,0,0,0,207.94,423.14Z" fill="#fff"/><circle cx="198.03" cy="394.89" r="1.49" fill="#fff"/><circle cx="198.03" cy="384.98" r="1.49" fill="#fff"/><circle cx="193.08" cy="389.94" r="1.49" fill="#fff"/><circle cx="202.99" cy="389.94" r="1.49" fill="#fff"/><path d="M191.78,379.33a1.47,1.47,0,0,0-.18.7,1.49,1.49,0,1,0,2.49-1.09Z" fill="#fff"/><circle cx="202.99" cy="380.03" r="1.49" fill="#fff"/><path d="M188.12,393.41a1.49,1.49,0,1,0,1.05.44A1.48,1.48,0,0,0,188.12,393.41Z" fill="#fff"/><path d="M188.12,383.5a1.49,1.49,0,1,0,1.05.44A1.48,1.48,0,0,0,188.12,383.5Z" fill="#fff"/><path d="M198,413.23a1.49,1.49,0,1,0,1.49,1.49A1.49,1.49,0,0,0,198,413.23Z" fill="#fff"/><circle cx="198.03" cy="404.8" r="1.49" fill="#fff"/><circle cx="193.08" cy="409.76" r="1.49" fill="#fff"/><circle cx="202.99" cy="409.76" r="1.49" fill="#fff"/><circle cx="193.08" cy="399.85" r="1.49" fill="#fff"/><circle cx="202.99" cy="399.85" r="1.49" fill="#fff"/><path d="M188.12,413.23a1.49,1.49,0,1,0,1.05.44A1.48,1.48,0,0,0,188.12,413.23Z" fill="#fff"/><path d="M188.12,403.32a1.49,1.49,0,1,0,1.05.44A1.48,1.48,0,0,0,188.12,403.32Z" fill="#fff"/><circle cx="198.03" cy="424.62" r="1.49" fill="#fff"/><circle cx="193.08" cy="429.58" r="1.49" fill="#fff"/><circle cx="202.99" cy="429.58" r="1.49" fill="#fff"/><circle cx="193.08" cy="419.67" r="1.49" fill="#fff"/><circle cx="202.99" cy="419.67" r="1.49" fill="#fff"/><path d="M188.12,423.14a1.49,1.49,0,1,0,1.05.44A1.48,1.48,0,0,0,188.12,423.14Z" fill="#fff"/><circle cx="178.21" cy="394.89" r="1.49" fill="#fff"/><circle cx="178.21" cy="384.98" r="1.49" fill="#fff"/><circle cx="173.26" cy="389.94" r="1.49" fill="#fff"/><circle cx="183.17" cy="389.94" r="1.49" fill="#fff"/><path d="M184.48,380.71l-2.24.48a1.47,1.47,0,0,0,2.24-.48Z" fill="#fff"/><path d="M168.3,393.41a1.49,1.49,0,1,0,1.05.44A1.48,1.48,0,0,0,168.3,393.41Z" fill="#fff"/><path d="M168.3,385l-1.41.48a1.48,1.48,0,0,0,2.89-.46,1.47,1.47,0,0,0-.09-.48Z" fill="#fff"/><path d="M178.21,413.23a1.49,1.49,0,1,0,1.49,1.49A1.49,1.49,0,0,0,178.21,413.23Z" fill="#fff"/><circle cx="178.21" cy="404.8" r="1.49" fill="#fff"/><circle cx="173.26" cy="409.76" r="1.49" fill="#fff"/><circle cx="183.17" cy="409.76" r="1.49" fill="#fff"/><circle cx="173.26" cy="399.85" r="1.49" fill="#fff"/><circle cx="183.17" cy="399.85" r="1.49" fill="#fff"/><path d="M168.3,413.23a1.49,1.49,0,0,0-1.49,1.49,1.48,1.48,0,0,0,.66,1.23,1.49,1.49,0,1,0,.83-2.72Z" fill="#fff"/><path d="M168.3,403.32a1.49,1.49,0,1,0,1.05.44A1.48,1.48,0,0,0,168.3,403.32Z" fill="#fff"/><circle cx="178.21" cy="424.62" r="1.49" fill="#fff"/><path d="M183.17,428.09a1.48,1.48,0,0,0-1.41,1q1.42.41,2.85.79a1.47,1.47,0,0,0-1.44-1.83Z" fill="#fff"/><circle cx="173.26" cy="419.67" r="1.49" fill="#fff"/><circle cx="183.17" cy="419.67" r="1.49" fill="#fff"/><path d="M168.3,423.14a1.48,1.48,0,0,0-1,.43l1,.51,1.47.69a1.47,1.47,0,0,0,0-.15,1.49,1.49,0,0,0-1.49-1.49Z" fill="#fff"/><circle cx="158.39" cy="394.89" r="1.49" fill="#fff"/><circle cx="163.35" cy="389.94" r="1.49" fill="#fff"/><path d="M158.39,413.23a1.49,1.49,0,1,0,1.49,1.49A1.49,1.49,0,0,0,158.39,413.23Z" fill="#fff"/><circle cx="158.39" cy="404.8" r="1.49" fill="#fff"/><circle cx="153.44" cy="409.76" r="1.49" fill="#fff"/><circle cx="163.35" cy="409.76" r="1.49" fill="#fff"/><circle cx="153.44" cy="399.85" r="1.49" fill="#fff"/><circle cx="163.35" cy="399.85" r="1.49" fill="#fff"/><path d="M148.49,403.32a1.48,1.48,0,0,0-1.31.8,11.61,11.61,0,0,0,.54,2,1.48,1.48,0,0,0,2.22-1,1.49,1.49,0,0,0-1.46-1.79Z" fill="#fff"/><path d="M149.94,395.21q-.44.51-.82,1A1.49,1.49,0,0,0,149.94,395.21Z" fill="#fff"/><circle cx="163.35" cy="419.67" r="1.49" fill="#fff"/><path d="M329.9,98.66l-.18-3.8L327,39l-9.31-.45L310.5,88.31l-33.57,20.63c-4.18,2.09-8.54,2.16-13.69,1.89L263.64,85H233.1l-3.16,25.71c-8.68.38-14.8-.4-21.27.09a11,11,0,0,0-9.1,6.55l-29.44,49.23-3,4.59,1.11,3.47,18.69,59.78,9.1-2-7.47-56.55,13.17-13.73c.17,2,.38,3.84.65,5.63,2.52,16.71,5.26,38.88,6.52,50,.56,4.92.49,14.72,3.85,15,6.24.61,19.65-5.21,32.68-5.21,12.41,0,20.66,3.56,25.82,3,3.1-.36,6.7.49,7.36-9.8.63-9.73.61-29,4.32-53.17,1.55-10.09,2.91-21,4-30.52l38.71-34.59Z" fill="#fff" stroke="#fff" stroke-linecap="round" stroke-linejoin="round" stroke-width="2"/><path d="M277.45,226l-68,1,.32,3-.1,3.07-.9,15.52-.8,19.46-1.45,39.47,0,.84,2.44,44.57,1.3,22.28,1.4,22.29,12.55,0,1.47-22.3,1.38-22.3,2.6-44.6,0,.93,5.07-39.34,2.46-19.68,1.34-3.59,1.48-.08,4.83.3c.05,2.69,1,5.2,1,8.18.1,7.9.28,17,.35,26.93q.07,7.41.14,15.19l.07,7.81,0,2v1.5l.06,1,.22,3.94,1.76,30.9,1.42,27,1.24,26.3,12.55,0,1.34-26.29,1.51-26.95,1.87-30.89.24-3.94.06-1v-.12c0-.13,0,.94,0,.46v-.06l0-.25.05-.49.21-2,.83-7.79,1.61-15.14c1-9.82,2.09-19,3-26.84s1.68-14.4,2.21-19C276.75,235.05,277.45,226,277.45,226Z" fill="#fff" stroke="#fff" stroke-linecap="round" stroke-linejoin="round" stroke-width="2"/><polygon points="224.2 412.26 194.61 415.85 194.61 410.02 210.75 397.46 224.2 397.46 224.2 412.26" fill="#fff" stroke="#fff" stroke-linecap="round" stroke-linejoin="round" stroke-width="2"/><polygon points="264.64 412.26 235.05 415.85 235.05 410.02 251.19 397.46 263.64 397.46 264.64 412.26" fill="#fff" stroke="#fff" stroke-linecap="round" stroke-linejoin="round" stroke-width="2"/><polygon points="328.85 17.68 319.77 14.18 316.34 28.03 309.86 23.63 306.7 26.77 317.56 39.68 319.28 40.7 321.95 40.59 327.45 42.49 331.65 31.13 328.85 17.68" fill="#fff" stroke="#fff" stroke-linecap="round" stroke-linejoin="round" stroke-width="2"/><polygon points="195.31 229.03 207.08 241.93 203.92 245.08 195.63 239.46 195.31 229.03" fill="#fff" stroke="#fff" stroke-linecap="round" stroke-linejoin="round" stroke-width="2"/><polygon points="185.96 230.08 195.42 229.19 201.28 236.03 203.88 253.3 194.15 253.54 186.42 242.18 185.96 230.08" fill="#fff" stroke="#fff" stroke-linecap="round" stroke-linejoin="round" stroke-width="2"/><path d="M265,72.11c0,10.44-2.16,22.46-16.58,22.46-13.75,0-16.58-12-16.58-22.46,0-16.51,9.39-18.9,16.58-18.9S265,55.95,265,72.11Z" fill="#fff" stroke="#fff" stroke-linecap="round" stroke-linejoin="round" stroke-width="2"/><path d="M229.16,111s3.41,6.67,15.67,6.67S264.11,111,264.11,111" fill="#fff" stroke="#fff" stroke-linecap="round" stroke-linejoin="round" stroke-width="2"/><line x1="288.24" y1="102" x2="304.8" y2="121.08" fill="#fff" stroke="#fff" stroke-linecap="round" stroke-linejoin="round" stroke-width="2"/><line x1="184.86" y1="141.47" x2="198.77" y2="165.18" fill="#fff" stroke="#fff" stroke-linecap="round" stroke-linejoin="round" stroke-width="2"/><line x1="277" y1="222" x2="271" y2="222" fill="#fff" stroke="#fff" stroke-linecap="round" stroke-linejoin="round" stroke-width="2"/><line x1="279" y1="214" x2="272" y2="214" fill="#fff" stroke="#fff" stroke-linecap="round" stroke-linejoin="round" stroke-width="2"/><line x1="279" y1="207" x2="271" y2="207" fill="#fff" stroke="#fff" stroke-linecap="round" stroke-linejoin="round" stroke-width="2"/><line x1="280" y1="199" x2="270" y2="199" fill="#fff" stroke="#fff" stroke-linecap="round" stroke-linejoin="round" stroke-width="2"/><line x1="280" y1="191" x2="270" y2="191" fill="#fff" stroke="#fff" stroke-linecap="round" stroke-linejoin="round" stroke-width="2"/><line x1="281" y1="184" x2="269" y2="184" fill="#fff" stroke="#fff" stroke-linecap="round" stroke-linejoin="round" stroke-width="2"/><line x1="281" y1="176" x2="268" y2="176" fill="#fff" stroke="#fff" stroke-linecap="round" stroke-linejoin="round" stroke-width="2"/><line x1="282" y1="169" x2="267" y2="169" fill="#fff" stroke="#fff" stroke-linecap="round" stroke-linejoin="round" stroke-width="2"/><line x1="283" y1="161" x2="268" y2="161" fill="#fff" stroke="#fff" stroke-linecap="round" stroke-linejoin="round" stroke-width="2"/><line x1="285" y1="153" x2="270" y2="153" fill="#fff" stroke="#fff" stroke-linecap="round" stroke-linejoin="round" stroke-width="2"/><line x1="285" y1="146" x2="274" y2="146" fill="#fff" stroke="#fff" stroke-linecap="round" stroke-linejoin="round" stroke-width="2"/><line x1="287" y1="138" x2="276" y2="138" fill="#fff" stroke="#fff" stroke-linecap="round" stroke-linejoin="round" stroke-width="2"/><line x1="294" y1="131" x2="277" y2="131" fill="#fff" stroke="#fff" stroke-linecap="round" stroke-linejoin="round" stroke-width="2"/><line x1="302" y1="124" x2="277" y2="124" fill="#fff" stroke="#fff" stroke-linecap="round" stroke-linejoin="round" stroke-width="2"/><line x1="302" y1="118" x2="274" y2="118" fill="#fff" stroke="#fff" stroke-linecap="round" stroke-linejoin="round" stroke-width="2"/><line x1="297" y1="112" x2="272" y2="112" fill="#fff" stroke="#fff" stroke-linecap="round" stroke-linejoin="round" stroke-width="2"/><line x1="293" y1="107" x2="281" y2="107" fill="#fff" stroke="#fff" stroke-linecap="round" stroke-linejoin="round" stroke-width="2"/><path d="M246.63,53.27s2.38,3.48,1,6.23a16.41,16.41,0,0,1-4.63,5" fill="#fff" stroke="#fff" stroke-linecap="round" stroke-linejoin="round" stroke-width="2"/><path d="M243,53.79a8.11,8.11,0,0,1-.37,5.71,5.11,5.11,0,0,1-3.63,3" fill="#fff" stroke="#fff" stroke-linecap="round" stroke-linejoin="round" stroke-width="2"/><path d="M251.73,54.1a8.1,8.1,0,0,1,0,5.16,10.44,10.44,0,0,1-2.8,4.51" fill="#fff" stroke="#fff" stroke-linecap="round" stroke-linejoin="round" stroke-width="2"/><path d="M257.09,55.07a17,17,0,0,1-.35,5c-.6,3-2.18,3.78-2.18,3.78" fill="#fff" stroke="#fff" stroke-linecap="round" stroke-linejoin="round" stroke-width="2"/></svg>