<svg id="Layer_1" data-name="Layer 1" xmlns="http://www.w3.org/2000/svg" viewBox="0 0 450 450"><title>hki-tietoaineisto</title><path d="M375.93,347c2.29,9.2-31.56,28.9-81.32,30.15S209,373.4,203,361.55V329.37L374.89,315Z" fill="#05c2de" stroke="#c3f0f7" stroke-linecap="round" stroke-linejoin="round" stroke-width="2"/><path d="M285.71,297.55c-57.14,2.46-84.64,20.13-80.07,32s40.6,16.84,90.36,15.59,82.35-20.92,80.07-30.11S338.9,295.26,285.71,297.55Z" fill="#05c2de" stroke="#c3f0f7" stroke-linecap="round" stroke-linejoin="round" stroke-width="2"/><path d="M241.06,343.17l30.5-44.07" fill="none" stroke="#c3f0f7" stroke-linecap="round" stroke-linejoin="round" stroke-width="2"/><path d="M260.8,300.38l-28.68,41.44" fill="none" stroke="#c3f0f7" stroke-linecap="round" stroke-linejoin="round" stroke-width="2"/><path d="M250.28,344.12l31.7-45.8" fill="none" stroke="#c3f0f7" stroke-linecap="round" stroke-linejoin="round" stroke-width="2"/><path d="M271.56,299.1l-30.5,44.07" fill="none" stroke="#c3f0f7" stroke-linecap="round" stroke-linejoin="round" stroke-width="2"/><path d="M259.72,344.75l32.41-46.84" fill="none" stroke="#c3f0f7" stroke-linecap="round" stroke-linejoin="round" stroke-width="2"/><path d="M282,298.32l-31.7,45.8" fill="none" stroke="#c3f0f7" stroke-linecap="round" stroke-linejoin="round" stroke-width="2"/><path d="M215.58,337.19l22.13-32" fill="none" stroke="#c3f0f7" stroke-linecap="round" stroke-linejoin="round" stroke-width="2"/><path d="M224.59,309.9l-15.84,22.88" fill="none" stroke="#c3f0f7" stroke-linecap="round" stroke-linejoin="round" stroke-width="2"/><path d="M269.34,345.13l32.74-47.3" fill="none" stroke="#c3f0f7" stroke-linecap="round" stroke-linejoin="round" stroke-width="2"/><path d="M292.14,297.91l-32.41,46.84" fill="none" stroke="#c3f0f7" stroke-linecap="round" stroke-linejoin="round" stroke-width="2"/><path d="M223.56,339.93l26-37.61" fill="none" stroke="#c3f0f7" stroke-linecap="round" stroke-linejoin="round" stroke-width="2"/><path d="M237.71,305.21l-22.13,32" fill="none" stroke="#c3f0f7" stroke-linecap="round" stroke-linejoin="round" stroke-width="2"/><path d="M232.12,341.82l28.68-41.44" fill="none" stroke="#c3f0f7" stroke-linecap="round" stroke-linejoin="round" stroke-width="2"/><path d="M249.59,302.31l-26,37.61" fill="none" stroke="#c3f0f7" stroke-linecap="round" stroke-linejoin="round" stroke-width="2"/><path d="M279.11,345.28,311.8,298" fill="none" stroke="#c3f0f7" stroke-linecap="round" stroke-linejoin="round" stroke-width="2"/><path d="M302.07,297.82l-32.74,47.3" fill="none" stroke="#c3f0f7" stroke-linecap="round" stroke-linejoin="round" stroke-width="2"/><path d="M343.88,337.3l20.81-30.06" fill="none" stroke="#c3f0f7" stroke-linecap="round" stroke-linejoin="round" stroke-width="2"/><path d="M356.75,304.43l-25.09,36.25" fill="none" stroke="#c3f0f7" stroke-linecap="round" stroke-linejoin="round" stroke-width="2"/><path d="M357.49,331.9l14.32-20.7" fill="none" stroke="#c3f0f7" stroke-linecap="round" stroke-linejoin="round" stroke-width="2"/><path d="M364.69,307.23,343.88,337.3" fill="none" stroke="#c3f0f7" stroke-linecap="round" stroke-linejoin="round" stroke-width="2"/><path d="M320.26,342.9l28.09-40.59" fill="none" stroke="#c3f0f7" stroke-linecap="round" stroke-linejoin="round" stroke-width="2"/><path d="M339.61,300.66l-30.19,43.62" fill="none" stroke="#c3f0f7" stroke-linecap="round" stroke-linejoin="round" stroke-width="2"/><path d="M331.67,340.68l25.09-36.25" fill="none" stroke="#c3f0f7" stroke-linecap="round" stroke-linejoin="round" stroke-width="2"/><path d="M348.35,302.3,320.26,342.9" fill="none" stroke="#c3f0f7" stroke-linecap="round" stroke-linejoin="round" stroke-width="2"/><path d="M309.42,344.28l30.19-43.62" fill="none" stroke="#c3f0f7" stroke-linecap="round" stroke-linejoin="round" stroke-width="2"/><path d="M330.58,299.44,299.06,345" fill="none" stroke="#c3f0f7" stroke-linecap="round" stroke-linejoin="round" stroke-width="2"/><path d="M289,345.23l32.29-46.66" fill="none" stroke="#c3f0f7" stroke-linecap="round" stroke-linejoin="round" stroke-width="2"/><path d="M311.8,298l-32.69,47.24" fill="none" stroke="#c3f0f7" stroke-linecap="round" stroke-linejoin="round" stroke-width="2"/><path d="M299.06,345l31.52-45.54" fill="none" stroke="#c3f0f7" stroke-linecap="round" stroke-linejoin="round" stroke-width="2"/><path d="M321.31,298.57,289,345.23" fill="none" stroke="#c3f0f7" stroke-linecap="round" stroke-linejoin="round" stroke-width="2"/><path d="M378,299.58c2.29,9.2-31.58,28.9-81.33,30.15S209,326,205,314.18V282l171.91-14.36Z" fill="#05c2de" stroke="#c3f0f7" stroke-linecap="round" stroke-linejoin="round" stroke-width="2"/><path d="M287.74,250.18c-57.14,2.46-84.64,20.13-80.07,32S248.28,299,298,297.75s82.35-20.92,80.07-30.11S340.93,247.89,287.74,250.18Z" fill="#05c2de" stroke="#c3f0f7" stroke-linecap="round" stroke-linejoin="round" stroke-width="2"/><path d="M245.06,295.17l30.5-44.07" fill="none" stroke="#c3f0f7" stroke-linecap="round" stroke-linejoin="round" stroke-width="2"/><path d="M264.8,252.38l-28.68,41.44" fill="none" stroke="#c3f0f7" stroke-linecap="round" stroke-linejoin="round" stroke-width="2"/><path d="M254.28,296.12l31.7-45.8" fill="none" stroke="#c3f0f7" stroke-linecap="round" stroke-linejoin="round" stroke-width="2"/><path d="M275.56,251.1l-30.5,44.07" fill="none" stroke="#c3f0f7" stroke-linecap="round" stroke-linejoin="round" stroke-width="2"/><path d="M263.72,296.75l32.41-46.84" fill="none" stroke="#c3f0f7" stroke-linecap="round" stroke-linejoin="round" stroke-width="2"/><path d="M286,250.32l-31.7,45.8" fill="none" stroke="#c3f0f7" stroke-linecap="round" stroke-linejoin="round" stroke-width="2"/><path d="M219.58,289.19l22.13-32" fill="none" stroke="#c3f0f7" stroke-linecap="round" stroke-linejoin="round" stroke-width="2"/><path d="M228.59,261.9l-15.84,22.88" fill="none" stroke="#c3f0f7" stroke-linecap="round" stroke-linejoin="round" stroke-width="2"/><path d="M273.34,297.13l32.74-47.3" fill="none" stroke="#c3f0f7" stroke-linecap="round" stroke-linejoin="round" stroke-width="2"/><path d="M296.14,249.91l-32.41,46.84" fill="none" stroke="#c3f0f7" stroke-linecap="round" stroke-linejoin="round" stroke-width="2"/><path d="M227.56,291.93l26-37.61" fill="none" stroke="#c3f0f7" stroke-linecap="round" stroke-linejoin="round" stroke-width="2"/><path d="M241.71,257.21l-22.13,32" fill="none" stroke="#c3f0f7" stroke-linecap="round" stroke-linejoin="round" stroke-width="2"/><path d="M236.12,293.82l28.68-41.44" fill="none" stroke="#c3f0f7" stroke-linecap="round" stroke-linejoin="round" stroke-width="2"/><path d="M253.59,254.31l-26,37.61" fill="none" stroke="#c3f0f7" stroke-linecap="round" stroke-linejoin="round" stroke-width="2"/><path d="M283.11,297.28,315.8,250" fill="none" stroke="#c3f0f7" stroke-linecap="round" stroke-linejoin="round" stroke-width="2"/><path d="M306.07,249.82l-32.74,47.3" fill="none" stroke="#c3f0f7" stroke-linecap="round" stroke-linejoin="round" stroke-width="2"/><path d="M347.88,289.3l20.81-30.06" fill="none" stroke="#c3f0f7" stroke-linecap="round" stroke-linejoin="round" stroke-width="2"/><path d="M360.75,256.43l-25.09,36.25" fill="none" stroke="#c3f0f7" stroke-linecap="round" stroke-linejoin="round" stroke-width="2"/><path d="M361.49,283.9l14.32-20.7" fill="none" stroke="#c3f0f7" stroke-linecap="round" stroke-linejoin="round" stroke-width="2"/><path d="M368.69,259.23,347.88,289.3" fill="none" stroke="#c3f0f7" stroke-linecap="round" stroke-linejoin="round" stroke-width="2"/><path d="M324.26,294.9l28.09-40.59" fill="none" stroke="#c3f0f7" stroke-linecap="round" stroke-linejoin="round" stroke-width="2"/><path d="M343.61,252.66l-30.19,43.62" fill="none" stroke="#c3f0f7" stroke-linecap="round" stroke-linejoin="round" stroke-width="2"/><path d="M335.67,292.68l25.09-36.25" fill="none" stroke="#c3f0f7" stroke-linecap="round" stroke-linejoin="round" stroke-width="2"/><path d="M352.35,254.3,324.26,294.9" fill="none" stroke="#c3f0f7" stroke-linecap="round" stroke-linejoin="round" stroke-width="2"/><path d="M313.42,296.28l30.19-43.62" fill="none" stroke="#c3f0f7" stroke-linecap="round" stroke-linejoin="round" stroke-width="2"/><path d="M334.58,251.44,303.06,297" fill="none" stroke="#c3f0f7" stroke-linecap="round" stroke-linejoin="round" stroke-width="2"/><path d="M293,297.23l32.29-46.66" fill="none" stroke="#c3f0f7" stroke-linecap="round" stroke-linejoin="round" stroke-width="2"/><path d="M315.8,250l-32.69,47.24" fill="none" stroke="#c3f0f7" stroke-linecap="round" stroke-linejoin="round" stroke-width="2"/><path d="M303.06,297l31.52-45.54" fill="none" stroke="#c3f0f7" stroke-linecap="round" stroke-linejoin="round" stroke-width="2"/><path d="M325.31,250.57,293,297.23" fill="none" stroke="#c3f0f7" stroke-linecap="round" stroke-linejoin="round" stroke-width="2"/><path d="M373.22,256.95c2.29,9.2-31.71,28.9-81.46,30.15S206,283.4,200,271.55l2-32.19L372,225Z" fill="#05c2de" stroke="#c3f0f7" stroke-linecap="round" stroke-linejoin="round" stroke-width="2"/><path d="M283,207.54c-57.14,2.46-84.64,20.13-80.07,32s40.6,16.84,90.36,15.59S375.65,234.2,373.36,225,336.19,205.26,283,207.54Z" fill="#05c2de" stroke="#c3f0f7" stroke-linecap="round" stroke-linejoin="round" stroke-width="2"/><path d="M239.06,253.17l30.5-44.07" fill="none" stroke="#c3f0f7" stroke-linecap="round" stroke-linejoin="round" stroke-width="2"/><path d="M258.8,210.38l-28.68,41.44" fill="none" stroke="#c3f0f7" stroke-linecap="round" stroke-linejoin="round" stroke-width="2"/><path d="M248.28,254.12l31.7-45.8" fill="none" stroke="#c3f0f7" stroke-linecap="round" stroke-linejoin="round" stroke-width="2"/><path d="M269.56,209.1l-30.5,44.07" fill="none" stroke="#c3f0f7" stroke-linecap="round" stroke-linejoin="round" stroke-width="2"/><path d="M257.72,254.75l32.41-46.84" fill="none" stroke="#c3f0f7" stroke-linecap="round" stroke-linejoin="round" stroke-width="2"/><path d="M280,208.32l-31.7,45.8" fill="none" stroke="#c3f0f7" stroke-linecap="round" stroke-linejoin="round" stroke-width="2"/><path d="M213.58,247.19l22.13-32" fill="none" stroke="#c3f0f7" stroke-linecap="round" stroke-linejoin="round" stroke-width="2"/><path d="M222.59,219.9l-15.84,22.88" fill="none" stroke="#c3f0f7" stroke-linecap="round" stroke-linejoin="round" stroke-width="2"/><path d="M267.34,255.13l32.74-47.3" fill="none" stroke="#c3f0f7" stroke-linecap="round" stroke-linejoin="round" stroke-width="2"/><path d="M290.14,207.91l-32.41,46.84" fill="none" stroke="#c3f0f7" stroke-linecap="round" stroke-linejoin="round" stroke-width="2"/><path d="M221.56,249.93l26-37.61" fill="none" stroke="#c3f0f7" stroke-linecap="round" stroke-linejoin="round" stroke-width="2"/><path d="M235.71,215.21l-22.13,32" fill="none" stroke="#c3f0f7" stroke-linecap="round" stroke-linejoin="round" stroke-width="2"/><path d="M230.12,251.82l28.68-41.44" fill="none" stroke="#c3f0f7" stroke-linecap="round" stroke-linejoin="round" stroke-width="2"/><path d="M247.59,212.31l-26,37.61" fill="none" stroke="#c3f0f7" stroke-linecap="round" stroke-linejoin="round" stroke-width="2"/><path d="M277.11,255.28,309.8,208" fill="none" stroke="#c3f0f7" stroke-linecap="round" stroke-linejoin="round" stroke-width="2"/><path d="M300.07,207.82l-32.74,47.3" fill="none" stroke="#c3f0f7" stroke-linecap="round" stroke-linejoin="round" stroke-width="2"/><path d="M341.88,247.3l20.81-30.06" fill="none" stroke="#c3f0f7" stroke-linecap="round" stroke-linejoin="round" stroke-width="2"/><path d="M354.75,214.43l-25.09,36.25" fill="none" stroke="#c3f0f7" stroke-linecap="round" stroke-linejoin="round" stroke-width="2"/><path d="M355.49,241.9l14.32-20.7" fill="none" stroke="#c3f0f7" stroke-linecap="round" stroke-linejoin="round" stroke-width="2"/><path d="M362.69,217.23,341.88,247.3" fill="none" stroke="#c3f0f7" stroke-linecap="round" stroke-linejoin="round" stroke-width="2"/><path d="M318.26,252.9l28.09-40.59" fill="none" stroke="#c3f0f7" stroke-linecap="round" stroke-linejoin="round" stroke-width="2"/><path d="M337.61,210.66l-30.19,43.62" fill="none" stroke="#c3f0f7" stroke-linecap="round" stroke-linejoin="round" stroke-width="2"/><path d="M329.67,250.68l25.09-36.25" fill="none" stroke="#c3f0f7" stroke-linecap="round" stroke-linejoin="round" stroke-width="2"/><path d="M346.35,212.3,318.26,252.9" fill="none" stroke="#c3f0f7" stroke-linecap="round" stroke-linejoin="round" stroke-width="2"/><path d="M307.42,254.28l30.19-43.62" fill="none" stroke="#c3f0f7" stroke-linecap="round" stroke-linejoin="round" stroke-width="2"/><path d="M328.58,209.44,297.06,255" fill="none" stroke="#c3f0f7" stroke-linecap="round" stroke-linejoin="round" stroke-width="2"/><path d="M287,255.23l32.29-46.66" fill="none" stroke="#c3f0f7" stroke-linecap="round" stroke-linejoin="round" stroke-width="2"/><path d="M309.8,208l-32.69,47.24" fill="none" stroke="#c3f0f7" stroke-linecap="round" stroke-linejoin="round" stroke-width="2"/><path d="M297.06,255l31.52-45.54" fill="none" stroke="#c3f0f7" stroke-linecap="round" stroke-linejoin="round" stroke-width="2"/><path d="M319.31,208.57,287,255.23" fill="none" stroke="#c3f0f7" stroke-linecap="round" stroke-linejoin="round" stroke-width="2"/><path d="M379,210.93c2.29,9.2-31.58,28.9-81.33,30.15S210,237.38,206,225.53l2-33.19L377.91,179Z" fill="#05c2de" stroke="#c3f0f7" stroke-linecap="round" stroke-linejoin="round" stroke-width="2"/><path d="M287.74,161.53c-57.14,2.46-84.64,20.13-80.07,32s40.6,16.84,90.36,15.59S380.39,188.18,378.1,179,340.93,159.24,287.74,161.53Z" fill="#05c2de" stroke="#c3f0f7" stroke-linecap="round" stroke-linejoin="round" stroke-width="2"/><path d="M268.29,161.11c31.68-6.25,55-32.61,49.44-50.2-6.93-22-45.08-34.95-79.6-27-46.46,10.74-56.81,38.48-52,53.53C192.27,156.66,217.6,171.11,268.29,161.11Z" fill="#05c2de" stroke="#c3f0f7" stroke-linecap="round" stroke-linejoin="round" stroke-width="2"/><path d="M339.65,128.33l4.82-31.51c.77-5-8.83-7.53-9.67-2L330,126.35c-.77,5,8.83,7.53,9.67,2Z" fill="#05c2de" stroke="#c3f0f7" stroke-linecap="round" stroke-linejoin="round" stroke-width="2"/><path d="M371.32,134.89,389,117.21c3.93-3.93-4.33-9.48-7.94-5.86L363.37,129c-3.93,3.93,4.33,9.48,7.94,5.86Z" fill="#05c2de" stroke="#c3f0f7" stroke-linecap="round" stroke-linejoin="round" stroke-width="2"/><path d="M397.23,166.28l27.58-8.07c6-1.77.81-9.5-4.16-8l-27.58,8.07c-6,1.77-.81,9.5,4.16,8Z" fill="#05c2de" stroke="#c3f0f7" stroke-linecap="round" stroke-linejoin="round" stroke-width="2"/><path d="M213.76,161.28l38.68-79.45" fill="none" stroke="#c3f0f7" stroke-linecap="round" stroke-linejoin="round" stroke-width="2"/><path d="M241.78,83.19l-36.46,74.89" fill="none" stroke="#c3f0f7" stroke-linecap="round" stroke-linejoin="round" stroke-width="2"/><path d="M222.79,163.26l39.74-81.61" fill="none" stroke="#c3f0f7" stroke-linecap="round" stroke-linejoin="round" stroke-width="2"/><path d="M252.44,81.83l-38.68,79.45" fill="none" stroke="#c3f0f7" stroke-linecap="round" stroke-linejoin="round" stroke-width="2"/><path d="M205.31,158.08l36.46-74.89" fill="none" stroke="#c3f0f7" stroke-linecap="round" stroke-linejoin="round" stroke-width="2"/><path d="M230.41,86l-32.82,67.4" fill="none" stroke="#c3f0f7" stroke-linecap="round" stroke-linejoin="round" stroke-width="2"/><path d="M232.32,164.23l39.81-81.77" fill="none" stroke="#c3f0f7" stroke-linecap="round" stroke-linejoin="round" stroke-width="2"/><path d="M262.53,81.65l-39.74,81.61" fill="none" stroke="#c3f0f7" stroke-linecap="round" stroke-linejoin="round" stroke-width="2"/><path d="M185.85,136.45l18.67-38.36" fill="none" stroke="#c3f0f7" stroke-linecap="round" stroke-linejoin="round" stroke-width="2"/><path d="M197.6,153.39,230.41,86" fill="none" stroke="#c3f0f7" stroke-linecap="round" stroke-linejoin="round" stroke-width="2"/><path d="M218.26,90.42l-27.37,56.22" fill="none" stroke="#c3f0f7" stroke-linecap="round" stroke-linejoin="round" stroke-width="2"/><path d="M190.89,146.64l27.37-56.22" fill="none" stroke="#c3f0f7" stroke-linecap="round" stroke-linejoin="round" stroke-width="2"/><path d="M204.52,98.09l-18.67,38.36" fill="none" stroke="#c3f0f7" stroke-linecap="round" stroke-linejoin="round" stroke-width="2"/><path d="M286.92,154.78l25.79-53" fill="none" stroke="#c3f0f7" stroke-linecap="round" stroke-linejoin="round" stroke-width="2"/><path d="M305.89,95.27l-31.3,64.29" fill="none" stroke="#c3f0f7" stroke-linecap="round" stroke-linejoin="round" stroke-width="2"/><path d="M301.51,145.36l16.41-33.71" fill="none" stroke="#c3f0f7" stroke-linecap="round" stroke-linejoin="round" stroke-width="2"/><path d="M312.71,101.81l-25.79,53" fill="none" stroke="#c3f0f7" stroke-linecap="round" stroke-linejoin="round" stroke-width="2"/><path d="M317.92,111.65l-16.41,33.71" fill="none" stroke="#c3f0f7" stroke-linecap="round" stroke-linejoin="round" stroke-width="2"/><path d="M242.29,164.29l39-80.1" fill="none" stroke="#c3f0f7" stroke-linecap="round" stroke-linejoin="round" stroke-width="2"/><path d="M272.13,82.46l-39.81,81.77" fill="none" stroke="#c3f0f7" stroke-linecap="round" stroke-linejoin="round" stroke-width="2"/><path d="M252.67,163.51,290,86.82" fill="none" stroke="#c3f0f7" stroke-linecap="round" stroke-linejoin="round" stroke-width="2"/><path d="M281.29,84.19l-39,80.1" fill="none" stroke="#c3f0f7" stroke-linecap="round" stroke-linejoin="round" stroke-width="2"/><path d="M274.59,159.57l31.3-64.29" fill="none" stroke="#c3f0f7" stroke-linecap="round" stroke-linejoin="round" stroke-width="2"/><path d="M298.25,90.44,263.4,162" fill="none" stroke="#c3f0f7" stroke-linecap="round" stroke-linejoin="round" stroke-width="2"/><path d="M263.4,162l34.84-71.57" fill="none" stroke="#c3f0f7" stroke-linecap="round" stroke-linejoin="round" stroke-width="2"/><path d="M290,86.82l-37.34,76.69" fill="none" stroke="#c3f0f7" stroke-linecap="round" stroke-linejoin="round" stroke-width="2"/></svg>