<?xml version="1.0" encoding="utf-8"?>
<!-- Generator: Adobe Illustrator 21.0.2, SVG Export Plug-In . SVG Version: 6.00 Build 0)  -->
<svg version="1.1" id="Layer_1" xmlns="http://www.w3.org/2000/svg" xmlns:xlink="http://www.w3.org/1999/xlink" x="0px" y="0px"
	 viewBox="0 0 450 450" style="enable-background:new 0 0 450 450;" xml:space="preserve">
<style type="text/css">
	.st0{fill:#FFFFFF;}
</style>
<title>hki-mies</title>
<g>
	<g>
		<path class="st0" d="M291.5,152.8c5.6,0,10.2,4.6,10.2,10.2s-4.6,10.2-10.2,10.2s-10.2-4.6-10.2-10.2S285.9,152.8,291.5,152.8
			 M291.5,140.6c-12.4,0-22.4,10-22.4,22.4c0,12.4,10,22.4,22.4,22.4c12.4,0,22.4-10,22.4-22.4C313.8,150.6,303.8,140.6,291.5,140.6
			L291.5,140.6z"/>
		<path class="st0" d="M317.9,309.4h-52.9v-40.7h-12.2v-44.3c0-10.2,6.4-19.4,15.9-23l22.7-8.5l22.7,8.5c9.5,3.6,15.9,12.8,15.9,23
			v44.3h-12.2V309.4z M277.2,297.2h28.5v-40.7h12.2v-32.1c0-5.1-3.2-9.7-8-11.5l-18.4-6.9l-18.4,6.9c-4.8,1.8-8,6.4-8,11.5v32.1
			h12.2V297.2z"/>
	</g>
	<g>
		<path class="st0" d="M165.9,152.8c5.6,0,10.2,4.6,10.2,10.2s-4.6,10.2-10.2,10.2s-10.2-4.6-10.2-10.2S160.3,152.8,165.9,152.8
			 M165.9,140.6c-12.4,0-22.4,10-22.4,22.4c0,12.4,10,22.4,22.4,22.4c12.4,0,22.4-10,22.4-22.4C188.3,150.6,178.3,140.6,165.9,140.6
			L165.9,140.6z"/>
		<path class="st0" d="M192.4,309.4h-52.9v-22h-19.6l2.9-8.1c0.1-0.2,8.1-23.1,16-62.6c3.3-16.3,12.9-25.2,27.1-25.2
			c14.2,0,23.9,9,27.1,25.2c7.9,39.5,16,62.4,16,62.6l2.9,8.1l-19.6,0V309.4z M151.7,297.2h28.5v-22H195
			c-3.1-10.1-8.5-29.2-13.9-56.1c-2.8-13.8-10-15.4-15.2-15.4c-5.2,0-12.4,1.6-15.2,15.4c-5.4,26.9-10.8,46.1-13.9,56.1h14.8V297.2z
			"/>
	</g>
</g>
<path class="st0" d="M225,433c-114.7,0-208-93.3-208-208S110.3,17,225,17s208,93.3,208,208S339.7,433,225,433z M225,33
	C119.1,33,33,119.1,33,225s86.1,192,192,192s192-86.1,192-192S330.9,33,225,33z"/>
</svg>
