<?xml version="1.0" encoding="utf-8"?>
<!-- Generator: Adobe Illustrator 20.1.0, SVG Export Plug-In . SVG Version: 6.00 Build 0)  -->
<svg version="1.1" id="Layer_1" xmlns="http://www.w3.org/2000/svg" xmlns:xlink="http://www.w3.org/1999/xlink" x="0px" y="0px"
	 viewBox="0 0 257.6 109.2" style="enable-background:new 0 0 257.6 109.2;" xml:space="preserve">
<style type="text/css">
	.st0{fill:#FFFFFF;}
	.st1{fill-rule:evenodd;clip-rule:evenodd;fill:#FFFFFF;}
</style>
<path class="st0" d="M126.1,57"/>
<path class="st1" d="M127.9,104.6c0,0.8-0.7,1.5-1.5,1.5h-1.6V81.4h3.1v11.4h18.7V81.4h3.1v15.3v7.8c0,0.8-0.7,1.5-1.5,1.5h-1.5
	v-9.4v-0.9h-18.7L127.9,104.6z"/>
<path class="st1" d="M63.6,81.4V83c0,0.8-0.7,1.5-1.5,1.5l-18,0v8.3h19.5v1.5c0,0.8-0.7,1.5-1.5,1.5l-18,0l0,8.7
	c0,0.8-0.7,1.5-1.5,1.5H41V83c0-0.8,0.7-1.5,1.5-1.5H63.6z"/>
<path class="st1" d="M18.4,84.5h-2.9l0,20.1c0,0.8-0.7,1.5-1.5,1.5h-1.6l0-23.2c0-0.8,0.7-1.5,1.5-1.5h5.4c0.5,0,1.1,0.4,1.4,0.8
	L31.1,103h2.9V81.4h3.1l0,23.2c0,0.8-0.7,1.5-1.5,1.5h-5.4c-0.5,0-1.1-0.4-1.4-0.8L18.4,84.5z"/>
<path class="st1" d="M5.7,81.4h3.1l0,23.2c0,0.8-0.7,1.5-1.5,1.5H5.7V81.4z"/>
<path class="st1" d="M97,89.8c-0.5-0.2-0.9-0.8-0.9-1.4v-5.5c0-0.8,0.7-1.5,1.5-1.5l23.4,0V83c0,0.8-0.7,1.5-1.5,1.5l-20.2,0v2.9
	l20.9,10.5c0.5,0.2,0.8,0.8,0.8,1.4v5.3c0,0.8-0.7,1.5-1.5,1.5H97.7c-0.8,0-1.5-0.7-1.5-1.5V103H118v-2.8L97,89.8z"/>
<path class="st1" d="M234.8,103.2v1.6c0,0.8-0.7,1.5-1.5,1.5l-20,0c-0.8,0-1.5-0.7-1.5-1.5V82.9c0-0.8,0.7-1.5,1.5-1.5h21.6V83
	c0,0.8-0.7,1.5-1.5,1.5h-18.4v8.3l16.6,0v1.5c0,0.8-0.7,1.5-1.5,1.5l-15,0v7.3H234.8z"/>
<path class="st1" d="M189.4,100.3c-0.3-0.2-0.5-0.5-0.5-0.8v-0.4c0-0.4,0.2-0.7,0.6-0.9l14.8-7.8v-6h-18.8v20.1
	c0,0.8-0.7,1.5-1.5,1.5h-1.6V82.9c0-0.8,0.7-1.5,1.5-1.5h21.9c0.8,0,1.5,0.7,1.5,1.5v8.3c0,0.6-0.2,1-1,1.4l-12.5,6.7l11.8,5.7
	l0.9,0.4c0.5,0.2,0.9,0.8,0.9,1.3l0,2.4L189.4,100.3z"/>
<path class="st1" d="M30.6,79.5v1.4l-17.9-9.1c-0.3-0.2-0.6-0.6-0.6-1v-0.4c0-0.5,0.3-0.9,0.7-1.1l14.7-7.7v-5.7H8.8v21.7H7.2
	c-0.8,0-1.5-0.7-1.5-1.5l0-21.6c0-0.9,0.8-1.7,1.7-1.7h21.6c0.9,0,1.7,0.8,1.7,1.7v7.9c0,0.7-0.2,1.1-1.1,1.6L17,70.6l12.8,6.5
	c0.5,0.2,0.9,0.8,0.9,1.3L30.6,79.5z"/>
<path class="st1" d="M124.8,54.4c0-0.8,0.7-1.5,1.5-1.5h5.4c0.5,0,1.1,0.4,1.4,0.8l10.5,20.9h3V52.8h3.1v23.3c0,0.8-0.7,1.5-1.5,1.5
	h-5.5c-0.5,0-1.1-0.4-1.4-0.8l-10.5-20.9h-2.9l0,21.7h-1.6c-0.8,0-1.5-0.7-1.5-1.5V54.4z"/>
<path class="st1" d="M89.3,52.8h3.1l0,24.9h-1.6c-0.8,0-1.5-0.7-1.5-1.5V52.8z"/>
<path class="st1" d="M172.4,24.2h3.1v23.4c0,0.8-0.7,1.5-1.5,1.5h-1.6V24.2z"/>
<path class="st1" d="M30.6,47.6c0,0.8-0.7,1.5-1.5,1.5h-1.5l0-10.4H8.8l0,8.9c0,0.8-0.7,1.5-1.5,1.5H5.7l0-24.9h3.1v11.4h18.7V24.2
	h3.1V47.6z"/>
<path class="st1" d="M118.3,25.8c0-0.8,0.7-1.5,1.5-1.5h5.4c0.5,0,1.1,0.4,1.4,0.8L137.2,46h3V24.2h3.1v23.4c0,0.8-0.7,1.5-1.5,1.5
	h-5.5c-0.5,0-1.1-0.4-1.4-0.8l-10.5-20.9h-2.9v20.3c0,0.8-0.7,1.5-1.5,1.5h-1.6L118.3,25.8z"/>
<path class="st1" d="M111.8,24.2h3.1v15.5v7.8c0,0.8-0.7,1.5-1.5,1.5h-1.6v-9.4V24.2z"/>
<path class="st1" d="M62.1,77.7c-0.8,0-1.5-0.7-1.5-1.5V54.3c0-0.8,0.7-1.5,1.5-1.5l23.4,0v1.6c0,0.8-0.7,1.5-1.5,1.5H63.7v18.7
	h18.7v-7.3h-8.5c-0.8,0-1.5-0.7-1.5-1.5v-1.5h9.4l2.2,0c0.8,0,1.5,0.7,1.5,1.5v10.4c0,0.8-0.7,1.5-1.5,1.5H62.1z"/>
<path class="st1" d="M62.1,49.1c-0.8,0-1.5-0.7-1.5-1.5V24.2h3.1V46h16.5v1.6c0,0.8-0.7,1.5-1.5,1.5H62.1z"/>
<path class="st1" d="M84.3,32.6c-0.5-0.2-0.9-0.8-0.9-1.4v-5.5c0-0.8,0.7-1.5,1.5-1.5l23.4,0v1.6c0,0.8-0.7,1.5-1.5,1.5l-20.2,0v2.9
	l20.9,10.5c0.5,0.2,0.8,0.8,0.8,1.4v5.5c0,0.8-0.7,1.5-1.5,1.5H85c-0.8,0-1.5-0.7-1.5-1.5V46h21.8v-2.9L84.3,32.6z"/>
<path class="st1" d="M57.2,46v1.6c0,0.8-0.7,1.5-1.5,1.5h-20c-0.8,0-1.5-0.7-1.5-1.5V25.8c0-0.8,0.7-1.5,1.5-1.5h21.6v1.6
	c0,0.8-0.7,1.5-1.5,1.5H37.2v8.3h16.6v1.5c0,0.8-0.7,1.5-1.5,1.5l-15,0V46H57.2z"/>
<path class="st1" d="M119.7,52.8c0.8,0,1.5,0.7,1.5,1.5v21.8c0,0.8-0.7,1.5-1.5,1.5H97.9c-0.8,0-1.5-0.7-1.5-1.5V54.3
	c0-0.8,0.7-1.5,1.5-1.5H119.7z M99.5,55.9v18.7h18.7V55.9H99.5z"/>
<path class="st1" d="M57.2,74.6v1.6c0,0.8-0.7,1.5-1.5,1.5h-20c-0.8,0-1.5-0.7-1.5-1.5V54.3c0-0.8,0.7-1.5,1.5-1.5h21.6v1.6
	c0,0.8-0.7,1.5-1.5,1.5H37.2v8.3h16.6v1.5c0,0.8-0.7,1.5-1.5,1.5l-15,0v7.3H57.2z"/>
<path class="st1" d="M156.4,38.7h-6.6v8.9c0,0.8-0.7,1.5-1.5,1.5h-1.6V24.2h3.1v11.3h6.6l11.3-11.5l2.2,2.2l-10.6,10.8l7.5,7.4
	c1.8,1.8,1.5,3.1,1.5,4.5v1.4L156.4,38.7z"/>
<path class="st1" d="M156.9,104.6c0,0.8-0.7,1.5-1.5,1.5h-1.6V93.4l0.2-10.7c0-0.8,0.8-1.3,1.4-1.3h16.2c0.6,0,1.2,0.3,1.4,0.9
	l5.6,11.2l0,11.1c0,0.8-0.7,1.5-1.5,1.5h-1.5v-5.4h-18.5L156.9,104.6z M67.5,83c0-0.8,0.7-1.5,1.5-1.5h21.9c0.8,0,1.5,0.7,1.5,1.5
	v21.7c0,0.8-0.7,1.5-1.5,1.5H69c-0.8,0-1.5-0.7-1.5-1.5V83z M89.4,103V84.5H70.6V103H89.4z M156.9,94.2v3.4h18.5v-3.5l-4.8-9.6
	h-13.7V94.2z"/>
<g>
	<path class="st0" d="M225,36.1c-0.3,0.7-1,1.3-1.8,1.3c-0.5,0.9-0.9,1.9-1.2,2.8c0.2,0.2,0.4,0.5,0.5,0.7c1.8,0.1,3.6,0.1,5.4-0.1
		c0.3-0.7,1-1.2,1.8-1.2h0c0.4-1,0.8-1.8,1.2-2.7c-0.2-0.2-0.4-0.5-0.4-0.9C228.6,36,226.8,36,225,36.1z"/>
	<path class="st0" d="M222.3,42.8c-0.3,0.5-0.8,0.8-1.3,0.9c-0.2,0.7-0.3,1.5-0.4,2.2c-0.3,1.7-0.4,3.4-0.3,5.1l0,0
		c0.6-0.5,1.3-1,1.9-1.5c2.3-2.1,4.3-4.3,5.8-6.7C226.1,42.9,224.2,42.9,222.3,42.8z"/>
	<path class="st0" d="M232.9,26.3L232.9,26.3c-3.3,2.2-6,5-8,8.2l0,0.1c2-0.1,3.9-0.1,5.8,0.1c0.3-0.4,0.7-0.7,1.1-0.8
		C232.5,31.4,232.8,28.8,232.9,26.3z"/>
	<path class="st0" d="M221.6,36.6c-2.6,0.5-5.2,1.3-7.6,2.4c1.7,0.6,3.4,1.1,5.1,1.5c0.3-0.4,0.7-0.7,1.2-0.8
		C220.6,38.7,221.1,37.7,221.6,36.6z"/>
	<path class="st0" d="M232.6,37.7c-0.3,0.9-0.7,1.8-1.2,2.7c2.4-0.5,4.8-1.3,7.1-2.4c-1.4-0.6-2.9-1-4.4-1.3
		C233.8,37.3,233.2,37.6,232.6,37.7z"/>
	<path class="st0" d="M221,4.1c-18.5,0-33.5,15-33.5,33.5s15,33.5,33.5,33.5c18.5,0,33.5-15,33.5-33.5S239.5,4.1,221,4.1z
		 M249.6,29.6c0.4-0.4,1.1-0.4,1.5,0c0.4,0.4,0.4,1-0.1,1.5l-2.2,2.2c-0.4,0.4-1.1,0.4-1.5,0c-0.4-0.4-0.4-1.1,0.1-1.5L249.6,29.6z
		 M242.8,19.7l3-0.8c0.6-0.2,1.1,0.2,1.3,0.7c0.1,0.5-0.2,1.1-0.8,1.2l-3,0.8c-0.6,0.2-1.1-0.2-1.3-0.7
		C241.9,20.4,242.2,19.9,242.8,19.7z M230.5,9.2c0.5-0.2,1.1,0.2,1.3,0.7l0.9,3c0.2,0.6-0.1,1.1-0.7,1.3c-0.5,0.2-1.1-0.2-1.3-0.7
		l-0.9-3C229.7,9.9,230,9.3,230.5,9.2z M195.5,23.4c0.5-0.3,1.1-0.1,1.4,0.4l1.6,2.7c0.3,0.5,0.1,1.1-0.3,1.4
		c-0.5,0.3-1.1,0.1-1.4-0.4l-1.6-2.7C194.8,24.3,195,23.7,195.5,23.4z M198.9,53.8l-1.3,2.8c-0.2,0.5-0.9,0.8-1.4,0.5
		c-0.5-0.2-0.7-0.9-0.5-1.4L197,53c0.2-0.5,0.9-0.8,1.4-0.5C198.9,52.7,199.1,53.3,198.9,53.8z M207.2,58.8l-3.1,0.5
		c-0.6,0.1-1.1-0.3-1.2-0.8c-0.1-0.5,0.3-1.1,0.9-1.2l3.1-0.5c0.6-0.1,1.1,0.3,1.2,0.8C208.2,58.2,207.8,58.7,207.2,58.8z
		 M222.6,64.8c-0.5,0.2-1.1-0.2-1.3-0.7l-0.9-3c-0.2-0.6,0.1-1.1,0.7-1.3c0.5-0.2,1.1,0.2,1.3,0.7l0.9,3
		C223.4,64.1,223.1,64.7,222.6,64.8z M245.3,41.4c-0.1,0-0.1,0-0.2-0.1c-1.1-0.7-2.1-1.3-3.2-1.9c-0.4,0.4-0.9,0.6-1.4,0.6
		c-0.4,0-0.9-0.1-1.2-0.4c-2.5,1.2-5.1,2-7.7,2.6c-0.2,0.9-1,1.5-1.9,1.5l-0.1,0c-1.7,2.6-3.8,5.1-6.2,7.2c-0.6,0.5-1.3,1.1-1.9,1.6
		c0,0.1,0,0.2,0,0.3c0,0.7-0.3,1.3-0.9,1.6c0.2,1.3,0.5,2.7,0.8,3.9c0,0,0,0.1,0,0.1l-1.4,0.4c0,0-0.1-0.1-0.2-0.2
		c-0.4-1.3-0.7-2.6-0.9-4c-0.2-0.1-0.4-0.1-0.5-0.2c-2.8,1.6-5.8,2.8-8.7,3.6c0,0-0.2,0-0.2,0l-0.4-1.4l0.2-0.1
		c2.7-0.8,5.5-2.1,8.1-3.7c0-0.1,0-0.1,0-0.2c0-0.8,0.5-1.5,1.1-1.8c-0.1-1.7,0-3.5,0.3-5.2c0.1-0.9,0.3-1.7,0.4-2.6
		c-0.2-0.2-0.4-0.5-0.5-0.8c-1.9-0.4-3.8-0.9-5.7-1.6c-0.3,0.2-0.7,0.4-1.2,0.4c-0.4,0-0.8-0.1-1.1-0.4c-4.7,2.8-8.3,6.6-11,11
		l-1.4-0.8l0-0.1c2.8-4.6,6.6-8.6,11.4-11.5c-4.5-2.3-8.5-5.8-11.4-9.5c0,0-0.1-0.1-0.1-0.1l1.2-0.9l0.1,0.1c2.9,3.4,6.7,6.6,11,8.7
		c0.3-0.3,0.8-0.5,1.3-0.5c0.5,0,0.9,0.2,1.3,0.5c2.6-1.2,5.3-2.1,8-2.6c0.2-0.9,1-1.6,1.9-1.6c0.1,0,0.1,0,0.2,0
		c2.2-3.4,5.1-6.4,8.5-8.6c0-0.1,0-0.2,0-0.3c0-0.7,0.4-1.4,1-1.7c-0.2-2.2-0.6-4.5-1.1-6.8c0-0.1-0.1-0.2,0-0.2l1.6-0.5
		c0,0,0.1,0.2,0.1,0.2c0.7,2.4,1.2,4.8,1.4,7.2c0.1,0.1,0.2,0.1,0.3,0.2c1.6-0.8,3.3-1.5,5-2.1c0,0,0.2,0,0.2,0l0.4,1.4
		c-0.1,0-0.1,0.1-0.2,0.1c-1.6,0.6-3.2,1.2-4.7,2.1l0,0.1c0,0.7-0.4,1.3-1,1.7c0,2.7-0.4,5.4-1.1,8.1c0.3,0.2,0.5,0.6,0.6,0.9
		c1.7,0.3,3.3,0.8,4.9,1.4c0.3-0.3,0.8-0.5,1.3-0.5c0.4,0,0.8,0.1,1.1,0.3c1.5-0.8,2.9-1.8,4.2-2.8c0.1,0,0.1-0.1,0.2-0.1l1,1.3
		c0,0-0.1,0.2-0.2,0.2c-1.4,1.1-2.9,2.1-4.4,3c1.2,0.6,2.4,1.3,3.6,2.1c0,0,0.1,0.1,0.1,0.1L245.3,41.4z M251.2,44.5
		c-0.3,0.5-1,0.6-1.4,0.2l-2.5-1.8c-0.5-0.3-0.6-1-0.3-1.4c0.3-0.5,1-0.6,1.4-0.2l2.5,1.8C251.4,43.4,251.5,44,251.2,44.5z"/>
</g>
<path class="st0" d="M126.1,57"/>
<path class="st1" d="M127.9,104.6c0,0.8-0.7,1.5-1.5,1.5h-1.6V81.4h3.1v11.4h18.7V81.4h3.1v15.3v7.8c0,0.8-0.7,1.5-1.5,1.5h-1.5
	v-9.4v-0.9h-18.7L127.9,104.6z"/>
<path class="st1" d="M63.6,81.4V83c0,0.8-0.7,1.5-1.5,1.5l-18,0v8.3h19.5v1.5c0,0.8-0.7,1.5-1.5,1.5l-18,0l0,8.7
	c0,0.8-0.7,1.5-1.5,1.5H41V83c0-0.8,0.7-1.5,1.5-1.5H63.6z"/>
<path class="st1" d="M18.4,84.5h-2.9l0,20.1c0,0.8-0.7,1.5-1.5,1.5h-1.6l0-23.2c0-0.8,0.7-1.5,1.5-1.5h5.4c0.5,0,1.1,0.4,1.4,0.8
	L31.1,103h2.9V81.4h3.1l0,23.2c0,0.8-0.7,1.5-1.5,1.5h-5.4c-0.5,0-1.1-0.4-1.4-0.8L18.4,84.5z"/>
<path class="st1" d="M5.7,81.4h3.1l0,23.2c0,0.8-0.7,1.5-1.5,1.5H5.7V81.4z"/>
<path class="st1" d="M97,89.8c-0.5-0.2-0.9-0.8-0.9-1.4v-5.5c0-0.8,0.7-1.5,1.5-1.5l23.4,0V83c0,0.8-0.7,1.5-1.5,1.5l-20.2,0v2.9
	l20.9,10.5c0.5,0.2,0.8,0.8,0.8,1.4v5.3c0,0.8-0.7,1.5-1.5,1.5H97.7c-0.8,0-1.5-0.7-1.5-1.5V103H118v-2.8L97,89.8z"/>
<path class="st1" d="M234.8,103.2v1.6c0,0.8-0.7,1.5-1.5,1.5l-20,0c-0.8,0-1.5-0.7-1.5-1.5V82.9c0-0.8,0.7-1.5,1.5-1.5h21.6V83
	c0,0.8-0.7,1.5-1.5,1.5h-18.4v8.3l16.6,0v1.5c0,0.8-0.7,1.5-1.5,1.5l-15,0v7.3H234.8z"/>
<path class="st1" d="M189.4,100.3c-0.3-0.2-0.5-0.5-0.5-0.8v-0.4c0-0.4,0.2-0.7,0.6-0.9l14.8-7.8v-6h-18.8v20.1
	c0,0.8-0.7,1.5-1.5,1.5h-1.6V82.9c0-0.8,0.7-1.5,1.5-1.5h21.9c0.8,0,1.5,0.7,1.5,1.5v8.3c0,0.6-0.2,1-1,1.4l-12.5,6.7l11.8,5.7
	l0.9,0.4c0.5,0.2,0.9,0.8,0.9,1.3l0,2.4L189.4,100.3z"/>
<path class="st1" d="M30.6,79.5v1.4l-17.9-9.1c-0.3-0.2-0.6-0.6-0.6-1v-0.4c0-0.5,0.3-0.9,0.7-1.1l14.7-7.7v-5.7H8.8v21.7H7.2
	c-0.8,0-1.5-0.7-1.5-1.5l0-21.6c0-0.9,0.8-1.7,1.7-1.7h21.6c0.9,0,1.7,0.8,1.7,1.7v7.9c0,0.7-0.2,1.1-1.1,1.6L17,70.6l12.8,6.5
	c0.5,0.2,0.9,0.8,0.9,1.3L30.6,79.5z"/>
<path class="st1" d="M124.8,54.4c0-0.8,0.7-1.5,1.5-1.5h5.4c0.5,0,1.1,0.4,1.4,0.8l10.5,20.9h3V52.8h3.1v23.3c0,0.8-0.7,1.5-1.5,1.5
	h-5.5c-0.5,0-1.1-0.4-1.4-0.8l-10.5-20.9h-2.9l0,21.7h-1.6c-0.8,0-1.5-0.7-1.5-1.5V54.4z"/>
<path class="st1" d="M89.3,52.8h3.1l0,24.9h-1.6c-0.8,0-1.5-0.7-1.5-1.5V52.8z"/>
<path class="st1" d="M172.4,24.2h3.1v23.4c0,0.8-0.7,1.5-1.5,1.5h-1.6V24.2z"/>
<path class="st1" d="M30.6,47.6c0,0.8-0.7,1.5-1.5,1.5h-1.5l0-10.4H8.8l0,8.9c0,0.8-0.7,1.5-1.5,1.5H5.7l0-24.9h3.1v11.4h18.7V24.2
	h3.1V47.6z"/>
<path class="st1" d="M118.3,25.8c0-0.8,0.7-1.5,1.5-1.5h5.4c0.5,0,1.1,0.4,1.4,0.8L137.2,46h3V24.2h3.1v23.4c0,0.8-0.7,1.5-1.5,1.5
	h-5.5c-0.5,0-1.1-0.4-1.4-0.8l-10.5-20.9h-2.9v20.3c0,0.8-0.7,1.5-1.5,1.5h-1.6L118.3,25.8z"/>
<path class="st1" d="M111.8,24.2h3.1v15.5v7.8c0,0.8-0.7,1.5-1.5,1.5h-1.6v-9.4V24.2z"/>
<path class="st1" d="M62.1,77.7c-0.8,0-1.5-0.7-1.5-1.5V54.3c0-0.8,0.7-1.5,1.5-1.5l23.4,0v1.6c0,0.8-0.7,1.5-1.5,1.5H63.7v18.7
	h18.7v-7.3h-8.5c-0.8,0-1.5-0.7-1.5-1.5v-1.5h9.4l2.2,0c0.8,0,1.5,0.7,1.5,1.5v10.4c0,0.8-0.7,1.5-1.5,1.5H62.1z"/>
<path class="st1" d="M62.1,49.1c-0.8,0-1.5-0.7-1.5-1.5V24.2h3.1V46h16.5v1.6c0,0.8-0.7,1.5-1.5,1.5H62.1z"/>
<path class="st1" d="M84.3,32.6c-0.5-0.2-0.9-0.8-0.9-1.4v-5.5c0-0.8,0.7-1.5,1.5-1.5l23.4,0v1.6c0,0.8-0.7,1.5-1.5,1.5l-20.2,0v2.9
	l20.9,10.5c0.5,0.2,0.8,0.8,0.8,1.4v5.5c0,0.8-0.7,1.5-1.5,1.5H85c-0.8,0-1.5-0.7-1.5-1.5V46h21.8v-2.9L84.3,32.6z"/>
<path class="st1" d="M57.2,46v1.6c0,0.8-0.7,1.5-1.5,1.5h-20c-0.8,0-1.5-0.7-1.5-1.5V25.8c0-0.8,0.7-1.5,1.5-1.5h21.6v1.6
	c0,0.8-0.7,1.5-1.5,1.5H37.2v8.3h16.6v1.5c0,0.8-0.7,1.5-1.5,1.5l-15,0V46H57.2z"/>
<path class="st1" d="M119.7,52.8c0.8,0,1.5,0.7,1.5,1.5v21.8c0,0.8-0.7,1.5-1.5,1.5H97.9c-0.8,0-1.5-0.7-1.5-1.5V54.3
	c0-0.8,0.7-1.5,1.5-1.5H119.7z M99.5,55.9v18.7h18.7V55.9H99.5z"/>
<path class="st1" d="M57.2,74.6v1.6c0,0.8-0.7,1.5-1.5,1.5h-20c-0.8,0-1.5-0.7-1.5-1.5V54.3c0-0.8,0.7-1.5,1.5-1.5h21.6v1.6
	c0,0.8-0.7,1.5-1.5,1.5H37.2v8.3h16.6v1.5c0,0.8-0.7,1.5-1.5,1.5l-15,0v7.3H57.2z"/>
<path class="st1" d="M156.4,38.7h-6.6v8.9c0,0.8-0.7,1.5-1.5,1.5h-1.6V24.2h3.1v11.3h6.6l11.3-11.5l2.2,2.2l-10.6,10.8l7.5,7.4
	c1.8,1.8,1.5,3.1,1.5,4.5v1.4L156.4,38.7z"/>
<path class="st1" d="M156.9,104.6c0,0.8-0.7,1.5-1.5,1.5h-1.6V93.4l0.2-10.7c0-0.8,0.8-1.3,1.4-1.3h16.2c0.6,0,1.2,0.3,1.4,0.9
	l5.6,11.2l0,11.1c0,0.8-0.7,1.5-1.5,1.5h-1.5v-5.4h-18.5L156.9,104.6z M67.5,83c0-0.8,0.7-1.5,1.5-1.5h21.9c0.8,0,1.5,0.7,1.5,1.5
	v21.7c0,0.8-0.7,1.5-1.5,1.5H69c-0.8,0-1.5-0.7-1.5-1.5V83z M89.4,103V84.5H70.6V103H89.4z M156.9,94.2v3.4h18.5v-3.5l-4.8-9.6
	h-13.7V94.2z"/>
</svg>
