<svg xmlns="http://www.w3.org/2000/svg" viewBox="0 0 230.57 211.28"><title>osallistu2</title><g id="Layer_2" data-name="Layer 2"><g id="Layer_1-2" data-name="Layer 1"><rect x="6.89" y="26.67" width="213.77" height="105.59" fill="#fff"/><path d="M25.72,105.16c-.06-.17-.11-.35-.16-.54a18.8,18.8,0,0,0-3.22,4.15,15.11,15.11,0,0,0-2,5.16c-.49,3.85,2.5,5.14,5.17,2.84,2.42-2.09,4.2-5.51,5.27-8.82C28.89,108.11,26.37,107.1,25.72,105.16Z" fill="#1c52b0"/><path d="M223.52,14.58A15.16,15.16,0,0,0,210,3c-14.43-1.19-49.35-3-90.18-3C77.32,0,37.26,4,19.64,5.19A15.17,15.17,0,0,0,5.71,17.66a376.43,376.43,0,0,0,.14,131.42,15.17,15.17,0,0,0,13.1,12.38c14.8,1.79,48.78,2.49,94.35,2.49,8.75,0,16.88-.1,24.84-.27l4.09,47.61,31.69-49c17-.91,28.85-2,36-2.91A15.29,15.29,0,0,0,223,147.68a319.73,319.73,0,0,0,7.54-69C230.57,49.17,226.49,26.83,223.52,14.58ZM55.91,108.92c-3,8.24-10.48,8.92-17.87,5.66a4.42,4.42,0,0,1-1.29-.85c-2,4.09-4.78,7.64-7.89,9.46a11.2,11.2,0,0,1-12.3-.48c-3.91-2.88-4.25-7.21-3.15-11.64,1.42-5.69,6.69-13.75,13-15.59A5.7,5.7,0,0,1,28.85,93c3.54-1.78,7.91.52,9.47,3.89s1.43,7.6.29,11.81a4.13,4.13,0,0,1,1.88.37c2.08.92,4.82,2,6.79.23,1-.95,2.24-3.47,1.52-4.83-.57-1.07-3.41-1.94-4.41-2.64a6.59,6.59,0,0,1-2.33-2.42c-2.68-5.2,4.81-9.71,8.75-11.26,3.63-1.43,7.5,4.3,3.12,6-1.65.65-2.43,1.7-3.85,2.56-.08.05-.79,1-1.22,1,1,.89,4.53,2.57,5.11,3.1A6.82,6.82,0,0,1,55.91,108.92ZM80.6,103.2c-2.06,2.22-4.86,1.82-6.78.15-.58,1-1.18,2-1.84,2.89-2.62,3.67-8,6.24-11.84,2.51-4-3.9-.14-11.06,2-15,2.56-4.6,5.77-9.35,11.5-9.29l.16-.4c1.5-3.69,8.21-.66,6.85,3.05l-.77,2.13A23,23,0,0,0,78.86,94a32.15,32.15,0,0,0-.31,4.2C80.69,99,82.35,101.32,80.6,103.2Zm1,15.74A429,429,0,0,1,93.17,58.53c1-3.75,7.87-.77,6.85,3.05a417.9,417.9,0,0,0-11.16,58.84C88.37,124.6,81.16,122.73,81.6,118.94Zm24.58-10.28c-.12,4.16-7.37,2.33-7.26-1.48a155.53,155.53,0,0,1,14.2-60.48c1.66-3.61,8.51-.55,6.85,3.05A151.07,151.07,0,0,0,106.18,108.66Zm21.46-32.82a54.38,54.38,0,0,0-3.11,20.82c.17,4.1-7.1,2.3-7.26-1.48a58.56,58.56,0,0,1,3.51-22.39C122.12,69.07,129,72.1,127.64,75.84Zm4-10.93A4.46,4.46,0,0,1,127,63.6a2.76,2.76,0,0,1,.44-4.3,6,6,0,0,1,4.22-.57c1.77.42,3.44,1.83,3.36,3.79a2.57,2.57,0,0,1-1.29,2A3.73,3.73,0,0,1,131.65,64.9Zm79.65-6.56L205.76,74.4c-1,3-5.68,1.62-6.77-1a13.49,13.49,0,0,1-4.75,1.6c-7,.93-7.92-5.06-7.16-11l0,0q-5.07,1.51-10.19,2.81-2.56,12.54-4,25.28c-.48,4.17-7.69,2.31-7.26-1.48.28-2.48.61-5,1-7.43-3.68,6.18-19.23,6.17-24.35,6.26-4.08.07-6.24-6.19-1.35-6.27a77.28,77.28,0,0,0,10.66-.84c1.29-.2,3.19-.22,4.38-.84q2,.1,2.12-2.07,1.8-1.95-.47-2.21c-2-1.58-6.82-1.74-9.32-2.19-2.9-.52-5.83-.93-8.7-1.63s-7.19-2.23-6-6.13,7.26-6.31,10.73-7.49c3.69-1.26,7.59,4.51,3.12,6a29.46,29.46,0,0,0-4.64,2.08l.8.13c1.74.33,3.49.6,5.23.91a73.85,73.85,0,0,1,8.6,1.93c3.79,1.15,8.5,3.08,9.68,7.32.06.23.1.44.14.66.53-3.4,1.13-6.78,1.78-10.15-1.14.25-2.27.51-3.42.75-3.76.79-7.72-5.07-3.12-6,2.67-.56,5.33-1.17,8-1.81q2-9.27,4.6-18.43c1.06-3.75,7.93-.76,6.85,3.05-1.25,4.41-2.38,8.86-3.41,13.32q2.75-.75,5.49-1.57A4.07,4.07,0,0,1,188,59.3c.4-1.63.85-3.09,1.21-4.18,1.25-3.73,8.11-.71,6.85,3.05a37.26,37.26,0,0,0-1.86,8.95l0,.74,1.3-.71c4.18-2.83,6.65-7.54,9-11.85C206.35,51.79,212.58,54.59,211.29,58.35Z" fill="#1c52b0"/></g></g></svg>