<?xml version="1.0" encoding="utf-8"?>
<!-- Generator: Adobe Illustrator 21.0.2, SVG Export Plug-In . SVG Version: 6.00 Build 0)  -->
<svg version="1.1" id="Layer_1" xmlns="http://www.w3.org/2000/svg" xmlns:xlink="http://www.w3.org/1999/xlink" x="0px" y="0px"
	 viewBox="0 0 237.2 219.2" style="enable-background:new 0 0 237.2 219.2;" xml:space="preserve">
<style type="text/css">
	.st0{fill:#0000BF;}
</style>
<title>osallistu</title>
<g>
	<rect x="53.4" y="146.1" transform="matrix(0.707 -0.7072 0.7072 0.707 -86.7898 97.7559)" class="st0" width="42.4" height="15"/>
	
		<rect x="89.3" y="169.1" transform="matrix(0.2589 -0.9659 0.9659 0.2589 -89.8443 236.0577)" class="st0" width="39.3" height="15"/>
	<rect x="32" y="111.8" transform="matrix(0.9659 -0.2588 0.2588 0.9659 -29.1232 17.4334)" class="st0" width="39.3" height="15"/>
	<path class="st0" d="M206.5,60.9c0-10.5-4.1-20.3-11.5-27.7c-7.4-7.4-17.3-11.5-27.7-11.5s-20.3,4.1-27.7,11.5l-33.7,33.7H46
		l115.3,115.3v-59.8L195,88.7C202.4,81.3,206.5,71.4,206.5,60.9z M146.3,146L82.2,81.9h23.7l40.5,40.5V146z M184.4,78.1l-30.6,30.6
		l-34.3-34.3l30.6-30.6c4.6-4.6,10.7-7.1,17.1-7.1s12.6,2.5,17.1,7.1C193.8,53.3,193.8,68.6,184.4,78.1z"/>
</g>
</svg>
