<?xml version="1.0" encoding="utf-8"?>
<!-- Generator: Adobe Illustrator 21.0.2, SVG Export Plug-In . SVG Version: 6.00 Build 0)  -->
<svg version="1.1" id="Layer_1" xmlns="http://www.w3.org/2000/svg" xmlns:xlink="http://www.w3.org/1999/xlink" x="0px" y="0px"
	 viewBox="0 0 257 228.8" style="enable-background:new 0 0 257 228.8;" xml:space="preserve">
<style type="text/css">
	.st0{fill:#0000BF;}
</style>
<title>twitter</title>
<path class="st0" d="M107.3,181.8c62.6,0,96.8-51.9,96.8-96.8c0-1.5,0-2.9-0.1-4.4c6.6-4.8,12.4-10.8,17-17.6
	c-6.1,2.7-12.7,4.5-19.5,5.4c7-4.2,12.4-10.9,15-18.8c-6.6,3.9-13.9,6.7-21.6,8.3C188.6,51.1,179.8,47,170,47c-18.8,0-34,15.2-34,34
	c0,2.7,0.3,5.3,0.9,7.8c-28.3-1.4-53.4-15-70.2-35.6c-2.9,5-4.6,10.9-4.6,17.1c0,11.8,6,22.2,15.1,28.3c-5.6-0.2-10.8-1.7-15.4-4.3
	c0,0.1,0,0.3,0,0.4c0,16.5,11.7,30.2,27.3,33.4c-2.9,0.8-5.9,1.2-9,1.2c-2.2,0-4.3-0.2-6.4-0.6c4.3,13.5,16.9,23.4,31.8,23.6
	C93.8,161.6,79.2,167,63.2,167c-2.7,0-5.5-0.2-8.1-0.5C70.2,176.2,88,181.8,107.3,181.8"/>
<title>osallistu</title>
</svg>
