<svg id="Layer_1" data-name="Layer 1" xmlns="http://www.w3.org/2000/svg" viewBox="0 0 257.03 228.81"><title>twitter</title><line x1="234.32" y1="22.86" x2="39.32" y2="22.86" fill="none" stroke="#1c52b0" stroke-miterlimit="10"/><line x1="241.32" y1="32.86" x2="24.32" y2="32.86" fill="none" stroke="#1c52b0" stroke-miterlimit="10"/><line x1="243.32" y1="42.86" x2="22.32" y2="42.86" fill="none" stroke="#1c52b0" stroke-miterlimit="10"/><line x1="245.32" y1="52.86" x2="21.32" y2="52.86" fill="none" stroke="#1c52b0" stroke-miterlimit="10"/><line x1="246.32" y1="62.86" x2="20.32" y2="62.86" fill="none" stroke="#1c52b0" stroke-miterlimit="10"/><line x1="247.32" y1="72.86" x2="19.32" y2="72.86" fill="none" stroke="#1c52b0" stroke-miterlimit="10"/><line x1="248.32" y1="82.86" x2="18.32" y2="82.86" fill="none" stroke="#1c52b0" stroke-miterlimit="10"/><line x1="248.32" y1="92.86" x2="18.32" y2="92.86" fill="none" stroke="#1c52b0" stroke-miterlimit="10"/><line x1="248.32" y1="102.86" x2="18.32" y2="102.86" fill="none" stroke="#1c52b0" stroke-miterlimit="10"/><line x1="248.32" y1="112.86" x2="18.32" y2="112.86" fill="none" stroke="#1c52b0" stroke-miterlimit="10"/><line x1="247.32" y1="122.86" x2="18.32" y2="122.86" fill="none" stroke="#1c52b0" stroke-miterlimit="10"/><line x1="246.32" y1="132.86" x2="19.32" y2="132.86" fill="none" stroke="#1c52b0" stroke-miterlimit="10"/><line x1="245.32" y1="142.86" x2="20.32" y2="142.86" fill="none" stroke="#1c52b0" stroke-miterlimit="10"/><line x1="243.32" y1="152.86" x2="21.32" y2="152.86" fill="none" stroke="#1c52b0" stroke-miterlimit="10"/><line x1="23.32" y1="162.86" x2="241.32" y2="162.86" fill="none" stroke="#1c52b0" stroke-miterlimit="10"/><line x1="26.32" y1="172.86" x2="237.32" y2="172.86" fill="none" stroke="#1c52b0" stroke-miterlimit="10"/><line x1="190.32" y1="182.86" x2="156.32" y2="182.86" fill="none" stroke="#1c52b0" stroke-miterlimit="10"/><line x1="183.32" y1="192.86" x2="157.32" y2="192.86" fill="none" stroke="#1c52b0" stroke-miterlimit="10"/><line x1="177.32" y1="202.86" x2="158.32" y2="202.86" fill="none" stroke="#1c52b0" stroke-miterlimit="10"/><line x1="170.32" y1="212.86" x2="158.32" y2="212.86" fill="none" stroke="#1c52b0" stroke-miterlimit="10"/><line x1="164.32" y1="222.86" x2="159.32" y2="222.86" fill="none" stroke="#1c52b0" stroke-miterlimit="10"/><line x1="239.32" y1="27.86" x2="27.32" y2="27.86" fill="none" stroke="#1c52b0" stroke-miterlimit="10"/><line x1="242.32" y1="37.86" x2="23.32" y2="37.86" fill="none" stroke="#1c52b0" stroke-miterlimit="10"/><line x1="244.32" y1="47.86" x2="21.32" y2="47.86" fill="none" stroke="#1c52b0" stroke-miterlimit="10"/><line x1="246.32" y1="57.86" x2="20.32" y2="57.86" fill="none" stroke="#1c52b0" stroke-miterlimit="10"/><line x1="247.32" y1="67.86" x2="19.32" y2="67.86" fill="none" stroke="#1c52b0" stroke-miterlimit="10"/><line x1="248.32" y1="77.86" x2="18.32" y2="77.86" fill="none" stroke="#1c52b0" stroke-miterlimit="10"/><line x1="248.32" y1="87.86" x2="18.32" y2="87.86" fill="none" stroke="#1c52b0" stroke-miterlimit="10"/><line x1="248.32" y1="97.86" x2="18.32" y2="97.86" fill="none" stroke="#1c52b0" stroke-miterlimit="10"/><line x1="248.32" y1="107.86" x2="18.32" y2="107.86" fill="none" stroke="#1c52b0" stroke-miterlimit="10"/><line x1="247.32" y1="117.86" x2="18.32" y2="117.86" fill="none" stroke="#1c52b0" stroke-miterlimit="10"/><line x1="247.32" y1="127.86" x2="19.32" y2="127.86" fill="none" stroke="#1c52b0" stroke-miterlimit="10"/><line x1="245.32" y1="137.86" x2="19.32" y2="137.86" fill="none" stroke="#1c52b0" stroke-miterlimit="10"/><line x1="244.32" y1="147.86" x2="21.32" y2="147.86" fill="none" stroke="#1c52b0" stroke-miterlimit="10"/><line x1="242.32" y1="157.86" x2="22.32" y2="157.86" fill="none" stroke="#1c52b0" stroke-miterlimit="10"/><line x1="240.32" y1="167.86" x2="24.32" y2="167.86" fill="none" stroke="#1c52b0" stroke-miterlimit="10"/><line x1="222.32" y1="177.86" x2="32.32" y2="177.86" fill="none" stroke="#1c52b0" stroke-miterlimit="10"/><line x1="187.32" y1="187.86" x2="156.32" y2="187.86" fill="none" stroke="#1c52b0" stroke-miterlimit="10"/><line x1="180.32" y1="197.86" x2="157.32" y2="197.86" fill="none" stroke="#1c52b0" stroke-miterlimit="10"/><line x1="174.32" y1="207.86" x2="158.32" y2="207.86" fill="none" stroke="#1c52b0" stroke-miterlimit="10"/><line x1="167.32" y1="217.86" x2="159.32" y2="217.86" fill="none" stroke="#1c52b0" stroke-miterlimit="10"/><line x1="161.32" y1="227.86" x2="160.32" y2="227.86" fill="none" stroke="#1c52b0" stroke-miterlimit="10"/><rect x="17.97" y="35.82" width="213.77" height="105.59" fill="#fff"/><path d="M234.61,23.73a15.16,15.16,0,0,0-13.5-11.55c-14.43-1.19-49.35-3-90.18-3-42.52,0-82.58,4-100.21,5.19A15.17,15.17,0,0,0,16.79,26.8a376.43,376.43,0,0,0,.14,131.42A15.17,15.17,0,0,0,30,170.6c14.8,1.79,48.78,2.49,94.35,2.49,8.75,0,16.88-.1,24.84-.27l4.09,47.61,31.69-49c17-.91,28.85-2,36-2.91a15.29,15.29,0,0,0,13.07-11.7,319.73,319.73,0,0,0,7.54-69C241.65,58.31,237.58,36,234.61,23.73Z" fill="#1c52b0"/><path d="M171.92,67.82c.07,1,.07,1.95.07,2.92,0,29.71-22.61,63.94-63.94,63.94a63.51,63.51,0,0,1-34.51-10.09,46.52,46.52,0,0,0,5.43.28,45,45,0,0,0,27.9-9.6,22.51,22.51,0,0,1-21-15.59,28.29,28.29,0,0,0,4.25.35A23.77,23.77,0,0,0,96,99.27,22.48,22.48,0,0,1,78,77.21v-.28a22.64,22.64,0,0,0,10.16,2.85,22.51,22.51,0,0,1-7-30.06,63.88,63.88,0,0,0,46.34,23.52A25.38,25.38,0,0,1,127,68.1a22.5,22.5,0,0,1,38.9-15.38,44.25,44.25,0,0,0,14.26-5.43,22.41,22.41,0,0,1-9.88,12.39,45.05,45.05,0,0,0,12.94-3.48A48.34,48.34,0,0,1,171.92,67.82Z" fill="#fff"/></svg>