<svg xmlns="http://www.w3.org/2000/svg" width="207.27" height="72.36" viewBox="0 0 207.27 72.36">
    <title>Asset 3</title>
    <g id="Layer_2" data-name="Layer 2">
        <g id="Layer_1-2" data-name="Layer 1">
            <path fill="#fff" stroke="#fff" d="M202.78,4.49V46.1a14.52,14.52,0,0,1-14.61,14.4L118,60.56a21.34,21.34,0,0,0-14.36,5.49,21.34,21.34,0,0,0-14.36-5.49H19A14.46,14.46,0,0,1,4.49,46.16V4.55ZM106,70a16.89,16.89,0,0,1,12-5L188.17,65a19,19,0,0,0,19.1-18.89V0L0,.06v46.1A19,19,0,0,0,19,65H89.28a16.89,16.89,0,0,1,12,5l2.36,2.36Zm75.09-31.15c0-1.22-1.71-1.5-3.7-2-2.32-.61-5.23-1.77-5.23-4.71s2.78-4.74,6.08-4.74c3.06,0,5.87,1.47,7.06,3.51l-3.7,2.08a3.22,3.22,0,0,0-3.21-2.44c-1.1,0-2,.49-2,1.38,0,1.16,2,1.28,4.31,2s4.61,1.86,4.61,4.68c0,3.09-2.87,4.92-6.2,4.92-3.61,0-6.45-1.53-7.7-4l3.76-2.11A3.88,3.88,0,0,0,179,40.34c1.19,0,2-.52,2-1.5m-22.86,4.28h4.31v-8.8c0-2,.55-3.27,1.9-3.27,1.07,0,1.44.95,1.44,2a17.9,17.9,0,0,1-.24,2.54l3.88-2.23a10.66,10.66,0,0,0,.15-1.8c0-2.26-1.19-4.1-3.36-4.1-2,0-3.12,1.35-3.88,2.84h-.09l.21-2.54h-4.31Zm-10.7-12.47c-2.14,0-3.09,2-3.09,4.77s.95,4.77,3.09,4.77,3.06-2,3.06-4.77-.95-4.77-3.06-4.77m0,12.83c-4.22,0-7.46-3.06-7.46-8.07s3.24-8.07,7.46-8.07S155,30.41,155,35.42s-3.24,8.07-7.43,8.07M136.87,23.87c1,0,1.5.95,1.56,1.86l3.73-2.29a6.53,6.53,0,0,0-5.5-2.81c-3.27,0-5.65,1.83-5.65,5.44v1.65h-2.35V31H131v12.1h4.28V31h3.36v-3.3h-3.36V26c0-1.34.52-2.17,1.59-2.17m-18.09,6.39a2.42,2.42,0,1,0,2.63,2.42,2.44,2.44,0,0,0-2.63-2.42M114.41,45c0,1.1,1.8,1.59,4.31,1.59,2.84,0,4.49-.55,4.49-1.83,0-1-1.5-1.34-3.33-1.34s-5.47.15-5.47,1.59m10.18-15.52a4.68,4.68,0,0,1-1.22-.18v.12a4.43,4.43,0,0,1,1.9,3.54c0,3.06-2.93,5-6.57,5-1.68,0-3.12.52-3.12,1.35,0,.64.55.92,1.83.92s2.75-.24,4.43-.24c3.33,0,5.53,1.35,5.53,4.34,0,3.61-4,5-8.59,5-4.22,0-8.07-1.19-8.07-3.91,0-1.65,1.68-2.63,3.24-2.9v-.09a2.69,2.69,0,0,1-2.2-2.44c0-1.74,1.77-2.69,3.58-3.06v-.09a4.51,4.51,0,0,1-3.09-4.4c0-3,2.66-5.1,6.29-5.1,1.38,0,2.17.27,3.21.27,1.28,0,1.77-.73,1.77-1.89a9,9,0,0,0-.15-1.47l3.94,2.26c-.06,2-1,3-2.72,3m-16.38,3.76c0-3.82-1.86-5.9-4.83-5.9a5,5,0,0,0-4.61,2.9h-.09l.21-2.54H94.58v15.4h4.31V34a2.68,2.68,0,0,1,2.66-3c1.62,0,2.32,1.07,2.32,3.12v9h4.34ZM90.45,23.47a2.51,2.51,0,1,1-2.51-2.41,2.4,2.4,0,0,1,2.51,2.41M85.78,43.12h4.34V27.72H85.78Zm-7.46-4.28c0-1.22-1.71-1.5-3.7-2C72.3,36.19,69.4,35,69.4,32.09s2.78-4.74,6.08-4.74c3.06,0,5.87,1.47,7.06,3.51l-3.7,2.08a3.22,3.22,0,0,0-3.21-2.44c-1.1,0-2,.49-2,1.38,0,1.16,2,1.28,4.31,2s4.61,1.86,4.61,4.68c0,3.09-2.87,4.92-6.2,4.92-3.61,0-6.45-1.53-7.7-4l3.76-2.11a3.88,3.88,0,0,0,3.88,2.93c1.19,0,2-.52,2-1.5M53.08,33.71H47c.34-2.11,1.62-3.24,3.21-3.24a3,3,0,0,1,2.87,3.24m4,.76c0-4.19-2.75-7.12-6.88-7.12s-7.36,3.06-7.36,8.07S46,43.49,50.3,43.49a7.38,7.38,0,0,0,6.6-3.67l-3.64-2a2.9,2.9,0,0,1-3,2.54c-1.8,0-3.21-1.22-3.39-3.73h10a9.56,9.56,0,0,0,.21-2.11m-22.25-.12H26.4v8.77H21.91V22H26.4v8.37h8.43V22h4.49V43.12H34.83ZM64.63,21H60.29V38.88a4.93,4.93,0,0,0,1,3.47,4.3,4.3,0,0,0,3.26,1.08,7.59,7.59,0,0,0,1.56-.17,4,4,0,0,0,1.28-.47l.37-2.9a6.83,6.83,0,0,1-.9.26,4.65,4.65,0,0,1-.9.08,1.08,1.08,0,0,1-1-.43,2.66,2.66,0,0,1-.32-1.53Z"/>
        </g>
    </g>
</svg>
